<svg version="1.1" viewBox="0.0 0.0 1031.0 316.0" fill="none" stroke="none" stroke-linecap="square" stroke-miterlimit="10" width="1031" height="316" xmlns:xlink="http://www.w3.org/1999/xlink" xmlns="http://www.w3.org/2000/svg"><path fill="#ffffff" d="M0 0L1031.0 0L1031.0 316.0L0 316.0L0 0Z" fill-rule="nonzero"/><path stroke="#333333" stroke-width="1.0" stroke-linecap="butt" d="M88.5 248.5L1015.5 248.5" fill-rule="nonzero"/><path stroke="#cccccc" stroke-width="1.0" stroke-linecap="butt" d="M88.5 208.5L1015.5 208.5" fill-rule="nonzero"/><path stroke="#cccccc" stroke-width="1.0" stroke-linecap="butt" d="M88.5 167.5L1015.5 167.5" fill-rule="nonzero"/><path stroke="#cccccc" stroke-width="1.0" stroke-linecap="butt" d="M88.5 127.5L1015.5 127.5" fill-rule="nonzero"/><path stroke="#cccccc" stroke-width="1.0" stroke-linecap="butt" d="M88.5 87.5L1015.5 87.5" fill-rule="nonzero"/><path stroke="#cccccc" stroke-width="1.0" stroke-linecap="butt" d="M88.5 47.5L1015.5 47.5" fill-rule="nonzero"/><clipPath id="id_0"><path d="M88.8 47.333332L1015.2 47.333332L1015.2 248.2L88.8 248.2L88.8 47.333332Z" clip-rule="nonzero"/></clipPath><path stroke="#000000" stroke-width="2.0" stroke-linecap="butt" stroke-opacity="0.0" clip-path="url(#id_0)" d="M120.0 248.0L110.0 248.0L110.0 123.0C110.0 121.89543 110.89543 121.0 112.0 121.0L118.0 121.0C119.10457 121.0 120.0 121.89543 120.0 123.0Z" fill-rule="nonzero"/><path fill="#4285f4" clip-path="url(#id_0)" d="M120.0 248.0L110.0 248.0L110.0 123.0C110.0 121.89543 110.89543 121.0 112.0 121.0L118.0 121.0C119.10457 121.0 120.0 121.89543 120.0 123.0Z" fill-rule="nonzero"/><path stroke="#000000" stroke-width="2.0" stroke-linecap="butt" stroke-opacity="0.0" clip-path="url(#id_0)" d="M177.0 248.0L167.0 248.0L167.0 104.0C167.0 102.89543 167.89543 102.0 169.0 102.0L175.0 102.0C176.10457 102.0 177.0 102.89543 177.0 104.0Z" fill-rule="nonzero"/><path fill="#4285f4" clip-path="url(#id_0)" d="M177.0 248.0L167.0 248.0L167.0 104.0C167.0 102.89543 167.89543 102.0 169.0 102.0L175.0 102.0C176.10457 102.0 177.0 102.89543 177.0 104.0Z" fill-rule="nonzero"/><path stroke="#000000" stroke-width="2.0" stroke-linecap="butt" stroke-opacity="0.0" clip-path="url(#id_0)" d="M233.0 248.0L223.0 248.0L223.0 107.0C223.0 105.89543 223.89543 105.0 225.0 105.0L231.0 105.0C232.10457 105.0 233.0 105.89543 233.0 107.0Z" fill-rule="nonzero"/><path fill="#4285f4" clip-path="url(#id_0)" d="M233.0 248.0L223.0 248.0L223.0 107.0C223.0 105.89543 223.89543 105.0 225.0 105.0L231.0 105.0C232.10457 105.0 233.0 105.89543 233.0 107.0Z" fill-rule="nonzero"/><path stroke="#000000" stroke-width="2.0" stroke-linecap="butt" stroke-opacity="0.0" clip-path="url(#id_0)" d="M290.0 248.0L280.0 248.0L280.0 104.0C280.0 102.89543 280.89542 102.0 282.0 102.0L288.0 102.0C289.10458 102.0 290.0 102.89543 290.0 104.0Z" fill-rule="nonzero"/><path fill="#4285f4" clip-path="url(#id_0)" d="M290.0 248.0L280.0 248.0L280.0 104.0C280.0 102.89543 280.89542 102.0 282.0 102.0L288.0 102.0C289.10458 102.0 290.0 102.89543 290.0 104.0Z" fill-rule="nonzero"/><path stroke="#000000" stroke-width="2.0" stroke-linecap="butt" stroke-opacity="0.0" clip-path="url(#id_0)" d="M347.0 248.0L337.0 248.0L337.0 112.0C337.0 110.89543 337.89542 110.0 339.0 110.0L345.0 110.0C346.10458 110.0 347.0 110.89543 347.0 112.0Z" fill-rule="nonzero"/><path fill="#4285f4" clip-path="url(#id_0)" d="M347.0 248.0L337.0 248.0L337.0 112.0C337.0 110.89543 337.89542 110.0 339.0 110.0L345.0 110.0C346.10458 110.0 347.0 110.89543 347.0 112.0Z" fill-rule="nonzero"/><path stroke="#000000" stroke-width="2.0" stroke-linecap="butt" stroke-opacity="0.0" clip-path="url(#id_0)" d="M403.0 248.0L393.0 248.0L393.0 101.0C393.0 99.89543 393.89542 99.0 395.0 99.0L401.0 99.0C402.10458 99.0 403.0 99.89543 403.0 101.0Z" fill-rule="nonzero"/><path fill="#4285f4" clip-path="url(#id_0)" d="M403.0 248.0L393.0 248.0L393.0 101.0C393.0 99.89543 393.89542 99.0 395.0 99.0L401.0 99.0C402.10458 99.0 403.0 99.89543 403.0 101.0Z" fill-rule="nonzero"/><path stroke="#000000" stroke-width="2.0" stroke-linecap="butt" stroke-opacity="0.0" clip-path="url(#id_0)" d="M460.0 248.0L450.0 248.0L450.0 99.0C450.0 97.89543 450.89542 97.0 452.0 97.0L458.0 97.0C459.10458 97.0 460.0 97.89543 460.0 99.0Z" fill-rule="nonzero"/><path fill="#4285f4" clip-path="url(#id_0)" d="M460.0 248.0L450.0 248.0L450.0 99.0C450.0 97.89543 450.89542 97.0 452.0 97.0L458.0 97.0C459.10458 97.0 460.0 97.89543 460.0 99.0Z" fill-rule="nonzero"/><path stroke="#000000" stroke-width="2.0" stroke-linecap="butt" stroke-opacity="0.0" clip-path="url(#id_0)" d="M517.0 248.0L507.0 248.0L507.0 99.0C507.0 97.89543 507.89542 97.0 509.0 97.0L515.0 97.0C516.10455 97.0 517.0 97.89543 517.0 99.0Z" fill-rule="nonzero"/><path fill="#4285f4" clip-path="url(#id_0)" d="M517.0 248.0L507.0 248.0L507.0 99.0C507.0 97.89543 507.89542 97.0 509.0 97.0L515.0 97.0C516.10455 97.0 517.0 97.89543 517.0 99.0Z" fill-rule="nonzero"/><path stroke="#000000" stroke-width="2.0" stroke-linecap="butt" stroke-opacity="0.0" clip-path="url(#id_0)" d="M573.0 248.0L563.0 248.0L563.0 99.0C563.0 97.89543 563.89545 97.0 565.0 97.0L571.0 97.0C572.10455 97.0 573.0 97.89543 573.0 99.0Z" fill-rule="nonzero"/><path fill="#4285f4" clip-path="url(#id_0)" d="M573.0 248.0L563.0 248.0L563.0 99.0C563.0 97.89543 563.89545 97.0 565.0 97.0L571.0 97.0C572.10455 97.0 573.0 97.89543 573.0 99.0Z" fill-rule="nonzero"/><path stroke="#000000" stroke-width="2.0" stroke-linecap="butt" stroke-opacity="0.0" clip-path="url(#id_0)" d="M630.0 248.0L620.0 248.0L620.0 98.0C620.0 96.89543 620.89545 96.0 622.0 96.0L628.0 96.0C629.10455 96.0 630.0 96.89543 630.0 98.0Z" fill-rule="nonzero"/><path fill="#4285f4" clip-path="url(#id_0)" d="M630.0 248.0L620.0 248.0L620.0 98.0C620.0 96.89543 620.89545 96.0 622.0 96.0L628.0 96.0C629.10455 96.0 630.0 96.89543 630.0 98.0Z" fill-rule="nonzero"/><path stroke="#000000" stroke-width="2.0" stroke-linecap="butt" stroke-opacity="0.0" clip-path="url(#id_0)" d="M687.0 248.0L677.0 248.0L677.0 98.0C677.0 96.89543 677.89545 96.0 679.0 96.0L685.0 96.0C686.10455 96.0 687.0 96.89543 687.0 98.0Z" fill-rule="nonzero"/><path fill="#4285f4" clip-path="url(#id_0)" d="M687.0 248.0L677.0 248.0L677.0 98.0C677.0 96.89543 677.89545 96.0 679.0 96.0L685.0 96.0C686.10455 96.0 687.0 96.89543 687.0 98.0Z" fill-rule="nonzero"/><path stroke="#000000" stroke-width="2.0" stroke-linecap="butt" stroke-opacity="0.0" clip-path="url(#id_0)" d="M743.0 248.0L733.0 248.0L733.0 99.0C733.0 97.89543 733.89545 97.0 735.0 97.0L741.0 97.0C742.10455 97.0 743.0 97.89543 743.0 99.0Z" fill-rule="nonzero"/><path fill="#4285f4" clip-path="url(#id_0)" d="M743.0 248.0L733.0 248.0L733.0 99.0C733.0 97.89543 733.89545 97.0 735.0 97.0L741.0 97.0C742.10455 97.0 743.0 97.89543 743.0 99.0Z" fill-rule="nonzero"/><path stroke="#000000" stroke-width="2.0" stroke-linecap="butt" stroke-opacity="0.0" clip-path="url(#id_0)" d="M800.0 248.0L790.0 248.0L790.0 98.0C790.0 96.89543 790.89545 96.0 792.0 96.0L798.0 96.0C799.10455 96.0 800.0 96.89543 800.0 98.0Z" fill-rule="nonzero"/><path fill="#4285f4" clip-path="url(#id_0)" d="M800.0 248.0L790.0 248.0L790.0 98.0C790.0 96.89543 790.89545 96.0 792.0 96.0L798.0 96.0C799.10455 96.0 800.0 96.89543 800.0 98.0Z" fill-rule="nonzero"/><path stroke="#000000" stroke-width="2.0" stroke-linecap="butt" stroke-opacity="0.0" clip-path="url(#id_0)" d="M857.0 248.0L847.0 248.0L847.0 97.0C847.0 95.89543 847.89545 95.0 849.0 95.0L855.0 95.0C856.10455 95.0 857.0 95.89543 857.0 97.0Z" fill-rule="nonzero"/><path fill="#4285f4" clip-path="url(#id_0)" d="M857.0 248.0L847.0 248.0L847.0 97.0C847.0 95.89543 847.89545 95.0 849.0 95.0L855.0 95.0C856.10455 95.0 857.0 95.89543 857.0 97.0Z" fill-rule="nonzero"/><path stroke="#000000" stroke-width="2.0" stroke-linecap="butt" stroke-opacity="0.0" clip-path="url(#id_0)" d="M913.0 248.0L903.0 248.0L903.0 97.0C903.0 95.89543 903.89545 95.0 905.0 95.0L911.0 95.0C912.10455 95.0 913.0 95.89543 913.0 97.0Z" fill-rule="nonzero"/><path fill="#4285f4" clip-path="url(#id_0)" d="M913.0 248.0L903.0 248.0L903.0 97.0C903.0 95.89543 903.89545 95.0 905.0 95.0L911.0 95.0C912.10455 95.0 913.0 95.89543 913.0 97.0Z" fill-rule="nonzero"/><path stroke="#000000" stroke-width="2.0" stroke-linecap="butt" stroke-opacity="0.0" clip-path="url(#id_0)" d="M970.0 248.0L960.0 248.0L960.0 96.0C960.0 94.89543 960.89545 94.0 962.0 94.0L968.0 94.0C969.10455 94.0 970.0 94.89543 970.0 96.0Z" fill-rule="nonzero"/><path fill="#4285f4" clip-path="url(#id_0)" d="M970.0 248.0L960.0 248.0L960.0 96.0C960.0 94.89543 960.89545 94.0 962.0 94.0L968.0 94.0C969.10455 94.0 970.0 94.89543 970.0 96.0Z" fill-rule="nonzero"/><path stroke="#000000" stroke-width="2.0" stroke-linecap="butt" stroke-opacity="0.0" clip-path="url(#id_0)" d="M132.0 248.0L122.0 248.0L122.0 80.0C122.0 78.89543 122.89543 78.0 124.0 78.0L130.0 78.0C131.10457 78.0 132.0 78.89543 132.0 80.0Z" fill-rule="nonzero"/><path fill="#ea4335" clip-path="url(#id_0)" d="M132.0 248.0L122.0 248.0L122.0 80.0C122.0 78.89543 122.89543 78.0 124.0 78.0L130.0 78.0C131.10457 78.0 132.0 78.89543 132.0 80.0Z" fill-rule="nonzero"/><path stroke="#000000" stroke-width="2.0" stroke-linecap="butt" stroke-opacity="0.0" clip-path="url(#id_0)" d="M189.0 248.0L179.0 248.0L179.0 71.0C179.0 69.89543 179.89543 69.0 181.0 69.0L187.0 69.0C188.10457 69.0 189.0 69.89543 189.0 71.0Z" fill-rule="nonzero"/><path fill="#ea4335" clip-path="url(#id_0)" d="M189.0 248.0L179.0 248.0L179.0 71.0C179.0 69.89543 179.89543 69.0 181.0 69.0L187.0 69.0C188.10457 69.0 189.0 69.89543 189.0 71.0Z" fill-rule="nonzero"/><path stroke="#000000" stroke-width="2.0" stroke-linecap="butt" stroke-opacity="0.0" clip-path="url(#id_0)" d="M245.0 248.0L235.0 248.0L235.0 77.0C235.0 75.89543 235.89543 75.0 237.0 75.0L243.0 75.0C244.10457 75.0 245.0 75.89543 245.0 77.0Z" fill-rule="nonzero"/><path fill="#ea4335" clip-path="url(#id_0)" d="M245.0 248.0L235.0 248.0L235.0 77.0C235.0 75.89543 235.89543 75.0 237.0 75.0L243.0 75.0C244.10457 75.0 245.0 75.89543 245.0 77.0Z" fill-rule="nonzero"/><path stroke="#000000" stroke-width="2.0" stroke-linecap="butt" stroke-opacity="0.0" clip-path="url(#id_0)" d="M302.0 248.0L292.0 248.0L292.0 72.0C292.0 70.89543 292.89542 70.0 294.0 70.0L300.0 70.0C301.10458 70.0 302.0 70.89543 302.0 72.0Z" fill-rule="nonzero"/><path fill="#ea4335" clip-path="url(#id_0)" d="M302.0 248.0L292.0 248.0L292.0 72.0C292.0 70.89543 292.89542 70.0 294.0 70.0L300.0 70.0C301.10458 70.0 302.0 70.89543 302.0 72.0Z" fill-rule="nonzero"/><path stroke="#000000" stroke-width="2.0" stroke-linecap="butt" stroke-opacity="0.0" clip-path="url(#id_0)" d="M359.0 248.0L349.0 248.0L349.0 77.0C349.0 75.89543 349.89542 75.0 351.0 75.0L357.0 75.0C358.10458 75.0 359.0 75.89543 359.0 77.0Z" fill-rule="nonzero"/><path fill="#ea4335" clip-path="url(#id_0)" d="M359.0 248.0L349.0 248.0L349.0 77.0C349.0 75.89543 349.89542 75.0 351.0 75.0L357.0 75.0C358.10458 75.0 359.0 75.89543 359.0 77.0Z" fill-rule="nonzero"/><path stroke="#000000" stroke-width="2.0" stroke-linecap="butt" stroke-opacity="0.0" clip-path="url(#id_0)" d="M415.0 248.0L405.0 248.0L405.0 68.0C405.0 66.89543 405.89542 66.0 407.0 66.0L413.0 66.0C414.10458 66.0 415.0 66.89543 415.0 68.0Z" fill-rule="nonzero"/><path fill="#ea4335" clip-path="url(#id_0)" d="M415.0 248.0L405.0 248.0L405.0 68.0C405.0 66.89543 405.89542 66.0 407.0 66.0L413.0 66.0C414.10458 66.0 415.0 66.89543 415.0 68.0Z" fill-rule="nonzero"/><path stroke="#000000" stroke-width="2.0" stroke-linecap="butt" stroke-opacity="0.0" clip-path="url(#id_0)" d="M472.0 248.0L462.0 248.0L462.0 65.0C462.0 63.89543 462.89542 63.0 464.0 63.0L470.0 63.0C471.10458 63.0 472.0 63.89543 472.0 65.0Z" fill-rule="nonzero"/><path fill="#ea4335" clip-path="url(#id_0)" d="M472.0 248.0L462.0 248.0L462.0 65.0C462.0 63.89543 462.89542 63.0 464.0 63.0L470.0 63.0C471.10458 63.0 472.0 63.89543 472.0 65.0Z" fill-rule="nonzero"/><path stroke="#000000" stroke-width="2.0" stroke-linecap="butt" stroke-opacity="0.0" clip-path="url(#id_0)" d="M529.0 248.0L519.0 248.0L519.0 66.0C519.0 64.89543 519.89545 64.0 521.0 64.0L527.0 64.0C528.10455 64.0 529.0 64.89543 529.0 66.0Z" fill-rule="nonzero"/><path fill="#ea4335" clip-path="url(#id_0)" d="M529.0 248.0L519.0 248.0L519.0 66.0C519.0 64.89543 519.89545 64.0 521.0 64.0L527.0 64.0C528.10455 64.0 529.0 64.89543 529.0 66.0Z" fill-rule="nonzero"/><path stroke="#000000" stroke-width="2.0" stroke-linecap="butt" stroke-opacity="0.0" clip-path="url(#id_0)" d="M585.0 248.0L575.0 248.0L575.0 64.0C575.0 62.89543 575.89545 62.0 577.0 62.0L583.0 62.0C584.10455 62.0 585.0 62.89543 585.0 64.0Z" fill-rule="nonzero"/><path fill="#ea4335" clip-path="url(#id_0)" d="M585.0 248.0L575.0 248.0L575.0 64.0C575.0 62.89543 575.89545 62.0 577.0 62.0L583.0 62.0C584.10455 62.0 585.0 62.89543 585.0 64.0Z" fill-rule="nonzero"/><path stroke="#000000" stroke-width="2.0" stroke-linecap="butt" stroke-opacity="0.0" clip-path="url(#id_0)" d="M642.0 248.0L632.0 248.0L632.0 66.0C632.0 64.89543 632.89545 64.0 634.0 64.0L640.0 64.0C641.10455 64.0 642.0 64.89543 642.0 66.0Z" fill-rule="nonzero"/><path fill="#ea4335" clip-path="url(#id_0)" d="M642.0 248.0L632.0 248.0L632.0 66.0C632.0 64.89543 632.89545 64.0 634.0 64.0L640.0 64.0C641.10455 64.0 642.0 64.89543 642.0 66.0Z" fill-rule="nonzero"/><path stroke="#000000" stroke-width="2.0" stroke-linecap="butt" stroke-opacity="0.0" clip-path="url(#id_0)" d="M699.0 248.0L689.0 248.0L689.0 65.0C689.0 63.89543 689.89545 63.0 691.0 63.0L697.0 63.0C698.10455 63.0 699.0 63.89543 699.0 65.0Z" fill-rule="nonzero"/><path fill="#ea4335" clip-path="url(#id_0)" d="M699.0 248.0L689.0 248.0L689.0 65.0C689.0 63.89543 689.89545 63.0 691.0 63.0L697.0 63.0C698.10455 63.0 699.0 63.89543 699.0 65.0Z" fill-rule="nonzero"/><path stroke="#000000" stroke-width="2.0" stroke-linecap="butt" stroke-opacity="0.0" clip-path="url(#id_0)" d="M755.0 248.0L745.0 248.0L745.0 64.0C745.0 62.89543 745.89545 62.0 747.0 62.0L753.0 62.0C754.10455 62.0 755.0 62.89543 755.0 64.0Z" fill-rule="nonzero"/><path fill="#ea4335" clip-path="url(#id_0)" d="M755.0 248.0L745.0 248.0L745.0 64.0C745.0 62.89543 745.89545 62.0 747.0 62.0L753.0 62.0C754.10455 62.0 755.0 62.89543 755.0 64.0Z" fill-rule="nonzero"/><path stroke="#000000" stroke-width="2.0" stroke-linecap="butt" stroke-opacity="0.0" clip-path="url(#id_0)" d="M812.0 248.0L802.0 248.0L802.0 64.0C802.0 62.89543 802.89545 62.0 804.0 62.0L810.0 62.0C811.10455 62.0 812.0 62.89543 812.0 64.0Z" fill-rule="nonzero"/><path fill="#ea4335" clip-path="url(#id_0)" d="M812.0 248.0L802.0 248.0L802.0 64.0C802.0 62.89543 802.89545 62.0 804.0 62.0L810.0 62.0C811.10455 62.0 812.0 62.89543 812.0 64.0Z" fill-rule="nonzero"/><path stroke="#000000" stroke-width="2.0" stroke-linecap="butt" stroke-opacity="0.0" clip-path="url(#id_0)" d="M869.0 248.0L859.0 248.0L859.0 64.0C859.0 62.89543 859.89545 62.0 861.0 62.0L867.0 62.0C868.10455 62.0 869.0 62.89543 869.0 64.0Z" fill-rule="nonzero"/><path fill="#ea4335" clip-path="url(#id_0)" d="M869.0 248.0L859.0 248.0L859.0 64.0C859.0 62.89543 859.89545 62.0 861.0 62.0L867.0 62.0C868.10455 62.0 869.0 62.89543 869.0 64.0Z" fill-rule="nonzero"/><path stroke="#000000" stroke-width="2.0" stroke-linecap="butt" stroke-opacity="0.0" clip-path="url(#id_0)" d="M925.0 248.0L915.0 248.0L915.0 64.0C915.0 62.89543 915.89545 62.0 917.0 62.0L923.0 62.0C924.10455 62.0 925.0 62.89543 925.0 64.0Z" fill-rule="nonzero"/><path fill="#ea4335" clip-path="url(#id_0)" d="M925.0 248.0L915.0 248.0L915.0 64.0C915.0 62.89543 915.89545 62.0 917.0 62.0L923.0 62.0C924.10455 62.0 925.0 62.89543 925.0 64.0Z" fill-rule="nonzero"/><path stroke="#000000" stroke-width="2.0" stroke-linecap="butt" stroke-opacity="0.0" clip-path="url(#id_0)" d="M982.0 248.0L972.0 248.0L972.0 64.0C972.0 62.89543 972.89545 62.0 974.0 62.0L980.0 62.0C981.10455 62.0 982.0 62.89543 982.0 64.0Z" fill-rule="nonzero"/><path fill="#ea4335" clip-path="url(#id_0)" d="M982.0 248.0L972.0 248.0L972.0 64.0C972.0 62.89543 972.89545 62.0 974.0 62.0L980.0 62.0C981.10455 62.0 982.0 62.89543 982.0 64.0Z" fill-rule="nonzero"/><path stroke="#000000" stroke-width="2.0" stroke-linecap="butt" stroke-opacity="0.0" clip-path="url(#id_0)" d="M144.0 248.0L134.0 248.0L134.0 72.0C134.0 70.89543 134.89543 70.0 136.0 70.0L142.0 70.0C143.10457 70.0 144.0 70.89543 144.0 72.0Z" fill-rule="nonzero"/><path fill="#fbbc04" clip-path="url(#id_0)" d="M144.0 248.0L134.0 248.0L134.0 72.0C134.0 70.89543 134.89543 70.0 136.0 70.0L142.0 70.0C143.10457 70.0 144.0 70.89543 144.0 72.0Z" fill-rule="nonzero"/><path stroke="#000000" stroke-width="2.0" stroke-linecap="butt" stroke-opacity="0.0" clip-path="url(#id_0)" d="M201.0 248.0L191.0 248.0L191.0 78.0C191.0 76.89543 191.89543 76.0 193.0 76.0L199.0 76.0C200.10457 76.0 201.0 76.89543 201.0 78.0Z" fill-rule="nonzero"/><path fill="#fbbc04" clip-path="url(#id_0)" d="M201.0 248.0L191.0 248.0L191.0 78.0C191.0 76.89543 191.89543 76.0 193.0 76.0L199.0 76.0C200.10457 76.0 201.0 76.89543 201.0 78.0Z" fill-rule="nonzero"/><path stroke="#000000" stroke-width="2.0" stroke-linecap="butt" stroke-opacity="0.0" clip-path="url(#id_0)" d="M257.0 248.0L247.0 248.0L247.0 84.0C247.0 82.89543 247.89543 82.0 249.0 82.0L255.0 82.0C256.10458 82.0 257.0 82.89543 257.0 84.0Z" fill-rule="nonzero"/><path fill="#fbbc04" clip-path="url(#id_0)" d="M257.0 248.0L247.0 248.0L247.0 84.0C247.0 82.89543 247.89543 82.0 249.0 82.0L255.0 82.0C256.10458 82.0 257.0 82.89543 257.0 84.0Z" fill-rule="nonzero"/><path stroke="#000000" stroke-width="2.0" stroke-linecap="butt" stroke-opacity="0.0" clip-path="url(#id_0)" d="M314.0 248.0L304.0 248.0L304.0 78.0C304.0 76.89543 304.89542 76.0 306.0 76.0L312.0 76.0C313.10458 76.0 314.0 76.89543 314.0 78.0Z" fill-rule="nonzero"/><path fill="#fbbc04" clip-path="url(#id_0)" d="M314.0 248.0L304.0 248.0L304.0 78.0C304.0 76.89543 304.89542 76.0 306.0 76.0L312.0 76.0C313.10458 76.0 314.0 76.89543 314.0 78.0Z" fill-rule="nonzero"/><path stroke="#000000" stroke-width="2.0" stroke-linecap="butt" stroke-opacity="0.0" clip-path="url(#id_0)" d="M371.0 248.0L361.0 248.0L361.0 79.0C361.0 77.89543 361.89542 77.0 363.0 77.0L369.0 77.0C370.10458 77.0 371.0 77.89543 371.0 79.0Z" fill-rule="nonzero"/><path fill="#fbbc04" clip-path="url(#id_0)" d="M371.0 248.0L361.0 248.0L361.0 79.0C361.0 77.89543 361.89542 77.0 363.0 77.0L369.0 77.0C370.10458 77.0 371.0 77.89543 371.0 79.0Z" fill-rule="nonzero"/><path stroke="#000000" stroke-width="2.0" stroke-linecap="butt" stroke-opacity="0.0" clip-path="url(#id_0)" d="M427.0 248.0L417.0 248.0L417.0 70.0C417.0 68.89543 417.89542 68.0 419.0 68.0L425.0 68.0C426.10458 68.0 427.0 68.89543 427.0 70.0Z" fill-rule="nonzero"/><path fill="#fbbc04" clip-path="url(#id_0)" d="M427.0 248.0L417.0 248.0L417.0 70.0C417.0 68.89543 417.89542 68.0 419.0 68.0L425.0 68.0C426.10458 68.0 427.0 68.89543 427.0 70.0Z" fill-rule="nonzero"/><path stroke="#000000" stroke-width="2.0" stroke-linecap="butt" stroke-opacity="0.0" clip-path="url(#id_0)" d="M484.0 248.0L474.0 248.0L474.0 60.0C474.0 58.89543 474.89542 58.0 476.0 58.0L482.0 58.0C483.10458 58.0 484.0 58.89543 484.0 60.0Z" fill-rule="nonzero"/><path fill="#fbbc04" clip-path="url(#id_0)" d="M484.0 248.0L474.0 248.0L474.0 60.0C474.0 58.89543 474.89542 58.0 476.0 58.0L482.0 58.0C483.10458 58.0 484.0 58.89543 484.0 60.0Z" fill-rule="nonzero"/><path stroke="#000000" stroke-width="2.0" stroke-linecap="butt" stroke-opacity="0.0" clip-path="url(#id_0)" d="M541.0 248.0L531.0 248.0L531.0 61.0C531.0 59.89543 531.89545 59.0 533.0 59.0L539.0 59.0C540.10455 59.0 541.0 59.89543 541.0 61.0Z" fill-rule="nonzero"/><path fill="#fbbc04" clip-path="url(#id_0)" d="M541.0 248.0L531.0 248.0L531.0 61.0C531.0 59.89543 531.89545 59.0 533.0 59.0L539.0 59.0C540.10455 59.0 541.0 59.89543 541.0 61.0Z" fill-rule="nonzero"/><path stroke="#000000" stroke-width="2.0" stroke-linecap="butt" stroke-opacity="0.0" clip-path="url(#id_0)" d="M597.0 248.0L587.0 248.0L587.0 59.0C587.0 57.89543 587.89545 57.0 589.0 57.0L595.0 57.0C596.10455 57.0 597.0 57.89543 597.0 59.0Z" fill-rule="nonzero"/><path fill="#fbbc04" clip-path="url(#id_0)" d="M597.0 248.0L587.0 248.0L587.0 59.0C587.0 57.89543 587.89545 57.0 589.0 57.0L595.0 57.0C596.10455 57.0 597.0 57.89543 597.0 59.0Z" fill-rule="nonzero"/><path stroke="#000000" stroke-width="2.0" stroke-linecap="butt" stroke-opacity="0.0" clip-path="url(#id_0)" d="M654.0 248.0L644.0 248.0L644.0 56.0C644.0 54.89543 644.89545 54.0 646.0 54.0L652.0 54.0C653.10455 54.0 654.0 54.89543 654.0 56.0Z" fill-rule="nonzero"/><path fill="#fbbc04" clip-path="url(#id_0)" d="M654.0 248.0L644.0 248.0L644.0 56.0C644.0 54.89543 644.89545 54.0 646.0 54.0L652.0 54.0C653.10455 54.0 654.0 54.89543 654.0 56.0Z" fill-rule="nonzero"/><path stroke="#000000" stroke-width="2.0" stroke-linecap="butt" stroke-opacity="0.0" clip-path="url(#id_0)" d="M711.0 248.0L701.0 248.0L701.0 58.0C701.0 56.89543 701.89545 56.0 703.0 56.0L709.0 56.0C710.10455 56.0 711.0 56.89543 711.0 58.0Z" fill-rule="nonzero"/><path fill="#fbbc04" clip-path="url(#id_0)" d="M711.0 248.0L701.0 248.0L701.0 58.0C701.0 56.89543 701.89545 56.0 703.0 56.0L709.0 56.0C710.10455 56.0 711.0 56.89543 711.0 58.0Z" fill-rule="nonzero"/><path stroke="#000000" stroke-width="2.0" stroke-linecap="butt" stroke-opacity="0.0" clip-path="url(#id_0)" d="M767.0 248.0L757.0 248.0L757.0 58.0C757.0 56.89543 757.89545 56.0 759.0 56.0L765.0 56.0C766.10455 56.0 767.0 56.89543 767.0 58.0Z" fill-rule="nonzero"/><path fill="#fbbc04" clip-path="url(#id_0)" d="M767.0 248.0L757.0 248.0L757.0 58.0C757.0 56.89543 757.89545 56.0 759.0 56.0L765.0 56.0C766.10455 56.0 767.0 56.89543 767.0 58.0Z" fill-rule="nonzero"/><path stroke="#000000" stroke-width="2.0" stroke-linecap="butt" stroke-opacity="0.0" clip-path="url(#id_0)" d="M824.0 248.0L814.0 248.0L814.0 53.0C814.0 51.89543 814.89545 51.0 816.0 51.0L822.0 51.0C823.10455 51.0 824.0 51.89543 824.0 53.0Z" fill-rule="nonzero"/><path fill="#fbbc04" clip-path="url(#id_0)" d="M824.0 248.0L814.0 248.0L814.0 53.0C814.0 51.89543 814.89545 51.0 816.0 51.0L822.0 51.0C823.10455 51.0 824.0 51.89543 824.0 53.0Z" fill-rule="nonzero"/><path stroke="#000000" stroke-width="2.0" stroke-linecap="butt" stroke-opacity="0.0" clip-path="url(#id_0)" d="M881.0 248.0L871.0 248.0L871.0 58.0C871.0 56.89543 871.89545 56.0 873.0 56.0L879.0 56.0C880.10455 56.0 881.0 56.89543 881.0 58.0Z" fill-rule="nonzero"/><path fill="#fbbc04" clip-path="url(#id_0)" d="M881.0 248.0L871.0 248.0L871.0 58.0C871.0 56.89543 871.89545 56.0 873.0 56.0L879.0 56.0C880.10455 56.0 881.0 56.89543 881.0 58.0Z" fill-rule="nonzero"/><path stroke="#000000" stroke-width="2.0" stroke-linecap="butt" stroke-opacity="0.0" clip-path="url(#id_0)" d="M937.0 248.0L927.0 248.0L927.0 51.0C927.0 49.89543 927.89545 49.0 929.0 49.0L935.0 49.0C936.10455 49.0 937.0 49.89543 937.0 51.0Z" fill-rule="nonzero"/><path fill="#fbbc04" clip-path="url(#id_0)" d="M937.0 248.0L927.0 248.0L927.0 51.0C927.0 49.89543 927.89545 49.0 929.0 49.0L935.0 49.0C936.10455 49.0 937.0 49.89543 937.0 51.0Z" fill-rule="nonzero"/><path stroke="#000000" stroke-width="2.0" stroke-linecap="butt" stroke-opacity="0.0" clip-path="url(#id_0)" d="M994.0 248.0L984.0 248.0L984.0 54.0C984.0 52.89543 984.89545 52.0 986.0 52.0L992.0 52.0C993.10455 52.0 994.0 52.89543 994.0 54.0Z" fill-rule="nonzero"/><path fill="#fbbc04" clip-path="url(#id_0)" d="M994.0 248.0L984.0 248.0L984.0 54.0C984.0 52.89543 984.89545 52.0 986.0 52.0L992.0 52.0C993.10455 52.0 994.0 52.89543 994.0 54.0Z" fill-rule="nonzero"/><path fill="#000000" d="M532.1094 297.2L532.1094 289.6219L529.28125 289.6219L529.28125 288.60626L536.09375 288.60626L536.09375 289.6219L533.25 289.6219L533.25 297.2L532.1094 297.2ZM536.7969 297.2L536.7969 288.60626L537.84375 288.60626L537.84375 291.6844Q538.5781 290.84064 539.7031 290.84064Q540.40625 290.84064 540.90625 291.1219Q541.4219 291.3875 541.6406 291.8719Q541.8594 292.34064 541.8594 293.2625L541.8594 297.2L540.8125 297.2L540.8125 293.2625Q540.8125 292.46564 540.46875 292.10626Q540.125 291.7469 539.5 291.7469Q539.03125 291.7469 538.6094 291.9969Q538.2031 292.23126 538.0156 292.65314Q537.84375 293.0594 537.84375 293.79376L537.84375 297.2L536.7969 297.2ZM543.78125 297.2L543.78125 290.98126L544.7344 290.98126L544.7344 291.91876Q545.09375 291.2625 545.3906 291.0594Q545.7031 290.84064 546.0781 290.84064Q546.6094 290.84064 547.15625 291.16876L546.7969 292.15314Q546.40625 291.91876 546.03125 291.91876Q545.6719 291.91876 545.3906 292.1375Q545.125 292.34064 545.0156 292.71564Q544.8281 293.27814 544.8281 293.9344L544.8281 297.2L543.78125 297.2ZM552.0469 295.2L553.1406 295.325Q552.8906 296.27814 552.1875 296.8094Q551.4844 297.34064 550.40625 297.34064Q549.0469 297.34064 548.2344 296.4969Q547.4375 295.65314 547.4375 294.1375Q547.4375 292.575 548.25 291.71564Q549.0625 290.84064 550.34375 290.84064Q551.59375 290.84064 552.375 291.6844Q553.1719 292.52814 553.1719 294.075Q553.1719 294.16876 553.1719 294.35626L548.53125 294.35626Q548.59375 295.3875 549.1094 295.9344Q549.625 296.46564 550.40625 296.46564Q550.9844 296.46564 551.3906 296.16876Q551.8125 295.85626 552.0469 295.2ZM548.59375 293.4969L552.0625 293.4969Q552.0 292.7 551.6719 292.3094Q551.15625 291.7 550.3594 291.7Q549.625 291.7 549.125 292.1844Q548.6406 292.66876 548.59375 293.4969ZM558.8594 296.4344Q558.2656 296.9344 557.71875 297.1375Q557.1875 297.34064 556.5625 297.34064Q555.53125 297.34064 554.9844 296.84064Q554.4375 296.34064 554.4375 295.5594Q554.4375 295.10626 554.6406 294.73126Q554.84375 294.34064 555.1875 294.1219Q555.53125 293.8875 555.9531 293.77814Q556.25 293.6844 556.8906 293.60626Q558.15625 293.46564 558.7656 293.2469Q558.7656 293.02814 558.7656 292.98126Q558.7656 292.325 558.46875 292.0594Q558.0625 291.71564 557.2656 291.71564Q556.53125 291.71564 556.1719 291.98126Q555.8125 292.23126 555.6406 292.8875L554.6094 292.7469Q554.75 292.09064 555.0781 291.6844Q555.40625 291.27814 556.0156 291.0594Q556.625 290.84064 557.4219 290.84064Q558.21875 290.84064 558.71875 291.02814Q559.21875 291.21564 559.4531 291.4969Q559.6875 291.77814 559.78125 292.21564Q559.8281 292.48126 559.8281 293.1844L559.8281 294.59064Q559.8281 296.0594 559.8906 296.45Q559.96875 296.84064 560.1719 297.2L559.0625 297.2Q558.90625 296.8719 558.8594 296.4344ZM558.7656 294.075Q558.1875 294.3094 557.0469 294.48126Q556.3906 294.575 556.125 294.7Q555.8594 294.8094 555.7031 295.02814Q555.5625 295.2469 555.5625 295.52814Q555.5625 295.95 555.875 296.23126Q556.2031 296.5125 556.8125 296.5125Q557.4219 296.5125 557.8906 296.2469Q558.375 295.98126 558.59375 295.5125Q558.7656 295.15314 558.7656 294.46564L558.7656 294.075ZM565.8281 297.2L565.8281 296.41876Q565.2344 297.34064 564.09375 297.34064Q563.34375 297.34064 562.71875 296.9344Q562.09375 296.5125 561.75 295.77814Q561.40625 295.04376 561.40625 294.09064Q561.40625 293.16876 561.71875 292.40314Q562.03125 291.6375 562.65625 291.2469Q563.28125 290.84064 564.0469 290.84064Q564.6094 290.84064 565.0469 291.075Q565.4844 291.3094 565.7656 291.6844L565.7656 288.60626L566.8125 288.60626L566.8125 297.2L565.8281 297.2ZM562.5 294.09064Q562.5 295.29376 563.0 295.8875Q563.5 296.46564 564.1875 296.46564Q564.875 296.46564 565.3594 295.90314Q565.84375 295.34064 565.84375 294.1844Q565.84375 292.90314 565.34375 292.3094Q564.8594 291.71564 564.1406 291.71564Q563.4375 291.71564 562.96875 292.29376Q562.5 292.85626 562.5 294.09064ZM568.375 295.34064L569.40625 295.1844Q569.5 295.8094 569.8906 296.1375Q570.2969 296.46564 571.03125 296.46564Q571.75 296.46564 572.09375 296.1844Q572.4531 295.8875 572.4531 295.48126Q572.4531 295.1219 572.1406 294.91876Q571.9219 294.77814 571.0625 294.5594Q569.90625 294.2625 569.4531 294.0594Q569.0156 293.84064 568.78125 293.46564Q568.5469 293.09064 568.5469 292.6219Q568.5469 292.21564 568.7344 291.85626Q568.9219 291.4969 569.25 291.2625Q569.5 291.09064 569.9219 290.96564Q570.34375 290.84064 570.84375 290.84064Q571.5625 290.84064 572.1094 291.0594Q572.6719 291.2625 572.9375 291.6219Q573.2031 291.98126 573.2969 292.575L572.2656 292.71564Q572.2031 292.2469 571.8594 291.98126Q571.53125 291.7 570.90625 291.7Q570.1875 291.7 569.875 291.95Q569.5625 292.1844 569.5625 292.5125Q569.5625 292.71564 569.6875 292.8719Q569.8281 293.04376 570.09375 293.15314Q570.25 293.21564 571.03125 293.41876Q572.15625 293.73126 572.59375 293.91876Q573.03125 294.10626 573.28125 294.46564Q573.53125 294.825 573.53125 295.3719Q573.53125 295.90314 573.21875 296.3719Q572.9219 296.825 572.34375 297.09064Q571.7656 297.34064 571.03125 297.34064Q569.8125 297.34064 569.1719 296.84064Q568.5469 296.325 568.375 295.34064Z" fill-rule="nonzero"/><path fill="#000000" d="M26.800013 212.65729L19.221888 212.65729L19.221888 215.48541L18.206263 215.48541L18.206263 208.67291L19.221888 208.67291L19.221888 211.51666L26.800013 211.51666L26.800013 212.65729ZM26.800013 207.98541L20.581263 207.98541L20.581263 207.03229L21.518763 207.03229Q20.862513 206.67291 20.659388 206.37604Q20.440638 206.06354 20.440638 205.68854Q20.440638 205.15729 20.768763 204.61041L21.753138 204.96979Q21.518763 205.36041 21.518763 205.73541Q21.518763 206.09479 21.737513 206.37604Q21.940638 206.64166 22.315638 206.75104Q22.878138 206.93854 23.534388 206.93854L26.800013 206.93854L26.800013 207.98541ZM26.034388 199.90729Q26.534388 200.50104 26.737513 201.04791Q26.940638 201.57916 26.940638 202.20416Q26.940638 203.23541 26.440638 203.78229Q25.940638 204.32916 25.159388 204.32916Q24.706263 204.32916 24.331263 204.12604Q23.940638 203.92291 23.721888 203.57916Q23.487513 203.23541 23.378138 202.81354Q23.284388 202.51666 23.206263 201.87604Q23.065638 200.61041 22.846888 200.00104Q22.628138 200.00104 22.581263 200.00104Q21.925013 200.00104 21.659388 200.29791Q21.315638 200.70416 21.315638 201.50104Q21.315638 202.23541 21.581263 202.59479Q21.831263 202.95416 22.487513 203.12604L22.346888 204.15729Q21.690638 204.01666 21.284388 203.68854Q20.878138 203.36041 20.659388 202.75104Q20.440638 202.14166 20.440638 201.34479Q20.440638 200.54791 20.628138 200.04791Q20.815638 199.54791 21.096888 199.31354Q21.378138 199.07916 21.815638 198.98541Q22.081263 198.93854 22.784388 198.93854L24.190638 198.93854Q25.659388 198.93854 26.050013 198.87604Q26.440638 198.79791 26.800013 198.59479L26.800013 199.70416Q26.471888 199.86041 26.034388 199.90729ZM23.675013 200.00104Q23.909388 200.57916 24.081263 201.71979Q24.175013 202.37604 24.300013 202.64166Q24.409388 202.90729 24.628138 203.06354Q24.846888 203.20416 25.128138 203.20416Q25.550013 203.20416 25.831263 202.89166Q26.112513 202.56354 26.112513 201.95416Q26.112513 201.34479 25.846888 200.87604Q25.581263 200.39166 25.112513 200.17291Q24.753138 200.00104 24.065638 200.00104L23.675013 200.00104ZM26.800013 196.96979L20.581263 196.96979L20.581263 196.03229L21.456263 196.03229Q20.440638 195.34479 20.440638 194.04791Q20.440638 193.48541 20.643763 193.01666Q20.846888 192.53229 21.175013 192.29791Q21.503138 192.06354 21.940638 191.96979Q22.237513 191.92291 22.971888 191.92291L26.800013 191.92291L26.800013 192.96979L23.018763 192.96979Q22.362513 192.96979 22.050013 193.09479Q21.737513 193.21979 21.550013 193.53229Q21.346888 193.84479 21.346888 194.26666Q21.346888 194.93854 21.784388 195.43854Q22.206263 195.92291 23.393763 195.92291L26.800013 195.92291L26.800013 196.96979ZM24.940638 190.39166L24.784388 189.36041Q25.409388 189.26666 25.737513 188.87604Q26.065638 188.46979 26.065638 187.73541Q26.065638 187.01666 25.784388 186.67291Q25.487513 186.31354 25.081263 186.31354Q24.721888 186.31354 24.518763 186.62604Q24.378138 186.84479 24.159388 187.70416Q23.862513 188.86041 23.659388 189.31354Q23.440638 189.75104 23.065638 189.98541Q22.690638 190.21979 22.221888 190.21979Q21.815638 190.21979 21.456263 190.03229Q21.096888 189.84479 20.862513 189.51666Q20.690638 189.26666 20.565638 188.84479Q20.440638 188.42291 20.440638 187.92291Q20.440638 187.20416 20.659388 186.65729Q20.862513 186.09479 21.221888 185.82916Q21.581263 185.56354 22.175013 185.46979L22.315638 186.50104Q21.846888 186.56354 21.581263 186.90729Q21.300013 187.23541 21.300013 187.86041Q21.300013 188.57916 21.550013 188.89166Q21.784388 189.20416 22.112513 189.20416Q22.315638 189.20416 22.471888 189.07916Q22.643763 188.93854 22.753138 188.67291Q22.815638 188.51666 23.018763 187.73541Q23.331263 186.61041 23.518763 186.17291Q23.706263 185.73541 24.065638 185.48541Q24.425013 185.23541 24.971888 185.23541Q25.503138 185.23541 25.971888 185.54791Q26.425013 185.84479 26.690638 186.42291Q26.940638 187.00104 26.940638 187.73541Q26.940638 188.95416 26.440638 189.59479Q25.925013 190.21979 24.940638 190.39166ZM26.034388 178.90729Q26.534388 179.50104 26.737513 180.04791Q26.940638 180.57916 26.940638 181.20416Q26.940638 182.23541 26.440638 182.78229Q25.940638 183.32916 25.159388 183.32916Q24.706263 183.32916 24.331263 183.12604Q23.940638 182.92291 23.721888 182.57916Q23.487513 182.23541 23.378138 181.81354Q23.284388 181.51666 23.206263 180.87604Q23.065638 179.61041 22.846888 179.00104Q22.628138 179.00104 22.581263 179.00104Q21.925013 179.00104 21.659388 179.29791Q21.315638 179.70416 21.315638 180.50104Q21.315638 181.23541 21.581263 181.59479Q21.831263 181.95416 22.487513 182.12604L22.346888 183.15729Q21.690638 183.01666 21.284388 182.68854Q20.878138 182.36041 20.659388 181.75104Q20.440638 181.14166 20.440638 180.34479Q20.440638 179.54791 20.628138 179.04791Q20.815638 178.54791 21.096888 178.31354Q21.378138 178.07916 21.815638 177.98541Q22.081263 177.93854 22.784388 177.93854L24.190638 177.93854Q25.659388 177.93854 26.050013 177.87604Q26.440638 177.79791 26.800013 177.59479L26.800013 178.70416Q26.471888 178.86041 26.034388 178.90729ZM23.675013 179.00104Q23.909388 179.57916 24.081263 180.71979Q24.175013 181.37604 24.300013 181.64166Q24.409388 181.90729 24.628138 182.06354Q24.846888 182.20416 25.128138 182.20416Q25.550013 182.20416 25.831263 181.89166Q26.112513 181.56354 26.112513 180.95416Q26.112513 180.34479 25.846888 179.87604Q25.581263 179.39166 25.112513 179.17291Q24.753138 179.00104 24.065638 179.00104L23.675013 179.00104ZM24.518763 171.90729L24.659388 170.87604Q25.721888 171.04791 26.331263 171.75104Q26.940638 172.45416 26.940638 173.46979Q26.940638 174.75104 26.112513 175.53229Q25.268763 176.29791 23.706263 176.29791Q22.706263 176.29791 21.956263 175.96979Q21.190638 175.62604 20.815638 174.95416Q20.440638 174.26666 20.440638 173.45416Q20.440638 172.45416 20.956263 171.81354Q21.456263 171.15729 22.409388 170.96979L22.565638 172.00104Q21.940638 172.14166 21.628138 172.51666Q21.300013 172.89166 21.300013 173.42291Q21.300013 174.21979 21.878138 174.71979Q22.440638 175.21979 23.675013 175.21979Q24.940638 175.21979 25.503138 174.73541Q26.065638 174.25104 26.065638 173.48541Q26.065638 172.86041 25.690638 172.45416Q25.315638 172.03229 24.518763 171.90729ZM25.862513 167.67291L26.784388 167.51666Q26.878138 167.96979 26.878138 168.31354Q26.878138 168.89166 26.706263 169.20416Q26.518763 169.51666 26.221888 169.65729Q25.925013 169.78229 24.971888 169.78229L21.393763 169.78229L21.393763 170.54791L20.581263 170.54791L20.581263 169.78229L19.034388 169.78229L18.409388 168.73541L20.581263 168.73541L20.581263 167.67291L21.393763 167.67291L21.393763 168.73541L25.034388 168.73541Q25.487513 168.73541 25.612513 168.68854Q25.737513 168.62604 25.815638 168.50104Q25.893763 168.37604 25.893763 168.14166Q25.893763 167.95416 25.862513 167.67291ZM19.425013 166.96979L18.206263 166.96979L18.206263 165.90729L19.425013 165.90729L19.425013 166.96979ZM26.800013 166.96979L20.581263 166.96979L20.581263 165.90729L26.800013 165.90729L26.800013 166.96979ZM23.690638 164.36041Q21.956263 164.36041 21.128138 163.40729Q20.440638 162.61041 20.440638 161.45416Q20.440638 160.17291 21.284388 159.36041Q22.112513 158.53229 23.596888 158.53229Q24.800013 158.53229 25.487513 158.89166Q26.175013 159.25104 26.565638 159.95416Q26.940638 160.64166 26.940638 161.45416Q26.940638 162.75104 26.112513 163.56354Q25.268763 164.36041 23.690638 164.36041ZM23.690638 163.28229Q24.878138 163.28229 25.471888 162.76666Q26.065638 162.23541 26.065638 161.45416Q26.065638 160.65729 25.471888 160.14166Q24.878138 159.62604 23.659388 159.62604Q22.503138 159.62604 21.909388 160.15729Q21.315638 160.67291 21.315638 161.45416Q21.315638 162.23541 21.909388 162.76666Q22.487513 163.28229 23.690638 163.28229ZM26.800013 156.96979L20.581263 156.96979L20.581263 156.03229L21.456263 156.03229Q20.440638 155.34479 20.440638 154.04791Q20.440638 153.48541 20.643763 153.01666Q20.846888 152.53229 21.175013 152.29791Q21.503138 152.06354 21.940638 151.96979Q22.237513 151.92291 22.971888 151.92291L26.800013 151.92291L26.800013 152.96979L23.018763 152.96979Q22.362513 152.96979 22.050013 153.09479Q21.737513 153.21979 21.550013 153.53229Q21.346888 153.84479 21.346888 154.26666Q21.346888 154.93854 21.784388 155.43854Q22.206263 155.92291 23.393763 155.92291L26.800013 155.92291L26.800013 156.96979ZM24.940638 150.39166L24.784388 149.36041Q25.409388 149.26666 25.737513 148.87604Q26.065638 148.46979 26.065638 147.73541Q26.065638 147.01666 25.784388 146.67291Q25.487513 146.31354 25.081263 146.31354Q24.721888 146.31354 24.518763 146.62604Q24.378138 146.84479 24.159388 147.70416Q23.862513 148.86041 23.659388 149.31354Q23.440638 149.75104 23.065638 149.98541Q22.690638 150.21979 22.221888 150.21979Q21.815638 150.21979 21.456263 150.03229Q21.096888 149.84479 20.862513 149.51666Q20.690638 149.26666 20.565638 148.84479Q20.440638 148.42291 20.440638 147.92291Q20.440638 147.20416 20.659388 146.65729Q20.862513 146.09479 21.221888 145.82916Q21.581263 145.56354 22.175013 145.46979L22.315638 146.50104Q21.846888 146.56354 21.581263 146.90729Q21.300013 147.23541 21.300013 147.86041Q21.300013 148.57916 21.550013 148.89166Q21.784388 149.20416 22.112513 149.20416Q22.315638 149.20416 22.471888 149.07916Q22.643763 148.93854 22.753138 148.67291Q22.815638 148.51666 23.018763 147.73541Q23.331263 146.61041 23.518763 146.17291Q23.706263 145.73541 24.065638 145.48541Q24.425013 145.23541 24.971888 145.23541Q25.503138 145.23541 25.971888 145.54791Q26.425013 145.84479 26.690638 146.42291Q26.940638 147.00104 26.940638 147.73541Q26.940638 148.95416 26.440638 149.59479Q25.925013 150.21979 24.940638 150.39166ZM26.940638 140.76666L18.065638 138.28229L18.065638 137.43854L26.940638 139.92291L26.940638 140.76666ZM24.034388 134.21979L23.940638 133.15729Q24.596888 133.07916 25.003138 132.79791Q25.409388 132.51666 25.675013 131.93854Q25.925013 131.34479 25.925013 130.61041Q25.925013 129.96979 25.737513 129.46979Q25.534388 128.96979 25.206263 128.73541Q24.862513 128.48541 24.471888 128.48541Q24.065638 128.48541 23.768763 128.71979Q23.456263 128.95416 23.253138 129.48541Q23.112513 129.84479 22.831263 131.03229Q22.550013 132.20416 22.300013 132.67291Q21.971888 133.29791 21.503138 133.59479Q21.018763 133.89166 20.425013 133.89166Q19.784388 133.89166 19.221888 133.53229Q18.643763 133.15729 18.362513 132.45416Q18.065638 131.73541 18.065638 130.87604Q18.065638 129.92291 18.378138 129.18854Q18.675013 128.45416 19.284388 128.06354Q19.878138 127.67291 20.628138 127.64166L20.706263 128.73541Q19.893763 128.82916 19.487513 129.34479Q19.065638 129.84479 19.065638 130.82916Q19.065638 131.86041 19.440638 132.32916Q19.815638 132.79791 20.346888 132.79791Q20.815638 132.79791 21.112513 132.46979Q21.409388 132.14166 21.721888 130.76666Q22.034388 129.37604 22.268763 128.86041Q22.628138 128.11041 23.159388 127.75104Q23.675013 127.39166 24.378138 127.39166Q25.065638 127.39166 25.675013 127.78229Q26.268763 128.17291 26.612513 128.90729Q26.940638 129.64166 26.940638 130.56354Q26.940638 131.73541 26.612513 132.53229Q26.268763 133.31354 25.581263 133.76666Q24.893763 134.20416 24.034388 134.21979ZM24.800013 121.71979L24.925013 120.62604Q25.878138 120.87604 26.409388 121.57916Q26.940638 122.28229 26.940638 123.36041Q26.940638 124.71979 26.096888 125.53229Q25.253138 126.32916 23.737513 126.32916Q22.175013 126.32916 21.315638 125.51666Q20.440638 124.70416 20.440638 123.42291Q20.440638 122.17291 21.284388 121.39166Q22.128138 120.59479 23.675013 120.59479Q23.768763 120.59479 23.956263 120.59479L23.956263 125.23541Q24.987513 125.17291 25.534388 124.65729Q26.065638 124.14166 26.065638 123.36041Q26.065638 122.78229 25.768763 122.37604Q25.456263 121.95416 24.800013 121.71979ZM23.096888 125.17291L23.096888 121.70416Q22.300013 121.76666 21.909388 122.09479Q21.300013 122.61041 21.300013 123.40729Q21.300013 124.14166 21.784388 124.64166Q22.268763 125.12604 23.096888 125.17291ZM24.518763 114.90729L24.659388 113.87604Q25.721888 114.04791 26.331263 114.75104Q26.940638 115.45416 26.940638 116.46979Q26.940638 117.75104 26.112513 118.53229Q25.268763 119.29791 23.706263 119.29791Q22.706263 119.29791 21.956263 118.96979Q21.190638 118.62604 20.815638 117.95416Q20.440638 117.26666 20.440638 116.45416Q20.440638 115.45416 20.956263 114.81354Q21.456263 114.15729 22.409388 113.96979L22.565638 115.00104Q21.940638 115.14166 21.628138 115.51666Q21.300013 115.89166 21.300013 116.42291Q21.300013 117.21979 21.878138 117.71979Q22.440638 118.21979 23.675013 118.21979Q24.940638 118.21979 25.503138 117.73541Q26.065638 117.25104 26.065638 116.48541Q26.065638 115.86041 25.690638 115.45416Q25.315638 115.03229 24.518763 114.90729ZM23.690638 113.36041Q21.956263 113.36041 21.128138 112.40729Q20.440638 111.61041 20.440638 110.45416Q20.440638 109.17291 21.284388 108.36041Q22.112513 107.53229 23.596888 107.53229Q24.800013 107.53229 25.487513 107.89166Q26.175013 108.25104 26.565638 108.95416Q26.940638 109.64166 26.940638 110.45416Q26.940638 111.75104 26.112513 112.56354Q25.268763 113.36041 23.690638 113.36041ZM23.690638 112.28229Q24.878138 112.28229 25.471888 111.76666Q26.065638 111.23541 26.065638 110.45416Q26.065638 109.65729 25.471888 109.14166Q24.878138 108.62604 23.659388 108.62604Q22.503138 108.62604 21.909388 109.15729Q21.315638 109.67291 21.315638 110.45416Q21.315638 111.23541 21.909388 111.76666Q22.487513 112.28229 23.690638 112.28229ZM26.800013 105.96979L20.581263 105.96979L20.581263 105.03229L21.456263 105.03229Q20.440638 104.34479 20.440638 103.04791Q20.440638 102.48541 20.643763 102.01666Q20.846888 101.53229 21.175013 101.29791Q21.503138 101.06354 21.940638 100.96979Q22.237513 100.92291 22.971888 100.92291L26.800013 100.92291L26.800013 101.96979L23.018763 101.96979Q22.362513 101.96979 22.050013 102.09479Q21.737513 102.21979 21.550013 102.53229Q21.346888 102.84479 21.346888 103.26666Q21.346888 103.93854 21.784388 104.43854Q22.206263 104.92291 23.393763 104.92291L26.800013 104.92291L26.800013 105.96979ZM26.800013 94.93854L26.018763 94.93854Q26.940638 95.53229 26.940638 96.67291Q26.940638 97.42291 26.534388 98.04791Q26.112513 98.67291 25.378138 99.01666Q24.643763 99.36041 23.690638 99.36041Q22.768763 99.36041 22.003138 99.04791Q21.237513 98.73541 20.846888 98.11041Q20.440638 97.48541 20.440638 96.71979Q20.440638 96.15729 20.675013 95.71979Q20.909388 95.28229 21.284388 95.00104L18.206263 95.00104L18.206263 93.95416L26.800013 93.95416L26.800013 94.93854ZM23.690638 98.26666Q24.893763 98.26666 25.487513 97.76666Q26.065638 97.26666 26.065638 96.57916Q26.065638 95.89166 25.503138 95.40729Q24.940638 94.92291 23.784388 94.92291Q22.503138 94.92291 21.909388 95.42291Q21.315638 95.90729 21.315638 96.62604Q21.315638 97.32916 21.893763 97.79791Q22.456263 98.26666 23.690638 98.26666Z" fill-rule="nonzero"/><path fill="#000000" d="M76.3 247.96562Q76.3 246.43437 76.6125 245.5125Q76.925 244.575 77.53438 244.075Q78.15938 243.575 79.09688 243.575Q79.78438 243.575 80.3 243.85625Q80.83125 244.1375 81.175 244.66875Q81.51875 245.18437 81.70625 245.93437Q81.89375 246.68437 81.89375 247.96562Q81.89375 249.48125 81.58125 250.40312Q81.28438 251.325 80.65938 251.84062Q80.05 252.34062 79.09688 252.34062Q77.8625 252.34062 77.14375 251.45Q76.3 250.3875 76.3 247.96562ZM77.37813 247.96562Q77.37813 250.075 77.87813 250.77812Q78.37813 251.48125 79.09688 251.48125Q79.83125 251.48125 80.31563 250.77812Q80.81563 250.075 80.81563 247.96562Q80.81563 245.84062 80.31563 245.15312Q79.83125 244.45 79.08125 244.45Q78.3625 244.45 77.925 245.05937Q77.37813 245.84062 77.37813 247.96562Z" fill-rule="nonzero"/><path fill="#000000" d="M60.846874 211.01105L60.846874 212.02667L55.159374 212.02667Q55.159374 211.65167 55.284374 211.2923Q55.503124 210.71417 55.971874 210.15167Q56.45625 209.58917 57.3625 208.8548Q58.76875 207.69855 59.253124 207.02667Q59.753124 206.3548 59.753124 205.76105Q59.753124 205.13605 59.3 204.71417Q58.846874 204.27667 58.128124 204.27667Q57.3625 204.27667 56.909374 204.7298Q56.45625 205.18292 56.440624 205.99542L55.3625 205.88605Q55.471874 204.6673 56.190624 204.0423Q56.925 203.40167 58.159374 203.40167Q59.39375 203.40167 60.1125 204.08917Q60.83125 204.77667 60.83125 205.7923Q60.83125 206.30792 60.6125 206.80792Q60.409374 207.2923 59.909374 207.8548Q59.425 208.40167 58.3 209.3548Q57.346874 210.15167 57.065624 210.44855Q56.8 210.7298 56.628124 211.01105L60.846874 211.01105ZM62.3 209.77667L63.409374 209.68292Q63.534374 210.49542 63.971874 210.90167Q64.425 211.30792 65.06563 211.30792Q65.81563 211.30792 66.34688 210.7298Q66.87813 210.15167 66.87813 209.21417Q66.87813 208.30792 66.3625 207.7923Q65.8625 207.26105 65.03438 207.26105Q64.53438 207.26105 64.1125 207.49542Q63.70625 207.7298 63.471874 208.08917L62.4875 207.96417L63.315624 203.55792L67.59688 203.55792L67.59688 204.55792L64.15938 204.55792L63.70625 206.87042Q64.47188 206.32355 65.31563 206.32355Q66.44063 206.32355 67.20625 207.1048Q67.9875 207.88605 67.9875 209.12042Q67.9875 210.27667 67.31563 211.13605Q66.4875 212.1673 65.06563 212.1673Q63.89375 212.1673 63.14375 211.51105Q62.409374 210.8548 62.3 209.77667ZM69.3 207.7923Q69.3 206.26105 69.6125 205.33917Q69.925 204.40167 70.53438 203.90167Q71.15938 203.40167 72.09688 203.40167Q72.78438 203.40167 73.3 203.68292Q73.83125 203.96417 74.175 204.49542Q74.51875 205.01105 74.70625 205.76105Q74.89375 206.51105 74.89375 207.7923Q74.89375 209.30792 74.58125 210.2298Q74.28438 211.15167 73.65938 211.6673Q73.05 212.1673 72.09688 212.1673Q70.8625 212.1673 70.14375 211.27667Q69.3 210.21417 69.3 207.7923ZM70.37813 207.7923Q70.37813 209.90167 70.87813 210.6048Q71.37813 211.30792 72.09688 211.30792Q72.83125 211.30792 73.31563 210.6048Q73.81563 209.90167 73.81563 207.7923Q73.81563 205.6673 73.31563 204.9798Q72.83125 204.27667 72.08125 204.27667Q71.3625 204.27667 70.925 204.88605Q70.37813 205.6673 70.37813 207.7923ZM76.3 207.7923Q76.3 206.26105 76.6125 205.33917Q76.925 204.40167 77.53438 203.90167Q78.15938 203.40167 79.09688 203.40167Q79.78438 203.40167 80.3 203.68292Q80.83125 203.96417 81.175 204.49542Q81.51875 205.01105 81.70625 205.76105Q81.89375 206.51105 81.89375 207.7923Q81.89375 209.30792 81.58125 210.2298Q81.28438 211.15167 80.65938 211.6673Q80.05 212.1673 79.09688 212.1673Q77.8625 212.1673 77.14375 211.27667Q76.3 210.21417 76.3 207.7923ZM77.37813 207.7923Q77.37813 209.90167 77.87813 210.6048Q78.37813 211.30792 79.09688 211.30792Q79.83125 211.30792 80.31563 210.6048Q80.81563 209.90167 80.81563 207.7923Q80.81563 205.6673 80.31563 204.9798Q79.83125 204.27667 79.08125 204.27667Q78.3625 204.27667 77.925 204.88605Q77.37813 205.6673 77.37813 207.7923Z" fill-rule="nonzero"/><path fill="#000000" d="M55.3 169.60333L56.409374 169.50958Q56.534374 170.32208 56.971874 170.72833Q57.425 171.13458 58.065624 171.13458Q58.815624 171.13458 59.346874 170.55646Q59.878124 169.97833 59.878124 169.04083Q59.878124 168.13458 59.3625 167.61896Q58.8625 167.0877 58.034374 167.0877Q57.534374 167.0877 57.1125 167.32208Q56.70625 167.55646 56.471874 167.91583L55.4875 167.79083L56.315624 163.38458L60.596874 163.38458L60.596874 164.38458L57.159374 164.38458L56.70625 166.69708Q57.471874 166.1502 58.315624 166.1502Q59.440624 166.1502 60.20625 166.93146Q60.9875 167.7127 60.9875 168.94708Q60.9875 170.10333 60.315624 170.9627Q59.4875 171.99396 58.065624 171.99396Q56.89375 171.99396 56.14375 171.3377Q55.409374 170.68146 55.3 169.60333ZM62.3 167.61896Q62.3 166.0877 62.6125 165.16583Q62.925 164.22833 63.534374 163.72833Q64.15938 163.22833 65.09688 163.22833Q65.78438 163.22833 66.3 163.50958Q66.83125 163.79083 67.175 164.32208Q67.51875 164.8377 67.70625 165.5877Q67.89375 166.3377 67.89375 167.61896Q67.89375 169.13458 67.58125 170.05646Q67.28438 170.97833 66.65938 171.49396Q66.05 171.99396 65.09688 171.99396Q63.8625 171.99396 63.14375 171.10333Q62.3 170.04083 62.3 167.61896ZM63.378124 167.61896Q63.378124 169.72833 63.878124 170.43146Q64.37813 171.13458 65.09688 171.13458Q65.83125 171.13458 66.31563 170.43146Q66.81563 169.72833 66.81563 167.61896Q66.81563 165.49396 66.31563 164.80646Q65.83125 164.10333 65.08125 164.10333Q64.3625 164.10333 63.925 164.7127Q63.378124 165.49396 63.378124 167.61896ZM69.3 167.61896Q69.3 166.0877 69.6125 165.16583Q69.925 164.22833 70.53438 163.72833Q71.15938 163.22833 72.09688 163.22833Q72.78438 163.22833 73.3 163.50958Q73.83125 163.79083 74.175 164.32208Q74.51875 164.8377 74.70625 165.5877Q74.89375 166.3377 74.89375 167.61896Q74.89375 169.13458 74.58125 170.05646Q74.28438 170.97833 73.65938 171.49396Q73.05 171.99396 72.09688 171.99396Q70.8625 171.99396 70.14375 171.10333Q69.3 170.04083 69.3 167.61896ZM70.37813 167.61896Q70.37813 169.72833 70.87813 170.43146Q71.37813 171.13458 72.09688 171.13458Q72.83125 171.13458 73.31563 170.43146Q73.81563 169.72833 73.81563 167.61896Q73.81563 165.49396 73.31563 164.80646Q72.83125 164.10333 72.08125 164.10333Q71.3625 164.10333 70.925 164.7127Q70.37813 165.49396 70.37813 167.61896ZM76.3 167.61896Q76.3 166.0877 76.6125 165.16583Q76.925 164.22833 77.53438 163.72833Q78.15938 163.22833 79.09688 163.22833Q79.78438 163.22833 80.3 163.50958Q80.83125 163.79083 81.175 164.32208Q81.51875 164.8377 81.70625 165.5877Q81.89375 166.3377 81.89375 167.61896Q81.89375 169.13458 81.58125 170.05646Q81.28438 170.97833 80.65938 171.49396Q80.05 171.99396 79.09688 171.99396Q77.8625 171.99396 77.14375 171.10333Q76.3 170.04083 76.3 167.61896ZM77.37813 167.61896Q77.37813 169.72833 77.87813 170.43146Q78.37813 171.13458 79.09688 171.13458Q79.83125 171.13458 80.31563 170.43146Q80.81563 169.72833 80.81563 167.61896Q80.81563 165.49396 80.31563 164.80646Q79.83125 164.10333 79.08125 164.10333Q78.3625 164.10333 77.925 164.7127Q77.37813 165.49396 77.37813 167.61896Z" fill-rule="nonzero"/><path fill="#000000" d="M55.3625 124.21124L55.3625 123.19562L60.925 123.19562L60.925 124.02374Q60.1125 124.89874 59.3 126.35187Q58.503124 127.78937 58.065624 129.32062Q57.7375 130.39874 57.659374 131.68L56.565624 131.68Q56.58125 130.66437 56.95625 129.22687Q57.346874 127.78937 58.05 126.46124Q58.76875 125.13312 59.58125 124.21124L55.3625 124.21124ZM62.3 129.43L63.409374 129.33624Q63.534374 130.14874 63.971874 130.555Q64.425 130.96124 65.06563 130.96124Q65.81563 130.96124 66.34688 130.38312Q66.87813 129.805 66.87813 128.8675Q66.87813 127.96124 66.3625 127.44562Q65.8625 126.91437 65.03438 126.91437Q64.53438 126.91437 64.1125 127.14874Q63.70625 127.38312 63.471874 127.74249L62.4875 127.61749L63.315624 123.21124L67.59688 123.21124L67.59688 124.21124L64.15938 124.21124L63.70625 126.52374Q64.47188 125.97687 65.31563 125.97687Q66.44063 125.97687 67.20625 126.75812Q67.9875 127.53937 67.9875 128.77374Q67.9875 129.93 67.31563 130.78937Q66.4875 131.82062 65.06563 131.82062Q63.89375 131.82062 63.14375 131.16437Q62.409374 130.50812 62.3 129.43ZM69.3 127.44562Q69.3 125.91437 69.6125 124.99249Q69.925 124.05499 70.53438 123.55499Q71.15938 123.05499 72.09688 123.05499Q72.78438 123.05499 73.3 123.33624Q73.83125 123.61749 74.175 124.14874Q74.51875 124.66437 74.70625 125.41437Q74.89375 126.16437 74.89375 127.44562Q74.89375 128.96124 74.58125 129.88312Q74.28438 130.805 73.65938 131.32062Q73.05 131.82062 72.09688 131.82062Q70.8625 131.82062 70.14375 130.93Q69.3 129.8675 69.3 127.44562ZM70.37813 127.44562Q70.37813 129.555 70.87813 130.25812Q71.37813 130.96124 72.09688 130.96124Q72.83125 130.96124 73.31563 130.25812Q73.81563 129.555 73.81563 127.44562Q73.81563 125.32062 73.31563 124.63312Q72.83125 123.92999 72.08125 123.92999Q71.3625 123.92999 70.925 124.53937Q70.37813 125.32062 70.37813 127.44562ZM76.3 127.44562Q76.3 125.91437 76.6125 124.99249Q76.925 124.05499 77.53438 123.55499Q78.15938 123.05499 79.09688 123.05499Q79.78438 123.05499 80.3 123.33624Q80.83125 123.61749 81.175 124.14874Q81.51875 124.66437 81.70625 125.41437Q81.89375 126.16437 81.89375 127.44562Q81.89375 128.96124 81.58125 129.88312Q81.28438 130.805 80.65938 131.32062Q80.05 131.82062 79.09688 131.82062Q77.8625 131.82062 77.14375 130.93Q76.3 129.8675 76.3 127.44562ZM77.37813 127.44562Q77.37813 129.555 77.87813 130.25812Q78.37813 130.96124 79.09688 130.96124Q79.83125 130.96124 80.31563 130.25812Q80.81563 129.555 80.81563 127.44562Q80.81563 125.32062 80.31563 124.63312Q79.83125 123.92999 79.08125 123.92999Q78.3625 123.92999 77.925 124.53937Q77.37813 125.32062 77.37813 127.44562Z" fill-rule="nonzero"/><path fill="#000000" d="M52.26875 91.50667L51.221874 91.50667L51.221874 84.78792Q50.83125 85.14729 50.20625 85.52229Q49.596874 85.88167 49.1125 86.05354L49.1125 85.03792Q49.9875 84.61604 50.64375 84.03792Q51.315624 83.44417 51.596874 82.88167L52.26875 82.88167L52.26875 91.50667ZM55.3 87.27229Q55.3 85.74104 55.6125 84.81917Q55.925 83.88167 56.534374 83.38167Q57.159374 82.88167 58.096874 82.88167Q58.784374 82.88167 59.3 83.16292Q59.83125 83.44417 60.175 83.97542Q60.51875 84.49104 60.70625 85.24104Q60.89375 85.99104 60.89375 87.27229Q60.89375 88.78792 60.58125 89.70979Q60.284374 90.63167 59.659374 91.14729Q59.05 91.64729 58.096874 91.64729Q56.8625 91.64729 56.14375 90.75667Q55.3 89.69417 55.3 87.27229ZM56.378124 87.27229Q56.378124 89.38167 56.878124 90.08479Q57.378124 90.78792 58.096874 90.78792Q58.83125 90.78792 59.315624 90.08479Q59.815624 89.38167 59.815624 87.27229Q59.815624 85.14729 59.315624 84.45979Q58.83125 83.75667 58.08125 83.75667Q57.3625 83.75667 56.925 84.36604Q56.378124 85.14729 56.378124 87.27229ZM62.3 87.27229Q62.3 85.74104 62.6125 84.81917Q62.925 83.88167 63.534374 83.38167Q64.15938 82.88167 65.09688 82.88167Q65.78438 82.88167 66.3 83.16292Q66.83125 83.44417 67.175 83.97542Q67.51875 84.49104 67.70625 85.24104Q67.89375 85.99104 67.89375 87.27229Q67.89375 88.78792 67.58125 89.70979Q67.28438 90.63167 66.65938 91.14729Q66.05 91.64729 65.09688 91.64729Q63.8625 91.64729 63.14375 90.75667Q62.3 89.69417 62.3 87.27229ZM63.378124 87.27229Q63.378124 89.38167 63.878124 90.08479Q64.37813 90.78792 65.09688 90.78792Q65.83125 90.78792 66.31563 90.08479Q66.81563 89.38167 66.81563 87.27229Q66.81563 85.14729 66.31563 84.45979Q65.83125 83.75667 65.08125 83.75667Q64.3625 83.75667 63.925 84.36604Q63.378124 85.14729 63.378124 87.27229ZM69.3 87.27229Q69.3 85.74104 69.6125 84.81917Q69.925 83.88167 70.53438 83.38167Q71.15938 82.88167 72.09688 82.88167Q72.78438 82.88167 73.3 83.16292Q73.83125 83.44417 74.175 83.97542Q74.51875 84.49104 74.70625 85.24104Q74.89375 85.99104 74.89375 87.27229Q74.89375 88.78792 74.58125 89.70979Q74.28438 90.63167 73.65938 91.14729Q73.05 91.64729 72.09688 91.64729Q70.8625 91.64729 70.14375 90.75667Q69.3 89.69417 69.3 87.27229ZM70.37813 87.27229Q70.37813 89.38167 70.87813 90.08479Q71.37813 90.78792 72.09688 90.78792Q72.83125 90.78792 73.31563 90.08479Q73.81563 89.38167 73.81563 87.27229Q73.81563 85.14729 73.31563 84.45979Q72.83125 83.75667 72.08125 83.75667Q71.3625 83.75667 70.925 84.36604Q70.37813 85.14729 70.37813 87.27229ZM76.3 87.27229Q76.3 85.74104 76.6125 84.81917Q76.925 83.88167 77.53438 83.38167Q78.15938 82.88167 79.09688 82.88167Q79.78438 82.88167 80.3 83.16292Q80.83125 83.44417 81.175 83.97542Q81.51875 84.49104 81.70625 85.24104Q81.89375 85.99104 81.89375 87.27229Q81.89375 88.78792 81.58125 89.70979Q81.28438 90.63167 80.65938 91.14729Q80.05 91.64729 79.09688 91.64729Q77.8625 91.64729 77.14375 90.75667Q76.3 89.69417 76.3 87.27229ZM77.37813 87.27229Q77.37813 89.38167 77.87813 90.08479Q78.37813 90.78792 79.09688 90.78792Q79.83125 90.78792 80.31563 90.08479Q80.81563 89.38167 80.81563 87.27229Q80.81563 85.14729 80.31563 84.45979Q79.83125 83.75667 79.08125 83.75667Q78.3625 83.75667 77.925 84.36604Q77.37813 85.14729 77.37813 87.27229Z" fill-rule="nonzero"/><path fill="#000000" d="M52.26875 51.333332L51.221874 51.333332L51.221874 44.614582Q50.83125 44.973957 50.20625 45.348957Q49.596874 45.708332 49.1125 45.880207L49.1125 44.864582Q49.9875 44.442707 50.64375 43.864582Q51.315624 43.270832 51.596874 42.708332L52.26875 42.708332L52.26875 51.333332ZM60.846874 50.317707L60.846874 51.333332L55.159374 51.333332Q55.159374 50.958332 55.284374 50.598957Q55.503124 50.020832 55.971874 49.458332Q56.45625 48.895832 57.3625 48.161457Q58.76875 47.005207 59.253124 46.333332Q59.753124 45.661457 59.753124 45.067707Q59.753124 44.442707 59.3 44.020832Q58.846874 43.583332 58.128124 43.583332Q57.3625 43.583332 56.909374 44.036457Q56.45625 44.489582 56.440624 45.302082L55.3625 45.192707Q55.471874 43.973957 56.190624 43.348957Q56.925 42.708332 58.159374 42.708332Q59.39375 42.708332 60.1125 43.395832Q60.83125 44.083332 60.83125 45.098957Q60.83125 45.614582 60.6125 46.114582Q60.409374 46.598957 59.909374 47.161457Q59.425 47.708332 58.3 48.661457Q57.346874 49.458332 57.065624 49.755207Q56.8 50.036457 56.628124 50.317707L60.846874 50.317707ZM62.3 49.083332L63.409374 48.989582Q63.534374 49.802082 63.971874 50.208332Q64.425 50.614582 65.06563 50.614582Q65.81563 50.614582 66.34688 50.036457Q66.87813 49.458332 66.87813 48.520832Q66.87813 47.614582 66.3625 47.098957Q65.8625 46.567707 65.03438 46.567707Q64.53438 46.567707 64.1125 46.802082Q63.70625 47.036457 63.471874 47.395832L62.4875 47.270832L63.315624 42.864582L67.59688 42.864582L67.59688 43.864582L64.15938 43.864582L63.70625 46.177082Q64.47188 45.630207 65.31563 45.630207Q66.44063 45.630207 67.20625 46.411457Q67.9875 47.192707 67.9875 48.427082Q67.9875 49.583332 67.31563 50.442707Q66.4875 51.473957 65.06563 51.473957Q63.89375 51.473957 63.14375 50.817707Q62.409374 50.161457 62.3 49.083332ZM69.3 47.098957Q69.3 45.567707 69.6125 44.645832Q69.925 43.708332 70.53438 43.208332Q71.15938 42.708332 72.09688 42.708332Q72.78438 42.708332 73.3 42.989582Q73.83125 43.270832 74.175 43.802082Q74.51875 44.317707 74.70625 45.067707Q74.89375 45.817707 74.89375 47.098957Q74.89375 48.614582 74.58125 49.536457Q74.28438 50.458332 73.65938 50.973957Q73.05 51.473957 72.09688 51.473957Q70.8625 51.473957 70.14375 50.583332Q69.3 49.520832 69.3 47.098957ZM70.37813 47.098957Q70.37813 49.208332 70.87813 49.911457Q71.37813 50.614582 72.09688 50.614582Q72.83125 50.614582 73.31563 49.911457Q73.81563 49.208332 73.81563 47.098957Q73.81563 44.973957 73.31563 44.286457Q72.83125 43.583332 72.08125 43.583332Q71.3625 43.583332 70.925 44.192707Q70.37813 44.973957 70.37813 47.098957ZM76.3 47.098957Q76.3 45.567707 76.6125 44.645832Q76.925 43.708332 77.53438 43.208332Q78.15938 42.708332 79.09688 42.708332Q79.78438 42.708332 80.3 42.989582Q80.83125 43.270832 81.175 43.802082Q81.51875 44.317707 81.70625 45.067707Q81.89375 45.817707 81.89375 47.098957Q81.89375 48.614582 81.58125 49.536457Q81.28438 50.458332 80.65938 50.973957Q80.05 51.473957 79.09688 51.473957Q77.8625 51.473957 77.14375 50.583332Q76.3 49.520832 76.3 47.098957ZM77.37813 47.098957Q77.37813 49.208332 77.87813 49.911457Q78.37813 50.614582 79.09688 50.614582Q79.83125 50.614582 80.31563 49.911457Q80.81563 49.208332 80.81563 47.098957Q80.81563 44.973957 80.31563 44.286457Q79.83125 43.583332 79.08125 43.583332Q78.3625 43.583332 77.925 44.192707Q77.37813 44.973957 77.37813 47.098957Z" fill-rule="nonzero"/><path fill="#000000" d="M128.01462 265.2L126.96774 265.2L126.96774 258.48126Q126.57712 258.84064 125.95212 259.21564Q125.34274 259.575 124.85837 259.7469L124.85837 258.73126Q125.73337 258.3094 126.38962 257.73126Q127.06149 257.1375 127.34274 256.575L128.01462 256.575L128.01462 265.2Z" fill-rule="nonzero"/><path fill="#000000" d="M186.2533 264.1844L186.2533 265.2L180.5658 265.2Q180.5658 264.825 180.6908 264.46564Q180.90955 263.8875 181.3783 263.325Q181.86267 262.7625 182.76892 262.02814Q184.17517 260.8719 184.65955 260.2Q185.15955 259.52814 185.15955 258.9344Q185.15955 258.3094 184.70642 257.8875Q184.2533 257.45 183.53455 257.45Q182.76892 257.45 182.3158 257.90314Q181.86267 258.35626 181.84705 259.16876L180.76892 259.0594Q180.8783 257.84064 181.59705 257.21564Q182.33142 256.575 183.5658 256.575Q184.80017 256.575 185.51892 257.2625Q186.23767 257.95 186.23767 258.96564Q186.23767 259.48126 186.01892 259.98126Q185.8158 260.46564 185.3158 261.02814Q184.83142 261.575 183.70642 262.52814Q182.7533 263.325 182.47205 263.6219Q182.20642 263.90314 182.03455 264.1844L186.2533 264.1844Z" fill-rule="nonzero"/><path fill="#000000" d="M237.36697 262.9344L238.42947 262.79376Q238.60135 263.6844 239.03885 264.09064Q239.47635 264.48126 240.10135 264.48126Q240.85135 264.48126 241.36697 263.96564Q241.8826 263.45 241.8826 262.6844Q241.8826 261.96564 241.39822 261.4969Q240.92947 261.0125 240.1951 261.0125Q239.89822 261.0125 239.4451 261.1375L239.5701 260.2Q239.67947 260.21564 239.74197 260.21564Q240.41385 260.21564 240.9451 259.8719Q241.49197 259.5125 241.49197 258.77814Q241.49197 258.2 241.10135 257.825Q240.71072 257.4344 240.08572 257.4344Q239.47635 257.4344 239.05447 257.825Q238.64822 258.21564 238.53885 258.98126L237.47635 258.79376Q237.66385 257.7469 238.35135 257.16876Q239.03885 256.575 240.05447 256.575Q240.7576 256.575 241.35135 256.8875Q241.9451 257.1844 242.2576 257.7Q242.5701 258.21564 242.5701 258.8094Q242.5701 259.35626 242.27322 259.825Q241.97635 260.27814 241.39822 260.54376Q242.14822 260.71564 242.5701 261.27814Q242.99197 261.825 242.99197 262.66876Q242.99197 263.79376 242.16385 264.575Q241.35135 265.35626 240.10135 265.35626Q238.97635 265.35626 238.22635 264.6844Q237.47635 263.9969 237.36697 262.9344Z" fill-rule="nonzero"/><path fill="#000000" d="M297.40253 265.2L297.40253 263.1375L293.68378 263.1375L293.68378 262.16876L297.60565 256.60626L298.46503 256.60626L298.46503 262.16876L299.62128 262.16876L299.62128 263.1375L298.46503 263.1375L298.46503 265.2L297.40253 265.2ZM297.40253 262.16876L297.40253 258.3094L294.71503 262.16876L297.40253 262.16876Z" fill-rule="nonzero"/><path fill="#000000" d="M350.68808 262.95L351.79745 262.85626Q351.92245 263.66876 352.35995 264.075Q352.81308 264.48126 353.4537 264.48126Q354.2037 264.48126 354.73495 263.90314Q355.2662 263.325 355.2662 262.3875Q355.2662 261.48126 354.75058 260.96564Q354.25058 260.4344 353.42245 260.4344Q352.92245 260.4344 352.50058 260.66876Q352.09433 260.90314 351.85995 261.2625L350.87558 261.1375L351.7037 256.73126L355.98495 256.73126L355.98495 257.73126L352.54745 257.73126L352.09433 260.04376Q352.85995 259.4969 353.7037 259.4969Q354.8287 259.4969 355.59433 260.27814Q356.37558 261.0594 356.37558 262.29376Q356.37558 263.45 355.7037 264.3094Q354.87558 265.34064 353.4537 265.34064Q352.28183 265.34064 351.53183 264.6844Q350.79745 264.02814 350.68808 262.95Z" fill-rule="nonzero"/><path fill="#000000" d="M412.81738 258.71564L411.7705 258.79376Q411.62988 258.16876 411.37988 257.8875Q410.94238 257.4344 410.31738 257.4344Q409.81738 257.4344 409.42676 257.71564Q408.94238 258.09064 408.6455 258.79376Q408.36426 259.48126 408.34863 260.7625Q408.72363 260.1844 409.2705 259.90314Q409.833 259.6219 410.44238 259.6219Q411.48926 259.6219 412.22363 260.40314Q412.97363 261.1844 412.97363 262.40314Q412.97363 263.21564 412.61426 263.91876Q412.2705 264.60626 411.66113 264.98126Q411.05176 265.34064 410.28613 265.34064Q408.958 265.34064 408.12988 264.3719Q407.30176 263.40314 407.30176 261.1844Q407.30176 258.6844 408.22363 257.5594Q409.0205 256.575 410.37988 256.575Q411.3955 256.575 412.03613 257.15314Q412.69238 257.71564 412.81738 258.71564ZM408.5205 262.41876Q408.5205 262.96564 408.73926 263.46564Q408.97363 263.95 409.37988 264.21564Q409.80176 264.48126 410.2705 264.48126Q410.92676 264.48126 411.41113 263.95Q411.8955 263.40314 411.8955 262.48126Q411.8955 261.59064 411.41113 261.075Q410.94238 260.5594 410.22363 260.5594Q409.50488 260.5594 409.00488 261.075Q408.5205 261.59064 408.5205 262.41876Z" fill-rule="nonzero"/><path fill="#000000" d="M464.0717 257.73126L464.0717 256.71564L469.6342 256.71564L469.6342 257.54376Q468.8217 258.41876 468.0092 259.8719Q467.2123 261.3094 466.7748 262.84064Q466.4467 263.91876 466.36856 265.2L465.2748 265.2Q465.29044 264.1844 465.66544 262.7469Q466.05606 261.3094 466.7592 259.98126Q467.47794 258.65314 468.29044 257.73126L464.0717 257.73126Z" fill-rule="nonzero"/><path fill="#000000" d="M522.29474 260.54376Q521.6385 260.29376 521.31036 259.85626Q520.99786 259.40314 520.99786 258.79376Q520.99786 257.85626 521.66974 257.21564Q522.35724 256.575 523.4666 256.575Q524.5916 256.575 525.2791 257.23126Q525.9666 257.8875 525.9666 258.825Q525.9666 259.41876 525.6541 259.85626Q525.3416 260.29376 524.701 260.54376Q525.49786 260.79376 525.9041 261.3719Q526.31036 261.95 526.31036 262.7469Q526.31036 263.84064 525.5291 264.59064Q524.7635 265.34064 523.48224 265.34064Q522.2166 265.34064 521.43536 264.59064Q520.6541 263.84064 520.6541 262.71564Q520.6541 261.8719 521.076 261.3094Q521.5135 260.7469 522.29474 260.54376ZM522.076 258.7469Q522.076 259.35626 522.4666 259.7469Q522.87286 260.1375 523.49786 260.1375Q524.10724 260.1375 524.49786 259.7625Q524.8885 259.3719 524.8885 258.8094Q524.8885 258.23126 524.48224 257.84064Q524.076 257.4344 523.48224 257.4344Q522.87286 257.4344 522.4666 257.825Q522.076 258.21564 522.076 258.7469ZM521.74786 262.71564Q521.74786 263.16876 521.951 263.59064Q522.16974 264.0125 522.5916 264.2469Q523.0135 264.48126 523.49786 264.48126Q524.24786 264.48126 524.73224 263.9969Q525.23224 263.5125 525.23224 262.7625Q525.23224 261.9969 524.73224 261.4969Q524.23224 260.9969 523.4666 260.9969Q522.7166 260.9969 522.23224 261.4969Q521.74786 261.98126 521.74786 262.71564Z" fill-rule="nonzero"/><path fill="#000000" d="M577.4865 263.21564L578.50214 263.1219Q578.62714 263.84064 578.9865 264.16876Q579.3615 264.48126 579.924 264.48126Q580.4084 264.48126 580.76776 264.2625Q581.14276 264.02814 581.37714 263.66876Q581.6115 263.29376 581.76776 262.66876Q581.924 262.02814 581.924 261.3719Q581.924 261.29376 581.924 261.15314Q581.6115 261.65314 581.06464 261.98126Q580.51776 262.29376 579.87714 262.29376Q578.799 262.29376 578.06464 261.52814Q577.33026 260.7469 577.33026 259.48126Q577.33026 258.16876 578.0959 257.3719Q578.87714 256.575 580.0334 256.575Q580.8615 256.575 581.549 257.02814Q582.25214 257.48126 582.6115 258.325Q582.9709 259.15314 582.9709 260.73126Q582.9709 262.3719 582.6115 263.35626Q582.26776 264.325 581.549 264.84064Q580.8459 265.34064 579.9084 265.34064Q578.89276 265.34064 578.25214 264.79376Q577.6115 264.23126 577.4865 263.21564ZM581.799 259.41876Q581.799 258.5125 581.31464 257.98126Q580.8459 257.45 580.1584 257.45Q579.45526 257.45 578.924 258.02814Q578.4084 258.59064 578.4084 259.5125Q578.4084 260.325 578.9084 260.84064Q579.4084 261.35626 580.12714 261.35626Q580.8615 261.35626 581.33026 260.84064Q581.799 260.325 581.799 259.41876Z" fill-rule="nonzero"/><path fill="#000000" d="M634.4596 265.2L633.4127 265.2L633.4127 258.48126Q633.0221 258.84064 632.3971 259.21564Q631.7877 259.575 631.30334 259.7469L631.30334 258.73126Q632.17834 258.3094 632.8346 257.73126Q633.5065 257.1375 633.7877 256.575L634.4596 256.575L634.4596 265.2ZM637.49084 260.96564Q637.49084 259.4344 637.80334 258.5125Q638.11584 257.575 638.7252 257.075Q639.3502 256.575 640.2877 256.575Q640.9752 256.575 641.49084 256.85626Q642.0221 257.1375 642.36584 257.66876Q642.7096 258.1844 642.8971 258.9344Q643.0846 259.6844 643.0846 260.96564Q643.0846 262.48126 642.7721 263.40314Q642.4752 264.325 641.8502 264.84064Q641.24084 265.34064 640.2877 265.34064Q639.05334 265.34064 638.3346 264.45Q637.49084 263.3875 637.49084 260.96564ZM638.569 260.96564Q638.569 263.075 639.069 263.77814Q639.569 264.48126 640.2877 264.48126Q641.0221 264.48126 641.5065 263.77814Q642.0065 263.075 642.0065 260.96564Q642.0065 258.84064 641.5065 258.15314Q641.0221 257.45 640.2721 257.45Q639.55334 257.45 639.11584 258.0594Q638.569 258.84064 638.569 260.96564Z" fill-rule="nonzero"/><path fill="#000000" d="M691.1201 265.2L690.07324 265.2L690.07324 258.48126Q689.6826 258.84064 689.0576 259.21564Q688.44824 259.575 687.96387 259.7469L687.96387 258.73126Q688.83887 258.3094 689.4951 257.73126Q690.167 257.1375 690.44824 256.575L691.1201 256.575L691.1201 265.2ZM698.1201 265.2L697.07324 265.2L697.07324 258.48126Q696.6826 258.84064 696.0576 259.21564Q695.44824 259.575 694.96387 259.7469L694.96387 258.73126Q695.83887 258.3094 696.4951 257.73126Q697.167 257.1375 697.44824 256.575L698.1201 256.575L698.1201 265.2Z" fill-rule="nonzero"/><path fill="#000000" d="M747.7807 265.2L746.7338 265.2L746.7338 258.48126Q746.3432 258.84064 745.7182 259.21564Q745.1088 259.575 744.62445 259.7469L744.62445 258.73126Q745.49945 258.3094 746.1557 257.73126Q746.8276 257.1375 747.1088 256.575L747.7807 256.575L747.7807 265.2ZM756.3588 264.1844L756.3588 265.2L750.6713 265.2Q750.6713 264.825 750.7963 264.46564Q751.0151 263.8875 751.4838 263.325Q751.9682 262.7625 752.87445 262.02814Q754.2807 260.8719 754.7651 260.2Q755.2651 259.52814 755.2651 258.9344Q755.2651 258.3094 754.81195 257.8875Q754.3588 257.45 753.6401 257.45Q752.87445 257.45 752.4213 257.90314Q751.9682 258.35626 751.9526 259.16876L750.87445 259.0594Q750.9838 257.84064 751.7026 257.21564Q752.43695 256.575 753.6713 256.575Q754.9057 256.575 755.62445 257.2625Q756.3432 257.95 756.3432 258.96564Q756.3432 259.48126 756.12445 259.98126Q755.9213 260.46564 755.4213 261.02814Q754.93695 261.575 753.81195 262.52814Q752.8588 263.325 752.5776 263.6219Q752.31195 263.90314 752.1401 264.1844L756.3588 264.1844Z" fill-rule="nonzero"/><path fill="#000000" d="M804.4412 265.2L803.39435 265.2L803.39435 258.48126Q803.0037 258.84064 802.3787 259.21564Q801.76935 259.575 801.285 259.7469L801.285 258.73126Q802.16 258.3094 802.8162 257.73126Q803.4881 257.1375 803.76935 256.575L804.4412 256.575L804.4412 265.2ZM807.4725 262.9344L808.535 262.79376Q808.70685 263.6844 809.14435 264.09064Q809.58185 264.48126 810.20685 264.48126Q810.95685 264.48126 811.4725 263.96564Q811.9881 263.45 811.9881 262.6844Q811.9881 261.96564 811.5037 261.4969Q811.035 261.0125 810.3006 261.0125Q810.0037 261.0125 809.5506 261.1375L809.6756 260.2Q809.785 260.21564 809.8475 260.21564Q810.51935 260.21564 811.0506 259.8719Q811.5975 259.5125 811.5975 258.77814Q811.5975 258.2 811.20685 257.825Q810.8162 257.4344 810.1912 257.4344Q809.58185 257.4344 809.16 257.825Q808.7537 258.21564 808.64435 258.98126L807.58185 258.79376Q807.76935 257.7469 808.45685 257.16876Q809.14435 256.575 810.16 256.575Q810.8631 256.575 811.45685 256.8875Q812.0506 257.1844 812.3631 257.7Q812.6756 258.21564 812.6756 258.8094Q812.6756 259.35626 812.3787 259.825Q812.08185 260.27814 811.5037 260.54376Q812.2537 260.71564 812.6756 261.27814Q813.0975 261.825 813.0975 262.66876Q813.0975 263.79376 812.26935 264.575Q811.45685 265.35626 810.20685 265.35626Q809.08185 265.35626 808.33185 264.6844Q807.58185 263.9969 807.4725 262.9344Z" fill-rule="nonzero"/><path fill="#000000" d="M861.1018 265.2L860.05493 265.2L860.05493 258.48126Q859.6643 258.84064 859.0393 259.21564Q858.42993 259.575 857.94556 259.7469L857.94556 258.73126Q858.82056 258.3094 859.4768 257.73126Q860.1487 257.1375 860.42993 256.575L861.1018 256.575L861.1018 265.2ZM867.50806 265.2L867.50806 263.1375L863.7893 263.1375L863.7893 262.16876L867.7112 256.60626L868.57056 256.60626L868.57056 262.16876L869.7268 262.16876L869.7268 263.1375L868.57056 263.1375L868.57056 265.2L867.50806 265.2ZM867.50806 262.16876L867.50806 258.3094L864.82056 262.16876L867.50806 262.16876Z" fill-rule="nonzero"/><path fill="#000000" d="M917.7623 265.2L916.71545 265.2L916.71545 258.48126Q916.3248 258.84064 915.6998 259.21564Q915.09045 259.575 914.6061 259.7469L914.6061 258.73126Q915.4811 258.3094 916.1373 257.73126Q916.8092 257.1375 917.09045 256.575L917.7623 256.575L917.7623 265.2ZM920.7936 262.95L921.90295 262.85626Q922.02795 263.66876 922.46545 264.075Q922.9186 264.48126 923.5592 264.48126Q924.3092 264.48126 924.84045 263.90314Q925.3717 263.325 925.3717 262.3875Q925.3717 261.48126 924.8561 260.96564Q924.3561 260.4344 923.52795 260.4344Q923.02795 260.4344 922.6061 260.66876Q922.1998 260.90314 921.96545 261.2625L920.9811 261.1375L921.8092 256.73126L926.09045 256.73126L926.09045 257.73126L922.65295 257.73126L922.1998 260.04376Q922.96545 259.4969 923.8092 259.4969Q924.9342 259.4969 925.6998 260.27814Q926.4811 261.0594 926.4811 262.29376Q926.4811 263.45 925.8092 264.3094Q924.9811 265.34064 923.5592 265.34064Q922.3873 265.34064 921.6373 264.6844Q920.90295 264.02814 920.7936 262.95Z" fill-rule="nonzero"/><path fill="#000000" d="M974.42285 265.2L973.376 265.2L973.376 258.48126Q972.98535 258.84064 972.36035 259.21564Q971.751 259.575 971.2666 259.7469L971.2666 258.73126Q972.1416 258.3094 972.79785 257.73126Q973.4697 257.1375 973.751 256.575L974.42285 256.575L974.42285 265.2ZM982.92285 258.71564L981.876 258.79376Q981.73535 258.16876 981.48535 257.8875Q981.04785 257.4344 980.42285 257.4344Q979.92285 257.4344 979.5322 257.71564Q979.04785 258.09064 978.751 258.79376Q978.4697 259.48126 978.4541 260.7625Q978.8291 260.1844 979.376 259.90314Q979.9385 259.6219 980.54785 259.6219Q981.5947 259.6219 982.3291 260.40314Q983.0791 261.1844 983.0791 262.40314Q983.0791 263.21564 982.7197 263.91876Q982.376 264.60626 981.7666 264.98126Q981.1572 265.34064 980.3916 265.34064Q979.0635 265.34064 978.23535 264.3719Q977.4072 263.40314 977.4072 261.1844Q977.4072 258.6844 978.3291 257.5594Q979.126 256.575 980.48535 256.575Q981.501 256.575 982.1416 257.15314Q982.79785 257.71564 982.92285 258.71564ZM978.626 262.41876Q978.626 262.96564 978.8447 263.46564Q979.0791 263.95 979.48535 264.21564Q979.9072 264.48126 980.376 264.48126Q981.0322 264.48126 981.5166 263.95Q982.001 263.40314 982.001 262.48126Q982.001 261.59064 981.5166 261.075Q981.04785 260.5594 980.3291 260.5594Q979.61035 260.5594 979.11035 261.075Q978.626 261.59064 978.626 262.41876Z" fill-rule="nonzero"/><path fill="#4285f4" d="M361.0 17.8C361.0 17.247715 361.44772 16.8 362.0 16.8L372.0 16.8C372.55228 16.8 373.0 17.247715 373.0 17.8L373.0 27.8C373.0 28.352285 372.55228 28.8 372.0 28.8L362.0 28.8C361.44772 28.8 361.0 28.352285 361.0 27.8Z" fill-rule="nonzero"/><path fill="#1a1a1a" d="M381.92188 26.8L381.92188 18.20625L384.89062 18.20625Q385.89062 18.20625 386.42188 18.33125Q387.15625 18.503124 387.67188 18.940624Q388.35938 19.51875 388.6875 20.425Q389.03125 21.315624 389.03125 22.45625Q389.03125 23.440624 388.79688 24.190624Q388.57812 24.940624 388.21875 25.440624Q387.85938 25.940624 387.42188 26.221874Q387.0 26.503124 386.40625 26.659374Q385.8125 26.8 385.03125 26.8L381.92188 26.8ZM383.0625 25.784374L384.89062 25.784374Q385.75 25.784374 386.23438 25.628124Q386.71875 25.471874 387.0 25.175Q387.40625 24.784374 387.625 24.096874Q387.85938 23.409374 387.85938 22.440624Q387.85938 21.096874 387.40625 20.378124Q386.96875 19.64375 386.34375 19.39375Q385.875 19.221874 384.875 19.221874L383.0625 19.221874L383.0625 25.784374ZM390.95312 26.8L390.95312 18.20625L397.15625 18.20625L397.15625 19.221874L392.09375 19.221874L392.09375 21.846874L396.84375 21.846874L396.84375 22.8625L392.09375 22.8625L392.09375 25.784374L397.35938 25.784374L397.35938 26.8L390.95312 26.8ZM398.98438 26.8L398.98438 18.20625L404.78125 18.20625L404.78125 19.221874L400.125 19.221874L400.125 21.878124L404.15625 21.878124L404.15625 22.89375L400.125 22.89375L400.125 26.8L398.98438 26.8ZM405.95312 26.8L405.95312 18.20625L412.15625 18.20625L412.15625 19.221874L407.09375 19.221874L407.09375 21.846874L411.84375 21.846874L411.84375 22.8625L407.09375 22.8625L407.09375 25.784374L412.35938 25.784374L412.35938 26.8L405.95312 26.8ZM413.9375 26.8L413.9375 18.20625L417.75 18.20625Q418.90625 18.20625 419.5 18.440624Q420.09375 18.675 420.45312 19.26875Q420.8125 19.846874 420.8125 20.55Q420.8125 21.471874 420.21875 22.096874Q419.625 22.721874 418.39062 22.89375Q418.84375 23.1125 419.07812 23.315624Q419.57812 23.76875 420.01562 24.45625L421.51562 26.8L420.07812 26.8L418.95312 25.01875Q418.45312 24.2375 418.125 23.83125Q417.8125 23.425 417.54688 23.26875Q417.29688 23.096874 417.03125 23.01875Q416.84375 22.9875 416.40625 22.9875L415.07812 22.9875L415.07812 26.8L413.9375 26.8ZM415.07812 22.003124L417.53125 22.003124Q418.29688 22.003124 418.73438 21.846874Q419.1875 21.675 419.40625 21.33125Q419.64062 20.971874 419.64062 20.55Q419.64062 19.940624 419.1875 19.55Q418.75 19.159374 417.79688 19.159374L415.07812 19.159374L415.07812 22.003124ZM422.9375 26.8L422.9375 18.20625L426.75 18.20625Q427.90625 18.20625 428.5 18.440624Q429.09375 18.675 429.45312 19.26875Q429.8125 19.846874 429.8125 20.55Q429.8125 21.471874 429.21875 22.096874Q428.625 22.721874 427.39062 22.89375Q427.84375 23.1125 428.07812 23.315624Q428.57812 23.76875 429.01562 24.45625L430.51562 26.8L429.07812 26.8L427.95312 25.01875Q427.45312 24.2375 427.125 23.83125Q426.8125 23.425 426.54688 23.26875Q426.29688 23.096874 426.03125 23.01875Q425.84375 22.9875 425.40625 22.9875L424.07812 22.9875L424.07812 26.8L422.9375 26.8ZM424.07812 22.003124L426.53125 22.003124Q427.29688 22.003124 427.73438 21.846874Q428.1875 21.675 428.40625 21.33125Q428.64062 20.971874 428.64062 20.55Q428.64062 19.940624 428.1875 19.55Q427.75 19.159374 426.79688 19.159374L424.07812 19.159374L424.07812 22.003124ZM431.95312 26.8L431.95312 18.20625L438.15625 18.20625L438.15625 19.221874L433.09375 19.221874L433.09375 21.846874L437.84375 21.846874L437.84375 22.8625L433.09375 22.8625L433.09375 25.784374L438.35938 25.784374L438.35938 26.8L431.95312 26.8ZM439.92188 26.8L439.92188 18.20625L442.89062 18.20625Q443.89062 18.20625 444.42188 18.33125Q445.15625 18.503124 445.67188 18.940624Q446.35938 19.51875 446.6875 20.425Q447.03125 21.315624 447.03125 22.45625Q447.03125 23.440624 446.79688 24.190624Q446.57812 24.940624 446.21875 25.440624Q445.85938 25.940624 445.42188 26.221874Q445.0 26.503124 444.40625 26.659374Q443.8125 26.8 443.03125 26.8L439.92188 26.8ZM441.0625 25.784374L442.89062 25.784374Q443.75 25.784374 444.23438 25.628124Q444.71875 25.471874 445.0 25.175Q445.40625 24.784374 445.625 24.096874Q445.85938 23.409374 445.85938 22.440624Q445.85938 21.096874 445.40625 20.378124Q444.96875 19.64375 444.34375 19.39375Q443.875 19.221874 442.875 19.221874L441.0625 19.221874L441.0625 25.784374Z" fill-rule="nonzero"/><path fill="#ea4335" d="M464.0 17.8C464.0 17.247715 464.44772 16.8 465.0 16.8L475.0 16.8C475.55228 16.8 476.0 17.247715 476.0 17.8L476.0 27.8C476.0 28.352285 475.55228 28.8 475.0 28.8L465.0 28.8C464.44772 28.8 464.0 28.352285 464.0 27.8Z" fill-rule="nonzero"/><path fill="#1a1a1a" d="M485.125 26.8L485.125 18.20625L486.25 18.20625L486.25 26.8L485.125 26.8ZM487.89062 26.8L487.89062 18.20625L489.60938 18.20625L491.64062 24.284374Q491.92188 25.14375 492.04688 25.565624Q492.1875 25.096874 492.5 24.190624L494.5625 18.20625L496.09375 18.20625L496.09375 26.8L495.0 26.8L495.0 19.6125L492.5 26.8L491.46875 26.8L488.98438 19.4875L488.98438 26.8L487.89062 26.8ZM496.89062 26.8L496.89062 18.20625L498.60938 18.20625L500.64062 24.284374Q500.92188 25.14375 501.04688 25.565624Q501.1875 25.096874 501.5 24.190624L503.5625 18.20625L505.09375 18.20625L505.09375 26.8L504.0 26.8L504.0 19.6125L501.5 26.8L500.46875 26.8L497.98438 19.4875L497.98438 26.8L496.89062 26.8ZM505.95312 26.8L505.95312 18.20625L512.15625 18.20625L512.15625 19.221874L507.09375 19.221874L507.09375 21.846874L511.84375 21.846874L511.84375 22.8625L507.09375 22.8625L507.09375 25.784374L512.3594 25.784374L512.3594 26.8L505.95312 26.8ZM513.9219 26.8L513.9219 18.20625L516.8906 18.20625Q517.8906 18.20625 518.4219 18.33125Q519.15625 18.503124 519.6719 18.940624Q520.3594 19.51875 520.6875 20.425Q521.03125 21.315624 521.03125 22.45625Q521.03125 23.440624 520.7969 24.190624Q520.5781 24.940624 520.21875 25.440624Q519.8594 25.940624 519.4219 26.221874Q519.0 26.503124 518.40625 26.659374Q517.8125 26.8 517.03125 26.8L513.9219 26.8ZM515.0625 25.784374L516.8906 25.784374Q517.75 25.784374 518.2344 25.628124Q518.71875 25.471874 519.0 25.175Q519.40625 24.784374 519.625 24.096874Q519.8594 23.409374 519.8594 22.440624Q519.8594 21.096874 519.40625 20.378124Q518.96875 19.64375 518.34375 19.39375Q517.875 19.221874 516.875 19.221874L515.0625 19.221874L515.0625 25.784374ZM523.125 26.8L523.125 18.20625L524.25 18.20625L524.25 26.8L523.125 26.8ZM524.9844 26.8L528.28125 18.20625L529.5 18.20625L533.0156 26.8L531.7344 26.8L530.71875 24.190624L527.1406 24.190624L526.1875 26.8L524.9844 26.8ZM527.46875 23.26875L530.375 23.26875L529.4844 20.89375Q529.0625 19.815624 528.875 19.1125Q528.7031 19.940624 528.40625 20.753124L527.46875 23.26875ZM535.1094 26.8L535.1094 19.221874L532.28125 19.221874L532.28125 18.20625L539.09375 18.20625L539.09375 19.221874L536.25 19.221874L536.25 26.8L535.1094 26.8ZM539.9531 26.8L539.9531 18.20625L546.15625 18.20625L546.15625 19.221874L541.09375 19.221874L541.09375 21.846874L545.84375 21.846874L545.84375 22.8625L541.09375 22.8625L541.09375 25.784374L546.3594 25.784374L546.3594 26.8L539.9531 26.8Z" fill-rule="nonzero"/><path fill="#fbbc04" d="M563.0 17.8C563.0 17.247715 563.4477 16.8 564.0 16.8L574.0 16.8C574.5523 16.8 575.0 17.247715 575.0 17.8L575.0 27.8C575.0 28.352285 574.5523 28.8 574.0 28.8L564.0 28.8C563.4477 28.8 563.0 28.352285 563.0 27.8Z" fill-rule="nonzero"/><path fill="#1a1a1a" d="M590.0625 23.784374L591.1875 24.08125Q590.8281 25.471874 589.90625 26.20625Q588.9844 26.940624 587.6406 26.940624Q586.25 26.940624 585.375 26.378124Q584.5 25.815624 584.0469 24.753124Q583.59375 23.675 583.59375 22.440624Q583.59375 21.096874 584.1094 20.096874Q584.625 19.096874 585.5625 18.58125Q586.5156 18.065624 587.65625 18.065624Q588.9375 18.065624 589.8125 18.721874Q590.7031 19.378124 591.0469 20.565624L589.9219 20.83125Q589.625 19.89375 589.0469 19.471874Q588.4844 19.034374 587.625 19.034374Q586.6406 19.034374 585.96875 19.51875Q585.3125 19.9875 585.03125 20.784374Q584.7656 21.58125 584.7656 22.440624Q584.7656 23.534374 585.0781 24.346874Q585.40625 25.159374 586.0781 25.565624Q586.75 25.971874 587.5469 25.971874Q588.5 25.971874 589.15625 25.425Q589.8281 24.878124 590.0625 23.784374ZM592.5781 22.6125Q592.5781 20.471874 593.71875 19.26875Q594.875 18.05 596.6875 18.05Q597.8906 18.05 598.84375 18.628124Q599.7969 19.190624 600.2969 20.20625Q600.7969 21.221874 600.7969 22.51875Q600.7969 23.815624 600.2656 24.846874Q599.7344 25.878124 598.7656 26.409374Q597.8125 26.940624 596.6875 26.940624Q595.46875 26.940624 594.5156 26.3625Q593.5625 25.76875 593.0625 24.76875Q592.5781 23.753124 592.5781 22.6125ZM593.75 22.628124Q593.75 24.190624 594.5781 25.08125Q595.4219 25.971874 596.6875 25.971874Q597.96875 25.971874 598.7969 25.08125Q599.625 24.175 599.625 22.503124Q599.625 21.45625 599.2656 20.675Q598.9219 19.89375 598.2344 19.471874Q597.5469 19.034374 596.7031 19.034374Q595.5 19.034374 594.625 19.8625Q593.75 20.690624 593.75 22.628124ZM601.9219 26.8L601.9219 18.20625L603.0781 18.20625L607.59375 24.95625L607.59375 18.20625L608.6875 18.20625L608.6875 26.8L607.5156 26.8L603.0 20.05L603.0 26.8L601.9219 26.8ZM617.0625 23.784374L618.1875 24.08125Q617.8281 25.471874 616.90625 26.20625Q615.9844 26.940624 614.6406 26.940624Q613.25 26.940624 612.375 26.378124Q611.5 25.815624 611.0469 24.753124Q610.59375 23.675 610.59375 22.440624Q610.59375 21.096874 611.1094 20.096874Q611.625 19.096874 612.5625 18.58125Q613.5156 18.065624 614.65625 18.065624Q615.9375 18.065624 616.8125 18.721874Q617.7031 19.378124 618.0469 20.565624L616.9219 20.83125Q616.625 19.89375 616.0469 19.471874Q615.4844 19.034374 614.625 19.034374Q613.6406 19.034374 612.96875 19.51875Q612.3125 19.9875 612.03125 20.784374Q611.7656 21.58125 611.7656 22.440624Q611.7656 23.534374 612.0781 24.346874Q612.40625 25.159374 613.0781 25.565624Q613.75 25.971874 614.5469 25.971874Q615.5 25.971874 616.15625 25.425Q616.8281 24.878124 617.0625 23.784374ZM625.5625 18.20625L626.7031 18.20625L626.7031 23.175Q626.7031 24.471874 626.40625 25.2375Q626.1094 25.9875 625.34375 26.471874Q624.5781 26.940624 623.34375 26.940624Q622.1406 26.940624 621.3594 26.534374Q620.59375 26.1125 620.2656 25.33125Q619.9375 24.534374 619.9375 23.175L619.9375 18.20625L621.0781 18.20625L621.0781 23.159374Q621.0781 24.284374 621.28125 24.815624Q621.5 25.346874 622.0 25.64375Q622.5156 25.925 623.25 25.925Q624.5 25.925 625.03125 25.3625Q625.5625 24.784374 625.5625 23.159374L625.5625 18.20625ZM628.9375 26.8L628.9375 18.20625L632.75 18.20625Q633.90625 18.20625 634.5 18.440624Q635.09375 18.675 635.4531 19.26875Q635.8125 19.846874 635.8125 20.55Q635.8125 21.471874 635.21875 22.096874Q634.625 22.721874 633.3906 22.89375Q633.84375 23.1125 634.0781 23.315624Q634.5781 23.76875 635.0156 24.45625L636.5156 26.8L635.0781 26.8L633.9531 25.01875Q633.4531 24.2375 633.125 23.83125Q632.8125 23.425 632.5469 23.26875Q632.2969 23.096874 632.03125 23.01875Q631.84375 22.9875 631.40625 22.9875L630.0781 22.9875L630.0781 26.8L628.9375 26.8ZM630.0781 22.003124L632.53125 22.003124Q633.2969 22.003124 633.7344 21.846874Q634.1875 21.675 634.40625 21.33125Q634.6406 20.971874 634.6406 20.55Q634.6406 19.940624 634.1875 19.55Q633.75 19.159374 632.7969 19.159374L630.0781 19.159374L630.0781 22.003124ZM637.9375 26.8L637.9375 18.20625L641.75 18.20625Q642.90625 18.20625 643.5 18.440624Q644.09375 18.675 644.4531 19.26875Q644.8125 19.846874 644.8125 20.55Q644.8125 21.471874 644.21875 22.096874Q643.625 22.721874 642.3906 22.89375Q642.84375 23.1125 643.0781 23.315624Q643.5781 23.76875 644.0156 24.45625L645.5156 26.8L644.0781 26.8L642.9531 25.01875Q642.4531 24.2375 642.125 23.83125Q641.8125 23.425 641.5469 23.26875Q641.2969 23.096874 641.03125 23.01875Q640.84375 22.9875 640.40625 22.9875L639.0781 22.9875L639.0781 26.8L637.9375 26.8ZM639.0781 22.003124L641.53125 22.003124Q642.2969 22.003124 642.7344 21.846874Q643.1875 21.675 643.40625 21.33125Q643.6406 20.971874 643.6406 20.55Q643.6406 19.940624 643.1875 19.55Q642.75 19.159374 641.7969 19.159374L639.0781 19.159374L639.0781 22.003124ZM646.9531 26.8L646.9531 18.20625L653.15625 18.20625L653.15625 19.221874L648.09375 19.221874L648.09375 21.846874L652.84375 21.846874L652.84375 22.8625L648.09375 22.8625L648.09375 25.784374L653.3594 25.784374L653.3594 26.8L646.9531 26.8ZM654.9219 26.8L654.9219 18.20625L656.0781 18.20625L660.59375 24.95625L660.59375 18.20625L661.6875 18.20625L661.6875 26.8L660.5156 26.8L656.0 20.05L656.0 26.8L654.9219 26.8ZM666.1094 26.8L666.1094 19.221874L663.28125 19.221874L663.28125 18.20625L670.09375 18.20625L670.09375 19.221874L667.25 19.221874L667.25 26.8L666.1094 26.8Z" fill-rule="nonzero"/></svg>