<svg version="1.1" viewBox="0.0 0.0 1031.0 316.0" fill="none" stroke="none" stroke-linecap="square" stroke-miterlimit="10" width="1031" height="316" xmlns:xlink="http://www.w3.org/1999/xlink" xmlns="http://www.w3.org/2000/svg"><path fill="#ffffff" d="M0 0L1031.0 0L1031.0 316.0L0 316.0L0 0Z" fill-rule="nonzero"/><path stroke="#333333" stroke-width="1.0" stroke-linecap="butt" d="M74.5 248.5L1015.5 248.5" fill-rule="nonzero"/><path stroke="#cccccc" stroke-width="1.0" stroke-linecap="butt" d="M74.5 197.5L1015.5 197.5" fill-rule="nonzero"/><path stroke="#cccccc" stroke-width="1.0" stroke-linecap="butt" d="M74.5 147.5L1015.5 147.5" fill-rule="nonzero"/><path stroke="#cccccc" stroke-width="1.0" stroke-linecap="butt" d="M74.5 97.5L1015.5 97.5" fill-rule="nonzero"/><path stroke="#cccccc" stroke-width="1.0" stroke-linecap="butt" d="M74.5 47.5L1015.5 47.5" fill-rule="nonzero"/><clipPath id="id_0"><path d="M74.8 47.333332L1015.2 47.333332L1015.2 248.2L74.8 248.2L74.8 47.333332Z" clip-rule="nonzero"/></clipPath><path stroke="#000000" stroke-width="2.0" stroke-linecap="butt" stroke-opacity="0.0" clip-path="url(#id_0)" d="M107.0 248.0L97.0 248.0L97.0 248.0L107.0 248.0Z" fill-rule="nonzero"/><path fill="#4285f4" clip-path="url(#id_0)" d="M107.0 248.0L97.0 248.0L97.0 248.0L107.0 248.0Z" fill-rule="nonzero"/><path stroke="#000000" stroke-width="2.0" stroke-linecap="butt" stroke-opacity="0.0" clip-path="url(#id_0)" d="M164.0 248.0L154.0 248.0L154.0 248.0L164.0 248.0Z" fill-rule="nonzero"/><path fill="#4285f4" clip-path="url(#id_0)" d="M164.0 248.0L154.0 248.0L154.0 248.0L164.0 248.0Z" fill-rule="nonzero"/><path stroke="#000000" stroke-width="2.0" stroke-linecap="butt" stroke-opacity="0.0" clip-path="url(#id_0)" d="M222.0 248.0L212.0 248.0L212.0 248.0L222.0 248.0Z" fill-rule="nonzero"/><path fill="#4285f4" clip-path="url(#id_0)" d="M222.0 248.0L212.0 248.0L212.0 248.0L222.0 248.0Z" fill-rule="nonzero"/><path stroke="#000000" stroke-width="2.0" stroke-linecap="butt" stroke-opacity="0.0" clip-path="url(#id_0)" d="M279.0 248.0L269.0 248.0L269.0 248.0L279.0 248.0Z" fill-rule="nonzero"/><path fill="#4285f4" clip-path="url(#id_0)" d="M279.0 248.0L269.0 248.0L269.0 248.0L279.0 248.0Z" fill-rule="nonzero"/><path stroke="#000000" stroke-width="2.0" stroke-linecap="butt" stroke-opacity="0.0" clip-path="url(#id_0)" d="M337.0 248.0L327.0 248.0L327.0 248.0L337.0 248.0Z" fill-rule="nonzero"/><path fill="#4285f4" clip-path="url(#id_0)" d="M337.0 248.0L327.0 248.0L327.0 248.0L337.0 248.0Z" fill-rule="nonzero"/><path stroke="#000000" stroke-width="2.0" stroke-linecap="butt" stroke-opacity="0.0" clip-path="url(#id_0)" d="M394.0 248.0L384.0 248.0L384.0 248.0L394.0 248.0Z" fill-rule="nonzero"/><path fill="#4285f4" clip-path="url(#id_0)" d="M394.0 248.0L384.0 248.0L384.0 248.0L394.0 248.0Z" fill-rule="nonzero"/><path stroke="#000000" stroke-width="2.0" stroke-linecap="butt" stroke-opacity="0.0" clip-path="url(#id_0)" d="M452.0 248.0L442.0 248.0L442.0 248.0L452.0 248.0Z" fill-rule="nonzero"/><path fill="#4285f4" clip-path="url(#id_0)" d="M452.0 248.0L442.0 248.0L442.0 248.0L452.0 248.0Z" fill-rule="nonzero"/><path stroke="#000000" stroke-width="2.0" stroke-linecap="butt" stroke-opacity="0.0" clip-path="url(#id_0)" d="M509.0 248.0L499.0 248.0L499.0 248.0L509.0 248.0Z" fill-rule="nonzero"/><path fill="#4285f4" clip-path="url(#id_0)" d="M509.0 248.0L499.0 248.0L499.0 248.0L509.0 248.0Z" fill-rule="nonzero"/><path stroke="#000000" stroke-width="2.0" stroke-linecap="butt" stroke-opacity="0.0" clip-path="url(#id_0)" d="M567.0 248.0L557.0 248.0L557.0 248.0L567.0 248.0Z" fill-rule="nonzero"/><path fill="#4285f4" clip-path="url(#id_0)" d="M567.0 248.0L557.0 248.0L557.0 248.0L567.0 248.0Z" fill-rule="nonzero"/><path stroke="#000000" stroke-width="2.0" stroke-linecap="butt" stroke-opacity="0.0" clip-path="url(#id_0)" d="M624.0 248.0L614.0 248.0L614.0 248.0L624.0 248.0Z" fill-rule="nonzero"/><path fill="#4285f4" clip-path="url(#id_0)" d="M624.0 248.0L614.0 248.0L614.0 248.0L624.0 248.0Z" fill-rule="nonzero"/><path stroke="#000000" stroke-width="2.0" stroke-linecap="butt" stroke-opacity="0.0" clip-path="url(#id_0)" d="M682.0 248.0L672.0 248.0L672.0 248.0L682.0 248.0Z" fill-rule="nonzero"/><path fill="#4285f4" clip-path="url(#id_0)" d="M682.0 248.0L672.0 248.0L672.0 248.0L682.0 248.0Z" fill-rule="nonzero"/><path stroke="#000000" stroke-width="2.0" stroke-linecap="butt" stroke-opacity="0.0" clip-path="url(#id_0)" d="M739.0 248.0L729.0 248.0L729.0 248.0L739.0 248.0Z" fill-rule="nonzero"/><path fill="#4285f4" clip-path="url(#id_0)" d="M739.0 248.0L729.0 248.0L729.0 248.0L739.0 248.0Z" fill-rule="nonzero"/><path stroke="#000000" stroke-width="2.0" stroke-linecap="butt" stroke-opacity="0.0" clip-path="url(#id_0)" d="M797.0 248.0L787.0 248.0L787.0 248.0L797.0 248.0Z" fill-rule="nonzero"/><path fill="#4285f4" clip-path="url(#id_0)" d="M797.0 248.0L787.0 248.0L787.0 248.0L797.0 248.0Z" fill-rule="nonzero"/><path stroke="#000000" stroke-width="2.0" stroke-linecap="butt" stroke-opacity="0.0" clip-path="url(#id_0)" d="M854.0 248.0L844.0 248.0L844.0 248.0C844.0 248.0 844.0 248.0 844.0 248.0L854.0 248.0C854.0 248.0 854.0 248.0 854.0 248.0Z" fill-rule="nonzero"/><path fill="#4285f4" clip-path="url(#id_0)" d="M854.0 248.0L844.0 248.0L844.0 248.0C844.0 248.0 844.0 248.0 844.0 248.0L854.0 248.0C854.0 248.0 854.0 248.0 854.0 248.0Z" fill-rule="nonzero"/><path stroke="#000000" stroke-width="2.0" stroke-linecap="butt" stroke-opacity="0.0" clip-path="url(#id_0)" d="M912.0 248.0L902.0 248.0L902.0 248.0L912.0 248.0Z" fill-rule="nonzero"/><path fill="#4285f4" clip-path="url(#id_0)" d="M912.0 248.0L902.0 248.0L902.0 248.0L912.0 248.0Z" fill-rule="nonzero"/><path stroke="#000000" stroke-width="2.0" stroke-linecap="butt" stroke-opacity="0.0" clip-path="url(#id_0)" d="M969.0 248.0L959.0 248.0L959.0 248.0L969.0 248.0Z" fill-rule="nonzero"/><path fill="#4285f4" clip-path="url(#id_0)" d="M969.0 248.0L959.0 248.0L959.0 248.0L969.0 248.0Z" fill-rule="nonzero"/><path stroke="#000000" stroke-width="2.0" stroke-linecap="butt" stroke-opacity="0.0" clip-path="url(#id_0)" d="M119.0 248.0L109.0 248.0L109.0 248.0L119.0 248.0Z" fill-rule="nonzero"/><path fill="#ea4335" clip-path="url(#id_0)" d="M119.0 248.0L109.0 248.0L109.0 248.0L119.0 248.0Z" fill-rule="nonzero"/><path stroke="#000000" stroke-width="2.0" stroke-linecap="butt" stroke-opacity="0.0" clip-path="url(#id_0)" d="M176.0 248.0L166.0 248.0L166.0 248.0L176.0 248.0Z" fill-rule="nonzero"/><path fill="#ea4335" clip-path="url(#id_0)" d="M176.0 248.0L166.0 248.0L166.0 248.0L176.0 248.0Z" fill-rule="nonzero"/><path stroke="#000000" stroke-width="2.0" stroke-linecap="butt" stroke-opacity="0.0" clip-path="url(#id_0)" d="M234.0 248.0L224.0 248.0L224.0 248.0L234.0 248.0Z" fill-rule="nonzero"/><path fill="#ea4335" clip-path="url(#id_0)" d="M234.0 248.0L224.0 248.0L224.0 248.0L234.0 248.0Z" fill-rule="nonzero"/><path stroke="#000000" stroke-width="2.0" stroke-linecap="butt" stroke-opacity="0.0" clip-path="url(#id_0)" d="M291.0 248.0L281.0 248.0L281.0 248.0L291.0 248.0Z" fill-rule="nonzero"/><path fill="#ea4335" clip-path="url(#id_0)" d="M291.0 248.0L281.0 248.0L281.0 248.0L291.0 248.0Z" fill-rule="nonzero"/><path stroke="#000000" stroke-width="2.0" stroke-linecap="butt" stroke-opacity="0.0" clip-path="url(#id_0)" d="M349.0 248.0L339.0 248.0L339.0 248.0L349.0 248.0Z" fill-rule="nonzero"/><path fill="#ea4335" clip-path="url(#id_0)" d="M349.0 248.0L339.0 248.0L339.0 248.0L349.0 248.0Z" fill-rule="nonzero"/><path stroke="#000000" stroke-width="2.0" stroke-linecap="butt" stroke-opacity="0.0" clip-path="url(#id_0)" d="M406.0 248.0L396.0 248.0L396.0 248.0L406.0 248.0Z" fill-rule="nonzero"/><path fill="#ea4335" clip-path="url(#id_0)" d="M406.0 248.0L396.0 248.0L396.0 248.0L406.0 248.0Z" fill-rule="nonzero"/><path stroke="#000000" stroke-width="2.0" stroke-linecap="butt" stroke-opacity="0.0" clip-path="url(#id_0)" d="M464.0 248.0L454.0 248.0L454.0 248.0L464.0 248.0Z" fill-rule="nonzero"/><path fill="#ea4335" clip-path="url(#id_0)" d="M464.0 248.0L454.0 248.0L454.0 248.0L464.0 248.0Z" fill-rule="nonzero"/><path stroke="#000000" stroke-width="2.0" stroke-linecap="butt" stroke-opacity="0.0" clip-path="url(#id_0)" d="M521.0 248.0L511.0 248.0L511.0 248.0L521.0 248.0Z" fill-rule="nonzero"/><path fill="#ea4335" clip-path="url(#id_0)" d="M521.0 248.0L511.0 248.0L511.0 248.0L521.0 248.0Z" fill-rule="nonzero"/><path stroke="#000000" stroke-width="2.0" stroke-linecap="butt" stroke-opacity="0.0" clip-path="url(#id_0)" d="M579.0 248.0L569.0 248.0L569.0 248.0L579.0 248.0Z" fill-rule="nonzero"/><path fill="#ea4335" clip-path="url(#id_0)" d="M579.0 248.0L569.0 248.0L569.0 248.0L579.0 248.0Z" fill-rule="nonzero"/><path stroke="#000000" stroke-width="2.0" stroke-linecap="butt" stroke-opacity="0.0" clip-path="url(#id_0)" d="M636.0 248.0L626.0 248.0L626.0 248.0L636.0 248.0Z" fill-rule="nonzero"/><path fill="#ea4335" clip-path="url(#id_0)" d="M636.0 248.0L626.0 248.0L626.0 248.0L636.0 248.0Z" fill-rule="nonzero"/><path stroke="#000000" stroke-width="2.0" stroke-linecap="butt" stroke-opacity="0.0" clip-path="url(#id_0)" d="M694.0 248.0L684.0 248.0L684.0 248.0L694.0 248.0Z" fill-rule="nonzero"/><path fill="#ea4335" clip-path="url(#id_0)" d="M694.0 248.0L684.0 248.0L684.0 248.0L694.0 248.0Z" fill-rule="nonzero"/><path stroke="#000000" stroke-width="2.0" stroke-linecap="butt" stroke-opacity="0.0" clip-path="url(#id_0)" d="M751.0 248.0L741.0 248.0L741.0 248.0L751.0 248.0Z" fill-rule="nonzero"/><path fill="#ea4335" clip-path="url(#id_0)" d="M751.0 248.0L741.0 248.0L741.0 248.0L751.0 248.0Z" fill-rule="nonzero"/><path stroke="#000000" stroke-width="2.0" stroke-linecap="butt" stroke-opacity="0.0" clip-path="url(#id_0)" d="M809.0 248.0L799.0 248.0L799.0 248.0L809.0 248.0Z" fill-rule="nonzero"/><path fill="#ea4335" clip-path="url(#id_0)" d="M809.0 248.0L799.0 248.0L799.0 248.0L809.0 248.0Z" fill-rule="nonzero"/><path stroke="#000000" stroke-width="2.0" stroke-linecap="butt" stroke-opacity="0.0" clip-path="url(#id_0)" d="M866.0 248.0L856.0 248.0L856.0 248.0L866.0 248.0Z" fill-rule="nonzero"/><path fill="#ea4335" clip-path="url(#id_0)" d="M866.0 248.0L856.0 248.0L856.0 248.0L866.0 248.0Z" fill-rule="nonzero"/><path stroke="#000000" stroke-width="2.0" stroke-linecap="butt" stroke-opacity="0.0" clip-path="url(#id_0)" d="M924.0 248.0L914.0 248.0L914.0 248.0L924.0 248.0Z" fill-rule="nonzero"/><path fill="#ea4335" clip-path="url(#id_0)" d="M924.0 248.0L914.0 248.0L914.0 248.0L924.0 248.0Z" fill-rule="nonzero"/><path stroke="#000000" stroke-width="2.0" stroke-linecap="butt" stroke-opacity="0.0" clip-path="url(#id_0)" d="M981.0 248.0L971.0 248.0L971.0 248.0L981.0 248.0Z" fill-rule="nonzero"/><path fill="#ea4335" clip-path="url(#id_0)" d="M981.0 248.0L971.0 248.0L971.0 248.0L981.0 248.0Z" fill-rule="nonzero"/><path stroke="#000000" stroke-width="2.0" stroke-linecap="butt" stroke-opacity="0.0" clip-path="url(#id_0)" d="M131.0 248.0L121.0 248.0L121.0 248.0L131.0 248.0Z" fill-rule="nonzero"/><path fill="#fbbc04" clip-path="url(#id_0)" d="M131.0 248.0L121.0 248.0L121.0 248.0L131.0 248.0Z" fill-rule="nonzero"/><path stroke="#000000" stroke-width="2.0" stroke-linecap="butt" stroke-opacity="0.0" clip-path="url(#id_0)" d="M188.0 248.0L178.0 248.0L178.0 230.0C178.0 228.89543 178.89543 228.0 180.0 228.0L186.0 228.0C187.10457 228.0 188.0 228.89543 188.0 230.0Z" fill-rule="nonzero"/><path fill="#fbbc04" clip-path="url(#id_0)" d="M188.0 248.0L178.0 248.0L178.0 230.0C178.0 228.89543 178.89543 228.0 180.0 228.0L186.0 228.0C187.10457 228.0 188.0 228.89543 188.0 230.0Z" fill-rule="nonzero"/><path stroke="#000000" stroke-width="2.0" stroke-linecap="butt" stroke-opacity="0.0" clip-path="url(#id_0)" d="M246.0 248.0L236.0 248.0L236.0 198.0C236.0 196.89543 236.89543 196.0 238.0 196.0L244.0 196.0C245.10457 196.0 246.0 196.89543 246.0 198.0Z" fill-rule="nonzero"/><path fill="#fbbc04" clip-path="url(#id_0)" d="M246.0 248.0L236.0 248.0L236.0 198.0C236.0 196.89543 236.89543 196.0 238.0 196.0L244.0 196.0C245.10457 196.0 246.0 196.89543 246.0 198.0Z" fill-rule="nonzero"/><path stroke="#000000" stroke-width="2.0" stroke-linecap="butt" stroke-opacity="0.0" clip-path="url(#id_0)" d="M303.0 248.0L293.0 248.0L293.0 170.0C293.0 168.89543 293.89542 168.0 295.0 168.0L301.0 168.0C302.10458 168.0 303.0 168.89543 303.0 170.0Z" fill-rule="nonzero"/><path fill="#fbbc04" clip-path="url(#id_0)" d="M303.0 248.0L293.0 248.0L293.0 170.0C293.0 168.89543 293.89542 168.0 295.0 168.0L301.0 168.0C302.10458 168.0 303.0 168.89543 303.0 170.0Z" fill-rule="nonzero"/><path stroke="#000000" stroke-width="2.0" stroke-linecap="butt" stroke-opacity="0.0" clip-path="url(#id_0)" d="M361.0 248.0L351.0 248.0L351.0 161.0C351.0 159.89543 351.89542 159.0 353.0 159.0L359.0 159.0C360.10458 159.0 361.0 159.89543 361.0 161.0Z" fill-rule="nonzero"/><path fill="#fbbc04" clip-path="url(#id_0)" d="M361.0 248.0L351.0 248.0L351.0 161.0C351.0 159.89543 351.89542 159.0 353.0 159.0L359.0 159.0C360.10458 159.0 361.0 159.89543 361.0 161.0Z" fill-rule="nonzero"/><path stroke="#000000" stroke-width="2.0" stroke-linecap="butt" stroke-opacity="0.0" clip-path="url(#id_0)" d="M418.0 248.0L408.0 248.0L408.0 119.0C408.0 117.89543 408.89542 117.0 410.0 117.0L416.0 117.0C417.10458 117.0 418.0 117.89543 418.0 119.0Z" fill-rule="nonzero"/><path fill="#fbbc04" clip-path="url(#id_0)" d="M418.0 248.0L408.0 248.0L408.0 119.0C408.0 117.89543 408.89542 117.0 410.0 117.0L416.0 117.0C417.10458 117.0 418.0 117.89543 418.0 119.0Z" fill-rule="nonzero"/><path stroke="#000000" stroke-width="2.0" stroke-linecap="butt" stroke-opacity="0.0" clip-path="url(#id_0)" d="M476.0 248.0L466.0 248.0L466.0 104.0C466.0 102.89543 466.89542 102.0 468.0 102.0L474.0 102.0C475.10458 102.0 476.0 102.89543 476.0 104.0Z" fill-rule="nonzero"/><path fill="#fbbc04" clip-path="url(#id_0)" d="M476.0 248.0L466.0 248.0L466.0 104.0C466.0 102.89543 466.89542 102.0 468.0 102.0L474.0 102.0C475.10458 102.0 476.0 102.89543 476.0 104.0Z" fill-rule="nonzero"/><path stroke="#000000" stroke-width="2.0" stroke-linecap="butt" stroke-opacity="0.0" clip-path="url(#id_0)" d="M533.0 248.0L523.0 248.0L523.0 95.0C523.0 93.89543 523.89545 93.0 525.0 93.0L531.0 93.0C532.10455 93.0 533.0 93.89543 533.0 95.0Z" fill-rule="nonzero"/><path fill="#fbbc04" clip-path="url(#id_0)" d="M533.0 248.0L523.0 248.0L523.0 95.0C523.0 93.89543 523.89545 93.0 525.0 93.0L531.0 93.0C532.10455 93.0 533.0 93.89543 533.0 95.0Z" fill-rule="nonzero"/><path stroke="#000000" stroke-width="2.0" stroke-linecap="butt" stroke-opacity="0.0" clip-path="url(#id_0)" d="M591.0 248.0L581.0 248.0L581.0 82.0C581.0 80.89543 581.89545 80.0 583.0 80.0L589.0 80.0C590.10455 80.0 591.0 80.89543 591.0 82.0Z" fill-rule="nonzero"/><path fill="#fbbc04" clip-path="url(#id_0)" d="M591.0 248.0L581.0 248.0L581.0 82.0C581.0 80.89543 581.89545 80.0 583.0 80.0L589.0 80.0C590.10455 80.0 591.0 80.89543 591.0 82.0Z" fill-rule="nonzero"/><path stroke="#000000" stroke-width="2.0" stroke-linecap="butt" stroke-opacity="0.0" clip-path="url(#id_0)" d="M648.0 248.0L638.0 248.0L638.0 77.0C638.0 75.89543 638.89545 75.0 640.0 75.0L646.0 75.0C647.10455 75.0 648.0 75.89543 648.0 77.0Z" fill-rule="nonzero"/><path fill="#fbbc04" clip-path="url(#id_0)" d="M648.0 248.0L638.0 248.0L638.0 77.0C638.0 75.89543 638.89545 75.0 640.0 75.0L646.0 75.0C647.10455 75.0 648.0 75.89543 648.0 77.0Z" fill-rule="nonzero"/><path stroke="#000000" stroke-width="2.0" stroke-linecap="butt" stroke-opacity="0.0" clip-path="url(#id_0)" d="M706.0 248.0L696.0 248.0L696.0 72.0C696.0 70.89543 696.89545 70.0 698.0 70.0L704.0 70.0C705.10455 70.0 706.0 70.89543 706.0 72.0Z" fill-rule="nonzero"/><path fill="#fbbc04" clip-path="url(#id_0)" d="M706.0 248.0L696.0 248.0L696.0 72.0C696.0 70.89543 696.89545 70.0 698.0 70.0L704.0 70.0C705.10455 70.0 706.0 70.89543 706.0 72.0Z" fill-rule="nonzero"/><path stroke="#000000" stroke-width="2.0" stroke-linecap="butt" stroke-opacity="0.0" clip-path="url(#id_0)" d="M763.0 248.0L753.0 248.0L753.0 58.0C753.0 56.89543 753.89545 56.0 755.0 56.0L761.0 56.0C762.10455 56.0 763.0 56.89543 763.0 58.0Z" fill-rule="nonzero"/><path fill="#fbbc04" clip-path="url(#id_0)" d="M763.0 248.0L753.0 248.0L753.0 58.0C753.0 56.89543 753.89545 56.0 755.0 56.0L761.0 56.0C762.10455 56.0 763.0 56.89543 763.0 58.0Z" fill-rule="nonzero"/><path stroke="#000000" stroke-width="2.0" stroke-linecap="butt" stroke-opacity="0.0" clip-path="url(#id_0)" d="M821.0 248.0L811.0 248.0L811.0 74.0C811.0 72.89543 811.89545 72.0 813.0 72.0L819.0 72.0C820.10455 72.0 821.0 72.89543 821.0 74.0Z" fill-rule="nonzero"/><path fill="#fbbc04" clip-path="url(#id_0)" d="M821.0 248.0L811.0 248.0L811.0 74.0C811.0 72.89543 811.89545 72.0 813.0 72.0L819.0 72.0C820.10455 72.0 821.0 72.89543 821.0 74.0Z" fill-rule="nonzero"/><path stroke="#000000" stroke-width="2.0" stroke-linecap="butt" stroke-opacity="0.0" clip-path="url(#id_0)" d="M878.0 248.0L868.0 248.0L868.0 67.0C868.0 65.89543 868.89545 65.0 870.0 65.0L876.0 65.0C877.10455 65.0 878.0 65.89543 878.0 67.0Z" fill-rule="nonzero"/><path fill="#fbbc04" clip-path="url(#id_0)" d="M878.0 248.0L868.0 248.0L868.0 67.0C868.0 65.89543 868.89545 65.0 870.0 65.0L876.0 65.0C877.10455 65.0 878.0 65.89543 878.0 67.0Z" fill-rule="nonzero"/><path stroke="#000000" stroke-width="2.0" stroke-linecap="butt" stroke-opacity="0.0" clip-path="url(#id_0)" d="M936.0 248.0L926.0 248.0L926.0 52.0C926.0 50.89543 926.89545 50.0 928.0 50.0L934.0 50.0C935.10455 50.0 936.0 50.89543 936.0 52.0Z" fill-rule="nonzero"/><path fill="#fbbc04" clip-path="url(#id_0)" d="M936.0 248.0L926.0 248.0L926.0 52.0C926.0 50.89543 926.89545 50.0 928.0 50.0L934.0 50.0C935.10455 50.0 936.0 50.89543 936.0 52.0Z" fill-rule="nonzero"/><path stroke="#000000" stroke-width="2.0" stroke-linecap="butt" stroke-opacity="0.0" clip-path="url(#id_0)" d="M993.0 248.0L983.0 248.0L983.0 56.0C983.0 54.89543 983.89545 54.0 985.0 54.0L991.0 54.0C992.10455 54.0 993.0 54.89543 993.0 56.0Z" fill-rule="nonzero"/><path fill="#fbbc04" clip-path="url(#id_0)" d="M993.0 248.0L983.0 248.0L983.0 56.0C983.0 54.89543 983.89545 54.0 985.0 54.0L991.0 54.0C992.10455 54.0 993.0 54.89543 993.0 56.0Z" fill-rule="nonzero"/><path fill="#000000" d="M525.1094 297.2L525.1094 289.6219L522.28125 289.6219L522.28125 288.60626L529.09375 288.60626L529.09375 289.6219L526.25 289.6219L526.25 297.2L525.1094 297.2ZM529.7969 297.2L529.7969 288.60626L530.84375 288.60626L530.84375 291.6844Q531.5781 290.84064 532.7031 290.84064Q533.40625 290.84064 533.90625 291.1219Q534.4219 291.3875 534.6406 291.8719Q534.8594 292.34064 534.8594 293.2625L534.8594 297.2L533.8125 297.2L533.8125 293.2625Q533.8125 292.46564 533.46875 292.10626Q533.125 291.7469 532.5 291.7469Q532.03125 291.7469 531.6094 291.9969Q531.2031 292.23126 531.0156 292.65314Q530.84375 293.0594 530.84375 293.79376L530.84375 297.2L529.7969 297.2ZM536.78125 297.2L536.78125 290.98126L537.7344 290.98126L537.7344 291.91876Q538.09375 291.2625 538.3906 291.0594Q538.7031 290.84064 539.0781 290.84064Q539.6094 290.84064 540.15625 291.16876L539.7969 292.15314Q539.40625 291.91876 539.03125 291.91876Q538.6719 291.91876 538.3906 292.1375Q538.125 292.34064 538.0156 292.71564Q537.8281 293.27814 537.8281 293.9344L537.8281 297.2L536.78125 297.2ZM545.0469 295.2L546.1406 295.325Q545.8906 296.27814 545.1875 296.8094Q544.4844 297.34064 543.40625 297.34064Q542.0469 297.34064 541.2344 296.4969Q540.4375 295.65314 540.4375 294.1375Q540.4375 292.575 541.25 291.71564Q542.0625 290.84064 543.34375 290.84064Q544.59375 290.84064 545.375 291.6844Q546.1719 292.52814 546.1719 294.075Q546.1719 294.16876 546.1719 294.35626L541.53125 294.35626Q541.59375 295.3875 542.1094 295.9344Q542.625 296.46564 543.40625 296.46564Q543.9844 296.46564 544.3906 296.16876Q544.8125 295.85626 545.0469 295.2ZM541.59375 293.4969L545.0625 293.4969Q545.0 292.7 544.6719 292.3094Q544.15625 291.7 543.3594 291.7Q542.625 291.7 542.125 292.1844Q541.6406 292.66876 541.59375 293.4969ZM551.8594 296.4344Q551.2656 296.9344 550.71875 297.1375Q550.1875 297.34064 549.5625 297.34064Q548.53125 297.34064 547.9844 296.84064Q547.4375 296.34064 547.4375 295.5594Q547.4375 295.10626 547.6406 294.73126Q547.84375 294.34064 548.1875 294.1219Q548.53125 293.8875 548.9531 293.77814Q549.25 293.6844 549.8906 293.60626Q551.15625 293.46564 551.7656 293.2469Q551.7656 293.02814 551.7656 292.98126Q551.7656 292.325 551.46875 292.0594Q551.0625 291.71564 550.2656 291.71564Q549.53125 291.71564 549.1719 291.98126Q548.8125 292.23126 548.6406 292.8875L547.6094 292.7469Q547.75 292.09064 548.0781 291.6844Q548.40625 291.27814 549.0156 291.0594Q549.625 290.84064 550.4219 290.84064Q551.21875 290.84064 551.71875 291.02814Q552.21875 291.21564 552.4531 291.4969Q552.6875 291.77814 552.78125 292.21564Q552.8281 292.48126 552.8281 293.1844L552.8281 294.59064Q552.8281 296.0594 552.8906 296.45Q552.96875 296.84064 553.1719 297.2L552.0625 297.2Q551.90625 296.8719 551.8594 296.4344ZM551.7656 294.075Q551.1875 294.3094 550.0469 294.48126Q549.3906 294.575 549.125 294.7Q548.8594 294.8094 548.7031 295.02814Q548.5625 295.2469 548.5625 295.52814Q548.5625 295.95 548.875 296.23126Q549.2031 296.5125 549.8125 296.5125Q550.4219 296.5125 550.8906 296.2469Q551.375 295.98126 551.59375 295.5125Q551.7656 295.15314 551.7656 294.46564L551.7656 294.075ZM558.8281 297.2L558.8281 296.41876Q558.2344 297.34064 557.09375 297.34064Q556.34375 297.34064 555.71875 296.9344Q555.09375 296.5125 554.75 295.77814Q554.40625 295.04376 554.40625 294.09064Q554.40625 293.16876 554.71875 292.40314Q555.03125 291.6375 555.65625 291.2469Q556.28125 290.84064 557.0469 290.84064Q557.6094 290.84064 558.0469 291.075Q558.4844 291.3094 558.7656 291.6844L558.7656 288.60626L559.8125 288.60626L559.8125 297.2L558.8281 297.2ZM555.5 294.09064Q555.5 295.29376 556.0 295.8875Q556.5 296.46564 557.1875 296.46564Q557.875 296.46564 558.3594 295.90314Q558.84375 295.34064 558.84375 294.1844Q558.84375 292.90314 558.34375 292.3094Q557.8594 291.71564 557.1406 291.71564Q556.4375 291.71564 555.96875 292.29376Q555.5 292.85626 555.5 294.09064ZM561.375 295.34064L562.40625 295.1844Q562.5 295.8094 562.8906 296.1375Q563.2969 296.46564 564.03125 296.46564Q564.75 296.46564 565.09375 296.1844Q565.4531 295.8875 565.4531 295.48126Q565.4531 295.1219 565.1406 294.91876Q564.9219 294.77814 564.0625 294.5594Q562.90625 294.2625 562.4531 294.0594Q562.0156 293.84064 561.78125 293.46564Q561.5469 293.09064 561.5469 292.6219Q561.5469 292.21564 561.7344 291.85626Q561.9219 291.4969 562.25 291.2625Q562.5 291.09064 562.9219 290.96564Q563.34375 290.84064 563.84375 290.84064Q564.5625 290.84064 565.1094 291.0594Q565.6719 291.2625 565.9375 291.6219Q566.2031 291.98126 566.2969 292.575L565.2656 292.71564Q565.2031 292.2469 564.8594 291.98126Q564.53125 291.7 563.90625 291.7Q563.1875 291.7 562.875 291.95Q562.5625 292.1844 562.5625 292.5125Q562.5625 292.71564 562.6875 292.8719Q562.8281 293.04376 563.09375 293.15314Q563.25 293.21564 564.03125 293.41876Q565.15625 293.73126 565.59375 293.91876Q566.03125 294.10626 566.28125 294.46564Q566.53125 294.825 566.53125 295.3719Q566.53125 295.90314 566.21875 296.3719Q565.9219 296.825 565.34375 297.09064Q564.7656 297.34064 564.03125 297.34064Q562.8125 297.34064 562.1719 296.84064Q561.5469 296.325 561.375 295.34064Z" fill-rule="nonzero"/><path fill="#000000" d="M26.800013 198.82916L18.206263 198.82916L18.206263 195.01666Q18.206263 193.86041 18.440638 193.26666Q18.675013 192.67291 19.268763 192.31354Q19.846888 191.95416 20.550013 191.95416Q21.471888 191.95416 22.096888 192.54791Q22.721888 193.14166 22.893763 194.37604Q23.112513 193.92291 23.315638 193.68854Q23.768763 193.18854 24.456263 192.75104L26.800013 191.25104L26.800013 192.68854L25.018763 193.81354Q24.237513 194.31354 23.831263 194.64166Q23.425013 194.95416 23.268763 195.21979Q23.096888 195.46979 23.018763 195.73541Q22.987513 195.92291 22.987513 196.36041L22.987513 197.68854L26.800013 197.68854L26.800013 198.82916ZM22.003138 197.68854L22.003138 195.23541Q22.003138 194.46979 21.846888 194.03229Q21.675013 193.57916 21.331263 193.36041Q20.971888 193.12604 20.550013 193.12604Q19.940638 193.12604 19.550013 193.57916Q19.159388 194.01666 19.159388 194.96979L19.159388 197.68854L22.003138 197.68854ZM24.800013 185.71979L24.925013 184.62604Q25.878138 184.87604 26.409388 185.57916Q26.940638 186.28229 26.940638 187.36041Q26.940638 188.71979 26.096888 189.53229Q25.253138 190.32916 23.737513 190.32916Q22.175013 190.32916 21.315638 189.51666Q20.440638 188.70416 20.440638 187.42291Q20.440638 186.17291 21.284388 185.39166Q22.128138 184.59479 23.675013 184.59479Q23.768763 184.59479 23.956263 184.59479L23.956263 189.23541Q24.987513 189.17291 25.534388 188.65729Q26.065638 188.14166 26.065638 187.36041Q26.065638 186.78229 25.768763 186.37604Q25.456263 185.95416 24.800013 185.71979ZM23.096888 189.17291L23.096888 185.70416Q22.300013 185.76666 21.909388 186.09479Q21.300013 186.61041 21.300013 187.40729Q21.300013 188.14166 21.784388 188.64166Q22.268763 189.12604 23.096888 189.17291ZM25.862513 180.67291L26.784388 180.51666Q26.878138 180.96979 26.878138 181.31354Q26.878138 181.89166 26.706263 182.20416Q26.518763 182.51666 26.221888 182.65729Q25.925013 182.78229 24.971888 182.78229L21.393763 182.78229L21.393763 183.54791L20.581263 183.54791L20.581263 182.78229L19.034388 182.78229L18.409388 181.73541L20.581263 181.73541L20.581263 180.67291L21.393763 180.67291L21.393763 181.73541L25.034388 181.73541Q25.487513 181.73541 25.612513 181.68854Q25.737513 181.62604 25.815638 181.50104Q25.893763 181.37604 25.893763 181.14166Q25.893763 180.95416 25.862513 180.67291ZM26.800013 179.98541L20.581263 179.98541L20.581263 179.03229L21.518763 179.03229Q20.862513 178.67291 20.659388 178.37604Q20.440638 178.06354 20.440638 177.68854Q20.440638 177.15729 20.768763 176.61041L21.753138 176.96979Q21.518763 177.36041 21.518763 177.73541Q21.518763 178.09479 21.737513 178.37604Q21.940638 178.64166 22.315638 178.75104Q22.878138 178.93854 23.534388 178.93854L26.800013 178.93854L26.800013 179.98541ZM19.425013 175.96979L18.206263 175.96979L18.206263 174.90729L19.425013 174.90729L19.425013 175.96979ZM26.800013 175.96979L20.581263 175.96979L20.581263 174.90729L26.800013 174.90729L26.800013 175.96979ZM24.800013 168.71979L24.925013 167.62604Q25.878138 167.87604 26.409388 168.57916Q26.940638 169.28229 26.940638 170.36041Q26.940638 171.71979 26.096888 172.53229Q25.253138 173.32916 23.737513 173.32916Q22.175013 173.32916 21.315638 172.51666Q20.440638 171.70416 20.440638 170.42291Q20.440638 169.17291 21.284388 168.39166Q22.128138 167.59479 23.675013 167.59479Q23.768763 167.59479 23.956263 167.59479L23.956263 172.23541Q24.987513 172.17291 25.534388 171.65729Q26.065638 171.14166 26.065638 170.36041Q26.065638 169.78229 25.768763 169.37604Q25.456263 168.95416 24.800013 168.71979ZM23.096888 172.17291L23.096888 168.70416Q22.300013 168.76666 21.909388 169.09479Q21.300013 169.61041 21.300013 170.40729Q21.300013 171.14166 21.784388 171.64166Q22.268763 172.12604 23.096888 172.17291ZM24.940638 166.39166L24.784388 165.36041Q25.409388 165.26666 25.737513 164.87604Q26.065638 164.46979 26.065638 163.73541Q26.065638 163.01666 25.784388 162.67291Q25.487513 162.31354 25.081263 162.31354Q24.721888 162.31354 24.518763 162.62604Q24.378138 162.84479 24.159388 163.70416Q23.862513 164.86041 23.659388 165.31354Q23.440638 165.75104 23.065638 165.98541Q22.690638 166.21979 22.221888 166.21979Q21.815638 166.21979 21.456263 166.03229Q21.096888 165.84479 20.862513 165.51666Q20.690638 165.26666 20.565638 164.84479Q20.440638 164.42291 20.440638 163.92291Q20.440638 163.20416 20.659388 162.65729Q20.862513 162.09479 21.221888 161.82916Q21.581263 161.56354 22.175013 161.46979L22.315638 162.50104Q21.846888 162.56354 21.581263 162.90729Q21.300013 163.23541 21.300013 163.86041Q21.300013 164.57916 21.550013 164.89166Q21.784388 165.20416 22.112513 165.20416Q22.315638 165.20416 22.471888 165.07916Q22.643763 164.93854 22.753138 164.67291Q22.815638 164.51666 23.018763 163.73541Q23.331263 162.61041 23.518763 162.17291Q23.706263 161.73541 24.065638 161.48541Q24.425013 161.23541 24.971888 161.23541Q25.503138 161.23541 25.971888 161.54791Q26.425013 161.84479 26.690638 162.42291Q26.940638 163.00104 26.940638 163.73541Q26.940638 164.95416 26.440638 165.59479Q25.925013 166.21979 24.940638 166.39166ZM26.940638 156.76666L18.065638 154.28229L18.065638 153.43854L26.940638 155.92291L26.940638 156.76666ZM24.034388 150.21979L23.940638 149.15729Q24.596888 149.07916 25.003138 148.79791Q25.409388 148.51666 25.675013 147.93854Q25.925013 147.34479 25.925013 146.61041Q25.925013 145.96979 25.737513 145.46979Q25.534388 144.96979 25.206263 144.73541Q24.862513 144.48541 24.471888 144.48541Q24.065638 144.48541 23.768763 144.71979Q23.456263 144.95416 23.253138 145.48541Q23.112513 145.84479 22.831263 147.03229Q22.550013 148.20416 22.300013 148.67291Q21.971888 149.29791 21.503138 149.59479Q21.018763 149.89166 20.425013 149.89166Q19.784388 149.89166 19.221888 149.53229Q18.643763 149.15729 18.362513 148.45416Q18.065638 147.73541 18.065638 146.87604Q18.065638 145.92291 18.378138 145.18854Q18.675013 144.45416 19.284388 144.06354Q19.878138 143.67291 20.628138 143.64166L20.706263 144.73541Q19.893763 144.82916 19.487513 145.34479Q19.065638 145.84479 19.065638 146.82916Q19.065638 147.86041 19.440638 148.32916Q19.815638 148.79791 20.346888 148.79791Q20.815638 148.79791 21.112513 148.46979Q21.409388 148.14166 21.721888 146.76666Q22.034388 145.37604 22.268763 144.86041Q22.628138 144.11041 23.159388 143.75104Q23.675013 143.39166 24.378138 143.39166Q25.065638 143.39166 25.675013 143.78229Q26.268763 144.17291 26.612513 144.90729Q26.940638 145.64166 26.940638 146.56354Q26.940638 147.73541 26.612513 148.53229Q26.268763 149.31354 25.581263 149.76666Q24.893763 150.20416 24.034388 150.21979ZM24.800013 137.71979L24.925013 136.62604Q25.878138 136.87604 26.409388 137.57916Q26.940638 138.28229 26.940638 139.36041Q26.940638 140.71979 26.096888 141.53229Q25.253138 142.32916 23.737513 142.32916Q22.175013 142.32916 21.315638 141.51666Q20.440638 140.70416 20.440638 139.42291Q20.440638 138.17291 21.284388 137.39166Q22.128138 136.59479 23.675013 136.59479Q23.768763 136.59479 23.956263 136.59479L23.956263 141.23541Q24.987513 141.17291 25.534388 140.65729Q26.065638 140.14166 26.065638 139.36041Q26.065638 138.78229 25.768763 138.37604Q25.456263 137.95416 24.800013 137.71979ZM23.096888 141.17291L23.096888 137.70416Q22.300013 137.76666 21.909388 138.09479Q21.300013 138.61041 21.300013 139.40729Q21.300013 140.14166 21.784388 140.64166Q22.268763 141.12604 23.096888 141.17291ZM24.518763 130.90729L24.659388 129.87604Q25.721888 130.04791 26.331263 130.75104Q26.940638 131.45416 26.940638 132.46979Q26.940638 133.75104 26.112513 134.53229Q25.268763 135.29791 23.706263 135.29791Q22.706263 135.29791 21.956263 134.96979Q21.190638 134.62604 20.815638 133.95416Q20.440638 133.26666 20.440638 132.45416Q20.440638 131.45416 20.956263 130.81354Q21.456263 130.15729 22.409388 129.96979L22.565638 131.00104Q21.940638 131.14166 21.628138 131.51666Q21.300013 131.89166 21.300013 132.42291Q21.300013 133.21979 21.878138 133.71979Q22.440638 134.21979 23.675013 134.21979Q24.940638 134.21979 25.503138 133.73541Q26.065638 133.25104 26.065638 132.48541Q26.065638 131.86041 25.690638 131.45416Q25.315638 131.03229 24.518763 130.90729ZM23.690638 129.36041Q21.956263 129.36041 21.128138 128.40729Q20.440638 127.61041 20.440638 126.45416Q20.440638 125.17291 21.284388 124.36041Q22.112513 123.53229 23.596888 123.53229Q24.800013 123.53229 25.487513 123.89166Q26.175013 124.25104 26.565638 124.95416Q26.940638 125.64166 26.940638 126.45416Q26.940638 127.75104 26.112513 128.56354Q25.268763 129.36041 23.690638 129.36041ZM23.690638 128.28229Q24.878138 128.28229 25.471888 127.76666Q26.065638 127.23541 26.065638 126.45416Q26.065638 125.65729 25.471888 125.14166Q24.878138 124.62604 23.659388 124.62604Q22.503138 124.62604 21.909388 125.15729Q21.315638 125.67291 21.315638 126.45416Q21.315638 127.23541 21.909388 127.76666Q22.487513 128.28229 23.690638 128.28229ZM26.800013 121.96979L20.581263 121.96979L20.581263 121.03229L21.456263 121.03229Q20.440638 120.34479 20.440638 119.04791Q20.440638 118.48541 20.643763 118.01666Q20.846888 117.53229 21.175013 117.29791Q21.503138 117.06354 21.940638 116.96979Q22.237513 116.92291 22.971888 116.92291L26.800013 116.92291L26.800013 117.96979L23.018763 117.96979Q22.362513 117.96979 22.050013 118.09479Q21.737513 118.21979 21.550013 118.53229Q21.346888 118.84479 21.346888 119.26666Q21.346888 119.93854 21.784388 120.43854Q22.206263 120.92291 23.393763 120.92291L26.800013 120.92291L26.800013 121.96979ZM26.800013 110.93854L26.018763 110.93854Q26.940638 111.53229 26.940638 112.67291Q26.940638 113.42291 26.534388 114.04791Q26.112513 114.67291 25.378138 115.01666Q24.643763 115.36041 23.690638 115.36041Q22.768763 115.36041 22.003138 115.04791Q21.237513 114.73541 20.846888 114.11041Q20.440638 113.48541 20.440638 112.71979Q20.440638 112.15729 20.675013 111.71979Q20.909388 111.28229 21.284388 111.00104L18.206263 111.00104L18.206263 109.95416L26.800013 109.95416L26.800013 110.93854ZM23.690638 114.26666Q24.893763 114.26666 25.487513 113.76666Q26.065638 113.26666 26.065638 112.57916Q26.065638 111.89166 25.503138 111.40729Q24.940638 110.92291 23.784388 110.92291Q22.503138 110.92291 21.909388 111.42291Q21.315638 111.90729 21.315638 112.62604Q21.315638 113.32916 21.893763 113.79791Q22.456263 114.26666 23.690638 114.26666Z" fill-rule="nonzero"/><path fill="#000000" d="M62.3 247.96562Q62.3 246.43437 62.6125 245.5125Q62.925 244.575 63.534374 244.075Q64.15938 243.575 65.09688 243.575Q65.78438 243.575 66.3 243.85625Q66.83125 244.1375 67.175 244.66875Q67.51875 245.18437 67.70625 245.93437Q67.89375 246.68437 67.89375 247.96562Q67.89375 249.48125 67.58125 250.40312Q67.28438 251.325 66.65938 251.84062Q66.05 252.34062 65.09688 252.34062Q63.8625 252.34062 63.14375 251.45Q62.3 250.3875 62.3 247.96562ZM63.378124 247.96562Q63.378124 250.075 63.878124 250.77812Q64.37813 251.48125 65.09688 251.48125Q65.83125 251.48125 66.31563 250.77812Q66.81563 250.075 66.81563 247.96562Q66.81563 245.84062 66.31563 245.15312Q65.83125 244.45 65.08125 244.45Q64.3625 244.45 63.925 245.05937Q63.378124 245.84062 63.378124 247.96562Z" fill-rule="nonzero"/><path fill="#000000" d="M52.26875 201.98334L51.221874 201.98334L51.221874 195.26459Q50.83125 195.62396 50.20625 195.99896Q49.596874 196.35834 49.1125 196.53021L49.1125 195.51459Q49.9875 195.09271 50.64375 194.51459Q51.315624 193.92084 51.596874 193.35834L52.26875 193.35834L52.26875 201.98334ZM55.3 197.74896Q55.3 196.21771 55.6125 195.29584Q55.925 194.35834 56.534374 193.85834Q57.159374 193.35834 58.096874 193.35834Q58.784374 193.35834 59.3 193.63959Q59.83125 193.92084 60.175 194.45209Q60.51875 194.96771 60.70625 195.71771Q60.89375 196.46771 60.89375 197.74896Q60.89375 199.26459 60.58125 200.18646Q60.284374 201.10834 59.659374 201.62396Q59.05 202.12396 58.096874 202.12396Q56.8625 202.12396 56.14375 201.23334Q55.3 200.17084 55.3 197.74896ZM56.378124 197.74896Q56.378124 199.85834 56.878124 200.56146Q57.378124 201.26459 58.096874 201.26459Q58.83125 201.26459 59.315624 200.56146Q59.815624 199.85834 59.815624 197.74896Q59.815624 195.62396 59.315624 194.93646Q58.83125 194.23334 58.08125 194.23334Q57.3625 194.23334 56.925 194.84271Q56.378124 195.62396 56.378124 197.74896ZM62.3 197.74896Q62.3 196.21771 62.6125 195.29584Q62.925 194.35834 63.534374 193.85834Q64.15938 193.35834 65.09688 193.35834Q65.78438 193.35834 66.3 193.63959Q66.83125 193.92084 67.175 194.45209Q67.51875 194.96771 67.70625 195.71771Q67.89375 196.46771 67.89375 197.74896Q67.89375 199.26459 67.58125 200.18646Q67.28438 201.10834 66.65938 201.62396Q66.05 202.12396 65.09688 202.12396Q63.8625 202.12396 63.14375 201.23334Q62.3 200.17084 62.3 197.74896ZM63.378124 197.74896Q63.378124 199.85834 63.878124 200.56146Q64.37813 201.26459 65.09688 201.26459Q65.83125 201.26459 66.31563 200.56146Q66.81563 199.85834 66.81563 197.74896Q66.81563 195.62396 66.31563 194.93646Q65.83125 194.23334 65.08125 194.23334Q64.3625 194.23334 63.925 194.84271Q63.378124 195.62396 63.378124 197.74896Z" fill-rule="nonzero"/><path fill="#000000" d="M53.846874 150.75104L53.846874 151.76666L48.159374 151.76666Q48.159374 151.39166 48.284374 151.03229Q48.503124 150.45416 48.971874 149.89166Q49.45625 149.32916 50.3625 148.59479Q51.76875 147.43854 52.253124 146.76666Q52.753124 146.09479 52.753124 145.50104Q52.753124 144.87604 52.3 144.45416Q51.846874 144.01666 51.128124 144.01666Q50.3625 144.01666 49.909374 144.46979Q49.45625 144.92291 49.440624 145.73541L48.3625 145.62604Q48.471874 144.40729 49.190624 143.78229Q49.925 143.14166 51.159374 143.14166Q52.39375 143.14166 53.1125 143.82916Q53.83125 144.51666 53.83125 145.53229Q53.83125 146.04791 53.6125 146.54791Q53.409374 147.03229 52.909374 147.59479Q52.425 148.14166 51.3 149.09479Q50.346874 149.89166 50.065624 150.18854Q49.8 150.46979 49.628124 150.75104L53.846874 150.75104ZM55.3 147.53229Q55.3 146.00104 55.6125 145.07916Q55.925 144.14166 56.534374 143.64166Q57.159374 143.14166 58.096874 143.14166Q58.784374 143.14166 59.3 143.42291Q59.83125 143.70416 60.175 144.23541Q60.51875 144.75104 60.70625 145.50104Q60.89375 146.25104 60.89375 147.53229Q60.89375 149.04791 60.58125 149.96979Q60.284374 150.89166 59.659374 151.40729Q59.05 151.90729 58.096874 151.90729Q56.8625 151.90729 56.14375 151.01666Q55.3 149.95416 55.3 147.53229ZM56.378124 147.53229Q56.378124 149.64166 56.878124 150.34479Q57.378124 151.04791 58.096874 151.04791Q58.83125 151.04791 59.315624 150.34479Q59.815624 149.64166 59.815624 147.53229Q59.815624 145.40729 59.315624 144.71979Q58.83125 144.01666 58.08125 144.01666Q57.3625 144.01666 56.925 144.62604Q56.378124 145.40729 56.378124 147.53229ZM62.3 147.53229Q62.3 146.00104 62.6125 145.07916Q62.925 144.14166 63.534374 143.64166Q64.15938 143.14166 65.09688 143.14166Q65.78438 143.14166 66.3 143.42291Q66.83125 143.70416 67.175 144.23541Q67.51875 144.75104 67.70625 145.50104Q67.89375 146.25104 67.89375 147.53229Q67.89375 149.04791 67.58125 149.96979Q67.28438 150.89166 66.65938 151.40729Q66.05 151.90729 65.09688 151.90729Q63.8625 151.90729 63.14375 151.01666Q62.3 149.95416 62.3 147.53229ZM63.378124 147.53229Q63.378124 149.64166 63.878124 150.34479Q64.37813 151.04791 65.09688 151.04791Q65.83125 151.04791 66.31563 150.34479Q66.81563 149.64166 66.81563 147.53229Q66.81563 145.40729 66.31563 144.71979Q65.83125 144.01666 65.08125 144.01666Q64.3625 144.01666 63.925 144.62604Q63.378124 145.40729 63.378124 147.53229Z" fill-rule="nonzero"/><path fill="#000000" d="M48.3 99.28438L49.3625 99.14375Q49.534374 100.03438 49.971874 100.44063Q50.409374 100.83125 51.034374 100.83125Q51.784374 100.83125 52.3 100.31563Q52.815624 99.8 52.815624 99.03438Q52.815624 98.31563 52.33125 97.84688Q51.8625 97.3625 51.128124 97.3625Q50.83125 97.3625 50.378124 97.4875L50.503124 96.55Q50.6125 96.56563 50.675 96.56563Q51.346874 96.56563 51.878124 96.22188Q52.425 95.8625 52.425 95.12813Q52.425 94.55 52.034374 94.175Q51.64375 93.78438 51.01875 93.78438Q50.409374 93.78438 49.9875 94.175Q49.58125 94.56563 49.471874 95.33125L48.409374 95.14375Q48.596874 94.09688 49.284374 93.51875Q49.971874 92.925 50.9875 92.925Q51.690624 92.925 52.284374 93.2375Q52.878124 93.53438 53.190624 94.05Q53.503124 94.56563 53.503124 95.15938Q53.503124 95.70625 53.20625 96.175Q52.909374 96.62813 52.33125 96.89375Q53.08125 97.06563 53.503124 97.62813Q53.925 98.175 53.925 99.01875Q53.925 100.14375 53.096874 100.925Q52.284374 101.70625 51.034374 101.70625Q49.909374 101.70625 49.159374 101.03438Q48.409374 100.34688 48.3 99.28438ZM55.3 97.31563Q55.3 95.78438 55.6125 94.8625Q55.925 93.925 56.534374 93.425Q57.159374 92.925 58.096874 92.925Q58.784374 92.925 59.3 93.20625Q59.83125 93.4875 60.175 94.01875Q60.51875 94.53438 60.70625 95.28438Q60.89375 96.03438 60.89375 97.31563Q60.89375 98.83125 60.58125 99.75313Q60.284374 100.675 59.659374 101.19063Q59.05 101.69063 58.096874 101.69063Q56.8625 101.69063 56.14375 100.8Q55.3 99.7375 55.3 97.31563ZM56.378124 97.31563Q56.378124 99.425 56.878124 100.12813Q57.378124 100.83125 58.096874 100.83125Q58.83125 100.83125 59.315624 100.12813Q59.815624 99.425 59.815624 97.31563Q59.815624 95.19063 59.315624 94.50313Q58.83125 93.8 58.08125 93.8Q57.3625 93.8 56.925 94.40938Q56.378124 95.19063 56.378124 97.31563ZM62.3 97.31563Q62.3 95.78438 62.6125 94.8625Q62.925 93.925 63.534374 93.425Q64.15938 92.925 65.09688 92.925Q65.78438 92.925 66.3 93.20625Q66.83125 93.4875 67.175 94.01875Q67.51875 94.53438 67.70625 95.28438Q67.89375 96.03438 67.89375 97.31563Q67.89375 98.83125 67.58125 99.75313Q67.28438 100.675 66.65938 101.19063Q66.05 101.69063 65.09688 101.69063Q63.8625 101.69063 63.14375 100.8Q62.3 99.7375 62.3 97.31563ZM63.378124 97.31563Q63.378124 99.425 63.878124 100.12813Q64.37813 100.83125 65.09688 100.83125Q65.83125 100.83125 66.31563 100.12813Q66.81563 99.425 66.81563 97.31563Q66.81563 95.19063 66.31563 94.50313Q65.83125 93.8 65.08125 93.8Q64.3625 93.8 63.925 94.40938Q63.378124 95.19063 63.378124 97.31563Z" fill-rule="nonzero"/><path fill="#000000" d="M51.675 51.333332L51.675 49.270832L47.95625 49.270832L47.95625 48.302082L51.878124 42.739582L52.7375 42.739582L52.7375 48.302082L53.89375 48.302082L53.89375 49.270832L52.7375 49.270832L52.7375 51.333332L51.675 51.333332ZM51.675 48.302082L51.675 44.442707L48.9875 48.302082L51.675 48.302082ZM55.3 47.098957Q55.3 45.567707 55.6125 44.645832Q55.925 43.708332 56.534374 43.208332Q57.159374 42.708332 58.096874 42.708332Q58.784374 42.708332 59.3 42.989582Q59.83125 43.270832 60.175 43.802082Q60.51875 44.317707 60.70625 45.067707Q60.89375 45.817707 60.89375 47.098957Q60.89375 48.614582 60.58125 49.536457Q60.284374 50.458332 59.659374 50.973957Q59.05 51.473957 58.096874 51.473957Q56.8625 51.473957 56.14375 50.583332Q55.3 49.520832 55.3 47.098957ZM56.378124 47.098957Q56.378124 49.208332 56.878124 49.911457Q57.378124 50.614582 58.096874 50.614582Q58.83125 50.614582 59.315624 49.911457Q59.815624 49.208332 59.815624 47.098957Q59.815624 44.973957 59.315624 44.286457Q58.83125 43.583332 58.08125 43.583332Q57.3625 43.583332 56.925 44.192707Q56.378124 44.973957 56.378124 47.098957ZM62.3 47.098957Q62.3 45.567707 62.6125 44.645832Q62.925 43.708332 63.534374 43.208332Q64.15938 42.708332 65.09688 42.708332Q65.78438 42.708332 66.3 42.989582Q66.83125 43.270832 67.175 43.802082Q67.51875 44.317707 67.70625 45.067707Q67.89375 45.817707 67.89375 47.098957Q67.89375 48.614582 67.58125 49.536457Q67.28438 50.458332 66.65938 50.973957Q66.05 51.473957 65.09688 51.473957Q63.8625 51.473957 63.14375 50.583332Q62.3 49.520832 62.3 47.098957ZM63.378124 47.098957Q63.378124 49.208332 63.878124 49.911457Q64.37813 50.614582 65.09688 50.614582Q65.83125 50.614582 66.31563 49.911457Q66.81563 49.208332 66.81563 47.098957Q66.81563 44.973957 66.31563 44.286457Q65.83125 43.583332 65.08125 43.583332Q64.3625 43.583332 63.925 44.192707Q63.378124 44.973957 63.378124 47.098957Z" fill-rule="nonzero"/><path fill="#000000" d="M114.592606 265.2L113.54573 265.2L113.54573 258.48126Q113.155106 258.84064 112.530106 259.21564Q111.92073 259.575 111.436356 259.7469L111.436356 258.73126Q112.311356 258.3094 112.967606 257.73126Q113.63948 257.1375 113.92073 256.575L114.592606 256.575L114.592606 265.2Z" fill-rule="nonzero"/><path fill="#000000" d="M173.68755 264.1844L173.68755 265.2L168.00005 265.2Q168.00005 264.825 168.12505 264.46564Q168.3438 263.8875 168.81255 263.325Q169.29692 262.7625 170.20317 262.02814Q171.60942 260.8719 172.0938 260.2Q172.5938 259.52814 172.5938 258.9344Q172.5938 258.3094 172.14067 257.8875Q171.68755 257.45 170.9688 257.45Q170.20317 257.45 169.75005 257.90314Q169.29692 258.35626 169.2813 259.16876L168.20317 259.0594Q168.31255 257.84064 169.0313 257.21564Q169.76567 256.575 171.00005 256.575Q172.23442 256.575 172.95317 257.2625Q173.67192 257.95 173.67192 258.96564Q173.67192 259.48126 173.45317 259.98126Q173.25005 260.46564 172.75005 261.02814Q172.26567 261.575 171.14067 262.52814Q170.18755 263.325 169.9063 263.6219Q169.64067 263.90314 169.4688 264.1844L173.68755 264.1844Z" fill-rule="nonzero"/><path fill="#000000" d="M225.65749 262.9344L226.71999 262.79376Q226.89186 263.6844 227.32936 264.09064Q227.76686 264.48126 228.39186 264.48126Q229.14186 264.48126 229.65749 263.96564Q230.17311 263.45 230.17311 262.6844Q230.17311 261.96564 229.68874 261.4969Q229.21999 261.0125 228.48561 261.0125Q228.18874 261.0125 227.73561 261.1375L227.86061 260.2Q227.96999 260.21564 228.03249 260.21564Q228.70436 260.21564 229.23561 259.8719Q229.78249 259.5125 229.78249 258.77814Q229.78249 258.2 229.39186 257.825Q229.00124 257.4344 228.37624 257.4344Q227.76686 257.4344 227.34499 257.825Q226.93874 258.21564 226.82936 258.98126L225.76686 258.79376Q225.95436 257.7469 226.64186 257.16876Q227.32936 256.575 228.34499 256.575Q229.04811 256.575 229.64186 256.8875Q230.23561 257.1844 230.54811 257.7Q230.86061 258.21564 230.86061 258.8094Q230.86061 259.35626 230.56374 259.825Q230.26686 260.27814 229.68874 260.54376Q230.43874 260.71564 230.86061 261.27814Q231.28249 261.825 231.28249 262.66876Q231.28249 263.79376 230.45436 264.575Q229.64186 265.35626 228.39186 265.35626Q227.26686 265.35626 226.51686 264.6844Q225.76686 263.9969 225.65749 262.9344Z" fill-rule="nonzero"/><path fill="#000000" d="M286.54932 265.2L286.54932 263.1375L282.83057 263.1375L282.83057 262.16876L286.75244 256.60626L287.61182 256.60626L287.61182 262.16876L288.76807 262.16876L288.76807 263.1375L287.61182 263.1375L287.61182 265.2L286.54932 265.2ZM286.54932 262.16876L286.54932 258.3094L283.86182 262.16876L286.54932 262.16876Z" fill-rule="nonzero"/><path fill="#000000" d="M340.69113 262.95L341.8005 262.85626Q341.9255 263.66876 342.363 264.075Q342.81613 264.48126 343.45676 264.48126Q344.20676 264.48126 344.738 263.90314Q345.26926 263.325 345.26926 262.3875Q345.26926 261.48126 344.75363 260.96564Q344.25363 260.4344 343.4255 260.4344Q342.9255 260.4344 342.50363 260.66876Q342.09738 260.90314 341.863 261.2625L340.87863 261.1375L341.70676 256.73126L345.988 256.73126L345.988 257.73126L342.5505 257.73126L342.09738 260.04376Q342.863 259.4969 343.70676 259.4969Q344.83176 259.4969 345.59738 260.27814Q346.37863 261.0594 346.37863 262.29376Q346.37863 263.45 345.70676 264.3094Q344.87863 265.34064 343.45676 265.34064Q342.28488 265.34064 341.53488 264.6844Q340.8005 264.02814 340.69113 262.95Z" fill-rule="nonzero"/><path fill="#000000" d="M403.6767 258.71564L402.62982 258.79376Q402.4892 258.16876 402.2392 257.8875Q401.8017 257.4344 401.1767 257.4344Q400.6767 257.4344 400.28607 257.71564Q399.8017 258.09064 399.50482 258.79376Q399.22357 259.48126 399.20795 260.7625Q399.58295 260.1844 400.12982 259.90314Q400.69232 259.6219 401.3017 259.6219Q402.34857 259.6219 403.08295 260.40314Q403.83295 261.1844 403.83295 262.40314Q403.83295 263.21564 403.47357 263.91876Q403.12982 264.60626 402.52045 264.98126Q401.91107 265.34064 401.14545 265.34064Q399.81732 265.34064 398.9892 264.3719Q398.16107 263.40314 398.16107 261.1844Q398.16107 258.6844 399.08295 257.5594Q399.87982 256.575 401.2392 256.575Q402.25482 256.575 402.89545 257.15314Q403.5517 257.71564 403.6767 258.71564ZM399.37982 262.41876Q399.37982 262.96564 399.59857 263.46564Q399.83295 263.95 400.2392 264.21564Q400.66107 264.48126 401.12982 264.48126Q401.78607 264.48126 402.27045 263.95Q402.75482 263.40314 402.75482 262.48126Q402.75482 261.59064 402.27045 261.075Q401.8017 260.5594 401.08295 260.5594Q400.3642 260.5594 399.8642 261.075Q399.37982 261.59064 399.37982 262.41876Z" fill-rule="nonzero"/><path fill="#000000" d="M455.78726 257.73126L455.78726 256.71564L461.34976 256.71564L461.34976 257.54376Q460.53726 258.41876 459.72476 259.8719Q458.9279 261.3094 458.4904 262.84064Q458.16226 263.91876 458.08414 265.2L456.9904 265.2Q457.006 264.1844 457.381 262.7469Q457.77164 261.3094 458.47476 259.98126Q459.1935 258.65314 460.006 257.73126L455.78726 257.73126Z" fill-rule="nonzero"/><path fill="#000000" d="M514.8666 260.54376Q514.2103 260.29376 513.8822 259.85626Q513.5697 259.40314 513.5697 258.79376Q513.5697 257.85626 514.2416 257.21564Q514.9291 256.575 516.03845 256.575Q517.16345 256.575 517.85095 257.23126Q518.53845 257.8875 518.53845 258.825Q518.53845 259.41876 518.22595 259.85626Q517.91345 260.29376 517.2728 260.54376Q518.0697 260.79376 518.47595 261.3719Q518.8822 261.95 518.8822 262.7469Q518.8822 263.84064 518.10095 264.59064Q517.3353 265.34064 516.0541 265.34064Q514.78845 265.34064 514.0072 264.59064Q513.22595 263.84064 513.22595 262.71564Q513.22595 261.8719 513.6478 261.3094Q514.0853 260.7469 514.8666 260.54376ZM514.6478 258.7469Q514.6478 259.35626 515.03845 259.7469Q515.4447 260.1375 516.0697 260.1375Q516.6791 260.1375 517.0697 259.7625Q517.4603 259.3719 517.4603 258.8094Q517.4603 258.23126 517.0541 257.84064Q516.6478 257.4344 516.0541 257.4344Q515.4447 257.4344 515.03845 257.825Q514.6478 258.21564 514.6478 258.7469ZM514.3197 262.71564Q514.3197 263.16876 514.5228 263.59064Q514.7416 264.0125 515.16345 264.2469Q515.5853 264.48126 516.0697 264.48126Q516.8197 264.48126 517.3041 263.9969Q517.8041 263.5125 517.8041 262.7625Q517.8041 261.9969 517.3041 261.4969Q516.8041 260.9969 516.03845 260.9969Q515.28845 260.9969 514.8041 261.4969Q514.3197 261.98126 514.3197 262.71564Z" fill-rule="nonzero"/><path fill="#000000" d="M570.9147 263.21564L571.9303 263.1219Q572.0553 263.84064 572.4147 264.16876Q572.7897 264.48126 573.3522 264.48126Q573.83655 264.48126 574.1959 264.2625Q574.5709 264.02814 574.8053 263.66876Q575.0397 263.29376 575.1959 262.66876Q575.3522 262.02814 575.3522 261.3719Q575.3522 261.29376 575.3522 261.15314Q575.0397 261.65314 574.4928 261.98126Q573.9459 262.29376 573.3053 262.29376Q572.2272 262.29376 571.4928 261.52814Q570.7584 260.7469 570.7584 259.48126Q570.7584 258.16876 571.52405 257.3719Q572.3053 256.575 573.46155 256.575Q574.2897 256.575 574.9772 257.02814Q575.6803 257.48126 576.0397 258.325Q576.39905 259.15314 576.39905 260.73126Q576.39905 262.3719 576.0397 263.35626Q575.6959 264.325 574.9772 264.84064Q574.27405 265.34064 573.33655 265.34064Q572.3209 265.34064 571.6803 264.79376Q571.0397 264.23126 570.9147 263.21564ZM575.2272 259.41876Q575.2272 258.5125 574.7428 257.98126Q574.27405 257.45 573.58655 257.45Q572.8834 257.45 572.3522 258.02814Q571.83655 258.59064 571.83655 259.5125Q571.83655 260.325 572.33655 260.84064Q572.83655 261.35626 573.5553 261.35626Q574.2897 261.35626 574.7584 260.84064Q575.2272 260.325 575.2272 259.41876Z" fill-rule="nonzero"/><path fill="#000000" d="M628.74396 265.2L627.6971 265.2L627.6971 258.48126Q627.30646 258.84064 626.68146 259.21564Q626.0721 259.575 625.5877 259.7469L625.5877 258.73126Q626.4627 258.3094 627.11896 257.73126Q627.79083 257.1375 628.0721 256.575L628.74396 256.575L628.74396 265.2ZM631.7752 260.96564Q631.7752 259.4344 632.0877 258.5125Q632.4002 257.575 633.0096 257.075Q633.6346 256.575 634.5721 256.575Q635.2596 256.575 635.7752 256.85626Q636.30646 257.1375 636.6502 257.66876Q636.99396 258.1844 637.18146 258.9344Q637.36896 259.6844 637.36896 260.96564Q637.36896 262.48126 637.05646 263.40314Q636.7596 264.325 636.1346 264.84064Q635.5252 265.34064 634.5721 265.34064Q633.3377 265.34064 632.61896 264.45Q631.7752 263.3875 631.7752 260.96564ZM632.85333 260.96564Q632.85333 263.075 633.35333 263.77814Q633.85333 264.48126 634.5721 264.48126Q635.30646 264.48126 635.79083 263.77814Q636.29083 263.075 636.29083 260.96564Q636.29083 258.84064 635.79083 258.15314Q635.30646 257.45 634.55646 257.45Q633.8377 257.45 633.4002 258.0594Q632.85333 258.84064 632.85333 260.96564Z" fill-rule="nonzero"/><path fill="#000000" d="M686.2608 265.2L685.2139 265.2L685.2139 258.48126Q684.8233 258.84064 684.1983 259.21564Q683.5889 259.575 683.10455 259.7469L683.10455 258.73126Q683.97955 258.3094 684.6358 257.73126Q685.3077 257.1375 685.5889 256.575L686.2608 256.575L686.2608 265.2ZM693.2608 265.2L692.2139 265.2L692.2139 258.48126Q691.8233 258.84064 691.1983 259.21564Q690.5889 259.575 690.10455 259.7469L690.10455 258.73126Q690.97955 258.3094 691.6358 257.73126Q692.3077 257.1375 692.5889 256.575L693.2608 256.575L693.2608 265.2Z" fill-rule="nonzero"/><path fill="#000000" d="M743.77765 265.2L742.7308 265.2L742.7308 258.48126Q742.34015 258.84064 741.71515 259.21564Q741.1058 259.575 740.6214 259.7469L740.6214 258.73126Q741.4964 258.3094 742.15265 257.73126Q742.8245 257.1375 743.1058 256.575L743.77765 256.575L743.77765 265.2ZM752.3558 264.1844L752.3558 265.2L746.6683 265.2Q746.6683 264.825 746.7933 264.46564Q747.012 263.8875 747.4808 263.325Q747.96515 262.7625 748.8714 262.02814Q750.27765 260.8719 750.762 260.2Q751.262 259.52814 751.262 258.9344Q751.262 258.3094 750.8089 257.8875Q750.3558 257.45 749.637 257.45Q748.8714 257.45 748.4183 257.90314Q747.96515 258.35626 747.9495 259.16876L746.8714 259.0594Q746.9808 257.84064 747.6995 257.21564Q748.4339 256.575 749.6683 256.575Q750.90265 256.575 751.6214 257.2625Q752.34015 257.95 752.34015 258.96564Q752.34015 259.48126 752.1214 259.98126Q751.9183 260.46564 751.4183 261.02814Q750.9339 261.575 749.8089 262.52814Q748.8558 263.325 748.5745 263.6219Q748.3089 263.90314 748.137 264.1844L752.3558 264.1844Z" fill-rule="nonzero"/><path fill="#000000" d="M801.29443 265.2L800.24756 265.2L800.24756 258.48126Q799.85693 258.84064 799.23193 259.21564Q798.62256 259.575 798.1382 259.7469L798.1382 258.73126Q799.0132 258.3094 799.66943 257.73126Q800.3413 257.1375 800.62256 256.575L801.29443 256.575L801.29443 265.2ZM804.3257 262.9344L805.3882 262.79376Q805.56006 263.6844 805.99756 264.09064Q806.43506 264.48126 807.06006 264.48126Q807.81006 264.48126 808.3257 263.96564Q808.8413 263.45 808.8413 262.6844Q808.8413 261.96564 808.35693 261.4969Q807.8882 261.0125 807.1538 261.0125Q806.85693 261.0125 806.4038 261.1375L806.5288 260.2Q806.6382 260.21564 806.7007 260.21564Q807.37256 260.21564 807.9038 259.8719Q808.4507 259.5125 808.4507 258.77814Q808.4507 258.2 808.06006 257.825Q807.66943 257.4344 807.04443 257.4344Q806.43506 257.4344 806.0132 257.825Q805.60693 258.21564 805.49756 258.98126L804.43506 258.79376Q804.62256 257.7469 805.31006 257.16876Q805.99756 256.575 807.0132 256.575Q807.7163 256.575 808.31006 256.8875Q808.9038 257.1844 809.2163 257.7Q809.5288 258.21564 809.5288 258.8094Q809.5288 259.35626 809.23193 259.825Q808.93506 260.27814 808.35693 260.54376Q809.10693 260.71564 809.5288 261.27814Q809.9507 261.825 809.9507 262.66876Q809.9507 263.79376 809.12256 264.575Q808.31006 265.35626 807.06006 265.35626Q805.93506 265.35626 805.18506 264.6844Q804.43506 263.9969 804.3257 262.9344Z" fill-rule="nonzero"/><path fill="#000000" d="M858.8113 265.2L857.7644 265.2L857.7644 258.48126Q857.3738 258.84064 856.7488 259.21564Q856.1394 259.575 855.655 259.7469L855.655 258.73126Q856.53 258.3094 857.1863 257.73126Q857.85815 257.1375 858.1394 256.575L858.8113 256.575L858.8113 265.2ZM865.2175 265.2L865.2175 263.1375L861.4988 263.1375L861.4988 262.16876L865.42065 256.60626L866.28 256.60626L866.28 262.16876L867.4363 262.16876L867.4363 263.1375L866.28 263.1375L866.28 265.2L865.2175 265.2ZM865.2175 262.16876L865.2175 258.3094L862.53 262.16876L865.2175 262.16876Z" fill-rule="nonzero"/><path fill="#000000" d="M916.32806 265.2L915.2812 265.2L915.2812 258.48126Q914.89056 258.84064 914.26556 259.21564Q913.6562 259.575 913.1718 259.7469L913.1718 258.73126Q914.0468 258.3094 914.70306 257.73126Q915.37494 257.1375 915.6562 256.575L916.32806 256.575L916.32806 265.2ZM919.3593 262.95L920.4687 262.85626Q920.5937 263.66876 921.0312 264.075Q921.4843 264.48126 922.12494 264.48126Q922.87494 264.48126 923.4062 263.90314Q923.93744 263.325 923.93744 262.3875Q923.93744 261.48126 923.4218 260.96564Q922.9218 260.4344 922.0937 260.4344Q921.5937 260.4344 921.1718 260.66876Q920.76556 260.90314 920.5312 261.2625L919.5468 261.1375L920.37494 256.73126L924.6562 256.73126L924.6562 257.73126L921.2187 257.73126L920.76556 260.04376Q921.5312 259.4969 922.37494 259.4969Q923.49994 259.4969 924.26556 260.27814Q925.0468 261.0594 925.0468 262.29376Q925.0468 263.45 924.37494 264.3094Q923.5468 265.34064 922.12494 265.34064Q920.95306 265.34064 920.20306 264.6844Q919.4687 264.02814 919.3593 262.95Z" fill-rule="nonzero"/><path fill="#000000" d="M973.8449 265.2L972.79803 265.2L972.79803 258.48126Q972.4074 258.84064 971.7824 259.21564Q971.17303 259.575 970.68866 259.7469L970.68866 258.73126Q971.56366 258.3094 972.2199 257.73126Q972.8918 257.1375 973.17303 256.575L973.8449 256.575L973.8449 265.2ZM982.3449 258.71564L981.29803 258.79376Q981.1574 258.16876 980.9074 257.8875Q980.4699 257.4344 979.8449 257.4344Q979.3449 257.4344 978.9543 257.71564Q978.4699 258.09064 978.17303 258.79376Q977.8918 259.48126 977.87616 260.7625Q978.25116 260.1844 978.79803 259.90314Q979.36053 259.6219 979.9699 259.6219Q981.0168 259.6219 981.75116 260.40314Q982.50116 261.1844 982.50116 262.40314Q982.50116 263.21564 982.1418 263.91876Q981.79803 264.60626 981.18866 264.98126Q980.5793 265.34064 979.81366 265.34064Q978.48553 265.34064 977.6574 264.3719Q976.8293 263.40314 976.8293 261.1844Q976.8293 258.6844 977.75116 257.5594Q978.54803 256.575 979.9074 256.575Q980.92303 256.575 981.56366 257.15314Q982.2199 257.71564 982.3449 258.71564ZM978.04803 262.41876Q978.04803 262.96564 978.2668 263.46564Q978.50116 263.95 978.9074 264.21564Q979.3293 264.48126 979.79803 264.48126Q980.4543 264.48126 980.93866 263.95Q981.42303 263.40314 981.42303 262.48126Q981.42303 261.59064 980.93866 261.075Q980.4699 260.5594 979.75116 260.5594Q979.0324 260.5594 978.5324 261.075Q978.04803 261.59064 978.04803 262.41876Z" fill-rule="nonzero"/><path fill="#4285f4" d="M361.0 17.8C361.0 17.247715 361.44772 16.8 362.0 16.8L372.0 16.8C372.55228 16.8 373.0 17.247715 373.0 17.8L373.0 27.8C373.0 28.352285 372.55228 28.8 372.0 28.8L362.0 28.8C361.44772 28.8 361.0 28.352285 361.0 27.8Z" fill-rule="nonzero"/><path fill="#1a1a1a" d="M381.92188 26.8L381.92188 18.20625L384.89062 18.20625Q385.89062 18.20625 386.42188 18.33125Q387.15625 18.503124 387.67188 18.940624Q388.35938 19.51875 388.6875 20.425Q389.03125 21.315624 389.03125 22.45625Q389.03125 23.440624 388.79688 24.190624Q388.57812 24.940624 388.21875 25.440624Q387.85938 25.940624 387.42188 26.221874Q387.0 26.503124 386.40625 26.659374Q385.8125 26.8 385.03125 26.8L381.92188 26.8ZM383.0625 25.784374L384.89062 25.784374Q385.75 25.784374 386.23438 25.628124Q386.71875 25.471874 387.0 25.175Q387.40625 24.784374 387.625 24.096874Q387.85938 23.409374 387.85938 22.440624Q387.85938 21.096874 387.40625 20.378124Q386.96875 19.64375 386.34375 19.39375Q385.875 19.221874 384.875 19.221874L383.0625 19.221874L383.0625 25.784374ZM390.95312 26.8L390.95312 18.20625L397.15625 18.20625L397.15625 19.221874L392.09375 19.221874L392.09375 21.846874L396.84375 21.846874L396.84375 22.8625L392.09375 22.8625L392.09375 25.784374L397.35938 25.784374L397.35938 26.8L390.95312 26.8ZM398.98438 26.8L398.98438 18.20625L404.78125 18.20625L404.78125 19.221874L400.125 19.221874L400.125 21.878124L404.15625 21.878124L404.15625 22.89375L400.125 22.89375L400.125 26.8L398.98438 26.8ZM405.95312 26.8L405.95312 18.20625L412.15625 18.20625L412.15625 19.221874L407.09375 19.221874L407.09375 21.846874L411.84375 21.846874L411.84375 22.8625L407.09375 22.8625L407.09375 25.784374L412.35938 25.784374L412.35938 26.8L405.95312 26.8ZM413.9375 26.8L413.9375 18.20625L417.75 18.20625Q418.90625 18.20625 419.5 18.440624Q420.09375 18.675 420.45312 19.26875Q420.8125 19.846874 420.8125 20.55Q420.8125 21.471874 420.21875 22.096874Q419.625 22.721874 418.39062 22.89375Q418.84375 23.1125 419.07812 23.315624Q419.57812 23.76875 420.01562 24.45625L421.51562 26.8L420.07812 26.8L418.95312 25.01875Q418.45312 24.2375 418.125 23.83125Q417.8125 23.425 417.54688 23.26875Q417.29688 23.096874 417.03125 23.01875Q416.84375 22.9875 416.40625 22.9875L415.07812 22.9875L415.07812 26.8L413.9375 26.8ZM415.07812 22.003124L417.53125 22.003124Q418.29688 22.003124 418.73438 21.846874Q419.1875 21.675 419.40625 21.33125Q419.64062 20.971874 419.64062 20.55Q419.64062 19.940624 419.1875 19.55Q418.75 19.159374 417.79688 19.159374L415.07812 19.159374L415.07812 22.003124ZM422.9375 26.8L422.9375 18.20625L426.75 18.20625Q427.90625 18.20625 428.5 18.440624Q429.09375 18.675 429.45312 19.26875Q429.8125 19.846874 429.8125 20.55Q429.8125 21.471874 429.21875 22.096874Q428.625 22.721874 427.39062 22.89375Q427.84375 23.1125 428.07812 23.315624Q428.57812 23.76875 429.01562 24.45625L430.51562 26.8L429.07812 26.8L427.95312 25.01875Q427.45312 24.2375 427.125 23.83125Q426.8125 23.425 426.54688 23.26875Q426.29688 23.096874 426.03125 23.01875Q425.84375 22.9875 425.40625 22.9875L424.07812 22.9875L424.07812 26.8L422.9375 26.8ZM424.07812 22.003124L426.53125 22.003124Q427.29688 22.003124 427.73438 21.846874Q428.1875 21.675 428.40625 21.33125Q428.64062 20.971874 428.64062 20.55Q428.64062 19.940624 428.1875 19.55Q427.75 19.159374 426.79688 19.159374L424.07812 19.159374L424.07812 22.003124ZM431.95312 26.8L431.95312 18.20625L438.15625 18.20625L438.15625 19.221874L433.09375 19.221874L433.09375 21.846874L437.84375 21.846874L437.84375 22.8625L433.09375 22.8625L433.09375 25.784374L438.35938 25.784374L438.35938 26.8L431.95312 26.8ZM439.92188 26.8L439.92188 18.20625L442.89062 18.20625Q443.89062 18.20625 444.42188 18.33125Q445.15625 18.503124 445.67188 18.940624Q446.35938 19.51875 446.6875 20.425Q447.03125 21.315624 447.03125 22.45625Q447.03125 23.440624 446.79688 24.190624Q446.57812 24.940624 446.21875 25.440624Q445.85938 25.940624 445.42188 26.221874Q445.0 26.503124 444.40625 26.659374Q443.8125 26.8 443.03125 26.8L439.92188 26.8ZM441.0625 25.784374L442.89062 25.784374Q443.75 25.784374 444.23438 25.628124Q444.71875 25.471874 445.0 25.175Q445.40625 24.784374 445.625 24.096874Q445.85938 23.409374 445.85938 22.440624Q445.85938 21.096874 445.40625 20.378124Q444.96875 19.64375 444.34375 19.39375Q443.875 19.221874 442.875 19.221874L441.0625 19.221874L441.0625 25.784374Z" fill-rule="nonzero"/><path fill="#ea4335" d="M464.0 17.8C464.0 17.247715 464.44772 16.8 465.0 16.8L475.0 16.8C475.55228 16.8 476.0 17.247715 476.0 17.8L476.0 27.8C476.0 28.352285 475.55228 28.8 475.0 28.8L465.0 28.8C464.44772 28.8 464.0 28.352285 464.0 27.8Z" fill-rule="nonzero"/><path fill="#1a1a1a" d="M485.125 26.8L485.125 18.20625L486.25 18.20625L486.25 26.8L485.125 26.8ZM487.89062 26.8L487.89062 18.20625L489.60938 18.20625L491.64062 24.284374Q491.92188 25.14375 492.04688 25.565624Q492.1875 25.096874 492.5 24.190624L494.5625 18.20625L496.09375 18.20625L496.09375 26.8L495.0 26.8L495.0 19.6125L492.5 26.8L491.46875 26.8L488.98438 19.4875L488.98438 26.8L487.89062 26.8ZM496.89062 26.8L496.89062 18.20625L498.60938 18.20625L500.64062 24.284374Q500.92188 25.14375 501.04688 25.565624Q501.1875 25.096874 501.5 24.190624L503.5625 18.20625L505.09375 18.20625L505.09375 26.8L504.0 26.8L504.0 19.6125L501.5 26.8L500.46875 26.8L497.98438 19.4875L497.98438 26.8L496.89062 26.8ZM505.95312 26.8L505.95312 18.20625L512.15625 18.20625L512.15625 19.221874L507.09375 19.221874L507.09375 21.846874L511.84375 21.846874L511.84375 22.8625L507.09375 22.8625L507.09375 25.784374L512.3594 25.784374L512.3594 26.8L505.95312 26.8ZM513.9219 26.8L513.9219 18.20625L516.8906 18.20625Q517.8906 18.20625 518.4219 18.33125Q519.15625 18.503124 519.6719 18.940624Q520.3594 19.51875 520.6875 20.425Q521.03125 21.315624 521.03125 22.45625Q521.03125 23.440624 520.7969 24.190624Q520.5781 24.940624 520.21875 25.440624Q519.8594 25.940624 519.4219 26.221874Q519.0 26.503124 518.40625 26.659374Q517.8125 26.8 517.03125 26.8L513.9219 26.8ZM515.0625 25.784374L516.8906 25.784374Q517.75 25.784374 518.2344 25.628124Q518.71875 25.471874 519.0 25.175Q519.40625 24.784374 519.625 24.096874Q519.8594 23.409374 519.8594 22.440624Q519.8594 21.096874 519.40625 20.378124Q518.96875 19.64375 518.34375 19.39375Q517.875 19.221874 516.875 19.221874L515.0625 19.221874L515.0625 25.784374ZM523.125 26.8L523.125 18.20625L524.25 18.20625L524.25 26.8L523.125 26.8ZM524.9844 26.8L528.28125 18.20625L529.5 18.20625L533.0156 26.8L531.7344 26.8L530.71875 24.190624L527.1406 24.190624L526.1875 26.8L524.9844 26.8ZM527.46875 23.26875L530.375 23.26875L529.4844 20.89375Q529.0625 19.815624 528.875 19.1125Q528.7031 19.940624 528.40625 20.753124L527.46875 23.26875ZM535.1094 26.8L535.1094 19.221874L532.28125 19.221874L532.28125 18.20625L539.09375 18.20625L539.09375 19.221874L536.25 19.221874L536.25 26.8L535.1094 26.8ZM539.9531 26.8L539.9531 18.20625L546.15625 18.20625L546.15625 19.221874L541.09375 19.221874L541.09375 21.846874L545.84375 21.846874L545.84375 22.8625L541.09375 22.8625L541.09375 25.784374L546.3594 25.784374L546.3594 26.8L539.9531 26.8Z" fill-rule="nonzero"/><path fill="#fbbc04" d="M563.0 17.8C563.0 17.247715 563.4477 16.8 564.0 16.8L574.0 16.8C574.5523 16.8 575.0 17.247715 575.0 17.8L575.0 27.8C575.0 28.352285 574.5523 28.8 574.0 28.8L564.0 28.8C563.4477 28.8 563.0 28.352285 563.0 27.8Z" fill-rule="nonzero"/><path fill="#1a1a1a" d="M590.0625 23.784374L591.1875 24.08125Q590.8281 25.471874 589.90625 26.20625Q588.9844 26.940624 587.6406 26.940624Q586.25 26.940624 585.375 26.378124Q584.5 25.815624 584.0469 24.753124Q583.59375 23.675 583.59375 22.440624Q583.59375 21.096874 584.1094 20.096874Q584.625 19.096874 585.5625 18.58125Q586.5156 18.065624 587.65625 18.065624Q588.9375 18.065624 589.8125 18.721874Q590.7031 19.378124 591.0469 20.565624L589.9219 20.83125Q589.625 19.89375 589.0469 19.471874Q588.4844 19.034374 587.625 19.034374Q586.6406 19.034374 585.96875 19.51875Q585.3125 19.9875 585.03125 20.784374Q584.7656 21.58125 584.7656 22.440624Q584.7656 23.534374 585.0781 24.346874Q585.40625 25.159374 586.0781 25.565624Q586.75 25.971874 587.5469 25.971874Q588.5 25.971874 589.15625 25.425Q589.8281 24.878124 590.0625 23.784374ZM592.5781 22.6125Q592.5781 20.471874 593.71875 19.26875Q594.875 18.05 596.6875 18.05Q597.8906 18.05 598.84375 18.628124Q599.7969 19.190624 600.2969 20.20625Q600.7969 21.221874 600.7969 22.51875Q600.7969 23.815624 600.2656 24.846874Q599.7344 25.878124 598.7656 26.409374Q597.8125 26.940624 596.6875 26.940624Q595.46875 26.940624 594.5156 26.3625Q593.5625 25.76875 593.0625 24.76875Q592.5781 23.753124 592.5781 22.6125ZM593.75 22.628124Q593.75 24.190624 594.5781 25.08125Q595.4219 25.971874 596.6875 25.971874Q597.96875 25.971874 598.7969 25.08125Q599.625 24.175 599.625 22.503124Q599.625 21.45625 599.2656 20.675Q598.9219 19.89375 598.2344 19.471874Q597.5469 19.034374 596.7031 19.034374Q595.5 19.034374 594.625 19.8625Q593.75 20.690624 593.75 22.628124ZM601.9219 26.8L601.9219 18.20625L603.0781 18.20625L607.59375 24.95625L607.59375 18.20625L608.6875 18.20625L608.6875 26.8L607.5156 26.8L603.0 20.05L603.0 26.8L601.9219 26.8ZM617.0625 23.784374L618.1875 24.08125Q617.8281 25.471874 616.90625 26.20625Q615.9844 26.940624 614.6406 26.940624Q613.25 26.940624 612.375 26.378124Q611.5 25.815624 611.0469 24.753124Q610.59375 23.675 610.59375 22.440624Q610.59375 21.096874 611.1094 20.096874Q611.625 19.096874 612.5625 18.58125Q613.5156 18.065624 614.65625 18.065624Q615.9375 18.065624 616.8125 18.721874Q617.7031 19.378124 618.0469 20.565624L616.9219 20.83125Q616.625 19.89375 616.0469 19.471874Q615.4844 19.034374 614.625 19.034374Q613.6406 19.034374 612.96875 19.51875Q612.3125 19.9875 612.03125 20.784374Q611.7656 21.58125 611.7656 22.440624Q611.7656 23.534374 612.0781 24.346874Q612.40625 25.159374 613.0781 25.565624Q613.75 25.971874 614.5469 25.971874Q615.5 25.971874 616.15625 25.425Q616.8281 24.878124 617.0625 23.784374ZM625.5625 18.20625L626.7031 18.20625L626.7031 23.175Q626.7031 24.471874 626.40625 25.2375Q626.1094 25.9875 625.34375 26.471874Q624.5781 26.940624 623.34375 26.940624Q622.1406 26.940624 621.3594 26.534374Q620.59375 26.1125 620.2656 25.33125Q619.9375 24.534374 619.9375 23.175L619.9375 18.20625L621.0781 18.20625L621.0781 23.159374Q621.0781 24.284374 621.28125 24.815624Q621.5 25.346874 622.0 25.64375Q622.5156 25.925 623.25 25.925Q624.5 25.925 625.03125 25.3625Q625.5625 24.784374 625.5625 23.159374L625.5625 18.20625ZM628.9375 26.8L628.9375 18.20625L632.75 18.20625Q633.90625 18.20625 634.5 18.440624Q635.09375 18.675 635.4531 19.26875Q635.8125 19.846874 635.8125 20.55Q635.8125 21.471874 635.21875 22.096874Q634.625 22.721874 633.3906 22.89375Q633.84375 23.1125 634.0781 23.315624Q634.5781 23.76875 635.0156 24.45625L636.5156 26.8L635.0781 26.8L633.9531 25.01875Q633.4531 24.2375 633.125 23.83125Q632.8125 23.425 632.5469 23.26875Q632.2969 23.096874 632.03125 23.01875Q631.84375 22.9875 631.40625 22.9875L630.0781 22.9875L630.0781 26.8L628.9375 26.8ZM630.0781 22.003124L632.53125 22.003124Q633.2969 22.003124 633.7344 21.846874Q634.1875 21.675 634.40625 21.33125Q634.6406 20.971874 634.6406 20.55Q634.6406 19.940624 634.1875 19.55Q633.75 19.159374 632.7969 19.159374L630.0781 19.159374L630.0781 22.003124ZM637.9375 26.8L637.9375 18.20625L641.75 18.20625Q642.90625 18.20625 643.5 18.440624Q644.09375 18.675 644.4531 19.26875Q644.8125 19.846874 644.8125 20.55Q644.8125 21.471874 644.21875 22.096874Q643.625 22.721874 642.3906 22.89375Q642.84375 23.1125 643.0781 23.315624Q643.5781 23.76875 644.0156 24.45625L645.5156 26.8L644.0781 26.8L642.9531 25.01875Q642.4531 24.2375 642.125 23.83125Q641.8125 23.425 641.5469 23.26875Q641.2969 23.096874 641.03125 23.01875Q640.84375 22.9875 640.40625 22.9875L639.0781 22.9875L639.0781 26.8L637.9375 26.8ZM639.0781 22.003124L641.53125 22.003124Q642.2969 22.003124 642.7344 21.846874Q643.1875 21.675 643.40625 21.33125Q643.6406 20.971874 643.6406 20.55Q643.6406 19.940624 643.1875 19.55Q642.75 19.159374 641.7969 19.159374L639.0781 19.159374L639.0781 22.003124ZM646.9531 26.8L646.9531 18.20625L653.15625 18.20625L653.15625 19.221874L648.09375 19.221874L648.09375 21.846874L652.84375 21.846874L652.84375 22.8625L648.09375 22.8625L648.09375 25.784374L653.3594 25.784374L653.3594 26.8L646.9531 26.8ZM654.9219 26.8L654.9219 18.20625L656.0781 18.20625L660.59375 24.95625L660.59375 18.20625L661.6875 18.20625L661.6875 26.8L660.5156 26.8L656.0 20.05L656.0 26.8L654.9219 26.8ZM666.1094 26.8L666.1094 19.221874L663.28125 19.221874L663.28125 18.20625L670.09375 18.20625L670.09375 19.221874L667.25 19.221874L667.25 26.8L666.1094 26.8Z" fill-rule="nonzero"/></svg>