<svg version="1.1" viewBox="0.0 0.0 1031.0 316.0" fill="none" stroke="none" stroke-linecap="square" stroke-miterlimit="10" width="1031" height="316" xmlns:xlink="http://www.w3.org/1999/xlink" xmlns="http://www.w3.org/2000/svg"><path fill="#ffffff" d="M0 0L1031.0 0L1031.0 316.0L0 316.0L0 0Z" fill-rule="nonzero"/><path stroke="#333333" stroke-width="1.0" stroke-linecap="butt" d="M81.5 248.5L1015.5 248.5" fill-rule="nonzero"/><path stroke="#cccccc" stroke-width="1.0" stroke-linecap="butt" d="M81.5 181.5L1015.5 181.5" fill-rule="nonzero"/><path stroke="#cccccc" stroke-width="1.0" stroke-linecap="butt" d="M81.5 114.5L1015.5 114.5" fill-rule="nonzero"/><path stroke="#cccccc" stroke-width="1.0" stroke-linecap="butt" d="M81.5 47.5L1015.5 47.5" fill-rule="nonzero"/><clipPath id="id_0"><path d="M81.8 47.333332L1015.2 47.333332L1015.2 248.2L81.8 248.2L81.8 47.333332Z" clip-rule="nonzero"/></clipPath><path stroke="#000000" stroke-width="2.0" stroke-linecap="butt" stroke-opacity="0.0" clip-path="url(#id_0)" d="M113.0 248.0L103.0 248.0L103.0 150.0C103.0 148.89543 103.89543 148.0 105.0 148.0L111.0 148.0C112.10457 148.0 113.0 148.89543 113.0 150.0Z" fill-rule="nonzero"/><path fill="#4285f4" clip-path="url(#id_0)" d="M113.0 248.0L103.0 248.0L103.0 150.0C103.0 148.89543 103.89543 148.0 105.0 148.0L111.0 148.0C112.10457 148.0 113.0 148.89543 113.0 150.0Z" fill-rule="nonzero"/><path stroke="#000000" stroke-width="2.0" stroke-linecap="butt" stroke-opacity="0.0" clip-path="url(#id_0)" d="M170.0 248.0L160.0 248.0L160.0 157.0C160.0 155.89543 160.89543 155.0 162.0 155.0L168.0 155.0C169.10457 155.0 170.0 155.89543 170.0 157.0Z" fill-rule="nonzero"/><path fill="#4285f4" clip-path="url(#id_0)" d="M170.0 248.0L160.0 248.0L160.0 157.0C160.0 155.89543 160.89543 155.0 162.0 155.0L168.0 155.0C169.10457 155.0 170.0 155.89543 170.0 157.0Z" fill-rule="nonzero"/><path stroke="#000000" stroke-width="2.0" stroke-linecap="butt" stroke-opacity="0.0" clip-path="url(#id_0)" d="M228.0 248.0L218.0 248.0L218.0 177.0C218.0 175.89543 218.89543 175.0 220.0 175.0L226.0 175.0C227.10457 175.0 228.0 175.89543 228.0 177.0Z" fill-rule="nonzero"/><path fill="#4285f4" clip-path="url(#id_0)" d="M228.0 248.0L218.0 248.0L218.0 177.0C218.0 175.89543 218.89543 175.0 220.0 175.0L226.0 175.0C227.10457 175.0 228.0 175.89543 228.0 177.0Z" fill-rule="nonzero"/><path stroke="#000000" stroke-width="2.0" stroke-linecap="butt" stroke-opacity="0.0" clip-path="url(#id_0)" d="M285.0 248.0L275.0 248.0L275.0 192.0C275.0 190.89543 275.89542 190.0 277.0 190.0L283.0 190.0C284.10458 190.0 285.0 190.89543 285.0 192.0Z" fill-rule="nonzero"/><path fill="#4285f4" clip-path="url(#id_0)" d="M285.0 248.0L275.0 248.0L275.0 192.0C275.0 190.89543 275.89542 190.0 277.0 190.0L283.0 190.0C284.10458 190.0 285.0 190.89543 285.0 192.0Z" fill-rule="nonzero"/><path stroke="#000000" stroke-width="2.0" stroke-linecap="butt" stroke-opacity="0.0" clip-path="url(#id_0)" d="M342.0 248.0L332.0 248.0L332.0 201.0C332.0 199.89543 332.89542 199.0 334.0 199.0L340.0 199.0C341.10458 199.0 342.0 199.89543 342.0 201.0Z" fill-rule="nonzero"/><path fill="#4285f4" clip-path="url(#id_0)" d="M342.0 248.0L332.0 248.0L332.0 201.0C332.0 199.89543 332.89542 199.0 334.0 199.0L340.0 199.0C341.10458 199.0 342.0 199.89543 342.0 201.0Z" fill-rule="nonzero"/><path stroke="#000000" stroke-width="2.0" stroke-linecap="butt" stroke-opacity="0.0" clip-path="url(#id_0)" d="M399.0 248.0L389.0 248.0L389.0 205.0C389.0 203.89543 389.89542 203.0 391.0 203.0L397.0 203.0C398.10458 203.0 399.0 203.89543 399.0 205.0Z" fill-rule="nonzero"/><path fill="#4285f4" clip-path="url(#id_0)" d="M399.0 248.0L389.0 248.0L389.0 205.0C389.0 203.89543 389.89542 203.0 391.0 203.0L397.0 203.0C398.10458 203.0 399.0 203.89543 399.0 205.0Z" fill-rule="nonzero"/><path stroke="#000000" stroke-width="2.0" stroke-linecap="butt" stroke-opacity="0.0" clip-path="url(#id_0)" d="M456.0 248.0L446.0 248.0L446.0 209.0C446.0 207.89543 446.89542 207.0 448.0 207.0L454.0 207.0C455.10458 207.0 456.0 207.89543 456.0 209.0Z" fill-rule="nonzero"/><path fill="#4285f4" clip-path="url(#id_0)" d="M456.0 248.0L446.0 248.0L446.0 209.0C446.0 207.89543 446.89542 207.0 448.0 207.0L454.0 207.0C455.10458 207.0 456.0 207.89543 456.0 209.0Z" fill-rule="nonzero"/><path stroke="#000000" stroke-width="2.0" stroke-linecap="butt" stroke-opacity="0.0" clip-path="url(#id_0)" d="M513.0 248.0L503.0 248.0L503.0 214.0C503.0 212.89543 503.89542 212.0 505.0 212.0L511.0 212.0C512.10455 212.0 513.0 212.89543 513.0 214.0Z" fill-rule="nonzero"/><path fill="#4285f4" clip-path="url(#id_0)" d="M513.0 248.0L503.0 248.0L503.0 214.0C503.0 212.89543 503.89542 212.0 505.0 212.0L511.0 212.0C512.10455 212.0 513.0 212.89543 513.0 214.0Z" fill-rule="nonzero"/><path stroke="#000000" stroke-width="2.0" stroke-linecap="butt" stroke-opacity="0.0" clip-path="url(#id_0)" d="M570.0 248.0L560.0 248.0L560.0 216.0C560.0 214.89543 560.89545 214.0 562.0 214.0L568.0 214.0C569.10455 214.0 570.0 214.89543 570.0 216.0Z" fill-rule="nonzero"/><path fill="#4285f4" clip-path="url(#id_0)" d="M570.0 248.0L560.0 248.0L560.0 216.0C560.0 214.89543 560.89545 214.0 562.0 214.0L568.0 214.0C569.10455 214.0 570.0 214.89543 570.0 216.0Z" fill-rule="nonzero"/><path stroke="#000000" stroke-width="2.0" stroke-linecap="butt" stroke-opacity="0.0" clip-path="url(#id_0)" d="M627.0 248.0L617.0 248.0L617.0 219.0C617.0 217.89543 617.89545 217.0 619.0 217.0L625.0 217.0C626.10455 217.0 627.0 217.89543 627.0 219.0Z" fill-rule="nonzero"/><path fill="#4285f4" clip-path="url(#id_0)" d="M627.0 248.0L617.0 248.0L617.0 219.0C617.0 217.89543 617.89545 217.0 619.0 217.0L625.0 217.0C626.10455 217.0 627.0 217.89543 627.0 219.0Z" fill-rule="nonzero"/><path stroke="#000000" stroke-width="2.0" stroke-linecap="butt" stroke-opacity="0.0" clip-path="url(#id_0)" d="M684.0 248.0L674.0 248.0L674.0 222.0C674.0 220.89543 674.89545 220.0 676.0 220.0L682.0 220.0C683.10455 220.0 684.0 220.89543 684.0 222.0Z" fill-rule="nonzero"/><path fill="#4285f4" clip-path="url(#id_0)" d="M684.0 248.0L674.0 248.0L674.0 222.0C674.0 220.89543 674.89545 220.0 676.0 220.0L682.0 220.0C683.10455 220.0 684.0 220.89543 684.0 222.0Z" fill-rule="nonzero"/><path stroke="#000000" stroke-width="2.0" stroke-linecap="butt" stroke-opacity="0.0" clip-path="url(#id_0)" d="M741.0 248.0L731.0 248.0L731.0 226.0C731.0 224.89543 731.89545 224.0 733.0 224.0L739.0 224.0C740.10455 224.0 741.0 224.89543 741.0 226.0Z" fill-rule="nonzero"/><path fill="#4285f4" clip-path="url(#id_0)" d="M741.0 248.0L731.0 248.0L731.0 226.0C731.0 224.89543 731.89545 224.0 733.0 224.0L739.0 224.0C740.10455 224.0 741.0 224.89543 741.0 226.0Z" fill-rule="nonzero"/><path stroke="#000000" stroke-width="2.0" stroke-linecap="butt" stroke-opacity="0.0" clip-path="url(#id_0)" d="M798.0 248.0L788.0 248.0L788.0 229.0C788.0 227.89543 788.89545 227.0 790.0 227.0L796.0 227.0C797.10455 227.0 798.0 227.89543 798.0 229.0Z" fill-rule="nonzero"/><path fill="#4285f4" clip-path="url(#id_0)" d="M798.0 248.0L788.0 248.0L788.0 229.0C788.0 227.89543 788.89545 227.0 790.0 227.0L796.0 227.0C797.10455 227.0 798.0 227.89543 798.0 229.0Z" fill-rule="nonzero"/><path stroke="#000000" stroke-width="2.0" stroke-linecap="butt" stroke-opacity="0.0" clip-path="url(#id_0)" d="M855.0 248.0L845.0 248.0L845.0 231.0C845.0 229.89543 845.89545 229.0 847.0 229.0L853.0 229.0C854.10455 229.0 855.0 229.89543 855.0 231.0Z" fill-rule="nonzero"/><path fill="#4285f4" clip-path="url(#id_0)" d="M855.0 248.0L845.0 248.0L845.0 231.0C845.0 229.89543 845.89545 229.0 847.0 229.0L853.0 229.0C854.10455 229.0 855.0 229.89543 855.0 231.0Z" fill-rule="nonzero"/><path stroke="#000000" stroke-width="2.0" stroke-linecap="butt" stroke-opacity="0.0" clip-path="url(#id_0)" d="M913.0 248.0L903.0 248.0L903.0 232.0C903.0 230.89543 903.89545 230.0 905.0 230.0L911.0 230.0C912.10455 230.0 913.0 230.89543 913.0 232.0Z" fill-rule="nonzero"/><path fill="#4285f4" clip-path="url(#id_0)" d="M913.0 248.0L903.0 248.0L903.0 232.0C903.0 230.89543 903.89545 230.0 905.0 230.0L911.0 230.0C912.10455 230.0 913.0 230.89543 913.0 232.0Z" fill-rule="nonzero"/><path stroke="#000000" stroke-width="2.0" stroke-linecap="butt" stroke-opacity="0.0" clip-path="url(#id_0)" d="M970.0 248.0L960.0 248.0L960.0 233.0C960.0 231.89543 960.89545 231.0 962.0 231.0L968.0 231.0C969.10455 231.0 970.0 231.89543 970.0 233.0Z" fill-rule="nonzero"/><path fill="#4285f4" clip-path="url(#id_0)" d="M970.0 248.0L960.0 248.0L960.0 233.0C960.0 231.89543 960.89545 231.0 962.0 231.0L968.0 231.0C969.10455 231.0 970.0 231.89543 970.0 233.0Z" fill-rule="nonzero"/><path stroke="#000000" stroke-width="2.0" stroke-linecap="butt" stroke-opacity="0.0" clip-path="url(#id_0)" d="M125.0 248.0L115.0 248.0L115.0 118.0C115.0 116.89543 115.89543 116.0 117.0 116.0L123.0 116.0C124.10457 116.0 125.0 116.89543 125.0 118.0Z" fill-rule="nonzero"/><path fill="#ea4335" clip-path="url(#id_0)" d="M125.0 248.0L115.0 248.0L115.0 118.0C115.0 116.89543 115.89543 116.0 117.0 116.0L123.0 116.0C124.10457 116.0 125.0 116.89543 125.0 118.0Z" fill-rule="nonzero"/><path stroke="#000000" stroke-width="2.0" stroke-linecap="butt" stroke-opacity="0.0" clip-path="url(#id_0)" d="M182.0 248.0L172.0 248.0L172.0 100.0C172.0 98.89543 172.89543 98.0 174.0 98.0L180.0 98.0C181.10457 98.0 182.0 98.89543 182.0 100.0Z" fill-rule="nonzero"/><path fill="#ea4335" clip-path="url(#id_0)" d="M182.0 248.0L172.0 248.0L172.0 100.0C172.0 98.89543 172.89543 98.0 174.0 98.0L180.0 98.0C181.10457 98.0 182.0 98.89543 182.0 100.0Z" fill-rule="nonzero"/><path stroke="#000000" stroke-width="2.0" stroke-linecap="butt" stroke-opacity="0.0" clip-path="url(#id_0)" d="M240.0 248.0L230.0 248.0L230.0 102.0C230.0 100.89543 230.89543 100.0 232.0 100.0L238.0 100.0C239.10457 100.0 240.0 100.89543 240.0 102.0Z" fill-rule="nonzero"/><path fill="#ea4335" clip-path="url(#id_0)" d="M240.0 248.0L230.0 248.0L230.0 102.0C230.0 100.89543 230.89543 100.0 232.0 100.0L238.0 100.0C239.10457 100.0 240.0 100.89543 240.0 102.0Z" fill-rule="nonzero"/><path stroke="#000000" stroke-width="2.0" stroke-linecap="butt" stroke-opacity="0.0" clip-path="url(#id_0)" d="M297.0 248.0L287.0 248.0L287.0 106.0C287.0 104.89543 287.89542 104.0 289.0 104.0L295.0 104.0C296.10458 104.0 297.0 104.89543 297.0 106.0Z" fill-rule="nonzero"/><path fill="#ea4335" clip-path="url(#id_0)" d="M297.0 248.0L287.0 248.0L287.0 106.0C287.0 104.89543 287.89542 104.0 289.0 104.0L295.0 104.0C296.10458 104.0 297.0 104.89543 297.0 106.0Z" fill-rule="nonzero"/><path stroke="#000000" stroke-width="2.0" stroke-linecap="butt" stroke-opacity="0.0" clip-path="url(#id_0)" d="M354.0 248.0L344.0 248.0L344.0 104.0C344.0 102.89543 344.89542 102.0 346.0 102.0L352.0 102.0C353.10458 102.0 354.0 102.89543 354.0 104.0Z" fill-rule="nonzero"/><path fill="#ea4335" clip-path="url(#id_0)" d="M354.0 248.0L344.0 248.0L344.0 104.0C344.0 102.89543 344.89542 102.0 346.0 102.0L352.0 102.0C353.10458 102.0 354.0 102.89543 354.0 104.0Z" fill-rule="nonzero"/><path stroke="#000000" stroke-width="2.0" stroke-linecap="butt" stroke-opacity="0.0" clip-path="url(#id_0)" d="M411.0 248.0L401.0 248.0L401.0 106.0C401.0 104.89543 401.89542 104.0 403.0 104.0L409.0 104.0C410.10458 104.0 411.0 104.89543 411.0 106.0Z" fill-rule="nonzero"/><path fill="#ea4335" clip-path="url(#id_0)" d="M411.0 248.0L401.0 248.0L401.0 106.0C401.0 104.89543 401.89542 104.0 403.0 104.0L409.0 104.0C410.10458 104.0 411.0 104.89543 411.0 106.0Z" fill-rule="nonzero"/><path stroke="#000000" stroke-width="2.0" stroke-linecap="butt" stroke-opacity="0.0" clip-path="url(#id_0)" d="M468.0 248.0L458.0 248.0L458.0 105.0C458.0 103.89543 458.89542 103.0 460.0 103.0L466.0 103.0C467.10458 103.0 468.0 103.89543 468.0 105.0Z" fill-rule="nonzero"/><path fill="#ea4335" clip-path="url(#id_0)" d="M468.0 248.0L458.0 248.0L458.0 105.0C458.0 103.89543 458.89542 103.0 460.0 103.0L466.0 103.0C467.10458 103.0 468.0 103.89543 468.0 105.0Z" fill-rule="nonzero"/><path stroke="#000000" stroke-width="2.0" stroke-linecap="butt" stroke-opacity="0.0" clip-path="url(#id_0)" d="M525.0 248.0L515.0 248.0L515.0 104.0C515.0 102.89543 515.89545 102.0 517.0 102.0L523.0 102.0C524.10455 102.0 525.0 102.89543 525.0 104.0Z" fill-rule="nonzero"/><path fill="#ea4335" clip-path="url(#id_0)" d="M525.0 248.0L515.0 248.0L515.0 104.0C515.0 102.89543 515.89545 102.0 517.0 102.0L523.0 102.0C524.10455 102.0 525.0 102.89543 525.0 104.0Z" fill-rule="nonzero"/><path stroke="#000000" stroke-width="2.0" stroke-linecap="butt" stroke-opacity="0.0" clip-path="url(#id_0)" d="M582.0 248.0L572.0 248.0L572.0 104.0C572.0 102.89543 572.89545 102.0 574.0 102.0L580.0 102.0C581.10455 102.0 582.0 102.89543 582.0 104.0Z" fill-rule="nonzero"/><path fill="#ea4335" clip-path="url(#id_0)" d="M582.0 248.0L572.0 248.0L572.0 104.0C572.0 102.89543 572.89545 102.0 574.0 102.0L580.0 102.0C581.10455 102.0 582.0 102.89543 582.0 104.0Z" fill-rule="nonzero"/><path stroke="#000000" stroke-width="2.0" stroke-linecap="butt" stroke-opacity="0.0" clip-path="url(#id_0)" d="M639.0 248.0L629.0 248.0L629.0 105.0C629.0 103.89543 629.89545 103.0 631.0 103.0L637.0 103.0C638.10455 103.0 639.0 103.89543 639.0 105.0Z" fill-rule="nonzero"/><path fill="#ea4335" clip-path="url(#id_0)" d="M639.0 248.0L629.0 248.0L629.0 105.0C629.0 103.89543 629.89545 103.0 631.0 103.0L637.0 103.0C638.10455 103.0 639.0 103.89543 639.0 105.0Z" fill-rule="nonzero"/><path stroke="#000000" stroke-width="2.0" stroke-linecap="butt" stroke-opacity="0.0" clip-path="url(#id_0)" d="M696.0 248.0L686.0 248.0L686.0 105.0C686.0 103.89543 686.89545 103.0 688.0 103.0L694.0 103.0C695.10455 103.0 696.0 103.89543 696.0 105.0Z" fill-rule="nonzero"/><path fill="#ea4335" clip-path="url(#id_0)" d="M696.0 248.0L686.0 248.0L686.0 105.0C686.0 103.89543 686.89545 103.0 688.0 103.0L694.0 103.0C695.10455 103.0 696.0 103.89543 696.0 105.0Z" fill-rule="nonzero"/><path stroke="#000000" stroke-width="2.0" stroke-linecap="butt" stroke-opacity="0.0" clip-path="url(#id_0)" d="M753.0 248.0L743.0 248.0L743.0 108.0C743.0 106.89543 743.89545 106.0 745.0 106.0L751.0 106.0C752.10455 106.0 753.0 106.89543 753.0 108.0Z" fill-rule="nonzero"/><path fill="#ea4335" clip-path="url(#id_0)" d="M753.0 248.0L743.0 248.0L743.0 108.0C743.0 106.89543 743.89545 106.0 745.0 106.0L751.0 106.0C752.10455 106.0 753.0 106.89543 753.0 108.0Z" fill-rule="nonzero"/><path stroke="#000000" stroke-width="2.0" stroke-linecap="butt" stroke-opacity="0.0" clip-path="url(#id_0)" d="M810.0 248.0L800.0 248.0L800.0 110.0C800.0 108.89543 800.89545 108.0 802.0 108.0L808.0 108.0C809.10455 108.0 810.0 108.89543 810.0 110.0Z" fill-rule="nonzero"/><path fill="#ea4335" clip-path="url(#id_0)" d="M810.0 248.0L800.0 248.0L800.0 110.0C800.0 108.89543 800.89545 108.0 802.0 108.0L808.0 108.0C809.10455 108.0 810.0 108.89543 810.0 110.0Z" fill-rule="nonzero"/><path stroke="#000000" stroke-width="2.0" stroke-linecap="butt" stroke-opacity="0.0" clip-path="url(#id_0)" d="M867.0 248.0L857.0 248.0L857.0 108.0C857.0 106.89543 857.89545 106.0 859.0 106.0L865.0 106.0C866.10455 106.0 867.0 106.89543 867.0 108.0Z" fill-rule="nonzero"/><path fill="#ea4335" clip-path="url(#id_0)" d="M867.0 248.0L857.0 248.0L857.0 108.0C857.0 106.89543 857.89545 106.0 859.0 106.0L865.0 106.0C866.10455 106.0 867.0 106.89543 867.0 108.0Z" fill-rule="nonzero"/><path stroke="#000000" stroke-width="2.0" stroke-linecap="butt" stroke-opacity="0.0" clip-path="url(#id_0)" d="M925.0 248.0L915.0 248.0L915.0 108.0C915.0 106.89543 915.89545 106.0 917.0 106.0L923.0 106.0C924.10455 106.0 925.0 106.89543 925.0 108.0Z" fill-rule="nonzero"/><path fill="#ea4335" clip-path="url(#id_0)" d="M925.0 248.0L915.0 248.0L915.0 108.0C915.0 106.89543 915.89545 106.0 917.0 106.0L923.0 106.0C924.10455 106.0 925.0 106.89543 925.0 108.0Z" fill-rule="nonzero"/><path stroke="#000000" stroke-width="2.0" stroke-linecap="butt" stroke-opacity="0.0" clip-path="url(#id_0)" d="M982.0 248.0L972.0 248.0L972.0 116.0C972.0 114.89543 972.89545 114.0 974.0 114.0L980.0 114.0C981.10455 114.0 982.0 114.89543 982.0 116.0Z" fill-rule="nonzero"/><path fill="#ea4335" clip-path="url(#id_0)" d="M982.0 248.0L972.0 248.0L972.0 116.0C972.0 114.89543 972.89545 114.0 974.0 114.0L980.0 114.0C981.10455 114.0 982.0 114.89543 982.0 116.0Z" fill-rule="nonzero"/><path stroke="#000000" stroke-width="2.0" stroke-linecap="butt" stroke-opacity="0.0" clip-path="url(#id_0)" d="M137.0 248.0L127.0 248.0L127.0 111.0C127.0 109.89543 127.89543 109.0 129.0 109.0L135.0 109.0C136.10457 109.0 137.0 109.89543 137.0 111.0Z" fill-rule="nonzero"/><path fill="#fbbc04" clip-path="url(#id_0)" d="M137.0 248.0L127.0 248.0L127.0 111.0C127.0 109.89543 127.89543 109.0 129.0 109.0L135.0 109.0C136.10457 109.0 137.0 109.89543 137.0 111.0Z" fill-rule="nonzero"/><path stroke="#000000" stroke-width="2.0" stroke-linecap="butt" stroke-opacity="0.0" clip-path="url(#id_0)" d="M194.0 248.0L184.0 248.0L184.0 107.0C184.0 105.89543 184.89543 105.0 186.0 105.0L192.0 105.0C193.10457 105.0 194.0 105.89543 194.0 107.0Z" fill-rule="nonzero"/><path fill="#fbbc04" clip-path="url(#id_0)" d="M194.0 248.0L184.0 248.0L184.0 107.0C184.0 105.89543 184.89543 105.0 186.0 105.0L192.0 105.0C193.10457 105.0 194.0 105.89543 194.0 107.0Z" fill-rule="nonzero"/><path stroke="#000000" stroke-width="2.0" stroke-linecap="butt" stroke-opacity="0.0" clip-path="url(#id_0)" d="M252.0 248.0L242.0 248.0L242.0 92.0C242.0 90.89543 242.89543 90.0 244.0 90.0L250.0 90.0C251.10457 90.0 252.0 90.89543 252.0 92.0Z" fill-rule="nonzero"/><path fill="#fbbc04" clip-path="url(#id_0)" d="M252.0 248.0L242.0 248.0L242.0 92.0C242.0 90.89543 242.89543 90.0 244.0 90.0L250.0 90.0C251.10457 90.0 252.0 90.89543 252.0 92.0Z" fill-rule="nonzero"/><path stroke="#000000" stroke-width="2.0" stroke-linecap="butt" stroke-opacity="0.0" clip-path="url(#id_0)" d="M309.0 248.0L299.0 248.0L299.0 88.0C299.0 86.89543 299.89542 86.0 301.0 86.0L307.0 86.0C308.10458 86.0 309.0 86.89543 309.0 88.0Z" fill-rule="nonzero"/><path fill="#fbbc04" clip-path="url(#id_0)" d="M309.0 248.0L299.0 248.0L299.0 88.0C299.0 86.89543 299.89542 86.0 301.0 86.0L307.0 86.0C308.10458 86.0 309.0 86.89543 309.0 88.0Z" fill-rule="nonzero"/><path stroke="#000000" stroke-width="2.0" stroke-linecap="butt" stroke-opacity="0.0" clip-path="url(#id_0)" d="M366.0 248.0L356.0 248.0L356.0 85.0C356.0 83.89543 356.89542 83.0 358.0 83.0L364.0 83.0C365.10458 83.0 366.0 83.89543 366.0 85.0Z" fill-rule="nonzero"/><path fill="#fbbc04" clip-path="url(#id_0)" d="M366.0 248.0L356.0 248.0L356.0 85.0C356.0 83.89543 356.89542 83.0 358.0 83.0L364.0 83.0C365.10458 83.0 366.0 83.89543 366.0 85.0Z" fill-rule="nonzero"/><path stroke="#000000" stroke-width="2.0" stroke-linecap="butt" stroke-opacity="0.0" clip-path="url(#id_0)" d="M423.0 248.0L413.0 248.0L413.0 79.0C413.0 77.89543 413.89542 77.0 415.0 77.0L421.0 77.0C422.10458 77.0 423.0 77.89543 423.0 79.0Z" fill-rule="nonzero"/><path fill="#fbbc04" clip-path="url(#id_0)" d="M423.0 248.0L413.0 248.0L413.0 79.0C413.0 77.89543 413.89542 77.0 415.0 77.0L421.0 77.0C422.10458 77.0 423.0 77.89543 423.0 79.0Z" fill-rule="nonzero"/><path stroke="#000000" stroke-width="2.0" stroke-linecap="butt" stroke-opacity="0.0" clip-path="url(#id_0)" d="M480.0 248.0L470.0 248.0L470.0 69.0C470.0 67.89543 470.89542 67.0 472.0 67.0L478.0 67.0C479.10458 67.0 480.0 67.89543 480.0 69.0Z" fill-rule="nonzero"/><path fill="#fbbc04" clip-path="url(#id_0)" d="M480.0 248.0L470.0 248.0L470.0 69.0C470.0 67.89543 470.89542 67.0 472.0 67.0L478.0 67.0C479.10458 67.0 480.0 67.89543 480.0 69.0Z" fill-rule="nonzero"/><path stroke="#000000" stroke-width="2.0" stroke-linecap="butt" stroke-opacity="0.0" clip-path="url(#id_0)" d="M537.0 248.0L527.0 248.0L527.0 70.0C527.0 68.89543 527.89545 68.0 529.0 68.0L535.0 68.0C536.10455 68.0 537.0 68.89543 537.0 70.0Z" fill-rule="nonzero"/><path fill="#fbbc04" clip-path="url(#id_0)" d="M537.0 248.0L527.0 248.0L527.0 70.0C527.0 68.89543 527.89545 68.0 529.0 68.0L535.0 68.0C536.10455 68.0 537.0 68.89543 537.0 70.0Z" fill-rule="nonzero"/><path stroke="#000000" stroke-width="2.0" stroke-linecap="butt" stroke-opacity="0.0" clip-path="url(#id_0)" d="M594.0 248.0L584.0 248.0L584.0 70.0C584.0 68.89543 584.89545 68.0 586.0 68.0L592.0 68.0C593.10455 68.0 594.0 68.89543 594.0 70.0Z" fill-rule="nonzero"/><path fill="#fbbc04" clip-path="url(#id_0)" d="M594.0 248.0L584.0 248.0L584.0 70.0C584.0 68.89543 584.89545 68.0 586.0 68.0L592.0 68.0C593.10455 68.0 594.0 68.89543 594.0 70.0Z" fill-rule="nonzero"/><path stroke="#000000" stroke-width="2.0" stroke-linecap="butt" stroke-opacity="0.0" clip-path="url(#id_0)" d="M651.0 248.0L641.0 248.0L641.0 68.0C641.0 66.89543 641.89545 66.0 643.0 66.0L649.0 66.0C650.10455 66.0 651.0 66.89543 651.0 68.0Z" fill-rule="nonzero"/><path fill="#fbbc04" clip-path="url(#id_0)" d="M651.0 248.0L641.0 248.0L641.0 68.0C641.0 66.89543 641.89545 66.0 643.0 66.0L649.0 66.0C650.10455 66.0 651.0 66.89543 651.0 68.0Z" fill-rule="nonzero"/><path stroke="#000000" stroke-width="2.0" stroke-linecap="butt" stroke-opacity="0.0" clip-path="url(#id_0)" d="M708.0 248.0L698.0 248.0L698.0 69.0C698.0 67.89543 698.89545 67.0 700.0 67.0L706.0 67.0C707.10455 67.0 708.0 67.89543 708.0 69.0Z" fill-rule="nonzero"/><path fill="#fbbc04" clip-path="url(#id_0)" d="M708.0 248.0L698.0 248.0L698.0 69.0C698.0 67.89543 698.89545 67.0 700.0 67.0L706.0 67.0C707.10455 67.0 708.0 67.89543 708.0 69.0Z" fill-rule="nonzero"/><path stroke="#000000" stroke-width="2.0" stroke-linecap="butt" stroke-opacity="0.0" clip-path="url(#id_0)" d="M765.0 248.0L755.0 248.0L755.0 70.0C755.0 68.89543 755.89545 68.0 757.0 68.0L763.0 68.0C764.10455 68.0 765.0 68.89543 765.0 70.0Z" fill-rule="nonzero"/><path fill="#fbbc04" clip-path="url(#id_0)" d="M765.0 248.0L755.0 248.0L755.0 70.0C755.0 68.89543 755.89545 68.0 757.0 68.0L763.0 68.0C764.10455 68.0 765.0 68.89543 765.0 70.0Z" fill-rule="nonzero"/><path stroke="#000000" stroke-width="2.0" stroke-linecap="butt" stroke-opacity="0.0" clip-path="url(#id_0)" d="M822.0 248.0L812.0 248.0L812.0 71.0C812.0 69.89543 812.89545 69.0 814.0 69.0L820.0 69.0C821.10455 69.0 822.0 69.89543 822.0 71.0Z" fill-rule="nonzero"/><path fill="#fbbc04" clip-path="url(#id_0)" d="M822.0 248.0L812.0 248.0L812.0 71.0C812.0 69.89543 812.89545 69.0 814.0 69.0L820.0 69.0C821.10455 69.0 822.0 69.89543 822.0 71.0Z" fill-rule="nonzero"/><path stroke="#000000" stroke-width="2.0" stroke-linecap="butt" stroke-opacity="0.0" clip-path="url(#id_0)" d="M879.0 248.0L869.0 248.0L869.0 73.0C869.0 71.89543 869.89545 71.0 871.0 71.0L877.0 71.0C878.10455 71.0 879.0 71.89543 879.0 73.0Z" fill-rule="nonzero"/><path fill="#fbbc04" clip-path="url(#id_0)" d="M879.0 248.0L869.0 248.0L869.0 73.0C869.0 71.89543 869.89545 71.0 871.0 71.0L877.0 71.0C878.10455 71.0 879.0 71.89543 879.0 73.0Z" fill-rule="nonzero"/><path stroke="#000000" stroke-width="2.0" stroke-linecap="butt" stroke-opacity="0.0" clip-path="url(#id_0)" d="M937.0 248.0L927.0 248.0L927.0 73.0C927.0 71.89543 927.89545 71.0 929.0 71.0L935.0 71.0C936.10455 71.0 937.0 71.89543 937.0 73.0Z" fill-rule="nonzero"/><path fill="#fbbc04" clip-path="url(#id_0)" d="M937.0 248.0L927.0 248.0L927.0 73.0C927.0 71.89543 927.89545 71.0 929.0 71.0L935.0 71.0C936.10455 71.0 937.0 71.89543 937.0 73.0Z" fill-rule="nonzero"/><path stroke="#000000" stroke-width="2.0" stroke-linecap="butt" stroke-opacity="0.0" clip-path="url(#id_0)" d="M994.0 248.0L984.0 248.0L984.0 72.0C984.0 70.89543 984.89545 70.0 986.0 70.0L992.0 70.0C993.10455 70.0 994.0 70.89543 994.0 72.0Z" fill-rule="nonzero"/><path fill="#fbbc04" clip-path="url(#id_0)" d="M994.0 248.0L984.0 248.0L984.0 72.0C984.0 70.89543 984.89545 70.0 986.0 70.0L992.0 70.0C993.10455 70.0 994.0 70.89543 994.0 72.0Z" fill-rule="nonzero"/><path fill="#000000" d="M528.6094 297.2L528.6094 289.6219L525.78125 289.6219L525.78125 288.60626L532.59375 288.60626L532.59375 289.6219L529.75 289.6219L529.75 297.2L528.6094 297.2ZM533.2969 297.2L533.2969 288.60626L534.34375 288.60626L534.34375 291.6844Q535.0781 290.84064 536.2031 290.84064Q536.90625 290.84064 537.40625 291.1219Q537.9219 291.3875 538.1406 291.8719Q538.3594 292.34064 538.3594 293.2625L538.3594 297.2L537.3125 297.2L537.3125 293.2625Q537.3125 292.46564 536.96875 292.10626Q536.625 291.7469 536.0 291.7469Q535.53125 291.7469 535.1094 291.9969Q534.7031 292.23126 534.5156 292.65314Q534.34375 293.0594 534.34375 293.79376L534.34375 297.2L533.2969 297.2ZM540.28125 297.2L540.28125 290.98126L541.2344 290.98126L541.2344 291.91876Q541.59375 291.2625 541.8906 291.0594Q542.2031 290.84064 542.5781 290.84064Q543.1094 290.84064 543.65625 291.16876L543.2969 292.15314Q542.90625 291.91876 542.53125 291.91876Q542.1719 291.91876 541.8906 292.1375Q541.625 292.34064 541.5156 292.71564Q541.3281 293.27814 541.3281 293.9344L541.3281 297.2L540.28125 297.2ZM548.5469 295.2L549.6406 295.325Q549.3906 296.27814 548.6875 296.8094Q547.9844 297.34064 546.90625 297.34064Q545.5469 297.34064 544.7344 296.4969Q543.9375 295.65314 543.9375 294.1375Q543.9375 292.575 544.75 291.71564Q545.5625 290.84064 546.84375 290.84064Q548.09375 290.84064 548.875 291.6844Q549.6719 292.52814 549.6719 294.075Q549.6719 294.16876 549.6719 294.35626L545.03125 294.35626Q545.09375 295.3875 545.6094 295.9344Q546.125 296.46564 546.90625 296.46564Q547.4844 296.46564 547.8906 296.16876Q548.3125 295.85626 548.5469 295.2ZM545.09375 293.4969L548.5625 293.4969Q548.5 292.7 548.1719 292.3094Q547.65625 291.7 546.8594 291.7Q546.125 291.7 545.625 292.1844Q545.1406 292.66876 545.09375 293.4969ZM555.3594 296.4344Q554.7656 296.9344 554.21875 297.1375Q553.6875 297.34064 553.0625 297.34064Q552.03125 297.34064 551.4844 296.84064Q550.9375 296.34064 550.9375 295.5594Q550.9375 295.10626 551.1406 294.73126Q551.34375 294.34064 551.6875 294.1219Q552.03125 293.8875 552.4531 293.77814Q552.75 293.6844 553.3906 293.60626Q554.65625 293.46564 555.2656 293.2469Q555.2656 293.02814 555.2656 292.98126Q555.2656 292.325 554.96875 292.0594Q554.5625 291.71564 553.7656 291.71564Q553.03125 291.71564 552.6719 291.98126Q552.3125 292.23126 552.1406 292.8875L551.1094 292.7469Q551.25 292.09064 551.5781 291.6844Q551.90625 291.27814 552.5156 291.0594Q553.125 290.84064 553.9219 290.84064Q554.71875 290.84064 555.21875 291.02814Q555.71875 291.21564 555.9531 291.4969Q556.1875 291.77814 556.28125 292.21564Q556.3281 292.48126 556.3281 293.1844L556.3281 294.59064Q556.3281 296.0594 556.3906 296.45Q556.46875 296.84064 556.6719 297.2L555.5625 297.2Q555.40625 296.8719 555.3594 296.4344ZM555.2656 294.075Q554.6875 294.3094 553.5469 294.48126Q552.8906 294.575 552.625 294.7Q552.3594 294.8094 552.2031 295.02814Q552.0625 295.2469 552.0625 295.52814Q552.0625 295.95 552.375 296.23126Q552.7031 296.5125 553.3125 296.5125Q553.9219 296.5125 554.3906 296.2469Q554.875 295.98126 555.09375 295.5125Q555.2656 295.15314 555.2656 294.46564L555.2656 294.075ZM562.3281 297.2L562.3281 296.41876Q561.7344 297.34064 560.59375 297.34064Q559.84375 297.34064 559.21875 296.9344Q558.59375 296.5125 558.25 295.77814Q557.90625 295.04376 557.90625 294.09064Q557.90625 293.16876 558.21875 292.40314Q558.53125 291.6375 559.15625 291.2469Q559.78125 290.84064 560.5469 290.84064Q561.1094 290.84064 561.5469 291.075Q561.9844 291.3094 562.2656 291.6844L562.2656 288.60626L563.3125 288.60626L563.3125 297.2L562.3281 297.2ZM559.0 294.09064Q559.0 295.29376 559.5 295.8875Q560.0 296.46564 560.6875 296.46564Q561.375 296.46564 561.8594 295.90314Q562.34375 295.34064 562.34375 294.1844Q562.34375 292.90314 561.84375 292.3094Q561.3594 291.71564 560.6406 291.71564Q559.9375 291.71564 559.46875 292.29376Q559.0 292.85626 559.0 294.09064ZM564.875 295.34064L565.90625 295.1844Q566.0 295.8094 566.3906 296.1375Q566.7969 296.46564 567.53125 296.46564Q568.25 296.46564 568.59375 296.1844Q568.9531 295.8875 568.9531 295.48126Q568.9531 295.1219 568.6406 294.91876Q568.4219 294.77814 567.5625 294.5594Q566.40625 294.2625 565.9531 294.0594Q565.5156 293.84064 565.28125 293.46564Q565.0469 293.09064 565.0469 292.6219Q565.0469 292.21564 565.2344 291.85626Q565.4219 291.4969 565.75 291.2625Q566.0 291.09064 566.4219 290.96564Q566.84375 290.84064 567.34375 290.84064Q568.0625 290.84064 568.6094 291.0594Q569.1719 291.2625 569.4375 291.6219Q569.7031 291.98126 569.7969 292.575L568.7656 292.71564Q568.7031 292.2469 568.3594 291.98126Q568.03125 291.7 567.40625 291.7Q566.6875 291.7 566.375 291.95Q566.0625 292.1844 566.0625 292.5125Q566.0625 292.71564 566.1875 292.8719Q566.3281 293.04376 566.59375 293.15314Q566.75 293.21564 567.53125 293.41876Q568.65625 293.73126 569.09375 293.91876Q569.53125 294.10626 569.78125 294.46564Q570.03125 294.825 570.03125 295.3719Q570.03125 295.90314 569.71875 296.3719Q569.4219 296.825 568.84375 297.09064Q568.2656 297.34064 567.53125 297.34064Q566.3125 297.34064 565.6719 296.84064Q565.0469 296.325 564.875 295.34064Z" fill-rule="nonzero"/><path fill="#000000" d="M26.800013 212.65729L19.221888 212.65729L19.221888 215.48541L18.206263 215.48541L18.206263 208.67291L19.221888 208.67291L19.221888 211.51666L26.800013 211.51666L26.800013 212.65729ZM26.800013 207.98541L20.581263 207.98541L20.581263 207.03229L21.518763 207.03229Q20.862513 206.67291 20.659388 206.37604Q20.440638 206.06354 20.440638 205.68854Q20.440638 205.15729 20.768763 204.61041L21.753138 204.96979Q21.518763 205.36041 21.518763 205.73541Q21.518763 206.09479 21.737513 206.37604Q21.940638 206.64166 22.315638 206.75104Q22.878138 206.93854 23.534388 206.93854L26.800013 206.93854L26.800013 207.98541ZM26.034388 199.90729Q26.534388 200.50104 26.737513 201.04791Q26.940638 201.57916 26.940638 202.20416Q26.940638 203.23541 26.440638 203.78229Q25.940638 204.32916 25.159388 204.32916Q24.706263 204.32916 24.331263 204.12604Q23.940638 203.92291 23.721888 203.57916Q23.487513 203.23541 23.378138 202.81354Q23.284388 202.51666 23.206263 201.87604Q23.065638 200.61041 22.846888 200.00104Q22.628138 200.00104 22.581263 200.00104Q21.925013 200.00104 21.659388 200.29791Q21.315638 200.70416 21.315638 201.50104Q21.315638 202.23541 21.581263 202.59479Q21.831263 202.95416 22.487513 203.12604L22.346888 204.15729Q21.690638 204.01666 21.284388 203.68854Q20.878138 203.36041 20.659388 202.75104Q20.440638 202.14166 20.440638 201.34479Q20.440638 200.54791 20.628138 200.04791Q20.815638 199.54791 21.096888 199.31354Q21.378138 199.07916 21.815638 198.98541Q22.081263 198.93854 22.784388 198.93854L24.190638 198.93854Q25.659388 198.93854 26.050013 198.87604Q26.440638 198.79791 26.800013 198.59479L26.800013 199.70416Q26.471888 199.86041 26.034388 199.90729ZM23.675013 200.00104Q23.909388 200.57916 24.081263 201.71979Q24.175013 202.37604 24.300013 202.64166Q24.409388 202.90729 24.628138 203.06354Q24.846888 203.20416 25.128138 203.20416Q25.550013 203.20416 25.831263 202.89166Q26.112513 202.56354 26.112513 201.95416Q26.112513 201.34479 25.846888 200.87604Q25.581263 200.39166 25.112513 200.17291Q24.753138 200.00104 24.065638 200.00104L23.675013 200.00104ZM26.800013 196.96979L20.581263 196.96979L20.581263 196.03229L21.456263 196.03229Q20.440638 195.34479 20.440638 194.04791Q20.440638 193.48541 20.643763 193.01666Q20.846888 192.53229 21.175013 192.29791Q21.503138 192.06354 21.940638 191.96979Q22.237513 191.92291 22.971888 191.92291L26.800013 191.92291L26.800013 192.96979L23.018763 192.96979Q22.362513 192.96979 22.050013 193.09479Q21.737513 193.21979 21.550013 193.53229Q21.346888 193.84479 21.346888 194.26666Q21.346888 194.93854 21.784388 195.43854Q22.206263 195.92291 23.393763 195.92291L26.800013 195.92291L26.800013 196.96979ZM24.940638 190.39166L24.784388 189.36041Q25.409388 189.26666 25.737513 188.87604Q26.065638 188.46979 26.065638 187.73541Q26.065638 187.01666 25.784388 186.67291Q25.487513 186.31354 25.081263 186.31354Q24.721888 186.31354 24.518763 186.62604Q24.378138 186.84479 24.159388 187.70416Q23.862513 188.86041 23.659388 189.31354Q23.440638 189.75104 23.065638 189.98541Q22.690638 190.21979 22.221888 190.21979Q21.815638 190.21979 21.456263 190.03229Q21.096888 189.84479 20.862513 189.51666Q20.690638 189.26666 20.565638 188.84479Q20.440638 188.42291 20.440638 187.92291Q20.440638 187.20416 20.659388 186.65729Q20.862513 186.09479 21.221888 185.82916Q21.581263 185.56354 22.175013 185.46979L22.315638 186.50104Q21.846888 186.56354 21.581263 186.90729Q21.300013 187.23541 21.300013 187.86041Q21.300013 188.57916 21.550013 188.89166Q21.784388 189.20416 22.112513 189.20416Q22.315638 189.20416 22.471888 189.07916Q22.643763 188.93854 22.753138 188.67291Q22.815638 188.51666 23.018763 187.73541Q23.331263 186.61041 23.518763 186.17291Q23.706263 185.73541 24.065638 185.48541Q24.425013 185.23541 24.971888 185.23541Q25.503138 185.23541 25.971888 185.54791Q26.425013 185.84479 26.690638 186.42291Q26.940638 187.00104 26.940638 187.73541Q26.940638 188.95416 26.440638 189.59479Q25.925013 190.21979 24.940638 190.39166ZM26.034388 178.90729Q26.534388 179.50104 26.737513 180.04791Q26.940638 180.57916 26.940638 181.20416Q26.940638 182.23541 26.440638 182.78229Q25.940638 183.32916 25.159388 183.32916Q24.706263 183.32916 24.331263 183.12604Q23.940638 182.92291 23.721888 182.57916Q23.487513 182.23541 23.378138 181.81354Q23.284388 181.51666 23.206263 180.87604Q23.065638 179.61041 22.846888 179.00104Q22.628138 179.00104 22.581263 179.00104Q21.925013 179.00104 21.659388 179.29791Q21.315638 179.70416 21.315638 180.50104Q21.315638 181.23541 21.581263 181.59479Q21.831263 181.95416 22.487513 182.12604L22.346888 183.15729Q21.690638 183.01666 21.284388 182.68854Q20.878138 182.36041 20.659388 181.75104Q20.440638 181.14166 20.440638 180.34479Q20.440638 179.54791 20.628138 179.04791Q20.815638 178.54791 21.096888 178.31354Q21.378138 178.07916 21.815638 177.98541Q22.081263 177.93854 22.784388 177.93854L24.190638 177.93854Q25.659388 177.93854 26.050013 177.87604Q26.440638 177.79791 26.800013 177.59479L26.800013 178.70416Q26.471888 178.86041 26.034388 178.90729ZM23.675013 179.00104Q23.909388 179.57916 24.081263 180.71979Q24.175013 181.37604 24.300013 181.64166Q24.409388 181.90729 24.628138 182.06354Q24.846888 182.20416 25.128138 182.20416Q25.550013 182.20416 25.831263 181.89166Q26.112513 181.56354 26.112513 180.95416Q26.112513 180.34479 25.846888 179.87604Q25.581263 179.39166 25.112513 179.17291Q24.753138 179.00104 24.065638 179.00104L23.675013 179.00104ZM24.518763 171.90729L24.659388 170.87604Q25.721888 171.04791 26.331263 171.75104Q26.940638 172.45416 26.940638 173.46979Q26.940638 174.75104 26.112513 175.53229Q25.268763 176.29791 23.706263 176.29791Q22.706263 176.29791 21.956263 175.96979Q21.190638 175.62604 20.815638 174.95416Q20.440638 174.26666 20.440638 173.45416Q20.440638 172.45416 20.956263 171.81354Q21.456263 171.15729 22.409388 170.96979L22.565638 172.00104Q21.940638 172.14166 21.628138 172.51666Q21.300013 172.89166 21.300013 173.42291Q21.300013 174.21979 21.878138 174.71979Q22.440638 175.21979 23.675013 175.21979Q24.940638 175.21979 25.503138 174.73541Q26.065638 174.25104 26.065638 173.48541Q26.065638 172.86041 25.690638 172.45416Q25.315638 172.03229 24.518763 171.90729ZM25.862513 167.67291L26.784388 167.51666Q26.878138 167.96979 26.878138 168.31354Q26.878138 168.89166 26.706263 169.20416Q26.518763 169.51666 26.221888 169.65729Q25.925013 169.78229 24.971888 169.78229L21.393763 169.78229L21.393763 170.54791L20.581263 170.54791L20.581263 169.78229L19.034388 169.78229L18.409388 168.73541L20.581263 168.73541L20.581263 167.67291L21.393763 167.67291L21.393763 168.73541L25.034388 168.73541Q25.487513 168.73541 25.612513 168.68854Q25.737513 168.62604 25.815638 168.50104Q25.893763 168.37604 25.893763 168.14166Q25.893763 167.95416 25.862513 167.67291ZM19.425013 166.96979L18.206263 166.96979L18.206263 165.90729L19.425013 165.90729L19.425013 166.96979ZM26.800013 166.96979L20.581263 166.96979L20.581263 165.90729L26.800013 165.90729L26.800013 166.96979ZM23.690638 164.36041Q21.956263 164.36041 21.128138 163.40729Q20.440638 162.61041 20.440638 161.45416Q20.440638 160.17291 21.284388 159.36041Q22.112513 158.53229 23.596888 158.53229Q24.800013 158.53229 25.487513 158.89166Q26.175013 159.25104 26.565638 159.95416Q26.940638 160.64166 26.940638 161.45416Q26.940638 162.75104 26.112513 163.56354Q25.268763 164.36041 23.690638 164.36041ZM23.690638 163.28229Q24.878138 163.28229 25.471888 162.76666Q26.065638 162.23541 26.065638 161.45416Q26.065638 160.65729 25.471888 160.14166Q24.878138 159.62604 23.659388 159.62604Q22.503138 159.62604 21.909388 160.15729Q21.315638 160.67291 21.315638 161.45416Q21.315638 162.23541 21.909388 162.76666Q22.487513 163.28229 23.690638 163.28229ZM26.800013 156.96979L20.581263 156.96979L20.581263 156.03229L21.456263 156.03229Q20.440638 155.34479 20.440638 154.04791Q20.440638 153.48541 20.643763 153.01666Q20.846888 152.53229 21.175013 152.29791Q21.503138 152.06354 21.940638 151.96979Q22.237513 151.92291 22.971888 151.92291L26.800013 151.92291L26.800013 152.96979L23.018763 152.96979Q22.362513 152.96979 22.050013 153.09479Q21.737513 153.21979 21.550013 153.53229Q21.346888 153.84479 21.346888 154.26666Q21.346888 154.93854 21.784388 155.43854Q22.206263 155.92291 23.393763 155.92291L26.800013 155.92291L26.800013 156.96979ZM24.940638 150.39166L24.784388 149.36041Q25.409388 149.26666 25.737513 148.87604Q26.065638 148.46979 26.065638 147.73541Q26.065638 147.01666 25.784388 146.67291Q25.487513 146.31354 25.081263 146.31354Q24.721888 146.31354 24.518763 146.62604Q24.378138 146.84479 24.159388 147.70416Q23.862513 148.86041 23.659388 149.31354Q23.440638 149.75104 23.065638 149.98541Q22.690638 150.21979 22.221888 150.21979Q21.815638 150.21979 21.456263 150.03229Q21.096888 149.84479 20.862513 149.51666Q20.690638 149.26666 20.565638 148.84479Q20.440638 148.42291 20.440638 147.92291Q20.440638 147.20416 20.659388 146.65729Q20.862513 146.09479 21.221888 145.82916Q21.581263 145.56354 22.175013 145.46979L22.315638 146.50104Q21.846888 146.56354 21.581263 146.90729Q21.300013 147.23541 21.300013 147.86041Q21.300013 148.57916 21.550013 148.89166Q21.784388 149.20416 22.112513 149.20416Q22.315638 149.20416 22.471888 149.07916Q22.643763 148.93854 22.753138 148.67291Q22.815638 148.51666 23.018763 147.73541Q23.331263 146.61041 23.518763 146.17291Q23.706263 145.73541 24.065638 145.48541Q24.425013 145.23541 24.971888 145.23541Q25.503138 145.23541 25.971888 145.54791Q26.425013 145.84479 26.690638 146.42291Q26.940638 147.00104 26.940638 147.73541Q26.940638 148.95416 26.440638 149.59479Q25.925013 150.21979 24.940638 150.39166ZM26.940638 140.76666L18.065638 138.28229L18.065638 137.43854L26.940638 139.92291L26.940638 140.76666ZM24.034388 134.21979L23.940638 133.15729Q24.596888 133.07916 25.003138 132.79791Q25.409388 132.51666 25.675013 131.93854Q25.925013 131.34479 25.925013 130.61041Q25.925013 129.96979 25.737513 129.46979Q25.534388 128.96979 25.206263 128.73541Q24.862513 128.48541 24.471888 128.48541Q24.065638 128.48541 23.768763 128.71979Q23.456263 128.95416 23.253138 129.48541Q23.112513 129.84479 22.831263 131.03229Q22.550013 132.20416 22.300013 132.67291Q21.971888 133.29791 21.503138 133.59479Q21.018763 133.89166 20.425013 133.89166Q19.784388 133.89166 19.221888 133.53229Q18.643763 133.15729 18.362513 132.45416Q18.065638 131.73541 18.065638 130.87604Q18.065638 129.92291 18.378138 129.18854Q18.675013 128.45416 19.284388 128.06354Q19.878138 127.67291 20.628138 127.64166L20.706263 128.73541Q19.893763 128.82916 19.487513 129.34479Q19.065638 129.84479 19.065638 130.82916Q19.065638 131.86041 19.440638 132.32916Q19.815638 132.79791 20.346888 132.79791Q20.815638 132.79791 21.112513 132.46979Q21.409388 132.14166 21.721888 130.76666Q22.034388 129.37604 22.268763 128.86041Q22.628138 128.11041 23.159388 127.75104Q23.675013 127.39166 24.378138 127.39166Q25.065638 127.39166 25.675013 127.78229Q26.268763 128.17291 26.612513 128.90729Q26.940638 129.64166 26.940638 130.56354Q26.940638 131.73541 26.612513 132.53229Q26.268763 133.31354 25.581263 133.76666Q24.893763 134.20416 24.034388 134.21979ZM24.800013 121.71979L24.925013 120.62604Q25.878138 120.87604 26.409388 121.57916Q26.940638 122.28229 26.940638 123.36041Q26.940638 124.71979 26.096888 125.53229Q25.253138 126.32916 23.737513 126.32916Q22.175013 126.32916 21.315638 125.51666Q20.440638 124.70416 20.440638 123.42291Q20.440638 122.17291 21.284388 121.39166Q22.128138 120.59479 23.675013 120.59479Q23.768763 120.59479 23.956263 120.59479L23.956263 125.23541Q24.987513 125.17291 25.534388 124.65729Q26.065638 124.14166 26.065638 123.36041Q26.065638 122.78229 25.768763 122.37604Q25.456263 121.95416 24.800013 121.71979ZM23.096888 125.17291L23.096888 121.70416Q22.300013 121.76666 21.909388 122.09479Q21.300013 122.61041 21.300013 123.40729Q21.300013 124.14166 21.784388 124.64166Q22.268763 125.12604 23.096888 125.17291ZM24.518763 114.90729L24.659388 113.87604Q25.721888 114.04791 26.331263 114.75104Q26.940638 115.45416 26.940638 116.46979Q26.940638 117.75104 26.112513 118.53229Q25.268763 119.29791 23.706263 119.29791Q22.706263 119.29791 21.956263 118.96979Q21.190638 118.62604 20.815638 117.95416Q20.440638 117.26666 20.440638 116.45416Q20.440638 115.45416 20.956263 114.81354Q21.456263 114.15729 22.409388 113.96979L22.565638 115.00104Q21.940638 115.14166 21.628138 115.51666Q21.300013 115.89166 21.300013 116.42291Q21.300013 117.21979 21.878138 117.71979Q22.440638 118.21979 23.675013 118.21979Q24.940638 118.21979 25.503138 117.73541Q26.065638 117.25104 26.065638 116.48541Q26.065638 115.86041 25.690638 115.45416Q25.315638 115.03229 24.518763 114.90729ZM23.690638 113.36041Q21.956263 113.36041 21.128138 112.40729Q20.440638 111.61041 20.440638 110.45416Q20.440638 109.17291 21.284388 108.36041Q22.112513 107.53229 23.596888 107.53229Q24.800013 107.53229 25.487513 107.89166Q26.175013 108.25104 26.565638 108.95416Q26.940638 109.64166 26.940638 110.45416Q26.940638 111.75104 26.112513 112.56354Q25.268763 113.36041 23.690638 113.36041ZM23.690638 112.28229Q24.878138 112.28229 25.471888 111.76666Q26.065638 111.23541 26.065638 110.45416Q26.065638 109.65729 25.471888 109.14166Q24.878138 108.62604 23.659388 108.62604Q22.503138 108.62604 21.909388 109.15729Q21.315638 109.67291 21.315638 110.45416Q21.315638 111.23541 21.909388 111.76666Q22.487513 112.28229 23.690638 112.28229ZM26.800013 105.96979L20.581263 105.96979L20.581263 105.03229L21.456263 105.03229Q20.440638 104.34479 20.440638 103.04791Q20.440638 102.48541 20.643763 102.01666Q20.846888 101.53229 21.175013 101.29791Q21.503138 101.06354 21.940638 100.96979Q22.237513 100.92291 22.971888 100.92291L26.800013 100.92291L26.800013 101.96979L23.018763 101.96979Q22.362513 101.96979 22.050013 102.09479Q21.737513 102.21979 21.550013 102.53229Q21.346888 102.84479 21.346888 103.26666Q21.346888 103.93854 21.784388 104.43854Q22.206263 104.92291 23.393763 104.92291L26.800013 104.92291L26.800013 105.96979ZM26.800013 94.93854L26.018763 94.93854Q26.940638 95.53229 26.940638 96.67291Q26.940638 97.42291 26.534388 98.04791Q26.112513 98.67291 25.378138 99.01666Q24.643763 99.36041 23.690638 99.36041Q22.768763 99.36041 22.003138 99.04791Q21.237513 98.73541 20.846888 98.11041Q20.440638 97.48541 20.440638 96.71979Q20.440638 96.15729 20.675013 95.71979Q20.909388 95.28229 21.284388 95.00104L18.206263 95.00104L18.206263 93.95416L26.800013 93.95416L26.800013 94.93854ZM23.690638 98.26666Q24.893763 98.26666 25.487513 97.76666Q26.065638 97.26666 26.065638 96.57916Q26.065638 95.89166 25.503138 95.40729Q24.940638 94.92291 23.784388 94.92291Q22.503138 94.92291 21.909388 95.42291Q21.315638 95.90729 21.315638 96.62604Q21.315638 97.32916 21.893763 97.79791Q22.456263 98.26666 23.690638 98.26666Z" fill-rule="nonzero"/><path fill="#000000" d="M69.3 247.96562Q69.3 246.43437 69.6125 245.5125Q69.925 244.575 70.53438 244.075Q71.15938 243.575 72.09688 243.575Q72.78438 243.575 73.3 243.85625Q73.83125 244.1375 74.175 244.66875Q74.51875 245.18437 74.70625 245.93437Q74.89375 246.68437 74.89375 247.96562Q74.89375 249.48125 74.58125 250.40312Q74.28438 251.325 73.65938 251.84062Q73.05 252.34062 72.09688 252.34062Q70.8625 252.34062 70.14375 251.45Q69.3 250.3875 69.3 247.96562ZM70.37813 247.96562Q70.37813 250.075 70.87813 250.77812Q71.37813 251.48125 72.09688 251.48125Q72.83125 251.48125 73.31563 250.77812Q73.81563 250.075 73.81563 247.96562Q73.81563 245.84062 73.31563 245.15312Q72.83125 244.45 72.08125 244.45Q71.3625 244.45 70.925 245.05937Q70.37813 245.84062 70.37813 247.96562Z" fill-rule="nonzero"/><path fill="#000000" d="M55.3 182.99445L56.409374 182.9007Q56.534374 183.7132 56.971874 184.11945Q57.425 184.5257 58.065624 184.5257Q58.815624 184.5257 59.346874 183.94757Q59.878124 183.36945 59.878124 182.43195Q59.878124 181.5257 59.3625 181.01007Q58.8625 180.47882 58.034374 180.47882Q57.534374 180.47882 57.1125 180.7132Q56.70625 180.94757 56.471874 181.30695L55.4875 181.18195L56.315624 176.7757L60.596874 176.7757L60.596874 177.7757L57.159374 177.7757L56.70625 180.0882Q57.471874 179.54132 58.315624 179.54132Q59.440624 179.54132 60.20625 180.32257Q60.9875 181.10382 60.9875 182.3382Q60.9875 183.49445 60.315624 184.35382Q59.4875 185.38507 58.065624 185.38507Q56.89375 185.38507 56.14375 184.72882Q55.409374 184.07257 55.3 182.99445ZM62.3 181.01007Q62.3 179.47882 62.6125 178.55695Q62.925 177.61945 63.534374 177.11945Q64.15938 176.61945 65.09688 176.61945Q65.78438 176.61945 66.3 176.9007Q66.83125 177.18195 67.175 177.7132Q67.51875 178.22882 67.70625 178.97882Q67.89375 179.72882 67.89375 181.01007Q67.89375 182.5257 67.58125 183.44757Q67.28438 184.36945 66.65938 184.88507Q66.05 185.38507 65.09688 185.38507Q63.8625 185.38507 63.14375 184.49445Q62.3 183.43195 62.3 181.01007ZM63.378124 181.01007Q63.378124 183.11945 63.878124 183.82257Q64.37813 184.5257 65.09688 184.5257Q65.83125 184.5257 66.31563 183.82257Q66.81563 183.11945 66.81563 181.01007Q66.81563 178.88507 66.31563 178.19757Q65.83125 177.49445 65.08125 177.49445Q64.3625 177.49445 63.925 178.10382Q63.378124 178.88507 63.378124 181.01007ZM69.3 181.01007Q69.3 179.47882 69.6125 178.55695Q69.925 177.61945 70.53438 177.11945Q71.15938 176.61945 72.09688 176.61945Q72.78438 176.61945 73.3 176.9007Q73.83125 177.18195 74.175 177.7132Q74.51875 178.22882 74.70625 178.97882Q74.89375 179.72882 74.89375 181.01007Q74.89375 182.5257 74.58125 183.44757Q74.28438 184.36945 73.65938 184.88507Q73.05 185.38507 72.09688 185.38507Q70.8625 185.38507 70.14375 184.49445Q69.3 183.43195 69.3 181.01007ZM70.37813 181.01007Q70.37813 183.11945 70.87813 183.82257Q71.37813 184.5257 72.09688 184.5257Q72.83125 184.5257 73.31563 183.82257Q73.81563 183.11945 73.81563 181.01007Q73.81563 178.88507 73.31563 178.19757Q72.83125 177.49445 72.08125 177.49445Q71.3625 177.49445 70.925 178.10382Q70.37813 178.88507 70.37813 181.01007Z" fill-rule="nonzero"/><path fill="#000000" d="M52.26875 118.28889L51.221874 118.28889L51.221874 111.57014Q50.83125 111.92951 50.20625 112.30451Q49.596874 112.66389 49.1125 112.83576L49.1125 111.82014Q49.9875 111.39826 50.64375 110.82014Q51.315624 110.22639 51.596874 109.66389L52.26875 109.66389L52.26875 118.28889ZM55.3 114.05451Q55.3 112.52326 55.6125 111.60139Q55.925 110.66389 56.534374 110.16389Q57.159374 109.66389 58.096874 109.66389Q58.784374 109.66389 59.3 109.94514Q59.83125 110.22639 60.175 110.75764Q60.51875 111.27326 60.70625 112.02326Q60.89375 112.77326 60.89375 114.05451Q60.89375 115.57014 60.58125 116.49201Q60.284374 117.41389 59.659374 117.92951Q59.05 118.42951 58.096874 118.42951Q56.8625 118.42951 56.14375 117.53889Q55.3 116.47639 55.3 114.05451ZM56.378124 114.05451Q56.378124 116.16389 56.878124 116.86701Q57.378124 117.57014 58.096874 117.57014Q58.83125 117.57014 59.315624 116.86701Q59.815624 116.16389 59.815624 114.05451Q59.815624 111.92951 59.315624 111.24201Q58.83125 110.53889 58.08125 110.53889Q57.3625 110.53889 56.925 111.14826Q56.378124 111.92951 56.378124 114.05451ZM62.3 114.05451Q62.3 112.52326 62.6125 111.60139Q62.925 110.66389 63.534374 110.16389Q64.15938 109.66389 65.09688 109.66389Q65.78438 109.66389 66.3 109.94514Q66.83125 110.22639 67.175 110.75764Q67.51875 111.27326 67.70625 112.02326Q67.89375 112.77326 67.89375 114.05451Q67.89375 115.57014 67.58125 116.49201Q67.28438 117.41389 66.65938 117.92951Q66.05 118.42951 65.09688 118.42951Q63.8625 118.42951 63.14375 117.53889Q62.3 116.47639 62.3 114.05451ZM63.378124 114.05451Q63.378124 116.16389 63.878124 116.86701Q64.37813 117.57014 65.09688 117.57014Q65.83125 117.57014 66.31563 116.86701Q66.81563 116.16389 66.81563 114.05451Q66.81563 111.92951 66.31563 111.24201Q65.83125 110.53889 65.08125 110.53889Q64.3625 110.53889 63.925 111.14826Q63.378124 111.92951 63.378124 114.05451ZM69.3 114.05451Q69.3 112.52326 69.6125 111.60139Q69.925 110.66389 70.53438 110.16389Q71.15938 109.66389 72.09688 109.66389Q72.78438 109.66389 73.3 109.94514Q73.83125 110.22639 74.175 110.75764Q74.51875 111.27326 74.70625 112.02326Q74.89375 112.77326 74.89375 114.05451Q74.89375 115.57014 74.58125 116.49201Q74.28438 117.41389 73.65938 117.92951Q73.05 118.42951 72.09688 118.42951Q70.8625 118.42951 70.14375 117.53889Q69.3 116.47639 69.3 114.05451ZM70.37813 114.05451Q70.37813 116.16389 70.87813 116.86701Q71.37813 117.57014 72.09688 117.57014Q72.83125 117.57014 73.31563 116.86701Q73.81563 116.16389 73.81563 114.05451Q73.81563 111.92951 73.31563 111.24201Q72.83125 110.53889 72.08125 110.53889Q71.3625 110.53889 70.925 111.14826Q70.37813 111.92951 70.37813 114.05451Z" fill-rule="nonzero"/><path fill="#000000" d="M52.26875 51.333332L51.221874 51.333332L51.221874 44.614582Q50.83125 44.973957 50.20625 45.348957Q49.596874 45.708332 49.1125 45.880207L49.1125 44.864582Q49.9875 44.442707 50.64375 43.864582Q51.315624 43.270832 51.596874 42.708332L52.26875 42.708332L52.26875 51.333332ZM55.3 49.083332L56.409374 48.989582Q56.534374 49.802082 56.971874 50.208332Q57.425 50.614582 58.065624 50.614582Q58.815624 50.614582 59.346874 50.036457Q59.878124 49.458332 59.878124 48.520832Q59.878124 47.614582 59.3625 47.098957Q58.8625 46.567707 58.034374 46.567707Q57.534374 46.567707 57.1125 46.802082Q56.70625 47.036457 56.471874 47.395832L55.4875 47.270832L56.315624 42.864582L60.596874 42.864582L60.596874 43.864582L57.159374 43.864582L56.70625 46.177082Q57.471874 45.630207 58.315624 45.630207Q59.440624 45.630207 60.20625 46.411457Q60.9875 47.192707 60.9875 48.427082Q60.9875 49.583332 60.315624 50.442707Q59.4875 51.473957 58.065624 51.473957Q56.89375 51.473957 56.14375 50.817707Q55.409374 50.161457 55.3 49.083332ZM62.3 47.098957Q62.3 45.567707 62.6125 44.645832Q62.925 43.708332 63.534374 43.208332Q64.15938 42.708332 65.09688 42.708332Q65.78438 42.708332 66.3 42.989582Q66.83125 43.270832 67.175 43.802082Q67.51875 44.317707 67.70625 45.067707Q67.89375 45.817707 67.89375 47.098957Q67.89375 48.614582 67.58125 49.536457Q67.28438 50.458332 66.65938 50.973957Q66.05 51.473957 65.09688 51.473957Q63.8625 51.473957 63.14375 50.583332Q62.3 49.520832 62.3 47.098957ZM63.378124 47.098957Q63.378124 49.208332 63.878124 49.911457Q64.37813 50.614582 65.09688 50.614582Q65.83125 50.614582 66.31563 49.911457Q66.81563 49.208332 66.81563 47.098957Q66.81563 44.973957 66.31563 44.286457Q65.83125 43.583332 65.08125 43.583332Q64.3625 43.583332 63.925 44.192707Q63.378124 44.973957 63.378124 47.098957ZM69.3 47.098957Q69.3 45.567707 69.6125 44.645832Q69.925 43.708332 70.53438 43.208332Q71.15938 42.708332 72.09688 42.708332Q72.78438 42.708332 73.3 42.989582Q73.83125 43.270832 74.175 43.802082Q74.51875 44.317707 74.70625 45.067707Q74.89375 45.817707 74.89375 47.098957Q74.89375 48.614582 74.58125 49.536457Q74.28438 50.458332 73.65938 50.973957Q73.05 51.473957 72.09688 51.473957Q70.8625 51.473957 70.14375 50.583332Q69.3 49.520832 69.3 47.098957ZM70.37813 47.098957Q70.37813 49.208332 70.87813 49.911457Q71.37813 50.614582 72.09688 50.614582Q72.83125 50.614582 73.31563 49.911457Q73.81563 49.208332 73.81563 47.098957Q73.81563 44.973957 73.31563 44.286457Q72.83125 43.583332 72.08125 43.583332Q71.3625 43.583332 70.925 44.192707Q70.37813 44.973957 70.37813 47.098957Z" fill-rule="nonzero"/><path fill="#000000" d="M121.30361 265.2L120.25674 265.2L120.25674 258.48126Q119.86611 258.84064 119.24111 259.21564Q118.63174 259.575 118.14736 259.7469L118.14736 258.73126Q119.02236 258.3094 119.67861 257.73126Q120.35049 257.1375 120.63174 256.575L121.30361 256.575L121.30361 265.2Z" fill-rule="nonzero"/><path fill="#000000" d="M179.97043 264.1844L179.97043 265.2L174.28293 265.2Q174.28293 264.825 174.40793 264.46564Q174.62668 263.8875 175.09543 263.325Q175.5798 262.7625 176.48605 262.02814Q177.8923 260.8719 178.37668 260.2Q178.87668 259.52814 178.87668 258.9344Q178.87668 258.3094 178.42355 257.8875Q177.97043 257.45 177.25168 257.45Q176.48605 257.45 176.03293 257.90314Q175.5798 258.35626 175.56418 259.16876L174.48605 259.0594Q174.59543 257.84064 175.31418 257.21564Q176.04855 256.575 177.28293 256.575Q178.5173 256.575 179.23605 257.2625Q179.9548 257.95 179.9548 258.96564Q179.9548 259.48126 179.73605 259.98126Q179.53293 260.46564 179.03293 261.02814Q178.54855 261.575 177.42355 262.52814Q176.47043 263.325 176.18918 263.6219Q175.92355 263.90314 175.75168 264.1844L179.97043 264.1844Z" fill-rule="nonzero"/><path fill="#000000" d="M231.51224 262.9344L232.57474 262.79376Q232.74661 263.6844 233.18411 264.09064Q233.62161 264.48126 234.24661 264.48126Q234.99661 264.48126 235.51224 263.96564Q236.02786 263.45 236.02786 262.6844Q236.02786 261.96564 235.54349 261.4969Q235.07474 261.0125 234.34036 261.0125Q234.04349 261.0125 233.59036 261.1375L233.71536 260.2Q233.82474 260.21564 233.88724 260.21564Q234.55911 260.21564 235.09036 259.8719Q235.63724 259.5125 235.63724 258.77814Q235.63724 258.2 235.24661 257.825Q234.85599 257.4344 234.23099 257.4344Q233.62161 257.4344 233.19974 257.825Q232.79349 258.21564 232.68411 258.98126L231.62161 258.79376Q231.80911 257.7469 232.49661 257.16876Q233.18411 256.575 234.19974 256.575Q234.90286 256.575 235.49661 256.8875Q236.09036 257.1844 236.40286 257.7Q236.71536 258.21564 236.71536 258.8094Q236.71536 259.35626 236.41849 259.825Q236.12161 260.27814 235.54349 260.54376Q236.29349 260.71564 236.71536 261.27814Q237.13724 261.825 237.13724 262.66876Q237.13724 263.79376 236.30911 264.575Q235.49661 265.35626 234.24661 265.35626Q233.12161 265.35626 232.37161 264.6844Q231.62161 263.9969 231.51224 262.9344Z" fill-rule="nonzero"/><path fill="#000000" d="M291.97592 265.2L291.97592 263.1375L288.25717 263.1375L288.25717 262.16876L292.17905 256.60626L293.03842 256.60626L293.03842 262.16876L294.19467 262.16876L294.19467 263.1375L293.03842 263.1375L293.03842 265.2L291.97592 265.2ZM291.97592 262.16876L291.97592 258.3094L289.28842 262.16876L291.97592 262.16876Z" fill-rule="nonzero"/><path fill="#000000" d="M345.6896 262.95L346.79898 262.85626Q346.92398 263.66876 347.36148 264.075Q347.8146 264.48126 348.45523 264.48126Q349.20523 264.48126 349.73648 263.90314Q350.26773 263.325 350.26773 262.3875Q350.26773 261.48126 349.7521 260.96564Q349.2521 260.4344 348.42398 260.4344Q347.92398 260.4344 347.5021 260.66876Q347.09586 260.90314 346.86148 261.2625L345.8771 261.1375L346.70523 256.73126L350.98648 256.73126L350.98648 257.73126L347.54898 257.73126L347.09586 260.04376Q347.86148 259.4969 348.70523 259.4969Q349.83023 259.4969 350.59586 260.27814Q351.3771 261.0594 351.3771 262.29376Q351.3771 263.45 350.70523 264.3094Q349.8771 265.34064 348.45523 265.34064Q347.28336 265.34064 346.53336 264.6844Q345.79898 264.02814 345.6896 262.95Z" fill-rule="nonzero"/><path fill="#000000" d="M408.24704 258.71564L407.20016 258.79376Q407.05954 258.16876 406.80954 257.8875Q406.37204 257.4344 405.74704 257.4344Q405.24704 257.4344 404.8564 257.71564Q404.37204 258.09064 404.07516 258.79376Q403.7939 259.48126 403.7783 260.7625Q404.1533 260.1844 404.70016 259.90314Q405.26266 259.6219 405.87204 259.6219Q406.9189 259.6219 407.6533 260.40314Q408.4033 261.1844 408.4033 262.40314Q408.4033 263.21564 408.0439 263.91876Q407.70016 264.60626 407.0908 264.98126Q406.4814 265.34064 405.7158 265.34064Q404.38766 265.34064 403.55954 264.3719Q402.7314 263.40314 402.7314 261.1844Q402.7314 258.6844 403.6533 257.5594Q404.45016 256.575 405.80954 256.575Q406.82516 256.575 407.4658 257.15314Q408.12204 257.71564 408.24704 258.71564ZM403.95016 262.41876Q403.95016 262.96564 404.1689 263.46564Q404.4033 263.95 404.80954 264.21564Q405.2314 264.48126 405.70016 264.48126Q406.3564 264.48126 406.8408 263.95Q407.32516 263.40314 407.32516 262.48126Q407.32516 261.59064 406.8408 261.075Q406.37204 260.5594 405.6533 260.5594Q404.93454 260.5594 404.43454 261.075Q403.95016 261.59064 403.95016 262.41876Z" fill-rule="nonzero"/><path fill="#000000" d="M459.92947 257.73126L459.92947 256.71564L465.49197 256.71564L465.49197 257.54376Q464.67947 258.41876 463.86697 259.8719Q463.0701 261.3094 462.6326 262.84064Q462.30447 263.91876 462.22635 265.2L461.1326 265.2Q461.14822 264.1844 461.52322 262.7469Q461.91385 261.3094 462.61697 259.98126Q463.33572 258.65314 464.14822 257.73126L459.92947 257.73126Z" fill-rule="nonzero"/><path fill="#000000" d="M518.5806 260.54376Q517.9244 260.29376 517.59625 259.85626Q517.28375 259.40314 517.28375 258.79376Q517.28375 257.85626 517.9556 257.21564Q518.6431 256.575 519.7525 256.575Q520.8775 256.575 521.565 257.23126Q522.2525 257.8875 522.2525 258.825Q522.2525 259.41876 521.94 259.85626Q521.6275 260.29376 520.9869 260.54376Q521.78375 260.79376 522.19 261.3719Q522.59625 261.95 522.59625 262.7469Q522.59625 263.84064 521.815 264.59064Q521.0494 265.34064 519.7681 265.34064Q518.5025 265.34064 517.72125 264.59064Q516.94 263.84064 516.94 262.71564Q516.94 261.8719 517.3619 261.3094Q517.7994 260.7469 518.5806 260.54376ZM518.3619 258.7469Q518.3619 259.35626 518.7525 259.7469Q519.15875 260.1375 519.78375 260.1375Q520.3931 260.1375 520.78375 259.7625Q521.1744 259.3719 521.1744 258.8094Q521.1744 258.23126 520.7681 257.84064Q520.3619 257.4344 519.7681 257.4344Q519.15875 257.4344 518.7525 257.825Q518.3619 258.21564 518.3619 258.7469ZM518.03375 262.71564Q518.03375 263.16876 518.2369 263.59064Q518.4556 264.0125 518.8775 264.2469Q519.2994 264.48126 519.78375 264.48126Q520.53375 264.48126 521.0181 263.9969Q521.5181 263.5125 521.5181 262.7625Q521.5181 261.9969 521.0181 261.4969Q520.5181 260.9969 519.7525 260.9969Q519.0025 260.9969 518.5181 261.4969Q518.03375 261.98126 518.03375 262.71564Z" fill-rule="nonzero"/><path fill="#000000" d="M574.2006 263.21564L575.21625 263.1219Q575.34125 263.84064 575.7006 264.16876Q576.0756 264.48126 576.6381 264.48126Q577.1225 264.48126 577.4819 264.2625Q577.8569 264.02814 578.09125 263.66876Q578.3256 263.29376 578.4819 262.66876Q578.6381 262.02814 578.6381 261.3719Q578.6381 261.29376 578.6381 261.15314Q578.3256 261.65314 577.77875 261.98126Q577.2319 262.29376 576.59125 262.29376Q575.5131 262.29376 574.77875 261.52814Q574.0444 260.7469 574.0444 259.48126Q574.0444 258.16876 574.81 257.3719Q575.59125 256.575 576.7475 256.575Q577.5756 256.575 578.2631 257.02814Q578.96625 257.48126 579.3256 258.325Q579.685 259.15314 579.685 260.73126Q579.685 262.3719 579.3256 263.35626Q578.9819 264.325 578.2631 264.84064Q577.56 265.34064 576.6225 265.34064Q575.6069 265.34064 574.96625 264.79376Q574.3256 264.23126 574.2006 263.21564ZM578.5131 259.41876Q578.5131 258.5125 578.02875 257.98126Q577.56 257.45 576.8725 257.45Q576.1694 257.45 575.6381 258.02814Q575.1225 258.59064 575.1225 259.5125Q575.1225 260.325 575.6225 260.84064Q576.1225 261.35626 576.84125 261.35626Q577.5756 261.35626 578.0444 260.84064Q578.5131 260.325 578.5131 259.41876Z" fill-rule="nonzero"/><path fill="#000000" d="M631.6018 265.2L630.55493 265.2L630.55493 258.48126Q630.1643 258.84064 629.5393 259.21564Q628.92993 259.575 628.44556 259.7469L628.44556 258.73126Q629.32056 258.3094 629.9768 257.73126Q630.6487 257.1375 630.92993 256.575L631.6018 256.575L631.6018 265.2ZM634.63306 260.96564Q634.63306 259.4344 634.94556 258.5125Q635.25806 257.575 635.86743 257.075Q636.49243 256.575 637.42993 256.575Q638.11743 256.575 638.63306 256.85626Q639.1643 257.1375 639.50806 257.66876Q639.8518 258.1844 640.0393 258.9344Q640.2268 259.6844 640.2268 260.96564Q640.2268 262.48126 639.9143 263.40314Q639.61743 264.325 638.99243 264.84064Q638.38306 265.34064 637.42993 265.34064Q636.19556 265.34064 635.4768 264.45Q634.63306 263.3875 634.63306 260.96564ZM635.7112 260.96564Q635.7112 263.075 636.2112 263.77814Q636.7112 264.48126 637.42993 264.48126Q638.1643 264.48126 638.6487 263.77814Q639.1487 263.075 639.1487 260.96564Q639.1487 258.84064 638.6487 258.15314Q638.1643 257.45 637.4143 257.45Q636.69556 257.45 636.25806 258.0594Q635.7112 258.84064 635.7112 260.96564Z" fill-rule="nonzero"/><path fill="#000000" d="M688.6905 265.2L687.6436 265.2L687.6436 258.48126Q687.253 258.84064 686.628 259.21564Q686.0186 259.575 685.53424 259.7469L685.53424 258.73126Q686.40924 258.3094 687.0655 257.73126Q687.73737 257.1375 688.0186 256.575L688.6905 256.575L688.6905 265.2ZM695.6905 265.2L694.6436 265.2L694.6436 258.48126Q694.253 258.84064 693.628 259.21564Q693.0186 259.575 692.53424 259.7469L692.53424 258.73126Q693.40924 258.3094 694.0655 257.73126Q694.73737 257.1375 695.0186 256.575L695.6905 256.575L695.6905 265.2Z" fill-rule="nonzero"/><path fill="#000000" d="M745.7792 265.2L744.7323 265.2L744.7323 258.48126Q744.3417 258.84064 743.7167 259.21564Q743.1073 259.575 742.6229 259.7469L742.6229 258.73126Q743.4979 258.3094 744.1542 257.73126Q744.82605 257.1375 745.1073 256.575L745.7792 256.575L745.7792 265.2ZM754.3573 264.1844L754.3573 265.2L748.6698 265.2Q748.6698 264.825 748.7948 264.46564Q749.01355 263.8875 749.4823 263.325Q749.9667 262.7625 750.8729 262.02814Q752.2792 260.8719 752.76355 260.2Q753.26355 259.52814 753.26355 258.9344Q753.26355 258.3094 752.8104 257.8875Q752.3573 257.45 751.63855 257.45Q750.8729 257.45 750.4198 257.90314Q749.9667 258.35626 749.95105 259.16876L748.8729 259.0594Q748.9823 257.84064 749.70105 257.21564Q750.4354 256.575 751.6698 256.575Q752.9042 256.575 753.6229 257.2625Q754.3417 257.95 754.3417 258.96564Q754.3417 259.48126 754.1229 259.98126Q753.9198 260.46564 753.4198 261.02814Q752.9354 261.575 751.8104 262.52814Q750.8573 263.325 750.57605 263.6219Q750.3104 263.90314 750.13855 264.1844L754.3573 264.1844Z" fill-rule="nonzero"/><path fill="#000000" d="M802.86786 265.2L801.821 265.2L801.821 258.48126Q801.43036 258.84064 800.80536 259.21564Q800.196 259.575 799.7116 259.7469L799.7116 258.73126Q800.5866 258.3094 801.24286 257.73126Q801.91473 257.1375 802.196 256.575L802.86786 256.575L802.86786 265.2ZM805.8991 262.9344L806.9616 262.79376Q807.1335 263.6844 807.571 264.09064Q808.0085 264.48126 808.6335 264.48126Q809.3835 264.48126 809.8991 263.96564Q810.41473 263.45 810.41473 262.6844Q810.41473 261.96564 809.93036 261.4969Q809.4616 261.0125 808.72723 261.0125Q808.43036 261.0125 807.97723 261.1375L808.10223 260.2Q808.2116 260.21564 808.2741 260.21564Q808.946 260.21564 809.47723 259.8719Q810.0241 259.5125 810.0241 258.77814Q810.0241 258.2 809.6335 257.825Q809.24286 257.4344 808.61786 257.4344Q808.0085 257.4344 807.5866 257.825Q807.18036 258.21564 807.071 258.98126L806.0085 258.79376Q806.196 257.7469 806.8835 257.16876Q807.571 256.575 808.5866 256.575Q809.28973 256.575 809.8835 256.8875Q810.47723 257.1844 810.78973 257.7Q811.10223 258.21564 811.10223 258.8094Q811.10223 259.35626 810.80536 259.825Q810.5085 260.27814 809.93036 260.54376Q810.68036 260.71564 811.10223 261.27814Q811.5241 261.825 811.5241 262.66876Q811.5241 263.79376 810.696 264.575Q809.8835 265.35626 808.6335 265.35626Q807.5085 265.35626 806.7585 264.6844Q806.0085 263.9969 805.8991 262.9344Z" fill-rule="nonzero"/><path fill="#000000" d="M859.95654 265.2L858.90967 265.2L858.90967 258.48126Q858.51904 258.84064 857.89404 259.21564Q857.28467 259.575 856.8003 259.7469L856.8003 258.73126Q857.6753 258.3094 858.33154 257.73126Q859.0034 257.1375 859.28467 256.575L859.95654 256.575L859.95654 265.2ZM866.3628 265.2L866.3628 263.1375L862.64404 263.1375L862.64404 262.16876L866.5659 256.60626L867.4253 256.60626L867.4253 262.16876L868.58154 262.16876L868.58154 263.1375L867.4253 263.1375L867.4253 265.2L866.3628 265.2ZM866.3628 262.16876L866.3628 258.3094L863.6753 262.16876L866.3628 262.16876Z" fill-rule="nonzero"/><path fill="#000000" d="M917.0452 265.2L915.99835 265.2L915.99835 258.48126Q915.6077 258.84064 914.9827 259.21564Q914.37335 259.575 913.889 259.7469L913.889 258.73126Q914.764 258.3094 915.4202 257.73126Q916.0921 257.1375 916.37335 256.575L917.0452 256.575L917.0452 265.2ZM920.0765 262.95L921.18585 262.85626Q921.31085 263.66876 921.74835 264.075Q922.2015 264.48126 922.8421 264.48126Q923.5921 264.48126 924.12335 263.90314Q924.6546 263.325 924.6546 262.3875Q924.6546 261.48126 924.139 260.96564Q923.639 260.4344 922.81085 260.4344Q922.31085 260.4344 921.889 260.66876Q921.4827 260.90314 921.24835 261.2625L920.264 261.1375L921.0921 256.73126L925.37335 256.73126L925.37335 257.73126L921.93585 257.73126L921.4827 260.04376Q922.24835 259.4969 923.0921 259.4969Q924.2171 259.4969 924.9827 260.27814Q925.764 261.0594 925.764 262.29376Q925.764 263.45 925.0921 264.3094Q924.264 265.34064 922.8421 265.34064Q921.6702 265.34064 920.9202 264.6844Q920.18585 264.02814 920.0765 262.95Z" fill-rule="nonzero"/><path fill="#000000" d="M974.1339 265.2L973.08704 265.2L973.08704 258.48126Q972.6964 258.84064 972.0714 259.21564Q971.46204 259.575 970.97766 259.7469L970.97766 258.73126Q971.85266 258.3094 972.5089 257.73126Q973.1808 257.1375 973.46204 256.575L974.1339 256.575L974.1339 265.2ZM982.6339 258.71564L981.58704 258.79376Q981.4464 258.16876 981.1964 257.8875Q980.7589 257.4344 980.1339 257.4344Q979.6339 257.4344 979.2433 257.71564Q978.7589 258.09064 978.46204 258.79376Q978.1808 259.48126 978.16516 260.7625Q978.54016 260.1844 979.08704 259.90314Q979.64954 259.6219 980.2589 259.6219Q981.3058 259.6219 982.04016 260.40314Q982.79016 261.1844 982.79016 262.40314Q982.79016 263.21564 982.4308 263.91876Q982.08704 264.60626 981.47766 264.98126Q980.8683 265.34064 980.10266 265.34064Q978.77454 265.34064 977.9464 264.3719Q977.1183 263.40314 977.1183 261.1844Q977.1183 258.6844 978.04016 257.5594Q978.83704 256.575 980.1964 256.575Q981.21204 256.575 981.85266 257.15314Q982.5089 257.71564 982.6339 258.71564ZM978.33704 262.41876Q978.33704 262.96564 978.5558 263.46564Q978.79016 263.95 979.1964 264.21564Q979.6183 264.48126 980.08704 264.48126Q980.7433 264.48126 981.22766 263.95Q981.71204 263.40314 981.71204 262.48126Q981.71204 261.59064 981.22766 261.075Q980.7589 260.5594 980.04016 260.5594Q979.3214 260.5594 978.8214 261.075Q978.33704 261.59064 978.33704 262.41876Z" fill-rule="nonzero"/><path fill="#4285f4" d="M361.0 17.8C361.0 17.247715 361.44772 16.8 362.0 16.8L372.0 16.8C372.55228 16.8 373.0 17.247715 373.0 17.8L373.0 27.8C373.0 28.352285 372.55228 28.8 372.0 28.8L362.0 28.8C361.44772 28.8 361.0 28.352285 361.0 27.8Z" fill-rule="nonzero"/><path fill="#1a1a1a" d="M381.92188 26.8L381.92188 18.20625L384.89062 18.20625Q385.89062 18.20625 386.42188 18.33125Q387.15625 18.503124 387.67188 18.940624Q388.35938 19.51875 388.6875 20.425Q389.03125 21.315624 389.03125 22.45625Q389.03125 23.440624 388.79688 24.190624Q388.57812 24.940624 388.21875 25.440624Q387.85938 25.940624 387.42188 26.221874Q387.0 26.503124 386.40625 26.659374Q385.8125 26.8 385.03125 26.8L381.92188 26.8ZM383.0625 25.784374L384.89062 25.784374Q385.75 25.784374 386.23438 25.628124Q386.71875 25.471874 387.0 25.175Q387.40625 24.784374 387.625 24.096874Q387.85938 23.409374 387.85938 22.440624Q387.85938 21.096874 387.40625 20.378124Q386.96875 19.64375 386.34375 19.39375Q385.875 19.221874 384.875 19.221874L383.0625 19.221874L383.0625 25.784374ZM390.95312 26.8L390.95312 18.20625L397.15625 18.20625L397.15625 19.221874L392.09375 19.221874L392.09375 21.846874L396.84375 21.846874L396.84375 22.8625L392.09375 22.8625L392.09375 25.784374L397.35938 25.784374L397.35938 26.8L390.95312 26.8ZM398.98438 26.8L398.98438 18.20625L404.78125 18.20625L404.78125 19.221874L400.125 19.221874L400.125 21.878124L404.15625 21.878124L404.15625 22.89375L400.125 22.89375L400.125 26.8L398.98438 26.8ZM405.95312 26.8L405.95312 18.20625L412.15625 18.20625L412.15625 19.221874L407.09375 19.221874L407.09375 21.846874L411.84375 21.846874L411.84375 22.8625L407.09375 22.8625L407.09375 25.784374L412.35938 25.784374L412.35938 26.8L405.95312 26.8ZM413.9375 26.8L413.9375 18.20625L417.75 18.20625Q418.90625 18.20625 419.5 18.440624Q420.09375 18.675 420.45312 19.26875Q420.8125 19.846874 420.8125 20.55Q420.8125 21.471874 420.21875 22.096874Q419.625 22.721874 418.39062 22.89375Q418.84375 23.1125 419.07812 23.315624Q419.57812 23.76875 420.01562 24.45625L421.51562 26.8L420.07812 26.8L418.95312 25.01875Q418.45312 24.2375 418.125 23.83125Q417.8125 23.425 417.54688 23.26875Q417.29688 23.096874 417.03125 23.01875Q416.84375 22.9875 416.40625 22.9875L415.07812 22.9875L415.07812 26.8L413.9375 26.8ZM415.07812 22.003124L417.53125 22.003124Q418.29688 22.003124 418.73438 21.846874Q419.1875 21.675 419.40625 21.33125Q419.64062 20.971874 419.64062 20.55Q419.64062 19.940624 419.1875 19.55Q418.75 19.159374 417.79688 19.159374L415.07812 19.159374L415.07812 22.003124ZM422.9375 26.8L422.9375 18.20625L426.75 18.20625Q427.90625 18.20625 428.5 18.440624Q429.09375 18.675 429.45312 19.26875Q429.8125 19.846874 429.8125 20.55Q429.8125 21.471874 429.21875 22.096874Q428.625 22.721874 427.39062 22.89375Q427.84375 23.1125 428.07812 23.315624Q428.57812 23.76875 429.01562 24.45625L430.51562 26.8L429.07812 26.8L427.95312 25.01875Q427.45312 24.2375 427.125 23.83125Q426.8125 23.425 426.54688 23.26875Q426.29688 23.096874 426.03125 23.01875Q425.84375 22.9875 425.40625 22.9875L424.07812 22.9875L424.07812 26.8L422.9375 26.8ZM424.07812 22.003124L426.53125 22.003124Q427.29688 22.003124 427.73438 21.846874Q428.1875 21.675 428.40625 21.33125Q428.64062 20.971874 428.64062 20.55Q428.64062 19.940624 428.1875 19.55Q427.75 19.159374 426.79688 19.159374L424.07812 19.159374L424.07812 22.003124ZM431.95312 26.8L431.95312 18.20625L438.15625 18.20625L438.15625 19.221874L433.09375 19.221874L433.09375 21.846874L437.84375 21.846874L437.84375 22.8625L433.09375 22.8625L433.09375 25.784374L438.35938 25.784374L438.35938 26.8L431.95312 26.8ZM439.92188 26.8L439.92188 18.20625L442.89062 18.20625Q443.89062 18.20625 444.42188 18.33125Q445.15625 18.503124 445.67188 18.940624Q446.35938 19.51875 446.6875 20.425Q447.03125 21.315624 447.03125 22.45625Q447.03125 23.440624 446.79688 24.190624Q446.57812 24.940624 446.21875 25.440624Q445.85938 25.940624 445.42188 26.221874Q445.0 26.503124 444.40625 26.659374Q443.8125 26.8 443.03125 26.8L439.92188 26.8ZM441.0625 25.784374L442.89062 25.784374Q443.75 25.784374 444.23438 25.628124Q444.71875 25.471874 445.0 25.175Q445.40625 24.784374 445.625 24.096874Q445.85938 23.409374 445.85938 22.440624Q445.85938 21.096874 445.40625 20.378124Q444.96875 19.64375 444.34375 19.39375Q443.875 19.221874 442.875 19.221874L441.0625 19.221874L441.0625 25.784374Z" fill-rule="nonzero"/><path fill="#ea4335" d="M464.0 17.8C464.0 17.247715 464.44772 16.8 465.0 16.8L475.0 16.8C475.55228 16.8 476.0 17.247715 476.0 17.8L476.0 27.8C476.0 28.352285 475.55228 28.8 475.0 28.8L465.0 28.8C464.44772 28.8 464.0 28.352285 464.0 27.8Z" fill-rule="nonzero"/><path fill="#1a1a1a" d="M485.125 26.8L485.125 18.20625L486.25 18.20625L486.25 26.8L485.125 26.8ZM487.89062 26.8L487.89062 18.20625L489.60938 18.20625L491.64062 24.284374Q491.92188 25.14375 492.04688 25.565624Q492.1875 25.096874 492.5 24.190624L494.5625 18.20625L496.09375 18.20625L496.09375 26.8L495.0 26.8L495.0 19.6125L492.5 26.8L491.46875 26.8L488.98438 19.4875L488.98438 26.8L487.89062 26.8ZM496.89062 26.8L496.89062 18.20625L498.60938 18.20625L500.64062 24.284374Q500.92188 25.14375 501.04688 25.565624Q501.1875 25.096874 501.5 24.190624L503.5625 18.20625L505.09375 18.20625L505.09375 26.8L504.0 26.8L504.0 19.6125L501.5 26.8L500.46875 26.8L497.98438 19.4875L497.98438 26.8L496.89062 26.8ZM505.95312 26.8L505.95312 18.20625L512.15625 18.20625L512.15625 19.221874L507.09375 19.221874L507.09375 21.846874L511.84375 21.846874L511.84375 22.8625L507.09375 22.8625L507.09375 25.784374L512.3594 25.784374L512.3594 26.8L505.95312 26.8ZM513.9219 26.8L513.9219 18.20625L516.8906 18.20625Q517.8906 18.20625 518.4219 18.33125Q519.15625 18.503124 519.6719 18.940624Q520.3594 19.51875 520.6875 20.425Q521.03125 21.315624 521.03125 22.45625Q521.03125 23.440624 520.7969 24.190624Q520.5781 24.940624 520.21875 25.440624Q519.8594 25.940624 519.4219 26.221874Q519.0 26.503124 518.40625 26.659374Q517.8125 26.8 517.03125 26.8L513.9219 26.8ZM515.0625 25.784374L516.8906 25.784374Q517.75 25.784374 518.2344 25.628124Q518.71875 25.471874 519.0 25.175Q519.40625 24.784374 519.625 24.096874Q519.8594 23.409374 519.8594 22.440624Q519.8594 21.096874 519.40625 20.378124Q518.96875 19.64375 518.34375 19.39375Q517.875 19.221874 516.875 19.221874L515.0625 19.221874L515.0625 25.784374ZM523.125 26.8L523.125 18.20625L524.25 18.20625L524.25 26.8L523.125 26.8ZM524.9844 26.8L528.28125 18.20625L529.5 18.20625L533.0156 26.8L531.7344 26.8L530.71875 24.190624L527.1406 24.190624L526.1875 26.8L524.9844 26.8ZM527.46875 23.26875L530.375 23.26875L529.4844 20.89375Q529.0625 19.815624 528.875 19.1125Q528.7031 19.940624 528.40625 20.753124L527.46875 23.26875ZM535.1094 26.8L535.1094 19.221874L532.28125 19.221874L532.28125 18.20625L539.09375 18.20625L539.09375 19.221874L536.25 19.221874L536.25 26.8L535.1094 26.8ZM539.9531 26.8L539.9531 18.20625L546.15625 18.20625L546.15625 19.221874L541.09375 19.221874L541.09375 21.846874L545.84375 21.846874L545.84375 22.8625L541.09375 22.8625L541.09375 25.784374L546.3594 25.784374L546.3594 26.8L539.9531 26.8Z" fill-rule="nonzero"/><path fill="#fbbc04" d="M563.0 17.8C563.0 17.247715 563.4477 16.8 564.0 16.8L574.0 16.8C574.5523 16.8 575.0 17.247715 575.0 17.8L575.0 27.8C575.0 28.352285 574.5523 28.8 574.0 28.8L564.0 28.8C563.4477 28.8 563.0 28.352285 563.0 27.8Z" fill-rule="nonzero"/><path fill="#1a1a1a" d="M590.0625 23.784374L591.1875 24.08125Q590.8281 25.471874 589.90625 26.20625Q588.9844 26.940624 587.6406 26.940624Q586.25 26.940624 585.375 26.378124Q584.5 25.815624 584.0469 24.753124Q583.59375 23.675 583.59375 22.440624Q583.59375 21.096874 584.1094 20.096874Q584.625 19.096874 585.5625 18.58125Q586.5156 18.065624 587.65625 18.065624Q588.9375 18.065624 589.8125 18.721874Q590.7031 19.378124 591.0469 20.565624L589.9219 20.83125Q589.625 19.89375 589.0469 19.471874Q588.4844 19.034374 587.625 19.034374Q586.6406 19.034374 585.96875 19.51875Q585.3125 19.9875 585.03125 20.784374Q584.7656 21.58125 584.7656 22.440624Q584.7656 23.534374 585.0781 24.346874Q585.40625 25.159374 586.0781 25.565624Q586.75 25.971874 587.5469 25.971874Q588.5 25.971874 589.15625 25.425Q589.8281 24.878124 590.0625 23.784374ZM592.5781 22.6125Q592.5781 20.471874 593.71875 19.26875Q594.875 18.05 596.6875 18.05Q597.8906 18.05 598.84375 18.628124Q599.7969 19.190624 600.2969 20.20625Q600.7969 21.221874 600.7969 22.51875Q600.7969 23.815624 600.2656 24.846874Q599.7344 25.878124 598.7656 26.409374Q597.8125 26.940624 596.6875 26.940624Q595.46875 26.940624 594.5156 26.3625Q593.5625 25.76875 593.0625 24.76875Q592.5781 23.753124 592.5781 22.6125ZM593.75 22.628124Q593.75 24.190624 594.5781 25.08125Q595.4219 25.971874 596.6875 25.971874Q597.96875 25.971874 598.7969 25.08125Q599.625 24.175 599.625 22.503124Q599.625 21.45625 599.2656 20.675Q598.9219 19.89375 598.2344 19.471874Q597.5469 19.034374 596.7031 19.034374Q595.5 19.034374 594.625 19.8625Q593.75 20.690624 593.75 22.628124ZM601.9219 26.8L601.9219 18.20625L603.0781 18.20625L607.59375 24.95625L607.59375 18.20625L608.6875 18.20625L608.6875 26.8L607.5156 26.8L603.0 20.05L603.0 26.8L601.9219 26.8ZM617.0625 23.784374L618.1875 24.08125Q617.8281 25.471874 616.90625 26.20625Q615.9844 26.940624 614.6406 26.940624Q613.25 26.940624 612.375 26.378124Q611.5 25.815624 611.0469 24.753124Q610.59375 23.675 610.59375 22.440624Q610.59375 21.096874 611.1094 20.096874Q611.625 19.096874 612.5625 18.58125Q613.5156 18.065624 614.65625 18.065624Q615.9375 18.065624 616.8125 18.721874Q617.7031 19.378124 618.0469 20.565624L616.9219 20.83125Q616.625 19.89375 616.0469 19.471874Q615.4844 19.034374 614.625 19.034374Q613.6406 19.034374 612.96875 19.51875Q612.3125 19.9875 612.03125 20.784374Q611.7656 21.58125 611.7656 22.440624Q611.7656 23.534374 612.0781 24.346874Q612.40625 25.159374 613.0781 25.565624Q613.75 25.971874 614.5469 25.971874Q615.5 25.971874 616.15625 25.425Q616.8281 24.878124 617.0625 23.784374ZM625.5625 18.20625L626.7031 18.20625L626.7031 23.175Q626.7031 24.471874 626.40625 25.2375Q626.1094 25.9875 625.34375 26.471874Q624.5781 26.940624 623.34375 26.940624Q622.1406 26.940624 621.3594 26.534374Q620.59375 26.1125 620.2656 25.33125Q619.9375 24.534374 619.9375 23.175L619.9375 18.20625L621.0781 18.20625L621.0781 23.159374Q621.0781 24.284374 621.28125 24.815624Q621.5 25.346874 622.0 25.64375Q622.5156 25.925 623.25 25.925Q624.5 25.925 625.03125 25.3625Q625.5625 24.784374 625.5625 23.159374L625.5625 18.20625ZM628.9375 26.8L628.9375 18.20625L632.75 18.20625Q633.90625 18.20625 634.5 18.440624Q635.09375 18.675 635.4531 19.26875Q635.8125 19.846874 635.8125 20.55Q635.8125 21.471874 635.21875 22.096874Q634.625 22.721874 633.3906 22.89375Q633.84375 23.1125 634.0781 23.315624Q634.5781 23.76875 635.0156 24.45625L636.5156 26.8L635.0781 26.8L633.9531 25.01875Q633.4531 24.2375 633.125 23.83125Q632.8125 23.425 632.5469 23.26875Q632.2969 23.096874 632.03125 23.01875Q631.84375 22.9875 631.40625 22.9875L630.0781 22.9875L630.0781 26.8L628.9375 26.8ZM630.0781 22.003124L632.53125 22.003124Q633.2969 22.003124 633.7344 21.846874Q634.1875 21.675 634.40625 21.33125Q634.6406 20.971874 634.6406 20.55Q634.6406 19.940624 634.1875 19.55Q633.75 19.159374 632.7969 19.159374L630.0781 19.159374L630.0781 22.003124ZM637.9375 26.8L637.9375 18.20625L641.75 18.20625Q642.90625 18.20625 643.5 18.440624Q644.09375 18.675 644.4531 19.26875Q644.8125 19.846874 644.8125 20.55Q644.8125 21.471874 644.21875 22.096874Q643.625 22.721874 642.3906 22.89375Q642.84375 23.1125 643.0781 23.315624Q643.5781 23.76875 644.0156 24.45625L645.5156 26.8L644.0781 26.8L642.9531 25.01875Q642.4531 24.2375 642.125 23.83125Q641.8125 23.425 641.5469 23.26875Q641.2969 23.096874 641.03125 23.01875Q640.84375 22.9875 640.40625 22.9875L639.0781 22.9875L639.0781 26.8L637.9375 26.8ZM639.0781 22.003124L641.53125 22.003124Q642.2969 22.003124 642.7344 21.846874Q643.1875 21.675 643.40625 21.33125Q643.6406 20.971874 643.6406 20.55Q643.6406 19.940624 643.1875 19.55Q642.75 19.159374 641.7969 19.159374L639.0781 19.159374L639.0781 22.003124ZM646.9531 26.8L646.9531 18.20625L653.15625 18.20625L653.15625 19.221874L648.09375 19.221874L648.09375 21.846874L652.84375 21.846874L652.84375 22.8625L648.09375 22.8625L648.09375 25.784374L653.3594 25.784374L653.3594 26.8L646.9531 26.8ZM654.9219 26.8L654.9219 18.20625L656.0781 18.20625L660.59375 24.95625L660.59375 18.20625L661.6875 18.20625L661.6875 26.8L660.5156 26.8L656.0 20.05L656.0 26.8L654.9219 26.8ZM666.1094 26.8L666.1094 19.221874L663.28125 19.221874L663.28125 18.20625L670.09375 18.20625L670.09375 19.221874L667.25 19.221874L667.25 26.8L666.1094 26.8Z" fill-rule="nonzero"/></svg>