<svg version="1.1" viewBox="0.0 0.0 1031.0 316.0" fill="none" stroke="none" stroke-linecap="square" stroke-miterlimit="10" width="1031" height="316" xmlns:xlink="http://www.w3.org/1999/xlink" xmlns="http://www.w3.org/2000/svg"><path fill="#ffffff" d="M0 0L1031.0 0L1031.0 316.0L0 316.0L0 0Z" fill-rule="nonzero"/><path stroke="#333333" stroke-width="1.0" stroke-linecap="butt" d="M102.5 248.5L1015.5 248.5" fill-rule="nonzero"/><path stroke="#cccccc" stroke-width="1.0" stroke-linecap="butt" d="M102.5 181.5L1015.5 181.5" fill-rule="nonzero"/><path stroke="#cccccc" stroke-width="1.0" stroke-linecap="butt" d="M102.5 114.5L1015.5 114.5" fill-rule="nonzero"/><path stroke="#cccccc" stroke-width="1.0" stroke-linecap="butt" d="M102.5 47.5L1015.5 47.5" fill-rule="nonzero"/><clipPath id="id_0"><path d="M102.8 47.333332L1015.2 47.333332L1015.2 248.2L102.8 248.2L102.8 47.333332Z" clip-rule="nonzero"/></clipPath><path stroke="#000000" stroke-width="2.0" stroke-linecap="butt" stroke-opacity="0.0" clip-path="url(#id_0)" d="M133.0 248.0L123.0 248.0L123.0 224.0C123.0 222.89543 123.89543 222.0 125.0 222.0L131.0 222.0C132.10457 222.0 133.0 222.89543 133.0 224.0Z" fill-rule="nonzero"/><path fill="#4285f4" clip-path="url(#id_0)" d="M133.0 248.0L123.0 248.0L123.0 224.0C123.0 222.89543 123.89543 222.0 125.0 222.0L131.0 222.0C132.10457 222.0 133.0 222.89543 133.0 224.0Z" fill-rule="nonzero"/><path stroke="#000000" stroke-width="2.0" stroke-linecap="butt" stroke-opacity="0.0" clip-path="url(#id_0)" d="M189.0 248.0L179.0 248.0L179.0 201.0C179.0 199.89543 179.89543 199.0 181.0 199.0L187.0 199.0C188.10457 199.0 189.0 199.89543 189.0 201.0Z" fill-rule="nonzero"/><path fill="#4285f4" clip-path="url(#id_0)" d="M189.0 248.0L179.0 248.0L179.0 201.0C179.0 199.89543 179.89543 199.0 181.0 199.0L187.0 199.0C188.10457 199.0 189.0 199.89543 189.0 201.0Z" fill-rule="nonzero"/><path stroke="#000000" stroke-width="2.0" stroke-linecap="butt" stroke-opacity="0.0" clip-path="url(#id_0)" d="M245.0 248.0L235.0 248.0L235.0 183.0C235.0 181.89543 235.89543 181.0 237.0 181.0L243.0 181.0C244.10457 181.0 245.0 181.89543 245.0 183.0Z" fill-rule="nonzero"/><path fill="#4285f4" clip-path="url(#id_0)" d="M245.0 248.0L235.0 248.0L235.0 183.0C235.0 181.89543 235.89543 181.0 237.0 181.0L243.0 181.0C244.10457 181.0 245.0 181.89543 245.0 183.0Z" fill-rule="nonzero"/><path stroke="#000000" stroke-width="2.0" stroke-linecap="butt" stroke-opacity="0.0" clip-path="url(#id_0)" d="M301.0 248.0L291.0 248.0L291.0 161.0C291.0 159.89543 291.89542 159.0 293.0 159.0L299.0 159.0C300.10458 159.0 301.0 159.89543 301.0 161.0Z" fill-rule="nonzero"/><path fill="#4285f4" clip-path="url(#id_0)" d="M301.0 248.0L291.0 248.0L291.0 161.0C291.0 159.89543 291.89542 159.0 293.0 159.0L299.0 159.0C300.10458 159.0 301.0 159.89543 301.0 161.0Z" fill-rule="nonzero"/><path stroke="#000000" stroke-width="2.0" stroke-linecap="butt" stroke-opacity="0.0" clip-path="url(#id_0)" d="M357.0 248.0L347.0 248.0L347.0 151.0C347.0 149.89543 347.89542 149.0 349.0 149.0L355.0 149.0C356.10458 149.0 357.0 149.89543 357.0 151.0Z" fill-rule="nonzero"/><path fill="#4285f4" clip-path="url(#id_0)" d="M357.0 248.0L347.0 248.0L347.0 151.0C347.0 149.89543 347.89542 149.0 349.0 149.0L355.0 149.0C356.10458 149.0 357.0 149.89543 357.0 151.0Z" fill-rule="nonzero"/><path stroke="#000000" stroke-width="2.0" stroke-linecap="butt" stroke-opacity="0.0" clip-path="url(#id_0)" d="M412.0 248.0L402.0 248.0L402.0 126.0C402.0 124.89543 402.89542 124.0 404.0 124.0L410.0 124.0C411.10458 124.0 412.0 124.89543 412.0 126.0Z" fill-rule="nonzero"/><path fill="#4285f4" clip-path="url(#id_0)" d="M412.0 248.0L402.0 248.0L402.0 126.0C402.0 124.89543 402.89542 124.0 404.0 124.0L410.0 124.0C411.10458 124.0 412.0 124.89543 412.0 126.0Z" fill-rule="nonzero"/><path stroke="#000000" stroke-width="2.0" stroke-linecap="butt" stroke-opacity="0.0" clip-path="url(#id_0)" d="M468.0 248.0L458.0 248.0L458.0 106.0C458.0 104.89543 458.89542 104.0 460.0 104.0L466.0 104.0C467.10458 104.0 468.0 104.89543 468.0 106.0Z" fill-rule="nonzero"/><path fill="#4285f4" clip-path="url(#id_0)" d="M468.0 248.0L458.0 248.0L458.0 106.0C458.0 104.89543 458.89542 104.0 460.0 104.0L466.0 104.0C467.10458 104.0 468.0 104.89543 468.0 106.0Z" fill-rule="nonzero"/><path stroke="#000000" stroke-width="2.0" stroke-linecap="butt" stroke-opacity="0.0" clip-path="url(#id_0)" d="M524.0 248.0L514.0 248.0L514.0 89.0C514.0 87.89543 514.89545 87.0 516.0 87.0L522.0 87.0C523.10455 87.0 524.0 87.89543 524.0 89.0Z" fill-rule="nonzero"/><path fill="#4285f4" clip-path="url(#id_0)" d="M524.0 248.0L514.0 248.0L514.0 89.0C514.0 87.89543 514.89545 87.0 516.0 87.0L522.0 87.0C523.10455 87.0 524.0 87.89543 524.0 89.0Z" fill-rule="nonzero"/><path stroke="#000000" stroke-width="2.0" stroke-linecap="butt" stroke-opacity="0.0" clip-path="url(#id_0)" d="M580.0 248.0L570.0 248.0L570.0 87.0C570.0 85.89543 570.89545 85.0 572.0 85.0L578.0 85.0C579.10455 85.0 580.0 85.89543 580.0 87.0Z" fill-rule="nonzero"/><path fill="#4285f4" clip-path="url(#id_0)" d="M580.0 248.0L570.0 248.0L570.0 87.0C570.0 85.89543 570.89545 85.0 572.0 85.0L578.0 85.0C579.10455 85.0 580.0 85.89543 580.0 87.0Z" fill-rule="nonzero"/><path stroke="#000000" stroke-width="2.0" stroke-linecap="butt" stroke-opacity="0.0" clip-path="url(#id_0)" d="M636.0 248.0L626.0 248.0L626.0 80.0C626.0 78.89543 626.89545 78.0 628.0 78.0L634.0 78.0C635.10455 78.0 636.0 78.89543 636.0 80.0Z" fill-rule="nonzero"/><path fill="#4285f4" clip-path="url(#id_0)" d="M636.0 248.0L626.0 248.0L626.0 80.0C626.0 78.89543 626.89545 78.0 628.0 78.0L634.0 78.0C635.10455 78.0 636.0 78.89543 636.0 80.0Z" fill-rule="nonzero"/><path stroke="#000000" stroke-width="2.0" stroke-linecap="butt" stroke-opacity="0.0" clip-path="url(#id_0)" d="M692.0 248.0L682.0 248.0L682.0 78.0C682.0 76.89543 682.89545 76.0 684.0 76.0L690.0 76.0C691.10455 76.0 692.0 76.89543 692.0 78.0Z" fill-rule="nonzero"/><path fill="#4285f4" clip-path="url(#id_0)" d="M692.0 248.0L682.0 248.0L682.0 78.0C682.0 76.89543 682.89545 76.0 684.0 76.0L690.0 76.0C691.10455 76.0 692.0 76.89543 692.0 78.0Z" fill-rule="nonzero"/><path stroke="#000000" stroke-width="2.0" stroke-linecap="butt" stroke-opacity="0.0" clip-path="url(#id_0)" d="M747.0 248.0L737.0 248.0L737.0 74.0C737.0 72.89543 737.89545 72.0 739.0 72.0L745.0 72.0C746.10455 72.0 747.0 72.89543 747.0 74.0Z" fill-rule="nonzero"/><path fill="#4285f4" clip-path="url(#id_0)" d="M747.0 248.0L737.0 248.0L737.0 74.0C737.0 72.89543 737.89545 72.0 739.0 72.0L745.0 72.0C746.10455 72.0 747.0 72.89543 747.0 74.0Z" fill-rule="nonzero"/><path stroke="#000000" stroke-width="2.0" stroke-linecap="butt" stroke-opacity="0.0" clip-path="url(#id_0)" d="M803.0 248.0L793.0 248.0L793.0 71.0C793.0 69.89543 793.89545 69.0 795.0 69.0L801.0 69.0C802.10455 69.0 803.0 69.89543 803.0 71.0Z" fill-rule="nonzero"/><path fill="#4285f4" clip-path="url(#id_0)" d="M803.0 248.0L793.0 248.0L793.0 71.0C793.0 69.89543 793.89545 69.0 795.0 69.0L801.0 69.0C802.10455 69.0 803.0 69.89543 803.0 71.0Z" fill-rule="nonzero"/><path stroke="#000000" stroke-width="2.0" stroke-linecap="butt" stroke-opacity="0.0" clip-path="url(#id_0)" d="M859.0 248.0L849.0 248.0L849.0 66.0C849.0 64.89543 849.89545 64.0 851.0 64.0L857.0 64.0C858.10455 64.0 859.0 64.89543 859.0 66.0Z" fill-rule="nonzero"/><path fill="#4285f4" clip-path="url(#id_0)" d="M859.0 248.0L849.0 248.0L849.0 66.0C849.0 64.89543 849.89545 64.0 851.0 64.0L857.0 64.0C858.10455 64.0 859.0 64.89543 859.0 66.0Z" fill-rule="nonzero"/><path stroke="#000000" stroke-width="2.0" stroke-linecap="butt" stroke-opacity="0.0" clip-path="url(#id_0)" d="M915.0 248.0L905.0 248.0L905.0 67.0C905.0 65.89543 905.89545 65.0 907.0 65.0L913.0 65.0C914.10455 65.0 915.0 65.89543 915.0 67.0Z" fill-rule="nonzero"/><path fill="#4285f4" clip-path="url(#id_0)" d="M915.0 248.0L905.0 248.0L905.0 67.0C905.0 65.89543 905.89545 65.0 907.0 65.0L913.0 65.0C914.10455 65.0 915.0 65.89543 915.0 67.0Z" fill-rule="nonzero"/><path stroke="#000000" stroke-width="2.0" stroke-linecap="butt" stroke-opacity="0.0" clip-path="url(#id_0)" d="M971.0 248.0L961.0 248.0L961.0 61.0C961.0 59.89543 961.89545 59.0 963.0 59.0L969.0 59.0C970.10455 59.0 971.0 59.89543 971.0 61.0Z" fill-rule="nonzero"/><path fill="#4285f4" clip-path="url(#id_0)" d="M971.0 248.0L961.0 248.0L961.0 61.0C961.0 59.89543 961.89545 59.0 963.0 59.0L969.0 59.0C970.10455 59.0 971.0 59.89543 971.0 61.0Z" fill-rule="nonzero"/><path stroke="#000000" stroke-width="2.0" stroke-linecap="butt" stroke-opacity="0.0" clip-path="url(#id_0)" d="M145.0 248.0L135.0 248.0L135.0 238.0C135.0 236.89543 135.89543 236.0 137.0 236.0L143.0 236.0C144.10457 236.0 145.0 236.89543 145.0 238.0Z" fill-rule="nonzero"/><path fill="#ea4335" clip-path="url(#id_0)" d="M145.0 248.0L135.0 248.0L135.0 238.0C135.0 236.89543 135.89543 236.0 137.0 236.0L143.0 236.0C144.10457 236.0 145.0 236.89543 145.0 238.0Z" fill-rule="nonzero"/><path stroke="#000000" stroke-width="2.0" stroke-linecap="butt" stroke-opacity="0.0" clip-path="url(#id_0)" d="M201.0 248.0L191.0 248.0L191.0 237.0C191.0 235.89543 191.89543 235.0 193.0 235.0L199.0 235.0C200.10457 235.0 201.0 235.89543 201.0 237.0Z" fill-rule="nonzero"/><path fill="#ea4335" clip-path="url(#id_0)" d="M201.0 248.0L191.0 248.0L191.0 237.0C191.0 235.89543 191.89543 235.0 193.0 235.0L199.0 235.0C200.10457 235.0 201.0 235.89543 201.0 237.0Z" fill-rule="nonzero"/><path stroke="#000000" stroke-width="2.0" stroke-linecap="butt" stroke-opacity="0.0" clip-path="url(#id_0)" d="M257.0 248.0L247.0 248.0L247.0 238.0C247.0 236.89543 247.89543 236.0 249.0 236.0L255.0 236.0C256.10458 236.0 257.0 236.89543 257.0 238.0Z" fill-rule="nonzero"/><path fill="#ea4335" clip-path="url(#id_0)" d="M257.0 248.0L247.0 248.0L247.0 238.0C247.0 236.89543 247.89543 236.0 249.0 236.0L255.0 236.0C256.10458 236.0 257.0 236.89543 257.0 238.0Z" fill-rule="nonzero"/><path stroke="#000000" stroke-width="2.0" stroke-linecap="butt" stroke-opacity="0.0" clip-path="url(#id_0)" d="M313.0 248.0L303.0 248.0L303.0 238.0C303.0 236.89543 303.89542 236.0 305.0 236.0L311.0 236.0C312.10458 236.0 313.0 236.89543 313.0 238.0Z" fill-rule="nonzero"/><path fill="#ea4335" clip-path="url(#id_0)" d="M313.0 248.0L303.0 248.0L303.0 238.0C303.0 236.89543 303.89542 236.0 305.0 236.0L311.0 236.0C312.10458 236.0 313.0 236.89543 313.0 238.0Z" fill-rule="nonzero"/><path stroke="#000000" stroke-width="2.0" stroke-linecap="butt" stroke-opacity="0.0" clip-path="url(#id_0)" d="M369.0 248.0L359.0 248.0L359.0 239.0C359.0 237.89543 359.89542 237.0 361.0 237.0L367.0 237.0C368.10458 237.0 369.0 237.89543 369.0 239.0Z" fill-rule="nonzero"/><path fill="#ea4335" clip-path="url(#id_0)" d="M369.0 248.0L359.0 248.0L359.0 239.0C359.0 237.89543 359.89542 237.0 361.0 237.0L367.0 237.0C368.10458 237.0 369.0 237.89543 369.0 239.0Z" fill-rule="nonzero"/><path stroke="#000000" stroke-width="2.0" stroke-linecap="butt" stroke-opacity="0.0" clip-path="url(#id_0)" d="M424.0 248.0L414.0 248.0L414.0 239.0C414.0 237.89543 414.89542 237.0 416.0 237.0L422.0 237.0C423.10458 237.0 424.0 237.89543 424.0 239.0Z" fill-rule="nonzero"/><path fill="#ea4335" clip-path="url(#id_0)" d="M424.0 248.0L414.0 248.0L414.0 239.0C414.0 237.89543 414.89542 237.0 416.0 237.0L422.0 237.0C423.10458 237.0 424.0 237.89543 424.0 239.0Z" fill-rule="nonzero"/><path stroke="#000000" stroke-width="2.0" stroke-linecap="butt" stroke-opacity="0.0" clip-path="url(#id_0)" d="M480.0 248.0L470.0 248.0L470.0 239.0C470.0 237.89543 470.89542 237.0 472.0 237.0L478.0 237.0C479.10458 237.0 480.0 237.89543 480.0 239.0Z" fill-rule="nonzero"/><path fill="#ea4335" clip-path="url(#id_0)" d="M480.0 248.0L470.0 248.0L470.0 239.0C470.0 237.89543 470.89542 237.0 472.0 237.0L478.0 237.0C479.10458 237.0 480.0 237.89543 480.0 239.0Z" fill-rule="nonzero"/><path stroke="#000000" stroke-width="2.0" stroke-linecap="butt" stroke-opacity="0.0" clip-path="url(#id_0)" d="M536.0 248.0L526.0 248.0L526.0 238.0C526.0 236.89543 526.89545 236.0 528.0 236.0L534.0 236.0C535.10455 236.0 536.0 236.89543 536.0 238.0Z" fill-rule="nonzero"/><path fill="#ea4335" clip-path="url(#id_0)" d="M536.0 248.0L526.0 248.0L526.0 238.0C526.0 236.89543 526.89545 236.0 528.0 236.0L534.0 236.0C535.10455 236.0 536.0 236.89543 536.0 238.0Z" fill-rule="nonzero"/><path stroke="#000000" stroke-width="2.0" stroke-linecap="butt" stroke-opacity="0.0" clip-path="url(#id_0)" d="M592.0 248.0L582.0 248.0L582.0 238.0C582.0 236.89543 582.89545 236.0 584.0 236.0L590.0 236.0C591.10455 236.0 592.0 236.89543 592.0 238.0Z" fill-rule="nonzero"/><path fill="#ea4335" clip-path="url(#id_0)" d="M592.0 248.0L582.0 248.0L582.0 238.0C582.0 236.89543 582.89545 236.0 584.0 236.0L590.0 236.0C591.10455 236.0 592.0 236.89543 592.0 238.0Z" fill-rule="nonzero"/><path stroke="#000000" stroke-width="2.0" stroke-linecap="butt" stroke-opacity="0.0" clip-path="url(#id_0)" d="M648.0 248.0L638.0 248.0L638.0 238.0C638.0 236.89543 638.89545 236.0 640.0 236.0L646.0 236.0C647.10455 236.0 648.0 236.89543 648.0 238.0Z" fill-rule="nonzero"/><path fill="#ea4335" clip-path="url(#id_0)" d="M648.0 248.0L638.0 248.0L638.0 238.0C638.0 236.89543 638.89545 236.0 640.0 236.0L646.0 236.0C647.10455 236.0 648.0 236.89543 648.0 238.0Z" fill-rule="nonzero"/><path stroke="#000000" stroke-width="2.0" stroke-linecap="butt" stroke-opacity="0.0" clip-path="url(#id_0)" d="M704.0 248.0L694.0 248.0L694.0 238.0C694.0 236.89543 694.89545 236.0 696.0 236.0L702.0 236.0C703.10455 236.0 704.0 236.89543 704.0 238.0Z" fill-rule="nonzero"/><path fill="#ea4335" clip-path="url(#id_0)" d="M704.0 248.0L694.0 248.0L694.0 238.0C694.0 236.89543 694.89545 236.0 696.0 236.0L702.0 236.0C703.10455 236.0 704.0 236.89543 704.0 238.0Z" fill-rule="nonzero"/><path stroke="#000000" stroke-width="2.0" stroke-linecap="butt" stroke-opacity="0.0" clip-path="url(#id_0)" d="M759.0 248.0L749.0 248.0L749.0 238.0C749.0 236.89543 749.89545 236.0 751.0 236.0L757.0 236.0C758.10455 236.0 759.0 236.89543 759.0 238.0Z" fill-rule="nonzero"/><path fill="#ea4335" clip-path="url(#id_0)" d="M759.0 248.0L749.0 248.0L749.0 238.0C749.0 236.89543 749.89545 236.0 751.0 236.0L757.0 236.0C758.10455 236.0 759.0 236.89543 759.0 238.0Z" fill-rule="nonzero"/><path stroke="#000000" stroke-width="2.0" stroke-linecap="butt" stroke-opacity="0.0" clip-path="url(#id_0)" d="M815.0 248.0L805.0 248.0L805.0 238.0C805.0 236.89543 805.89545 236.0 807.0 236.0L813.0 236.0C814.10455 236.0 815.0 236.89543 815.0 238.0Z" fill-rule="nonzero"/><path fill="#ea4335" clip-path="url(#id_0)" d="M815.0 248.0L805.0 248.0L805.0 238.0C805.0 236.89543 805.89545 236.0 807.0 236.0L813.0 236.0C814.10455 236.0 815.0 236.89543 815.0 238.0Z" fill-rule="nonzero"/><path stroke="#000000" stroke-width="2.0" stroke-linecap="butt" stroke-opacity="0.0" clip-path="url(#id_0)" d="M871.0 248.0L861.0 248.0L861.0 238.0C861.0 236.89543 861.89545 236.0 863.0 236.0L869.0 236.0C870.10455 236.0 871.0 236.89543 871.0 238.0Z" fill-rule="nonzero"/><path fill="#ea4335" clip-path="url(#id_0)" d="M871.0 248.0L861.0 248.0L861.0 238.0C861.0 236.89543 861.89545 236.0 863.0 236.0L869.0 236.0C870.10455 236.0 871.0 236.89543 871.0 238.0Z" fill-rule="nonzero"/><path stroke="#000000" stroke-width="2.0" stroke-linecap="butt" stroke-opacity="0.0" clip-path="url(#id_0)" d="M927.0 248.0L917.0 248.0L917.0 239.0C917.0 237.89543 917.89545 237.0 919.0 237.0L925.0 237.0C926.10455 237.0 927.0 237.89543 927.0 239.0Z" fill-rule="nonzero"/><path fill="#ea4335" clip-path="url(#id_0)" d="M927.0 248.0L917.0 248.0L917.0 239.0C917.0 237.89543 917.89545 237.0 919.0 237.0L925.0 237.0C926.10455 237.0 927.0 237.89543 927.0 239.0Z" fill-rule="nonzero"/><path stroke="#000000" stroke-width="2.0" stroke-linecap="butt" stroke-opacity="0.0" clip-path="url(#id_0)" d="M983.0 248.0L973.0 248.0L973.0 238.0C973.0 236.89543 973.89545 236.0 975.0 236.0L981.0 236.0C982.10455 236.0 983.0 236.89543 983.0 238.0Z" fill-rule="nonzero"/><path fill="#ea4335" clip-path="url(#id_0)" d="M983.0 248.0L973.0 248.0L973.0 238.0C973.0 236.89543 973.89545 236.0 975.0 236.0L981.0 236.0C982.10455 236.0 983.0 236.89543 983.0 238.0Z" fill-rule="nonzero"/><path stroke="#000000" stroke-width="2.0" stroke-linecap="butt" stroke-opacity="0.0" clip-path="url(#id_0)" d="M157.0 248.0L147.0 248.0L147.0 224.0C147.0 222.89543 147.89543 222.0 149.0 222.0L155.0 222.0C156.10457 222.0 157.0 222.89543 157.0 224.0Z" fill-rule="nonzero"/><path fill="#fbbc04" clip-path="url(#id_0)" d="M157.0 248.0L147.0 248.0L147.0 224.0C147.0 222.89543 147.89543 222.0 149.0 222.0L155.0 222.0C156.10457 222.0 157.0 222.89543 157.0 224.0Z" fill-rule="nonzero"/><path stroke="#000000" stroke-width="2.0" stroke-linecap="butt" stroke-opacity="0.0" clip-path="url(#id_0)" d="M213.0 248.0L203.0 248.0L203.0 201.0C203.0 199.89543 203.89543 199.0 205.0 199.0L211.0 199.0C212.10457 199.0 213.0 199.89543 213.0 201.0Z" fill-rule="nonzero"/><path fill="#fbbc04" clip-path="url(#id_0)" d="M213.0 248.0L203.0 248.0L203.0 201.0C203.0 199.89543 203.89543 199.0 205.0 199.0L211.0 199.0C212.10457 199.0 213.0 199.89543 213.0 201.0Z" fill-rule="nonzero"/><path stroke="#000000" stroke-width="2.0" stroke-linecap="butt" stroke-opacity="0.0" clip-path="url(#id_0)" d="M269.0 248.0L259.0 248.0L259.0 179.0C259.0 177.89543 259.89542 177.0 261.0 177.0L267.0 177.0C268.10458 177.0 269.0 177.89543 269.0 179.0Z" fill-rule="nonzero"/><path fill="#fbbc04" clip-path="url(#id_0)" d="M269.0 248.0L259.0 248.0L259.0 179.0C259.0 177.89543 259.89542 177.0 261.0 177.0L267.0 177.0C268.10458 177.0 269.0 177.89543 269.0 179.0Z" fill-rule="nonzero"/><path stroke="#000000" stroke-width="2.0" stroke-linecap="butt" stroke-opacity="0.0" clip-path="url(#id_0)" d="M325.0 248.0L315.0 248.0L315.0 156.0C315.0 154.89543 315.89542 154.0 317.0 154.0L323.0 154.0C324.10458 154.0 325.0 154.89543 325.0 156.0Z" fill-rule="nonzero"/><path fill="#fbbc04" clip-path="url(#id_0)" d="M325.0 248.0L315.0 248.0L315.0 156.0C315.0 154.89543 315.89542 154.0 317.0 154.0L323.0 154.0C324.10458 154.0 325.0 154.89543 325.0 156.0Z" fill-rule="nonzero"/><path stroke="#000000" stroke-width="2.0" stroke-linecap="butt" stroke-opacity="0.0" clip-path="url(#id_0)" d="M381.0 248.0L371.0 248.0L371.0 137.0C371.0 135.89543 371.89542 135.0 373.0 135.0L379.0 135.0C380.10458 135.0 381.0 135.89543 381.0 137.0Z" fill-rule="nonzero"/><path fill="#fbbc04" clip-path="url(#id_0)" d="M381.0 248.0L371.0 248.0L371.0 137.0C371.0 135.89543 371.89542 135.0 373.0 135.0L379.0 135.0C380.10458 135.0 381.0 135.89543 381.0 137.0Z" fill-rule="nonzero"/><path stroke="#000000" stroke-width="2.0" stroke-linecap="butt" stroke-opacity="0.0" clip-path="url(#id_0)" d="M436.0 248.0L426.0 248.0L426.0 120.0C426.0 118.89543 426.89542 118.0 428.0 118.0L434.0 118.0C435.10458 118.0 436.0 118.89543 436.0 120.0Z" fill-rule="nonzero"/><path fill="#fbbc04" clip-path="url(#id_0)" d="M436.0 248.0L426.0 248.0L426.0 120.0C426.0 118.89543 426.89542 118.0 428.0 118.0L434.0 118.0C435.10458 118.0 436.0 118.89543 436.0 120.0Z" fill-rule="nonzero"/><path stroke="#000000" stroke-width="2.0" stroke-linecap="butt" stroke-opacity="0.0" clip-path="url(#id_0)" d="M492.0 248.0L482.0 248.0L482.0 102.0C482.0 100.89543 482.89542 100.0 484.0 100.0L490.0 100.0C491.10458 100.0 492.0 100.89543 492.0 102.0Z" fill-rule="nonzero"/><path fill="#fbbc04" clip-path="url(#id_0)" d="M492.0 248.0L482.0 248.0L482.0 102.0C482.0 100.89543 482.89542 100.0 484.0 100.0L490.0 100.0C491.10458 100.0 492.0 100.89543 492.0 102.0Z" fill-rule="nonzero"/><path stroke="#000000" stroke-width="2.0" stroke-linecap="butt" stroke-opacity="0.0" clip-path="url(#id_0)" d="M548.0 248.0L538.0 248.0L538.0 90.0C538.0 88.89543 538.89545 88.0 540.0 88.0L546.0 88.0C547.10455 88.0 548.0 88.89543 548.0 90.0Z" fill-rule="nonzero"/><path fill="#fbbc04" clip-path="url(#id_0)" d="M548.0 248.0L538.0 248.0L538.0 90.0C538.0 88.89543 538.89545 88.0 540.0 88.0L546.0 88.0C547.10455 88.0 548.0 88.89543 548.0 90.0Z" fill-rule="nonzero"/><path stroke="#000000" stroke-width="2.0" stroke-linecap="butt" stroke-opacity="0.0" clip-path="url(#id_0)" d="M604.0 248.0L594.0 248.0L594.0 87.0C594.0 85.89543 594.89545 85.0 596.0 85.0L602.0 85.0C603.10455 85.0 604.0 85.89543 604.0 87.0Z" fill-rule="nonzero"/><path fill="#fbbc04" clip-path="url(#id_0)" d="M604.0 248.0L594.0 248.0L594.0 87.0C594.0 85.89543 594.89545 85.0 596.0 85.0L602.0 85.0C603.10455 85.0 604.0 85.89543 604.0 87.0Z" fill-rule="nonzero"/><path stroke="#000000" stroke-width="2.0" stroke-linecap="butt" stroke-opacity="0.0" clip-path="url(#id_0)" d="M660.0 248.0L650.0 248.0L650.0 81.0C650.0 79.89543 650.89545 79.0 652.0 79.0L658.0 79.0C659.10455 79.0 660.0 79.89543 660.0 81.0Z" fill-rule="nonzero"/><path fill="#fbbc04" clip-path="url(#id_0)" d="M660.0 248.0L650.0 248.0L650.0 81.0C650.0 79.89543 650.89545 79.0 652.0 79.0L658.0 79.0C659.10455 79.0 660.0 79.89543 660.0 81.0Z" fill-rule="nonzero"/><path stroke="#000000" stroke-width="2.0" stroke-linecap="butt" stroke-opacity="0.0" clip-path="url(#id_0)" d="M716.0 248.0L706.0 248.0L706.0 80.0C706.0 78.89543 706.89545 78.0 708.0 78.0L714.0 78.0C715.10455 78.0 716.0 78.89543 716.0 80.0Z" fill-rule="nonzero"/><path fill="#fbbc04" clip-path="url(#id_0)" d="M716.0 248.0L706.0 248.0L706.0 80.0C706.0 78.89543 706.89545 78.0 708.0 78.0L714.0 78.0C715.10455 78.0 716.0 78.89543 716.0 80.0Z" fill-rule="nonzero"/><path stroke="#000000" stroke-width="2.0" stroke-linecap="butt" stroke-opacity="0.0" clip-path="url(#id_0)" d="M771.0 248.0L761.0 248.0L761.0 75.0C761.0 73.89543 761.89545 73.0 763.0 73.0L769.0 73.0C770.10455 73.0 771.0 73.89543 771.0 75.0Z" fill-rule="nonzero"/><path fill="#fbbc04" clip-path="url(#id_0)" d="M771.0 248.0L761.0 248.0L761.0 75.0C761.0 73.89543 761.89545 73.0 763.0 73.0L769.0 73.0C770.10455 73.0 771.0 73.89543 771.0 75.0Z" fill-rule="nonzero"/><path stroke="#000000" stroke-width="2.0" stroke-linecap="butt" stroke-opacity="0.0" clip-path="url(#id_0)" d="M827.0 248.0L817.0 248.0L817.0 70.0C817.0 68.89543 817.89545 68.0 819.0 68.0L825.0 68.0C826.10455 68.0 827.0 68.89543 827.0 70.0Z" fill-rule="nonzero"/><path fill="#fbbc04" clip-path="url(#id_0)" d="M827.0 248.0L817.0 248.0L817.0 70.0C817.0 68.89543 817.89545 68.0 819.0 68.0L825.0 68.0C826.10455 68.0 827.0 68.89543 827.0 70.0Z" fill-rule="nonzero"/><path stroke="#000000" stroke-width="2.0" stroke-linecap="butt" stroke-opacity="0.0" clip-path="url(#id_0)" d="M883.0 248.0L873.0 248.0L873.0 66.0C873.0 64.89543 873.89545 64.0 875.0 64.0L881.0 64.0C882.10455 64.0 883.0 64.89543 883.0 66.0Z" fill-rule="nonzero"/><path fill="#fbbc04" clip-path="url(#id_0)" d="M883.0 248.0L873.0 248.0L873.0 66.0C873.0 64.89543 873.89545 64.0 875.0 64.0L881.0 64.0C882.10455 64.0 883.0 64.89543 883.0 66.0Z" fill-rule="nonzero"/><path stroke="#000000" stroke-width="2.0" stroke-linecap="butt" stroke-opacity="0.0" clip-path="url(#id_0)" d="M939.0 248.0L929.0 248.0L929.0 65.0C929.0 63.89543 929.89545 63.0 931.0 63.0L937.0 63.0C938.10455 63.0 939.0 63.89543 939.0 65.0Z" fill-rule="nonzero"/><path fill="#fbbc04" clip-path="url(#id_0)" d="M939.0 248.0L929.0 248.0L929.0 65.0C929.0 63.89543 929.89545 63.0 931.0 63.0L937.0 63.0C938.10455 63.0 939.0 63.89543 939.0 65.0Z" fill-rule="nonzero"/><path stroke="#000000" stroke-width="2.0" stroke-linecap="butt" stroke-opacity="0.0" clip-path="url(#id_0)" d="M995.0 248.0L985.0 248.0L985.0 56.0C985.0 54.89543 985.89545 54.0 987.0 54.0L993.0 54.0C994.10455 54.0 995.0 54.89543 995.0 56.0Z" fill-rule="nonzero"/><path fill="#fbbc04" clip-path="url(#id_0)" d="M995.0 248.0L985.0 248.0L985.0 56.0C985.0 54.89543 985.89545 54.0 987.0 54.0L993.0 54.0C994.10455 54.0 995.0 54.89543 995.0 56.0Z" fill-rule="nonzero"/><path fill="#000000" d="M539.1094 297.2L539.1094 289.6219L536.28125 289.6219L536.28125 288.60626L543.09375 288.60626L543.09375 289.6219L540.25 289.6219L540.25 297.2L539.1094 297.2ZM543.7969 297.2L543.7969 288.60626L544.84375 288.60626L544.84375 291.6844Q545.5781 290.84064 546.7031 290.84064Q547.40625 290.84064 547.90625 291.1219Q548.4219 291.3875 548.6406 291.8719Q548.8594 292.34064 548.8594 293.2625L548.8594 297.2L547.8125 297.2L547.8125 293.2625Q547.8125 292.46564 547.46875 292.10626Q547.125 291.7469 546.5 291.7469Q546.03125 291.7469 545.6094 291.9969Q545.2031 292.23126 545.0156 292.65314Q544.84375 293.0594 544.84375 293.79376L544.84375 297.2L543.7969 297.2ZM550.78125 297.2L550.78125 290.98126L551.7344 290.98126L551.7344 291.91876Q552.09375 291.2625 552.3906 291.0594Q552.7031 290.84064 553.0781 290.84064Q553.6094 290.84064 554.15625 291.16876L553.7969 292.15314Q553.40625 291.91876 553.03125 291.91876Q552.6719 291.91876 552.3906 292.1375Q552.125 292.34064 552.0156 292.71564Q551.8281 293.27814 551.8281 293.9344L551.8281 297.2L550.78125 297.2ZM559.0469 295.2L560.1406 295.325Q559.8906 296.27814 559.1875 296.8094Q558.4844 297.34064 557.40625 297.34064Q556.0469 297.34064 555.2344 296.4969Q554.4375 295.65314 554.4375 294.1375Q554.4375 292.575 555.25 291.71564Q556.0625 290.84064 557.34375 290.84064Q558.59375 290.84064 559.375 291.6844Q560.1719 292.52814 560.1719 294.075Q560.1719 294.16876 560.1719 294.35626L555.53125 294.35626Q555.59375 295.3875 556.1094 295.9344Q556.625 296.46564 557.40625 296.46564Q557.9844 296.46564 558.3906 296.16876Q558.8125 295.85626 559.0469 295.2ZM555.59375 293.4969L559.0625 293.4969Q559.0 292.7 558.6719 292.3094Q558.15625 291.7 557.3594 291.7Q556.625 291.7 556.125 292.1844Q555.6406 292.66876 555.59375 293.4969ZM565.8594 296.4344Q565.2656 296.9344 564.71875 297.1375Q564.1875 297.34064 563.5625 297.34064Q562.53125 297.34064 561.9844 296.84064Q561.4375 296.34064 561.4375 295.5594Q561.4375 295.10626 561.6406 294.73126Q561.84375 294.34064 562.1875 294.1219Q562.53125 293.8875 562.9531 293.77814Q563.25 293.6844 563.8906 293.60626Q565.15625 293.46564 565.7656 293.2469Q565.7656 293.02814 565.7656 292.98126Q565.7656 292.325 565.46875 292.0594Q565.0625 291.71564 564.2656 291.71564Q563.53125 291.71564 563.1719 291.98126Q562.8125 292.23126 562.6406 292.8875L561.6094 292.7469Q561.75 292.09064 562.0781 291.6844Q562.40625 291.27814 563.0156 291.0594Q563.625 290.84064 564.4219 290.84064Q565.21875 290.84064 565.71875 291.02814Q566.21875 291.21564 566.4531 291.4969Q566.6875 291.77814 566.78125 292.21564Q566.8281 292.48126 566.8281 293.1844L566.8281 294.59064Q566.8281 296.0594 566.8906 296.45Q566.96875 296.84064 567.1719 297.2L566.0625 297.2Q565.90625 296.8719 565.8594 296.4344ZM565.7656 294.075Q565.1875 294.3094 564.0469 294.48126Q563.3906 294.575 563.125 294.7Q562.8594 294.8094 562.7031 295.02814Q562.5625 295.2469 562.5625 295.52814Q562.5625 295.95 562.875 296.23126Q563.2031 296.5125 563.8125 296.5125Q564.4219 296.5125 564.8906 296.2469Q565.375 295.98126 565.59375 295.5125Q565.7656 295.15314 565.7656 294.46564L565.7656 294.075ZM572.8281 297.2L572.8281 296.41876Q572.2344 297.34064 571.09375 297.34064Q570.34375 297.34064 569.71875 296.9344Q569.09375 296.5125 568.75 295.77814Q568.40625 295.04376 568.40625 294.09064Q568.40625 293.16876 568.71875 292.40314Q569.03125 291.6375 569.65625 291.2469Q570.28125 290.84064 571.0469 290.84064Q571.6094 290.84064 572.0469 291.075Q572.4844 291.3094 572.7656 291.6844L572.7656 288.60626L573.8125 288.60626L573.8125 297.2L572.8281 297.2ZM569.5 294.09064Q569.5 295.29376 570.0 295.8875Q570.5 296.46564 571.1875 296.46564Q571.875 296.46564 572.3594 295.90314Q572.84375 295.34064 572.84375 294.1844Q572.84375 292.90314 572.34375 292.3094Q571.8594 291.71564 571.1406 291.71564Q570.4375 291.71564 569.96875 292.29376Q569.5 292.85626 569.5 294.09064ZM575.375 295.34064L576.40625 295.1844Q576.5 295.8094 576.8906 296.1375Q577.2969 296.46564 578.03125 296.46564Q578.75 296.46564 579.09375 296.1844Q579.4531 295.8875 579.4531 295.48126Q579.4531 295.1219 579.1406 294.91876Q578.9219 294.77814 578.0625 294.5594Q576.90625 294.2625 576.4531 294.0594Q576.0156 293.84064 575.78125 293.46564Q575.5469 293.09064 575.5469 292.6219Q575.5469 292.21564 575.7344 291.85626Q575.9219 291.4969 576.25 291.2625Q576.5 291.09064 576.9219 290.96564Q577.34375 290.84064 577.84375 290.84064Q578.5625 290.84064 579.1094 291.0594Q579.6719 291.2625 579.9375 291.6219Q580.2031 291.98126 580.2969 292.575L579.2656 292.71564Q579.2031 292.2469 578.8594 291.98126Q578.53125 291.7 577.90625 291.7Q577.1875 291.7 576.875 291.95Q576.5625 292.1844 576.5625 292.5125Q576.5625 292.71564 576.6875 292.8719Q576.8281 293.04376 577.09375 293.15314Q577.25 293.21564 578.03125 293.41876Q579.15625 293.73126 579.59375 293.91876Q580.03125 294.10626 580.28125 294.46564Q580.53125 294.825 580.53125 295.3719Q580.53125 295.90314 580.21875 296.3719Q579.9219 296.825 579.34375 297.09064Q578.7656 297.34064 578.03125 297.34064Q576.8125 297.34064 576.1719 296.84064Q575.5469 296.325 575.375 295.34064Z" fill-rule="nonzero"/><path fill="#000000" d="M26.800013 212.65729L19.221888 212.65729L19.221888 215.48541L18.206263 215.48541L18.206263 208.67291L19.221888 208.67291L19.221888 211.51666L26.800013 211.51666L26.800013 212.65729ZM26.800013 207.98541L20.581263 207.98541L20.581263 207.03229L21.518763 207.03229Q20.862513 206.67291 20.659388 206.37604Q20.440638 206.06354 20.440638 205.68854Q20.440638 205.15729 20.768763 204.61041L21.753138 204.96979Q21.518763 205.36041 21.518763 205.73541Q21.518763 206.09479 21.737513 206.37604Q21.940638 206.64166 22.315638 206.75104Q22.878138 206.93854 23.534388 206.93854L26.800013 206.93854L26.800013 207.98541ZM26.034388 199.90729Q26.534388 200.50104 26.737513 201.04791Q26.940638 201.57916 26.940638 202.20416Q26.940638 203.23541 26.440638 203.78229Q25.940638 204.32916 25.159388 204.32916Q24.706263 204.32916 24.331263 204.12604Q23.940638 203.92291 23.721888 203.57916Q23.487513 203.23541 23.378138 202.81354Q23.284388 202.51666 23.206263 201.87604Q23.065638 200.61041 22.846888 200.00104Q22.628138 200.00104 22.581263 200.00104Q21.925013 200.00104 21.659388 200.29791Q21.315638 200.70416 21.315638 201.50104Q21.315638 202.23541 21.581263 202.59479Q21.831263 202.95416 22.487513 203.12604L22.346888 204.15729Q21.690638 204.01666 21.284388 203.68854Q20.878138 203.36041 20.659388 202.75104Q20.440638 202.14166 20.440638 201.34479Q20.440638 200.54791 20.628138 200.04791Q20.815638 199.54791 21.096888 199.31354Q21.378138 199.07916 21.815638 198.98541Q22.081263 198.93854 22.784388 198.93854L24.190638 198.93854Q25.659388 198.93854 26.050013 198.87604Q26.440638 198.79791 26.800013 198.59479L26.800013 199.70416Q26.471888 199.86041 26.034388 199.90729ZM23.675013 200.00104Q23.909388 200.57916 24.081263 201.71979Q24.175013 202.37604 24.300013 202.64166Q24.409388 202.90729 24.628138 203.06354Q24.846888 203.20416 25.128138 203.20416Q25.550013 203.20416 25.831263 202.89166Q26.112513 202.56354 26.112513 201.95416Q26.112513 201.34479 25.846888 200.87604Q25.581263 200.39166 25.112513 200.17291Q24.753138 200.00104 24.065638 200.00104L23.675013 200.00104ZM26.800013 196.96979L20.581263 196.96979L20.581263 196.03229L21.456263 196.03229Q20.440638 195.34479 20.440638 194.04791Q20.440638 193.48541 20.643763 193.01666Q20.846888 192.53229 21.175013 192.29791Q21.503138 192.06354 21.940638 191.96979Q22.237513 191.92291 22.971888 191.92291L26.800013 191.92291L26.800013 192.96979L23.018763 192.96979Q22.362513 192.96979 22.050013 193.09479Q21.737513 193.21979 21.550013 193.53229Q21.346888 193.84479 21.346888 194.26666Q21.346888 194.93854 21.784388 195.43854Q22.206263 195.92291 23.393763 195.92291L26.800013 195.92291L26.800013 196.96979ZM24.940638 190.39166L24.784388 189.36041Q25.409388 189.26666 25.737513 188.87604Q26.065638 188.46979 26.065638 187.73541Q26.065638 187.01666 25.784388 186.67291Q25.487513 186.31354 25.081263 186.31354Q24.721888 186.31354 24.518763 186.62604Q24.378138 186.84479 24.159388 187.70416Q23.862513 188.86041 23.659388 189.31354Q23.440638 189.75104 23.065638 189.98541Q22.690638 190.21979 22.221888 190.21979Q21.815638 190.21979 21.456263 190.03229Q21.096888 189.84479 20.862513 189.51666Q20.690638 189.26666 20.565638 188.84479Q20.440638 188.42291 20.440638 187.92291Q20.440638 187.20416 20.659388 186.65729Q20.862513 186.09479 21.221888 185.82916Q21.581263 185.56354 22.175013 185.46979L22.315638 186.50104Q21.846888 186.56354 21.581263 186.90729Q21.300013 187.23541 21.300013 187.86041Q21.300013 188.57916 21.550013 188.89166Q21.784388 189.20416 22.112513 189.20416Q22.315638 189.20416 22.471888 189.07916Q22.643763 188.93854 22.753138 188.67291Q22.815638 188.51666 23.018763 187.73541Q23.331263 186.61041 23.518763 186.17291Q23.706263 185.73541 24.065638 185.48541Q24.425013 185.23541 24.971888 185.23541Q25.503138 185.23541 25.971888 185.54791Q26.425013 185.84479 26.690638 186.42291Q26.940638 187.00104 26.940638 187.73541Q26.940638 188.95416 26.440638 189.59479Q25.925013 190.21979 24.940638 190.39166ZM26.034388 178.90729Q26.534388 179.50104 26.737513 180.04791Q26.940638 180.57916 26.940638 181.20416Q26.940638 182.23541 26.440638 182.78229Q25.940638 183.32916 25.159388 183.32916Q24.706263 183.32916 24.331263 183.12604Q23.940638 182.92291 23.721888 182.57916Q23.487513 182.23541 23.378138 181.81354Q23.284388 181.51666 23.206263 180.87604Q23.065638 179.61041 22.846888 179.00104Q22.628138 179.00104 22.581263 179.00104Q21.925013 179.00104 21.659388 179.29791Q21.315638 179.70416 21.315638 180.50104Q21.315638 181.23541 21.581263 181.59479Q21.831263 181.95416 22.487513 182.12604L22.346888 183.15729Q21.690638 183.01666 21.284388 182.68854Q20.878138 182.36041 20.659388 181.75104Q20.440638 181.14166 20.440638 180.34479Q20.440638 179.54791 20.628138 179.04791Q20.815638 178.54791 21.096888 178.31354Q21.378138 178.07916 21.815638 177.98541Q22.081263 177.93854 22.784388 177.93854L24.190638 177.93854Q25.659388 177.93854 26.050013 177.87604Q26.440638 177.79791 26.800013 177.59479L26.800013 178.70416Q26.471888 178.86041 26.034388 178.90729ZM23.675013 179.00104Q23.909388 179.57916 24.081263 180.71979Q24.175013 181.37604 24.300013 181.64166Q24.409388 181.90729 24.628138 182.06354Q24.846888 182.20416 25.128138 182.20416Q25.550013 182.20416 25.831263 181.89166Q26.112513 181.56354 26.112513 180.95416Q26.112513 180.34479 25.846888 179.87604Q25.581263 179.39166 25.112513 179.17291Q24.753138 179.00104 24.065638 179.00104L23.675013 179.00104ZM24.518763 171.90729L24.659388 170.87604Q25.721888 171.04791 26.331263 171.75104Q26.940638 172.45416 26.940638 173.46979Q26.940638 174.75104 26.112513 175.53229Q25.268763 176.29791 23.706263 176.29791Q22.706263 176.29791 21.956263 175.96979Q21.190638 175.62604 20.815638 174.95416Q20.440638 174.26666 20.440638 173.45416Q20.440638 172.45416 20.956263 171.81354Q21.456263 171.15729 22.409388 170.96979L22.565638 172.00104Q21.940638 172.14166 21.628138 172.51666Q21.300013 172.89166 21.300013 173.42291Q21.300013 174.21979 21.878138 174.71979Q22.440638 175.21979 23.675013 175.21979Q24.940638 175.21979 25.503138 174.73541Q26.065638 174.25104 26.065638 173.48541Q26.065638 172.86041 25.690638 172.45416Q25.315638 172.03229 24.518763 171.90729ZM25.862513 167.67291L26.784388 167.51666Q26.878138 167.96979 26.878138 168.31354Q26.878138 168.89166 26.706263 169.20416Q26.518763 169.51666 26.221888 169.65729Q25.925013 169.78229 24.971888 169.78229L21.393763 169.78229L21.393763 170.54791L20.581263 170.54791L20.581263 169.78229L19.034388 169.78229L18.409388 168.73541L20.581263 168.73541L20.581263 167.67291L21.393763 167.67291L21.393763 168.73541L25.034388 168.73541Q25.487513 168.73541 25.612513 168.68854Q25.737513 168.62604 25.815638 168.50104Q25.893763 168.37604 25.893763 168.14166Q25.893763 167.95416 25.862513 167.67291ZM19.425013 166.96979L18.206263 166.96979L18.206263 165.90729L19.425013 165.90729L19.425013 166.96979ZM26.800013 166.96979L20.581263 166.96979L20.581263 165.90729L26.800013 165.90729L26.800013 166.96979ZM23.690638 164.36041Q21.956263 164.36041 21.128138 163.40729Q20.440638 162.61041 20.440638 161.45416Q20.440638 160.17291 21.284388 159.36041Q22.112513 158.53229 23.596888 158.53229Q24.800013 158.53229 25.487513 158.89166Q26.175013 159.25104 26.565638 159.95416Q26.940638 160.64166 26.940638 161.45416Q26.940638 162.75104 26.112513 163.56354Q25.268763 164.36041 23.690638 164.36041ZM23.690638 163.28229Q24.878138 163.28229 25.471888 162.76666Q26.065638 162.23541 26.065638 161.45416Q26.065638 160.65729 25.471888 160.14166Q24.878138 159.62604 23.659388 159.62604Q22.503138 159.62604 21.909388 160.15729Q21.315638 160.67291 21.315638 161.45416Q21.315638 162.23541 21.909388 162.76666Q22.487513 163.28229 23.690638 163.28229ZM26.800013 156.96979L20.581263 156.96979L20.581263 156.03229L21.456263 156.03229Q20.440638 155.34479 20.440638 154.04791Q20.440638 153.48541 20.643763 153.01666Q20.846888 152.53229 21.175013 152.29791Q21.503138 152.06354 21.940638 151.96979Q22.237513 151.92291 22.971888 151.92291L26.800013 151.92291L26.800013 152.96979L23.018763 152.96979Q22.362513 152.96979 22.050013 153.09479Q21.737513 153.21979 21.550013 153.53229Q21.346888 153.84479 21.346888 154.26666Q21.346888 154.93854 21.784388 155.43854Q22.206263 155.92291 23.393763 155.92291L26.800013 155.92291L26.800013 156.96979ZM24.940638 150.39166L24.784388 149.36041Q25.409388 149.26666 25.737513 148.87604Q26.065638 148.46979 26.065638 147.73541Q26.065638 147.01666 25.784388 146.67291Q25.487513 146.31354 25.081263 146.31354Q24.721888 146.31354 24.518763 146.62604Q24.378138 146.84479 24.159388 147.70416Q23.862513 148.86041 23.659388 149.31354Q23.440638 149.75104 23.065638 149.98541Q22.690638 150.21979 22.221888 150.21979Q21.815638 150.21979 21.456263 150.03229Q21.096888 149.84479 20.862513 149.51666Q20.690638 149.26666 20.565638 148.84479Q20.440638 148.42291 20.440638 147.92291Q20.440638 147.20416 20.659388 146.65729Q20.862513 146.09479 21.221888 145.82916Q21.581263 145.56354 22.175013 145.46979L22.315638 146.50104Q21.846888 146.56354 21.581263 146.90729Q21.300013 147.23541 21.300013 147.86041Q21.300013 148.57916 21.550013 148.89166Q21.784388 149.20416 22.112513 149.20416Q22.315638 149.20416 22.471888 149.07916Q22.643763 148.93854 22.753138 148.67291Q22.815638 148.51666 23.018763 147.73541Q23.331263 146.61041 23.518763 146.17291Q23.706263 145.73541 24.065638 145.48541Q24.425013 145.23541 24.971888 145.23541Q25.503138 145.23541 25.971888 145.54791Q26.425013 145.84479 26.690638 146.42291Q26.940638 147.00104 26.940638 147.73541Q26.940638 148.95416 26.440638 149.59479Q25.925013 150.21979 24.940638 150.39166ZM26.940638 140.76666L18.065638 138.28229L18.065638 137.43854L26.940638 139.92291L26.940638 140.76666ZM24.034388 134.21979L23.940638 133.15729Q24.596888 133.07916 25.003138 132.79791Q25.409388 132.51666 25.675013 131.93854Q25.925013 131.34479 25.925013 130.61041Q25.925013 129.96979 25.737513 129.46979Q25.534388 128.96979 25.206263 128.73541Q24.862513 128.48541 24.471888 128.48541Q24.065638 128.48541 23.768763 128.71979Q23.456263 128.95416 23.253138 129.48541Q23.112513 129.84479 22.831263 131.03229Q22.550013 132.20416 22.300013 132.67291Q21.971888 133.29791 21.503138 133.59479Q21.018763 133.89166 20.425013 133.89166Q19.784388 133.89166 19.221888 133.53229Q18.643763 133.15729 18.362513 132.45416Q18.065638 131.73541 18.065638 130.87604Q18.065638 129.92291 18.378138 129.18854Q18.675013 128.45416 19.284388 128.06354Q19.878138 127.67291 20.628138 127.64166L20.706263 128.73541Q19.893763 128.82916 19.487513 129.34479Q19.065638 129.84479 19.065638 130.82916Q19.065638 131.86041 19.440638 132.32916Q19.815638 132.79791 20.346888 132.79791Q20.815638 132.79791 21.112513 132.46979Q21.409388 132.14166 21.721888 130.76666Q22.034388 129.37604 22.268763 128.86041Q22.628138 128.11041 23.159388 127.75104Q23.675013 127.39166 24.378138 127.39166Q25.065638 127.39166 25.675013 127.78229Q26.268763 128.17291 26.612513 128.90729Q26.940638 129.64166 26.940638 130.56354Q26.940638 131.73541 26.612513 132.53229Q26.268763 133.31354 25.581263 133.76666Q24.893763 134.20416 24.034388 134.21979ZM24.800013 121.71979L24.925013 120.62604Q25.878138 120.87604 26.409388 121.57916Q26.940638 122.28229 26.940638 123.36041Q26.940638 124.71979 26.096888 125.53229Q25.253138 126.32916 23.737513 126.32916Q22.175013 126.32916 21.315638 125.51666Q20.440638 124.70416 20.440638 123.42291Q20.440638 122.17291 21.284388 121.39166Q22.128138 120.59479 23.675013 120.59479Q23.768763 120.59479 23.956263 120.59479L23.956263 125.23541Q24.987513 125.17291 25.534388 124.65729Q26.065638 124.14166 26.065638 123.36041Q26.065638 122.78229 25.768763 122.37604Q25.456263 121.95416 24.800013 121.71979ZM23.096888 125.17291L23.096888 121.70416Q22.300013 121.76666 21.909388 122.09479Q21.300013 122.61041 21.300013 123.40729Q21.300013 124.14166 21.784388 124.64166Q22.268763 125.12604 23.096888 125.17291ZM24.518763 114.90729L24.659388 113.87604Q25.721888 114.04791 26.331263 114.75104Q26.940638 115.45416 26.940638 116.46979Q26.940638 117.75104 26.112513 118.53229Q25.268763 119.29791 23.706263 119.29791Q22.706263 119.29791 21.956263 118.96979Q21.190638 118.62604 20.815638 117.95416Q20.440638 117.26666 20.440638 116.45416Q20.440638 115.45416 20.956263 114.81354Q21.456263 114.15729 22.409388 113.96979L22.565638 115.00104Q21.940638 115.14166 21.628138 115.51666Q21.300013 115.89166 21.300013 116.42291Q21.300013 117.21979 21.878138 117.71979Q22.440638 118.21979 23.675013 118.21979Q24.940638 118.21979 25.503138 117.73541Q26.065638 117.25104 26.065638 116.48541Q26.065638 115.86041 25.690638 115.45416Q25.315638 115.03229 24.518763 114.90729ZM23.690638 113.36041Q21.956263 113.36041 21.128138 112.40729Q20.440638 111.61041 20.440638 110.45416Q20.440638 109.17291 21.284388 108.36041Q22.112513 107.53229 23.596888 107.53229Q24.800013 107.53229 25.487513 107.89166Q26.175013 108.25104 26.565638 108.95416Q26.940638 109.64166 26.940638 110.45416Q26.940638 111.75104 26.112513 112.56354Q25.268763 113.36041 23.690638 113.36041ZM23.690638 112.28229Q24.878138 112.28229 25.471888 111.76666Q26.065638 111.23541 26.065638 110.45416Q26.065638 109.65729 25.471888 109.14166Q24.878138 108.62604 23.659388 108.62604Q22.503138 108.62604 21.909388 109.15729Q21.315638 109.67291 21.315638 110.45416Q21.315638 111.23541 21.909388 111.76666Q22.487513 112.28229 23.690638 112.28229ZM26.800013 105.96979L20.581263 105.96979L20.581263 105.03229L21.456263 105.03229Q20.440638 104.34479 20.440638 103.04791Q20.440638 102.48541 20.643763 102.01666Q20.846888 101.53229 21.175013 101.29791Q21.503138 101.06354 21.940638 100.96979Q22.237513 100.92291 22.971888 100.92291L26.800013 100.92291L26.800013 101.96979L23.018763 101.96979Q22.362513 101.96979 22.050013 102.09479Q21.737513 102.21979 21.550013 102.53229Q21.346888 102.84479 21.346888 103.26666Q21.346888 103.93854 21.784388 104.43854Q22.206263 104.92291 23.393763 104.92291L26.800013 104.92291L26.800013 105.96979ZM26.800013 94.93854L26.018763 94.93854Q26.940638 95.53229 26.940638 96.67291Q26.940638 97.42291 26.534388 98.04791Q26.112513 98.67291 25.378138 99.01666Q24.643763 99.36041 23.690638 99.36041Q22.768763 99.36041 22.003138 99.04791Q21.237513 98.73541 20.846888 98.11041Q20.440638 97.48541 20.440638 96.71979Q20.440638 96.15729 20.675013 95.71979Q20.909388 95.28229 21.284388 95.00104L18.206263 95.00104L18.206263 93.95416L26.800013 93.95416L26.800013 94.93854ZM23.690638 98.26666Q24.893763 98.26666 25.487513 97.76666Q26.065638 97.26666 26.065638 96.57916Q26.065638 95.89166 25.503138 95.40729Q24.940638 94.92291 23.784388 94.92291Q22.503138 94.92291 21.909388 95.42291Q21.315638 95.90729 21.315638 96.62604Q21.315638 97.32916 21.893763 97.79791Q22.456263 98.26666 23.690638 98.26666Z" fill-rule="nonzero"/><path fill="#000000" d="M90.3 247.96562Q90.3 246.43437 90.6125 245.5125Q90.925 244.575 91.53438 244.075Q92.15938 243.575 93.09688 243.575Q93.78438 243.575 94.3 243.85625Q94.83125 244.1375 95.175 244.66875Q95.51875 245.18437 95.70625 245.93437Q95.89375 246.68437 95.89375 247.96562Q95.89375 249.48125 95.58125 250.40312Q95.28438 251.325 94.65938 251.84062Q94.05 252.34062 93.09688 252.34062Q91.8625 252.34062 91.14375 251.45Q90.3 250.3875 90.3 247.96562ZM91.37813 247.96562Q91.37813 250.075 91.87813 250.77812Q92.37813 251.48125 93.09688 251.48125Q93.83125 251.48125 94.31563 250.77812Q94.81563 250.075 94.81563 247.96562Q94.81563 245.84062 94.31563 245.15312Q93.83125 244.45 93.08125 244.45Q92.3625 244.45 91.925 245.05937Q91.37813 245.84062 91.37813 247.96562Z" fill-rule="nonzero"/><path fill="#000000" d="M55.3 182.99445L56.409374 182.9007Q56.534374 183.7132 56.971874 184.11945Q57.425 184.5257 58.065624 184.5257Q58.815624 184.5257 59.346874 183.94757Q59.878124 183.36945 59.878124 182.43195Q59.878124 181.5257 59.3625 181.01007Q58.8625 180.47882 58.034374 180.47882Q57.534374 180.47882 57.1125 180.7132Q56.70625 180.94757 56.471874 181.30695L55.4875 181.18195L56.315624 176.7757L60.596874 176.7757L60.596874 177.7757L57.159374 177.7757L56.70625 180.0882Q57.471874 179.54132 58.315624 179.54132Q59.440624 179.54132 60.20625 180.32257Q60.9875 181.10382 60.9875 182.3382Q60.9875 183.49445 60.315624 184.35382Q59.4875 185.38507 58.065624 185.38507Q56.89375 185.38507 56.14375 184.72882Q55.409374 184.07257 55.3 182.99445ZM62.3 181.01007Q62.3 179.47882 62.6125 178.55695Q62.925 177.61945 63.534374 177.11945Q64.15938 176.61945 65.09688 176.61945Q65.78438 176.61945 66.3 176.9007Q66.83125 177.18195 67.175 177.7132Q67.51875 178.22882 67.70625 178.97882Q67.89375 179.72882 67.89375 181.01007Q67.89375 182.5257 67.58125 183.44757Q67.28438 184.36945 66.65938 184.88507Q66.05 185.38507 65.09688 185.38507Q63.8625 185.38507 63.14375 184.49445Q62.3 183.43195 62.3 181.01007ZM63.378124 181.01007Q63.378124 183.11945 63.878124 183.82257Q64.37813 184.5257 65.09688 184.5257Q65.83125 184.5257 66.31563 183.82257Q66.81563 183.11945 66.81563 181.01007Q66.81563 178.88507 66.31563 178.19757Q65.83125 177.49445 65.08125 177.49445Q64.3625 177.49445 63.925 178.10382Q63.378124 178.88507 63.378124 181.01007ZM69.3 181.01007Q69.3 179.47882 69.6125 178.55695Q69.925 177.61945 70.53438 177.11945Q71.15938 176.61945 72.09688 176.61945Q72.78438 176.61945 73.3 176.9007Q73.83125 177.18195 74.175 177.7132Q74.51875 178.22882 74.70625 178.97882Q74.89375 179.72882 74.89375 181.01007Q74.89375 182.5257 74.58125 183.44757Q74.28438 184.36945 73.65938 184.88507Q73.05 185.38507 72.09688 185.38507Q70.8625 185.38507 70.14375 184.49445Q69.3 183.43195 69.3 181.01007ZM70.37813 181.01007Q70.37813 183.11945 70.87813 183.82257Q71.37813 184.5257 72.09688 184.5257Q72.83125 184.5257 73.31563 183.82257Q73.81563 183.11945 73.81563 181.01007Q73.81563 178.88507 73.31563 178.19757Q72.83125 177.49445 72.08125 177.49445Q71.3625 177.49445 70.925 178.10382Q70.37813 178.88507 70.37813 181.01007ZM76.3 181.01007Q76.3 179.47882 76.6125 178.55695Q76.925 177.61945 77.53438 177.11945Q78.15938 176.61945 79.09688 176.61945Q79.78438 176.61945 80.3 176.9007Q80.83125 177.18195 81.175 177.7132Q81.51875 178.22882 81.70625 178.97882Q81.89375 179.72882 81.89375 181.01007Q81.89375 182.5257 81.58125 183.44757Q81.28438 184.36945 80.65938 184.88507Q80.05 185.38507 79.09688 185.38507Q77.8625 185.38507 77.14375 184.49445Q76.3 183.43195 76.3 181.01007ZM77.37813 181.01007Q77.37813 183.11945 77.87813 183.82257Q78.37813 184.5257 79.09688 184.5257Q79.83125 184.5257 80.31563 183.82257Q80.81563 183.11945 80.81563 181.01007Q80.81563 178.88507 80.31563 178.19757Q79.83125 177.49445 79.08125 177.49445Q78.3625 177.49445 77.925 178.10382Q77.37813 178.88507 77.37813 181.01007ZM83.3 181.01007Q83.3 179.47882 83.6125 178.55695Q83.925 177.61945 84.53438 177.11945Q85.15938 176.61945 86.09688 176.61945Q86.78438 176.61945 87.3 176.9007Q87.83125 177.18195 88.175 177.7132Q88.51875 178.22882 88.70625 178.97882Q88.89375 179.72882 88.89375 181.01007Q88.89375 182.5257 88.58125 183.44757Q88.28438 184.36945 87.65938 184.88507Q87.05 185.38507 86.09688 185.38507Q84.8625 185.38507 84.14375 184.49445Q83.3 183.43195 83.3 181.01007ZM84.37813 181.01007Q84.37813 183.11945 84.87813 183.82257Q85.37813 184.5257 86.09688 184.5257Q86.83125 184.5257 87.31563 183.82257Q87.81563 183.11945 87.81563 181.01007Q87.81563 178.88507 87.31563 178.19757Q86.83125 177.49445 86.08125 177.49445Q85.3625 177.49445 84.925 178.10382Q84.37813 178.88507 84.37813 181.01007ZM90.3 181.01007Q90.3 179.47882 90.6125 178.55695Q90.925 177.61945 91.53438 177.11945Q92.15938 176.61945 93.09688 176.61945Q93.78438 176.61945 94.3 176.9007Q94.83125 177.18195 95.175 177.7132Q95.51875 178.22882 95.70625 178.97882Q95.89375 179.72882 95.89375 181.01007Q95.89375 182.5257 95.58125 183.44757Q95.28438 184.36945 94.65938 184.88507Q94.05 185.38507 93.09688 185.38507Q91.8625 185.38507 91.14375 184.49445Q90.3 183.43195 90.3 181.01007ZM91.37813 181.01007Q91.37813 183.11945 91.87813 183.82257Q92.37813 184.5257 93.09688 184.5257Q93.83125 184.5257 94.31563 183.82257Q94.81563 183.11945 94.81563 181.01007Q94.81563 178.88507 94.31563 178.19757Q93.83125 177.49445 93.08125 177.49445Q92.3625 177.49445 91.925 178.10382Q91.37813 178.88507 91.37813 181.01007Z" fill-rule="nonzero"/><path fill="#000000" d="M52.26875 118.28889L51.221874 118.28889L51.221874 111.57014Q50.83125 111.92951 50.20625 112.30451Q49.596874 112.66389 49.1125 112.83576L49.1125 111.82014Q49.9875 111.39826 50.64375 110.82014Q51.315624 110.22639 51.596874 109.66389L52.26875 109.66389L52.26875 118.28889ZM55.3 114.05451Q55.3 112.52326 55.6125 111.60139Q55.925 110.66389 56.534374 110.16389Q57.159374 109.66389 58.096874 109.66389Q58.784374 109.66389 59.3 109.94514Q59.83125 110.22639 60.175 110.75764Q60.51875 111.27326 60.70625 112.02326Q60.89375 112.77326 60.89375 114.05451Q60.89375 115.57014 60.58125 116.49201Q60.284374 117.41389 59.659374 117.92951Q59.05 118.42951 58.096874 118.42951Q56.8625 118.42951 56.14375 117.53889Q55.3 116.47639 55.3 114.05451ZM56.378124 114.05451Q56.378124 116.16389 56.878124 116.86701Q57.378124 117.57014 58.096874 117.57014Q58.83125 117.57014 59.315624 116.86701Q59.815624 116.16389 59.815624 114.05451Q59.815624 111.92951 59.315624 111.24201Q58.83125 110.53889 58.08125 110.53889Q57.3625 110.53889 56.925 111.14826Q56.378124 111.92951 56.378124 114.05451ZM62.3 114.05451Q62.3 112.52326 62.6125 111.60139Q62.925 110.66389 63.534374 110.16389Q64.15938 109.66389 65.09688 109.66389Q65.78438 109.66389 66.3 109.94514Q66.83125 110.22639 67.175 110.75764Q67.51875 111.27326 67.70625 112.02326Q67.89375 112.77326 67.89375 114.05451Q67.89375 115.57014 67.58125 116.49201Q67.28438 117.41389 66.65938 117.92951Q66.05 118.42951 65.09688 118.42951Q63.8625 118.42951 63.14375 117.53889Q62.3 116.47639 62.3 114.05451ZM63.378124 114.05451Q63.378124 116.16389 63.878124 116.86701Q64.37813 117.57014 65.09688 117.57014Q65.83125 117.57014 66.31563 116.86701Q66.81563 116.16389 66.81563 114.05451Q66.81563 111.92951 66.31563 111.24201Q65.83125 110.53889 65.08125 110.53889Q64.3625 110.53889 63.925 111.14826Q63.378124 111.92951 63.378124 114.05451ZM69.3 114.05451Q69.3 112.52326 69.6125 111.60139Q69.925 110.66389 70.53438 110.16389Q71.15938 109.66389 72.09688 109.66389Q72.78438 109.66389 73.3 109.94514Q73.83125 110.22639 74.175 110.75764Q74.51875 111.27326 74.70625 112.02326Q74.89375 112.77326 74.89375 114.05451Q74.89375 115.57014 74.58125 116.49201Q74.28438 117.41389 73.65938 117.92951Q73.05 118.42951 72.09688 118.42951Q70.8625 118.42951 70.14375 117.53889Q69.3 116.47639 69.3 114.05451ZM70.37813 114.05451Q70.37813 116.16389 70.87813 116.86701Q71.37813 117.57014 72.09688 117.57014Q72.83125 117.57014 73.31563 116.86701Q73.81563 116.16389 73.81563 114.05451Q73.81563 111.92951 73.31563 111.24201Q72.83125 110.53889 72.08125 110.53889Q71.3625 110.53889 70.925 111.14826Q70.37813 111.92951 70.37813 114.05451ZM76.3 114.05451Q76.3 112.52326 76.6125 111.60139Q76.925 110.66389 77.53438 110.16389Q78.15938 109.66389 79.09688 109.66389Q79.78438 109.66389 80.3 109.94514Q80.83125 110.22639 81.175 110.75764Q81.51875 111.27326 81.70625 112.02326Q81.89375 112.77326 81.89375 114.05451Q81.89375 115.57014 81.58125 116.49201Q81.28438 117.41389 80.65938 117.92951Q80.05 118.42951 79.09688 118.42951Q77.8625 118.42951 77.14375 117.53889Q76.3 116.47639 76.3 114.05451ZM77.37813 114.05451Q77.37813 116.16389 77.87813 116.86701Q78.37813 117.57014 79.09688 117.57014Q79.83125 117.57014 80.31563 116.86701Q80.81563 116.16389 80.81563 114.05451Q80.81563 111.92951 80.31563 111.24201Q79.83125 110.53889 79.08125 110.53889Q78.3625 110.53889 77.925 111.14826Q77.37813 111.92951 77.37813 114.05451ZM83.3 114.05451Q83.3 112.52326 83.6125 111.60139Q83.925 110.66389 84.53438 110.16389Q85.15938 109.66389 86.09688 109.66389Q86.78438 109.66389 87.3 109.94514Q87.83125 110.22639 88.175 110.75764Q88.51875 111.27326 88.70625 112.02326Q88.89375 112.77326 88.89375 114.05451Q88.89375 115.57014 88.58125 116.49201Q88.28438 117.41389 87.65938 117.92951Q87.05 118.42951 86.09688 118.42951Q84.8625 118.42951 84.14375 117.53889Q83.3 116.47639 83.3 114.05451ZM84.37813 114.05451Q84.37813 116.16389 84.87813 116.86701Q85.37813 117.57014 86.09688 117.57014Q86.83125 117.57014 87.31563 116.86701Q87.81563 116.16389 87.81563 114.05451Q87.81563 111.92951 87.31563 111.24201Q86.83125 110.53889 86.08125 110.53889Q85.3625 110.53889 84.925 111.14826Q84.37813 111.92951 84.37813 114.05451ZM90.3 114.05451Q90.3 112.52326 90.6125 111.60139Q90.925 110.66389 91.53438 110.16389Q92.15938 109.66389 93.09688 109.66389Q93.78438 109.66389 94.3 109.94514Q94.83125 110.22639 95.175 110.75764Q95.51875 111.27326 95.70625 112.02326Q95.89375 112.77326 95.89375 114.05451Q95.89375 115.57014 95.58125 116.49201Q95.28438 117.41389 94.65938 117.92951Q94.05 118.42951 93.09688 118.42951Q91.8625 118.42951 91.14375 117.53889Q90.3 116.47639 90.3 114.05451ZM91.37813 114.05451Q91.37813 116.16389 91.87813 116.86701Q92.37813 117.57014 93.09688 117.57014Q93.83125 117.57014 94.31563 116.86701Q94.81563 116.16389 94.81563 114.05451Q94.81563 111.92951 94.31563 111.24201Q93.83125 110.53889 93.08125 110.53889Q92.3625 110.53889 91.925 111.14826Q91.37813 111.92951 91.37813 114.05451Z" fill-rule="nonzero"/><path fill="#000000" d="M52.26875 51.333332L51.221874 51.333332L51.221874 44.614582Q50.83125 44.973957 50.20625 45.348957Q49.596874 45.708332 49.1125 45.880207L49.1125 44.864582Q49.9875 44.442707 50.64375 43.864582Q51.315624 43.270832 51.596874 42.708332L52.26875 42.708332L52.26875 51.333332ZM55.3 49.083332L56.409374 48.989582Q56.534374 49.802082 56.971874 50.208332Q57.425 50.614582 58.065624 50.614582Q58.815624 50.614582 59.346874 50.036457Q59.878124 49.458332 59.878124 48.520832Q59.878124 47.614582 59.3625 47.098957Q58.8625 46.567707 58.034374 46.567707Q57.534374 46.567707 57.1125 46.802082Q56.70625 47.036457 56.471874 47.395832L55.4875 47.270832L56.315624 42.864582L60.596874 42.864582L60.596874 43.864582L57.159374 43.864582L56.70625 46.177082Q57.471874 45.630207 58.315624 45.630207Q59.440624 45.630207 60.20625 46.411457Q60.9875 47.192707 60.9875 48.427082Q60.9875 49.583332 60.315624 50.442707Q59.4875 51.473957 58.065624 51.473957Q56.89375 51.473957 56.14375 50.817707Q55.409374 50.161457 55.3 49.083332ZM62.3 47.098957Q62.3 45.567707 62.6125 44.645832Q62.925 43.708332 63.534374 43.208332Q64.15938 42.708332 65.09688 42.708332Q65.78438 42.708332 66.3 42.989582Q66.83125 43.270832 67.175 43.802082Q67.51875 44.317707 67.70625 45.067707Q67.89375 45.817707 67.89375 47.098957Q67.89375 48.614582 67.58125 49.536457Q67.28438 50.458332 66.65938 50.973957Q66.05 51.473957 65.09688 51.473957Q63.8625 51.473957 63.14375 50.583332Q62.3 49.520832 62.3 47.098957ZM63.378124 47.098957Q63.378124 49.208332 63.878124 49.911457Q64.37813 50.614582 65.09688 50.614582Q65.83125 50.614582 66.31563 49.911457Q66.81563 49.208332 66.81563 47.098957Q66.81563 44.973957 66.31563 44.286457Q65.83125 43.583332 65.08125 43.583332Q64.3625 43.583332 63.925 44.192707Q63.378124 44.973957 63.378124 47.098957ZM69.3 47.098957Q69.3 45.567707 69.6125 44.645832Q69.925 43.708332 70.53438 43.208332Q71.15938 42.708332 72.09688 42.708332Q72.78438 42.708332 73.3 42.989582Q73.83125 43.270832 74.175 43.802082Q74.51875 44.317707 74.70625 45.067707Q74.89375 45.817707 74.89375 47.098957Q74.89375 48.614582 74.58125 49.536457Q74.28438 50.458332 73.65938 50.973957Q73.05 51.473957 72.09688 51.473957Q70.8625 51.473957 70.14375 50.583332Q69.3 49.520832 69.3 47.098957ZM70.37813 47.098957Q70.37813 49.208332 70.87813 49.911457Q71.37813 50.614582 72.09688 50.614582Q72.83125 50.614582 73.31563 49.911457Q73.81563 49.208332 73.81563 47.098957Q73.81563 44.973957 73.31563 44.286457Q72.83125 43.583332 72.08125 43.583332Q71.3625 43.583332 70.925 44.192707Q70.37813 44.973957 70.37813 47.098957ZM76.3 47.098957Q76.3 45.567707 76.6125 44.645832Q76.925 43.708332 77.53438 43.208332Q78.15938 42.708332 79.09688 42.708332Q79.78438 42.708332 80.3 42.989582Q80.83125 43.270832 81.175 43.802082Q81.51875 44.317707 81.70625 45.067707Q81.89375 45.817707 81.89375 47.098957Q81.89375 48.614582 81.58125 49.536457Q81.28438 50.458332 80.65938 50.973957Q80.05 51.473957 79.09688 51.473957Q77.8625 51.473957 77.14375 50.583332Q76.3 49.520832 76.3 47.098957ZM77.37813 47.098957Q77.37813 49.208332 77.87813 49.911457Q78.37813 50.614582 79.09688 50.614582Q79.83125 50.614582 80.31563 49.911457Q80.81563 49.208332 80.81563 47.098957Q80.81563 44.973957 80.31563 44.286457Q79.83125 43.583332 79.08125 43.583332Q78.3625 43.583332 77.925 44.192707Q77.37813 44.973957 77.37813 47.098957ZM83.3 47.098957Q83.3 45.567707 83.6125 44.645832Q83.925 43.708332 84.53438 43.208332Q85.15938 42.708332 86.09688 42.708332Q86.78438 42.708332 87.3 42.989582Q87.83125 43.270832 88.175 43.802082Q88.51875 44.317707 88.70625 45.067707Q88.89375 45.817707 88.89375 47.098957Q88.89375 48.614582 88.58125 49.536457Q88.28438 50.458332 87.65938 50.973957Q87.05 51.473957 86.09688 51.473957Q84.8625 51.473957 84.14375 50.583332Q83.3 49.520832 83.3 47.098957ZM84.37813 47.098957Q84.37813 49.208332 84.87813 49.911457Q85.37813 50.614582 86.09688 50.614582Q86.83125 50.614582 87.31563 49.911457Q87.81563 49.208332 87.81563 47.098957Q87.81563 44.973957 87.31563 44.286457Q86.83125 43.583332 86.08125 43.583332Q85.3625 43.583332 84.925 44.192707Q84.37813 44.973957 84.37813 47.098957ZM90.3 47.098957Q90.3 45.567707 90.6125 44.645832Q90.925 43.708332 91.53438 43.208332Q92.15938 42.708332 93.09688 42.708332Q93.78438 42.708332 94.3 42.989582Q94.83125 43.270832 95.175 43.802082Q95.51875 44.317707 95.70625 45.067707Q95.89375 45.817707 95.89375 47.098957Q95.89375 48.614582 95.58125 49.536457Q95.28438 50.458332 94.65938 50.973957Q94.05 51.473957 93.09688 51.473957Q91.8625 51.473957 91.14375 50.583332Q90.3 49.520832 90.3 47.098957ZM91.37813 47.098957Q91.37813 49.208332 91.87813 49.911457Q92.37813 50.614582 93.09688 50.614582Q93.83125 50.614582 94.31563 49.911457Q94.81563 49.208332 94.81563 47.098957Q94.81563 44.973957 94.31563 44.286457Q93.83125 43.583332 93.08125 43.583332Q92.3625 43.583332 91.925 44.192707Q91.37813 44.973957 91.37813 47.098957Z" fill-rule="nonzero"/><path fill="#000000" d="M141.43665 265.2L140.38977 265.2L140.38977 258.48126Q139.99915 258.84064 139.37415 259.21564Q138.76477 259.575 138.2804 259.7469L138.2804 258.73126Q139.1554 258.3094 139.81165 257.73126Q140.48352 257.1375 140.76477 256.575L141.43665 256.575L141.43665 265.2Z" fill-rule="nonzero"/><path fill="#000000" d="M198.81905 264.1844L198.81905 265.2L193.13155 265.2Q193.13155 264.825 193.25655 264.46564Q193.4753 263.8875 193.94405 263.325Q194.42842 262.7625 195.33467 262.02814Q196.74092 260.8719 197.2253 260.2Q197.7253 259.52814 197.7253 258.9344Q197.7253 258.3094 197.27217 257.8875Q196.81905 257.45 196.1003 257.45Q195.33467 257.45 194.88155 257.90314Q194.42842 258.35626 194.4128 259.16876L193.33467 259.0594Q193.44405 257.84064 194.1628 257.21564Q194.89717 256.575 196.13155 256.575Q197.36592 256.575 198.08467 257.2625Q198.80342 257.95 198.80342 258.96564Q198.80342 259.48126 198.58467 259.98126Q198.38155 260.46564 197.88155 261.02814Q197.39717 261.575 196.27217 262.52814Q195.31905 263.325 195.0378 263.6219Q194.77217 263.90314 194.6003 264.1844L198.81905 264.1844Z" fill-rule="nonzero"/><path fill="#000000" d="M249.07645 262.9344L250.13895 262.79376Q250.31082 263.6844 250.74832 264.09064Q251.18582 264.48126 251.81082 264.48126Q252.56082 264.48126 253.07645 263.96564Q253.59207 263.45 253.59207 262.6844Q253.59207 261.96564 253.1077 261.4969Q252.63895 261.0125 251.90457 261.0125Q251.6077 261.0125 251.15457 261.1375L251.27957 260.2Q251.38895 260.21564 251.45145 260.21564Q252.12332 260.21564 252.65457 259.8719Q253.20145 259.5125 253.20145 258.77814Q253.20145 258.2 252.81082 257.825Q252.4202 257.4344 251.7952 257.4344Q251.18582 257.4344 250.76395 257.825Q250.3577 258.21564 250.24832 258.98126L249.18582 258.79376Q249.37332 257.7469 250.06082 257.16876Q250.74832 256.575 251.76395 256.575Q252.46707 256.575 253.06082 256.8875Q253.65457 257.1844 253.96707 257.7Q254.27957 258.21564 254.27957 258.8094Q254.27957 259.35626 253.9827 259.825Q253.68582 260.27814 253.1077 260.54376Q253.8577 260.71564 254.27957 261.27814Q254.70145 261.825 254.70145 262.66876Q254.70145 263.79376 253.87332 264.575Q253.06082 265.35626 251.81082 265.35626Q250.68582 265.35626 249.93582 264.6844Q249.18582 263.9969 249.07645 262.9344Z" fill-rule="nonzero"/><path fill="#000000" d="M308.25574 265.2L308.25574 263.1375L304.537 263.1375L304.537 262.16876L308.45886 256.60626L309.31824 256.60626L309.31824 262.16876L310.4745 262.16876L310.4745 263.1375L309.31824 263.1375L309.31824 265.2L308.25574 265.2ZM308.25574 262.16876L308.25574 258.3094L305.56824 262.16876L308.25574 262.16876Z" fill-rule="nonzero"/><path fill="#000000" d="M360.68503 262.95L361.7944 262.85626Q361.9194 263.66876 362.3569 264.075Q362.81003 264.48126 363.45065 264.48126Q364.20065 264.48126 364.7319 263.90314Q365.26315 263.325 365.26315 262.3875Q365.26315 261.48126 364.74753 260.96564Q364.24753 260.4344 363.4194 260.4344Q362.9194 260.4344 362.49753 260.66876Q362.09128 260.90314 361.8569 261.2625L360.87253 261.1375L361.70065 256.73126L365.9819 256.73126L365.9819 257.73126L362.5444 257.73126L362.09128 260.04376Q362.8569 259.4969 363.70065 259.4969Q364.82565 259.4969 365.59128 260.27814Q366.37253 261.0594 366.37253 262.29376Q366.37253 263.45 365.70065 264.3094Q364.87253 265.34064 363.45065 265.34064Q362.27878 265.34064 361.52878 264.6844Q360.7944 264.02814 360.68503 262.95Z" fill-rule="nonzero"/><path fill="#000000" d="M421.95804 258.71564L420.91116 258.79376Q420.77054 258.16876 420.52054 257.8875Q420.08304 257.4344 419.45804 257.4344Q418.95804 257.4344 418.5674 257.71564Q418.08304 258.09064 417.78616 258.79376Q417.5049 259.48126 417.4893 260.7625Q417.8643 260.1844 418.41116 259.90314Q418.97366 259.6219 419.58304 259.6219Q420.6299 259.6219 421.3643 260.40314Q422.1143 261.1844 422.1143 262.40314Q422.1143 263.21564 421.7549 263.91876Q421.41116 264.60626 420.8018 264.98126Q420.1924 265.34064 419.4268 265.34064Q418.09866 265.34064 417.27054 264.3719Q416.4424 263.40314 416.4424 261.1844Q416.4424 258.6844 417.3643 257.5594Q418.16116 256.575 419.52054 256.575Q420.53616 256.575 421.1768 257.15314Q421.83304 257.71564 421.95804 258.71564ZM417.66116 262.41876Q417.66116 262.96564 417.8799 263.46564Q418.1143 263.95 418.52054 264.21564Q418.9424 264.48126 419.41116 264.48126Q420.0674 264.48126 420.5518 263.95Q421.03616 263.40314 421.03616 262.48126Q421.03616 261.59064 420.5518 261.075Q420.08304 260.5594 419.3643 260.5594Q418.64554 260.5594 418.14554 261.075Q417.66116 261.59064 417.66116 262.41876Z" fill-rule="nonzero"/><path fill="#000000" d="M472.35608 257.73126L472.35608 256.71564L477.91858 256.71564L477.91858 257.54376Q477.10608 258.41876 476.29358 259.8719Q475.4967 261.3094 475.0592 262.84064Q474.73108 263.91876 474.65295 265.2L473.5592 265.2Q473.57483 264.1844 473.94983 262.7469Q474.34045 261.3094 475.04358 259.98126Q475.76233 258.65314 476.57483 257.73126L472.35608 257.73126Z" fill-rule="nonzero"/><path fill="#000000" d="M529.72284 260.54376Q529.0666 260.29376 528.73846 259.85626Q528.42596 259.40314 528.42596 258.79376Q528.42596 257.85626 529.09784 257.21564Q529.78534 256.575 530.8947 256.575Q532.0197 256.575 532.7072 257.23126Q533.3947 257.8875 533.3947 258.825Q533.3947 259.41876 533.0822 259.85626Q532.7697 260.29376 532.1291 260.54376Q532.92596 260.79376 533.3322 261.3719Q533.73846 261.95 533.73846 262.7469Q533.73846 263.84064 532.9572 264.59064Q532.1916 265.34064 530.91034 265.34064Q529.6447 265.34064 528.86346 264.59064Q528.0822 263.84064 528.0822 262.71564Q528.0822 261.8719 528.5041 261.3094Q528.9416 260.7469 529.72284 260.54376ZM529.5041 258.7469Q529.5041 259.35626 529.8947 259.7469Q530.30096 260.1375 530.92596 260.1375Q531.53534 260.1375 531.92596 259.7625Q532.3166 259.3719 532.3166 258.8094Q532.3166 258.23126 531.91034 257.84064Q531.5041 257.4344 530.91034 257.4344Q530.30096 257.4344 529.8947 257.825Q529.5041 258.21564 529.5041 258.7469ZM529.17596 262.71564Q529.17596 263.16876 529.3791 263.59064Q529.59784 264.0125 530.0197 264.2469Q530.4416 264.48126 530.92596 264.48126Q531.67596 264.48126 532.16034 263.9969Q532.66034 263.5125 532.66034 262.7625Q532.66034 261.9969 532.16034 261.4969Q531.66034 260.9969 530.8947 260.9969Q530.1447 260.9969 529.66034 261.4969Q529.17596 261.98126 529.17596 262.71564Z" fill-rule="nonzero"/><path fill="#000000" d="M584.0584 263.21564L585.07404 263.1219Q585.19904 263.84064 585.5584 264.16876Q585.9334 264.48126 586.4959 264.48126Q586.9803 264.48126 587.33966 264.2625Q587.71466 264.02814 587.94904 263.66876Q588.1834 263.29376 588.33966 262.66876Q588.4959 262.02814 588.4959 261.3719Q588.4959 261.29376 588.4959 261.15314Q588.1834 261.65314 587.63654 261.98126Q587.08966 262.29376 586.44904 262.29376Q585.3709 262.29376 584.63654 261.52814Q583.90216 260.7469 583.90216 259.48126Q583.90216 258.16876 584.6678 257.3719Q585.44904 256.575 586.6053 256.575Q587.4334 256.575 588.1209 257.02814Q588.82404 257.48126 589.1834 258.325Q589.5428 259.15314 589.5428 260.73126Q589.5428 262.3719 589.1834 263.35626Q588.83966 264.325 588.1209 264.84064Q587.4178 265.34064 586.4803 265.34064Q585.46466 265.34064 584.82404 264.79376Q584.1834 264.23126 584.0584 263.21564ZM588.3709 259.41876Q588.3709 258.5125 587.88654 257.98126Q587.4178 257.45 586.7303 257.45Q586.02716 257.45 585.4959 258.02814Q584.9803 258.59064 584.9803 259.5125Q584.9803 260.325 585.4803 260.84064Q585.9803 261.35626 586.69904 261.35626Q587.4334 261.35626 587.90216 260.84064Q588.3709 260.325 588.3709 259.41876Z" fill-rule="nonzero"/><path fill="#000000" d="M640.1752 265.2L639.1283 265.2L639.1283 258.48126Q638.7377 258.84064 638.1127 259.21564Q637.5033 259.575 637.0189 259.7469L637.0189 258.73126Q637.8939 258.3094 638.5502 257.73126Q639.22205 257.1375 639.5033 256.575L640.1752 256.575L640.1752 265.2ZM643.2064 260.96564Q643.2064 259.4344 643.5189 258.5125Q643.8314 257.575 644.4408 257.075Q645.0658 256.575 646.0033 256.575Q646.6908 256.575 647.2064 256.85626Q647.7377 257.1375 648.0814 257.66876Q648.4252 258.1844 648.6127 258.9344Q648.8002 259.6844 648.8002 260.96564Q648.8002 262.48126 648.4877 263.40314Q648.1908 264.325 647.5658 264.84064Q646.9564 265.34064 646.0033 265.34064Q644.7689 265.34064 644.0502 264.45Q643.2064 263.3875 643.2064 260.96564ZM644.28455 260.96564Q644.28455 263.075 644.78455 263.77814Q645.28455 264.48126 646.0033 264.48126Q646.7377 264.48126 647.22205 263.77814Q647.72205 263.075 647.72205 260.96564Q647.72205 258.84064 647.22205 258.15314Q646.7377 257.45 645.9877 257.45Q645.2689 257.45 644.8314 258.0594Q644.28455 258.84064 644.28455 260.96564Z" fill-rule="nonzero"/><path fill="#000000" d="M695.97943 265.2L694.93256 265.2L694.93256 258.48126Q694.54193 258.84064 693.91693 259.21564Q693.30756 259.575 692.8232 259.7469L692.8232 258.73126Q693.6982 258.3094 694.35443 257.73126Q695.0263 257.1375 695.30756 256.575L695.97943 256.575L695.97943 265.2ZM702.97943 265.2L701.93256 265.2L701.93256 258.48126Q701.54193 258.84064 700.91693 259.21564Q700.30756 259.575 699.8232 259.7469L699.8232 258.73126Q700.6982 258.3094 701.35443 257.73126Q702.0263 257.1375 702.30756 256.575L702.97943 256.575L702.97943 265.2Z" fill-rule="nonzero"/><path fill="#000000" d="M751.78375 265.2L750.7369 265.2L750.7369 258.48126Q750.34625 258.84064 749.72125 259.21564Q749.1119 259.575 748.6275 259.7469L748.6275 258.73126Q749.5025 258.3094 750.15875 257.73126Q750.8306 257.1375 751.1119 256.575L751.78375 256.575L751.78375 265.2ZM760.3619 264.1844L760.3619 265.2L754.6744 265.2Q754.6744 264.825 754.7994 264.46564Q755.0181 263.8875 755.4869 263.325Q755.97125 262.7625 756.8775 262.02814Q758.28375 260.8719 758.7681 260.2Q759.2681 259.52814 759.2681 258.9344Q759.2681 258.3094 758.815 257.8875Q758.3619 257.45 757.6431 257.45Q756.8775 257.45 756.4244 257.90314Q755.97125 258.35626 755.9556 259.16876L754.8775 259.0594Q754.9869 257.84064 755.7056 257.21564Q756.44 256.575 757.6744 256.575Q758.90875 256.575 759.6275 257.2625Q760.34625 257.95 760.34625 258.96564Q760.34625 259.48126 760.1275 259.98126Q759.9244 260.46564 759.4244 261.02814Q758.94 261.575 757.815 262.52814Q756.8619 263.325 756.5806 263.6219Q756.315 263.90314 756.1431 264.1844L760.3619 264.1844Z" fill-rule="nonzero"/><path fill="#000000" d="M807.588 265.2L806.54114 265.2L806.54114 258.48126Q806.1505 258.84064 805.5255 259.21564Q804.91614 259.575 804.43176 259.7469L804.43176 258.73126Q805.30676 258.3094 805.963 257.73126Q806.6349 257.1375 806.91614 256.575L807.588 256.575L807.588 265.2ZM810.61926 262.9344L811.68176 262.79376Q811.85364 263.6844 812.29114 264.09064Q812.72864 264.48126 813.35364 264.48126Q814.10364 264.48126 814.61926 263.96564Q815.1349 263.45 815.1349 262.6844Q815.1349 261.96564 814.6505 261.4969Q814.18176 261.0125 813.4474 261.0125Q813.1505 261.0125 812.6974 261.1375L812.8224 260.2Q812.93176 260.21564 812.99426 260.21564Q813.66614 260.21564 814.1974 259.8719Q814.74426 259.5125 814.74426 258.77814Q814.74426 258.2 814.35364 257.825Q813.963 257.4344 813.338 257.4344Q812.72864 257.4344 812.30676 257.825Q811.9005 258.21564 811.79114 258.98126L810.72864 258.79376Q810.91614 257.7469 811.60364 257.16876Q812.29114 256.575 813.30676 256.575Q814.0099 256.575 814.60364 256.8875Q815.1974 257.1844 815.5099 257.7Q815.8224 258.21564 815.8224 258.8094Q815.8224 259.35626 815.5255 259.825Q815.22864 260.27814 814.6505 260.54376Q815.4005 260.71564 815.8224 261.27814Q816.24426 261.825 816.24426 262.66876Q816.24426 263.79376 815.41614 264.575Q814.60364 265.35626 813.35364 265.35626Q812.22864 265.35626 811.47864 264.6844Q810.72864 263.9969 810.61926 262.9344Z" fill-rule="nonzero"/><path fill="#000000" d="M863.3923 265.2L862.3454 265.2L862.3454 258.48126Q861.9548 258.84064 861.3298 259.21564Q860.7204 259.575 860.236 259.7469L860.236 258.73126Q861.111 258.3094 861.7673 257.73126Q862.43915 257.1375 862.7204 256.575L863.3923 256.575L863.3923 265.2ZM869.7985 265.2L869.7985 263.1375L866.0798 263.1375L866.0798 262.16876L870.00165 256.60626L870.861 256.60626L870.861 262.16876L872.0173 262.16876L872.0173 263.1375L870.861 263.1375L870.861 265.2L869.7985 265.2ZM869.7985 262.16876L869.7985 258.3094L867.111 262.16876L869.7985 262.16876Z" fill-rule="nonzero"/><path fill="#000000" d="M919.1966 265.2L918.1497 265.2L918.1497 258.48126Q917.7591 258.84064 917.1341 259.21564Q916.5247 259.575 916.04034 259.7469L916.04034 258.73126Q916.91534 258.3094 917.5716 257.73126Q918.24347 257.1375 918.5247 256.575L919.1966 256.575L919.1966 265.2ZM922.22784 262.95L923.3372 262.85626Q923.4622 263.66876 923.8997 264.075Q924.35284 264.48126 924.99347 264.48126Q925.74347 264.48126 926.2747 263.90314Q926.80597 263.325 926.80597 262.3875Q926.80597 261.48126 926.29034 260.96564Q925.79034 260.4344 924.9622 260.4344Q924.4622 260.4344 924.04034 260.66876Q923.6341 260.90314 923.3997 261.2625L922.41534 261.1375L923.24347 256.73126L927.5247 256.73126L927.5247 257.73126L924.0872 257.73126L923.6341 260.04376Q924.3997 259.4969 925.24347 259.4969Q926.36847 259.4969 927.1341 260.27814Q927.91534 261.0594 927.91534 262.29376Q927.91534 263.45 927.24347 264.3094Q926.41534 265.34064 924.99347 265.34064Q923.8216 265.34064 923.0716 264.6844Q922.3372 264.02814 922.22784 262.95Z" fill-rule="nonzero"/><path fill="#000000" d="M975.00085 265.2L973.954 265.2L973.954 258.48126Q973.56335 258.84064 972.93835 259.21564Q972.329 259.575 971.8446 259.7469L971.8446 258.73126Q972.7196 258.3094 973.37585 257.73126Q974.0477 257.1375 974.329 256.575L975.00085 256.575L975.00085 265.2ZM983.50085 258.71564L982.454 258.79376Q982.31335 258.16876 982.06335 257.8875Q981.62585 257.4344 981.00085 257.4344Q980.50085 257.4344 980.1102 257.71564Q979.62585 258.09064 979.329 258.79376Q979.0477 259.48126 979.0321 260.7625Q979.4071 260.1844 979.954 259.90314Q980.5165 259.6219 981.12585 259.6219Q982.1727 259.6219 982.9071 260.40314Q983.6571 261.1844 983.6571 262.40314Q983.6571 263.21564 983.2977 263.91876Q982.954 264.60626 982.3446 264.98126Q981.7352 265.34064 980.9696 265.34064Q979.6415 265.34064 978.81335 264.3719Q977.9852 263.40314 977.9852 261.1844Q977.9852 258.6844 978.9071 257.5594Q979.704 256.575 981.06335 256.575Q982.079 256.575 982.7196 257.15314Q983.37585 257.71564 983.50085 258.71564ZM979.204 262.41876Q979.204 262.96564 979.4227 263.46564Q979.6571 263.95 980.06335 264.21564Q980.4852 264.48126 980.954 264.48126Q981.6102 264.48126 982.0946 263.95Q982.579 263.40314 982.579 262.48126Q982.579 261.59064 982.0946 261.075Q981.62585 260.5594 980.9071 260.5594Q980.18835 260.5594 979.68835 261.075Q979.204 261.59064 979.204 262.41876Z" fill-rule="nonzero"/><path fill="#4285f4" d="M361.0 17.8C361.0 17.247715 361.44772 16.8 362.0 16.8L372.0 16.8C372.55228 16.8 373.0 17.247715 373.0 17.8L373.0 27.8C373.0 28.352285 372.55228 28.8 372.0 28.8L362.0 28.8C361.44772 28.8 361.0 28.352285 361.0 27.8Z" fill-rule="nonzero"/><path fill="#1a1a1a" d="M381.92188 26.8L381.92188 18.20625L384.89062 18.20625Q385.89062 18.20625 386.42188 18.33125Q387.15625 18.503124 387.67188 18.940624Q388.35938 19.51875 388.6875 20.425Q389.03125 21.315624 389.03125 22.45625Q389.03125 23.440624 388.79688 24.190624Q388.57812 24.940624 388.21875 25.440624Q387.85938 25.940624 387.42188 26.221874Q387.0 26.503124 386.40625 26.659374Q385.8125 26.8 385.03125 26.8L381.92188 26.8ZM383.0625 25.784374L384.89062 25.784374Q385.75 25.784374 386.23438 25.628124Q386.71875 25.471874 387.0 25.175Q387.40625 24.784374 387.625 24.096874Q387.85938 23.409374 387.85938 22.440624Q387.85938 21.096874 387.40625 20.378124Q386.96875 19.64375 386.34375 19.39375Q385.875 19.221874 384.875 19.221874L383.0625 19.221874L383.0625 25.784374ZM390.95312 26.8L390.95312 18.20625L397.15625 18.20625L397.15625 19.221874L392.09375 19.221874L392.09375 21.846874L396.84375 21.846874L396.84375 22.8625L392.09375 22.8625L392.09375 25.784374L397.35938 25.784374L397.35938 26.8L390.95312 26.8ZM398.98438 26.8L398.98438 18.20625L404.78125 18.20625L404.78125 19.221874L400.125 19.221874L400.125 21.878124L404.15625 21.878124L404.15625 22.89375L400.125 22.89375L400.125 26.8L398.98438 26.8ZM405.95312 26.8L405.95312 18.20625L412.15625 18.20625L412.15625 19.221874L407.09375 19.221874L407.09375 21.846874L411.84375 21.846874L411.84375 22.8625L407.09375 22.8625L407.09375 25.784374L412.35938 25.784374L412.35938 26.8L405.95312 26.8ZM413.9375 26.8L413.9375 18.20625L417.75 18.20625Q418.90625 18.20625 419.5 18.440624Q420.09375 18.675 420.45312 19.26875Q420.8125 19.846874 420.8125 20.55Q420.8125 21.471874 420.21875 22.096874Q419.625 22.721874 418.39062 22.89375Q418.84375 23.1125 419.07812 23.315624Q419.57812 23.76875 420.01562 24.45625L421.51562 26.8L420.07812 26.8L418.95312 25.01875Q418.45312 24.2375 418.125 23.83125Q417.8125 23.425 417.54688 23.26875Q417.29688 23.096874 417.03125 23.01875Q416.84375 22.9875 416.40625 22.9875L415.07812 22.9875L415.07812 26.8L413.9375 26.8ZM415.07812 22.003124L417.53125 22.003124Q418.29688 22.003124 418.73438 21.846874Q419.1875 21.675 419.40625 21.33125Q419.64062 20.971874 419.64062 20.55Q419.64062 19.940624 419.1875 19.55Q418.75 19.159374 417.79688 19.159374L415.07812 19.159374L415.07812 22.003124ZM422.9375 26.8L422.9375 18.20625L426.75 18.20625Q427.90625 18.20625 428.5 18.440624Q429.09375 18.675 429.45312 19.26875Q429.8125 19.846874 429.8125 20.55Q429.8125 21.471874 429.21875 22.096874Q428.625 22.721874 427.39062 22.89375Q427.84375 23.1125 428.07812 23.315624Q428.57812 23.76875 429.01562 24.45625L430.51562 26.8L429.07812 26.8L427.95312 25.01875Q427.45312 24.2375 427.125 23.83125Q426.8125 23.425 426.54688 23.26875Q426.29688 23.096874 426.03125 23.01875Q425.84375 22.9875 425.40625 22.9875L424.07812 22.9875L424.07812 26.8L422.9375 26.8ZM424.07812 22.003124L426.53125 22.003124Q427.29688 22.003124 427.73438 21.846874Q428.1875 21.675 428.40625 21.33125Q428.64062 20.971874 428.64062 20.55Q428.64062 19.940624 428.1875 19.55Q427.75 19.159374 426.79688 19.159374L424.07812 19.159374L424.07812 22.003124ZM431.95312 26.8L431.95312 18.20625L438.15625 18.20625L438.15625 19.221874L433.09375 19.221874L433.09375 21.846874L437.84375 21.846874L437.84375 22.8625L433.09375 22.8625L433.09375 25.784374L438.35938 25.784374L438.35938 26.8L431.95312 26.8ZM439.92188 26.8L439.92188 18.20625L442.89062 18.20625Q443.89062 18.20625 444.42188 18.33125Q445.15625 18.503124 445.67188 18.940624Q446.35938 19.51875 446.6875 20.425Q447.03125 21.315624 447.03125 22.45625Q447.03125 23.440624 446.79688 24.190624Q446.57812 24.940624 446.21875 25.440624Q445.85938 25.940624 445.42188 26.221874Q445.0 26.503124 444.40625 26.659374Q443.8125 26.8 443.03125 26.8L439.92188 26.8ZM441.0625 25.784374L442.89062 25.784374Q443.75 25.784374 444.23438 25.628124Q444.71875 25.471874 445.0 25.175Q445.40625 24.784374 445.625 24.096874Q445.85938 23.409374 445.85938 22.440624Q445.85938 21.096874 445.40625 20.378124Q444.96875 19.64375 444.34375 19.39375Q443.875 19.221874 442.875 19.221874L441.0625 19.221874L441.0625 25.784374Z" fill-rule="nonzero"/><path fill="#ea4335" d="M464.0 17.8C464.0 17.247715 464.44772 16.8 465.0 16.8L475.0 16.8C475.55228 16.8 476.0 17.247715 476.0 17.8L476.0 27.8C476.0 28.352285 475.55228 28.8 475.0 28.8L465.0 28.8C464.44772 28.8 464.0 28.352285 464.0 27.8Z" fill-rule="nonzero"/><path fill="#1a1a1a" d="M485.125 26.8L485.125 18.20625L486.25 18.20625L486.25 26.8L485.125 26.8ZM487.89062 26.8L487.89062 18.20625L489.60938 18.20625L491.64062 24.284374Q491.92188 25.14375 492.04688 25.565624Q492.1875 25.096874 492.5 24.190624L494.5625 18.20625L496.09375 18.20625L496.09375 26.8L495.0 26.8L495.0 19.6125L492.5 26.8L491.46875 26.8L488.98438 19.4875L488.98438 26.8L487.89062 26.8ZM496.89062 26.8L496.89062 18.20625L498.60938 18.20625L500.64062 24.284374Q500.92188 25.14375 501.04688 25.565624Q501.1875 25.096874 501.5 24.190624L503.5625 18.20625L505.09375 18.20625L505.09375 26.8L504.0 26.8L504.0 19.6125L501.5 26.8L500.46875 26.8L497.98438 19.4875L497.98438 26.8L496.89062 26.8ZM505.95312 26.8L505.95312 18.20625L512.15625 18.20625L512.15625 19.221874L507.09375 19.221874L507.09375 21.846874L511.84375 21.846874L511.84375 22.8625L507.09375 22.8625L507.09375 25.784374L512.3594 25.784374L512.3594 26.8L505.95312 26.8ZM513.9219 26.8L513.9219 18.20625L516.8906 18.20625Q517.8906 18.20625 518.4219 18.33125Q519.15625 18.503124 519.6719 18.940624Q520.3594 19.51875 520.6875 20.425Q521.03125 21.315624 521.03125 22.45625Q521.03125 23.440624 520.7969 24.190624Q520.5781 24.940624 520.21875 25.440624Q519.8594 25.940624 519.4219 26.221874Q519.0 26.503124 518.40625 26.659374Q517.8125 26.8 517.03125 26.8L513.9219 26.8ZM515.0625 25.784374L516.8906 25.784374Q517.75 25.784374 518.2344 25.628124Q518.71875 25.471874 519.0 25.175Q519.40625 24.784374 519.625 24.096874Q519.8594 23.409374 519.8594 22.440624Q519.8594 21.096874 519.40625 20.378124Q518.96875 19.64375 518.34375 19.39375Q517.875 19.221874 516.875 19.221874L515.0625 19.221874L515.0625 25.784374ZM523.125 26.8L523.125 18.20625L524.25 18.20625L524.25 26.8L523.125 26.8ZM524.9844 26.8L528.28125 18.20625L529.5 18.20625L533.0156 26.8L531.7344 26.8L530.71875 24.190624L527.1406 24.190624L526.1875 26.8L524.9844 26.8ZM527.46875 23.26875L530.375 23.26875L529.4844 20.89375Q529.0625 19.815624 528.875 19.1125Q528.7031 19.940624 528.40625 20.753124L527.46875 23.26875ZM535.1094 26.8L535.1094 19.221874L532.28125 19.221874L532.28125 18.20625L539.09375 18.20625L539.09375 19.221874L536.25 19.221874L536.25 26.8L535.1094 26.8ZM539.9531 26.8L539.9531 18.20625L546.15625 18.20625L546.15625 19.221874L541.09375 19.221874L541.09375 21.846874L545.84375 21.846874L545.84375 22.8625L541.09375 22.8625L541.09375 25.784374L546.3594 25.784374L546.3594 26.8L539.9531 26.8Z" fill-rule="nonzero"/><path fill="#fbbc04" d="M563.0 17.8C563.0 17.247715 563.4477 16.8 564.0 16.8L574.0 16.8C574.5523 16.8 575.0 17.247715 575.0 17.8L575.0 27.8C575.0 28.352285 574.5523 28.8 574.0 28.8L564.0 28.8C563.4477 28.8 563.0 28.352285 563.0 27.8Z" fill-rule="nonzero"/><path fill="#1a1a1a" d="M590.0625 23.784374L591.1875 24.08125Q590.8281 25.471874 589.90625 26.20625Q588.9844 26.940624 587.6406 26.940624Q586.25 26.940624 585.375 26.378124Q584.5 25.815624 584.0469 24.753124Q583.59375 23.675 583.59375 22.440624Q583.59375 21.096874 584.1094 20.096874Q584.625 19.096874 585.5625 18.58125Q586.5156 18.065624 587.65625 18.065624Q588.9375 18.065624 589.8125 18.721874Q590.7031 19.378124 591.0469 20.565624L589.9219 20.83125Q589.625 19.89375 589.0469 19.471874Q588.4844 19.034374 587.625 19.034374Q586.6406 19.034374 585.96875 19.51875Q585.3125 19.9875 585.03125 20.784374Q584.7656 21.58125 584.7656 22.440624Q584.7656 23.534374 585.0781 24.346874Q585.40625 25.159374 586.0781 25.565624Q586.75 25.971874 587.5469 25.971874Q588.5 25.971874 589.15625 25.425Q589.8281 24.878124 590.0625 23.784374ZM592.5781 22.6125Q592.5781 20.471874 593.71875 19.26875Q594.875 18.05 596.6875 18.05Q597.8906 18.05 598.84375 18.628124Q599.7969 19.190624 600.2969 20.20625Q600.7969 21.221874 600.7969 22.51875Q600.7969 23.815624 600.2656 24.846874Q599.7344 25.878124 598.7656 26.409374Q597.8125 26.940624 596.6875 26.940624Q595.46875 26.940624 594.5156 26.3625Q593.5625 25.76875 593.0625 24.76875Q592.5781 23.753124 592.5781 22.6125ZM593.75 22.628124Q593.75 24.190624 594.5781 25.08125Q595.4219 25.971874 596.6875 25.971874Q597.96875 25.971874 598.7969 25.08125Q599.625 24.175 599.625 22.503124Q599.625 21.45625 599.2656 20.675Q598.9219 19.89375 598.2344 19.471874Q597.5469 19.034374 596.7031 19.034374Q595.5 19.034374 594.625 19.8625Q593.75 20.690624 593.75 22.628124ZM601.9219 26.8L601.9219 18.20625L603.0781 18.20625L607.59375 24.95625L607.59375 18.20625L608.6875 18.20625L608.6875 26.8L607.5156 26.8L603.0 20.05L603.0 26.8L601.9219 26.8ZM617.0625 23.784374L618.1875 24.08125Q617.8281 25.471874 616.90625 26.20625Q615.9844 26.940624 614.6406 26.940624Q613.25 26.940624 612.375 26.378124Q611.5 25.815624 611.0469 24.753124Q610.59375 23.675 610.59375 22.440624Q610.59375 21.096874 611.1094 20.096874Q611.625 19.096874 612.5625 18.58125Q613.5156 18.065624 614.65625 18.065624Q615.9375 18.065624 616.8125 18.721874Q617.7031 19.378124 618.0469 20.565624L616.9219 20.83125Q616.625 19.89375 616.0469 19.471874Q615.4844 19.034374 614.625 19.034374Q613.6406 19.034374 612.96875 19.51875Q612.3125 19.9875 612.03125 20.784374Q611.7656 21.58125 611.7656 22.440624Q611.7656 23.534374 612.0781 24.346874Q612.40625 25.159374 613.0781 25.565624Q613.75 25.971874 614.5469 25.971874Q615.5 25.971874 616.15625 25.425Q616.8281 24.878124 617.0625 23.784374ZM625.5625 18.20625L626.7031 18.20625L626.7031 23.175Q626.7031 24.471874 626.40625 25.2375Q626.1094 25.9875 625.34375 26.471874Q624.5781 26.940624 623.34375 26.940624Q622.1406 26.940624 621.3594 26.534374Q620.59375 26.1125 620.2656 25.33125Q619.9375 24.534374 619.9375 23.175L619.9375 18.20625L621.0781 18.20625L621.0781 23.159374Q621.0781 24.284374 621.28125 24.815624Q621.5 25.346874 622.0 25.64375Q622.5156 25.925 623.25 25.925Q624.5 25.925 625.03125 25.3625Q625.5625 24.784374 625.5625 23.159374L625.5625 18.20625ZM628.9375 26.8L628.9375 18.20625L632.75 18.20625Q633.90625 18.20625 634.5 18.440624Q635.09375 18.675 635.4531 19.26875Q635.8125 19.846874 635.8125 20.55Q635.8125 21.471874 635.21875 22.096874Q634.625 22.721874 633.3906 22.89375Q633.84375 23.1125 634.0781 23.315624Q634.5781 23.76875 635.0156 24.45625L636.5156 26.8L635.0781 26.8L633.9531 25.01875Q633.4531 24.2375 633.125 23.83125Q632.8125 23.425 632.5469 23.26875Q632.2969 23.096874 632.03125 23.01875Q631.84375 22.9875 631.40625 22.9875L630.0781 22.9875L630.0781 26.8L628.9375 26.8ZM630.0781 22.003124L632.53125 22.003124Q633.2969 22.003124 633.7344 21.846874Q634.1875 21.675 634.40625 21.33125Q634.6406 20.971874 634.6406 20.55Q634.6406 19.940624 634.1875 19.55Q633.75 19.159374 632.7969 19.159374L630.0781 19.159374L630.0781 22.003124ZM637.9375 26.8L637.9375 18.20625L641.75 18.20625Q642.90625 18.20625 643.5 18.440624Q644.09375 18.675 644.4531 19.26875Q644.8125 19.846874 644.8125 20.55Q644.8125 21.471874 644.21875 22.096874Q643.625 22.721874 642.3906 22.89375Q642.84375 23.1125 643.0781 23.315624Q643.5781 23.76875 644.0156 24.45625L645.5156 26.8L644.0781 26.8L642.9531 25.01875Q642.4531 24.2375 642.125 23.83125Q641.8125 23.425 641.5469 23.26875Q641.2969 23.096874 641.03125 23.01875Q640.84375 22.9875 640.40625 22.9875L639.0781 22.9875L639.0781 26.8L637.9375 26.8ZM639.0781 22.003124L641.53125 22.003124Q642.2969 22.003124 642.7344 21.846874Q643.1875 21.675 643.40625 21.33125Q643.6406 20.971874 643.6406 20.55Q643.6406 19.940624 643.1875 19.55Q642.75 19.159374 641.7969 19.159374L639.0781 19.159374L639.0781 22.003124ZM646.9531 26.8L646.9531 18.20625L653.15625 18.20625L653.15625 19.221874L648.09375 19.221874L648.09375 21.846874L652.84375 21.846874L652.84375 22.8625L648.09375 22.8625L648.09375 25.784374L653.3594 25.784374L653.3594 26.8L646.9531 26.8ZM654.9219 26.8L654.9219 18.20625L656.0781 18.20625L660.59375 24.95625L660.59375 18.20625L661.6875 18.20625L661.6875 26.8L660.5156 26.8L656.0 20.05L656.0 26.8L654.9219 26.8ZM666.1094 26.8L666.1094 19.221874L663.28125 19.221874L663.28125 18.20625L670.09375 18.20625L670.09375 19.221874L667.25 19.221874L667.25 26.8L666.1094 26.8Z" fill-rule="nonzero"/></svg>